<svg version="1.1" viewBox="0.0 0.0 500.0 500.0" fill="none" stroke="none" stroke-linecap="square" stroke-miterlimit="10" xmlns:xlink="http://www.w3.org/1999/xlink" xmlns="http://www.w3.org/2000/svg"><clipPath id="p.0"><path d="m0 0l500.0 0l0 500.0l-500.0 0l0 -500.0z" clip-rule="nonzero"/></clipPath><g clip-path="url(#p.0)"><path fill="#000000" fill-opacity="0.0" d="m0 0l500.0 0l0 500.0l-500.0 0z" fill-rule="evenodd"/><path fill="#003c64" d="m20.790026 57.00856l0 0c0 -20.22475 16.395403 -36.620155 36.620155 -36.620155l146.47623 0l0 0c9.712265 0 19.026749 3.858183 25.894348 10.725794c6.8676147 6.867611 10.7258 16.18209 10.7258 25.89436l0 146.85417c0 20.224762 -16.395401 36.620163 -36.620148 36.620163l-146.47623 0c-20.224754 0 -36.620155 -16.395401 -36.620155 -36.620163z" fill-rule="evenodd"/><path stroke="#ffffff" stroke-width="4.0" stroke-linejoin="round" stroke-linecap="butt" d="m20.790026 57.00856l0 0c0 -20.22475 16.395403 -36.620155 36.620155 -36.620155l146.47623 0l0 0c9.712265 0 19.026749 3.858183 25.894348 10.725794c6.8676147 6.867611 10.7258 16.18209 10.7258 25.89436l0 146.85417c0 20.224762 -16.395401 36.620163 -36.620148 36.620163l-146.47623 0c-20.224754 0 -36.620155 -16.395401 -36.620155 -36.620163z" fill-rule="evenodd"/><path fill="#ffffff" d="m122.84864 180.0294q-9.46875 0 -17.40625 -3.53125q-7.921875 -3.53125 -13.0 -10.0625l12.0 -14.40625q7.609375 10.28125 17.34375 10.28125q13.203133 0 13.203133 -15.46875l0 -44.406258l-32.812508 0l0 -17.328125l54.265633 0l0 60.531258q0 17.203125 -8.53125 25.796875q-8.53125 8.59375 -25.062508 8.59375z" fill-rule="nonzero"/><path fill="#003c64" d="m259.49344 57.008564l0 0c0 -20.224754 16.395416 -36.620155 36.620148 -36.620155l146.47623 0l0 0c9.71228 0 19.026764 3.8581848 25.894379 10.725796c6.867584 6.867613 10.725769 16.182093 10.725769 25.894361l0 146.85419c0 20.224747 -16.395386 36.620148 -36.620148 36.620148l-146.47623 0c-20.224731 0 -36.620148 -16.395401 -36.620148 -36.620148z" fill-rule="evenodd"/><path stroke="#ffffff" stroke-width="4.0" stroke-linejoin="round" stroke-linecap="butt" d="m259.49344 57.008564l0 0c0 -20.224754 16.395416 -36.620155 36.620148 -36.620155l146.47623 0l0 0c9.71228 0 19.026764 3.8581848 25.894379 10.725796c6.867584 6.867613 10.725769 16.182093 10.725769 25.894361l0 146.85419c0 20.224747 -16.395386 36.620148 -36.620148 36.620148l-146.47623 0c-20.224731 0 -36.620148 -16.395401 -36.620148 -36.620148z" fill-rule="evenodd"/><path fill="#ffffff" d="m401.6875 178.43565l-0.140625 -56.000008l-27.46875 46.140633l-9.71875 0l-27.34375 -44.937508l0 54.796883l-20.265625 0l0 -93.32813l17.875 0l34.921875 58.000008l34.40625 -58.000008l17.734375 0l0.265625 93.32813l-20.265625 0z" fill-rule="nonzero"/><path fill="#003c64" d="m20.790026 296.15283l0 0c0 -20.224762 16.395403 -36.620148 36.620155 -36.620148l146.47623 0l0 0c9.712265 0 19.026749 3.8581848 25.894348 10.725769c6.8676147 6.8676147 10.7258 16.182098 10.7258 25.894379l0 146.85416c0 20.224762 -16.395401 36.62018 -36.620148 36.62018l-146.47623 0c-20.224754 0 -36.620155 -16.395416 -36.620155 -36.62018z" fill-rule="evenodd"/><path stroke="#ffffff" stroke-width="4.0" stroke-linejoin="round" stroke-linecap="butt" d="m20.790026 296.15283l0 0c0 -20.224762 16.395403 -36.620148 36.620155 -36.620148l146.47623 0l0 0c9.712265 0 19.026749 3.8581848 25.894348 10.725769c6.8676147 6.8676147 10.7258 16.182098 10.7258 25.894379l0 146.85416c0 20.224762 -16.395401 36.62018 -36.620148 36.62018l-146.47623 0c-20.224754 0 -36.620155 -16.395416 -36.620155 -36.62018z" fill-rule="evenodd"/><path fill="#ffffff" d="m162.98409 417.57993l-0.140625 -56.0l-27.46875 46.140625l-9.718758 0l-27.34375 -44.9375l0 54.796875l-20.265625 0l0 -93.328125l17.875 0l34.921883 58.0l34.40625 -58.0l17.734375 0l0.265625 93.328125l-20.265625 0z" fill-rule="nonzero"/><path fill="#003c64" d="m259.49344 296.15283l0 0c0 -20.224762 16.395416 -36.620148 36.620148 -36.620148l146.47623 0l0 0c9.71228 0 19.026764 3.8581848 25.894379 10.725769c6.867584 6.8676147 10.725769 16.182098 10.725769 25.894379l0 146.85419c0 20.224731 -16.395386 36.620148 -36.620148 36.620148l-146.47623 0c-20.224731 0 -36.620148 -16.395416 -36.620148 -36.620148z" fill-rule="evenodd"/><path stroke="#ffffff" stroke-width="4.0" stroke-linejoin="round" stroke-linecap="butt" d="m259.49344 296.15283l0 0c0 -20.224762 16.395416 -36.620148 36.620148 -36.620148l146.47623 0l0 0c9.71228 0 19.026764 3.8581848 25.894379 10.725769c6.867584 6.8676147 10.725769 16.182098 10.725769 25.894379l0 146.85419c0 20.224731 -16.395386 36.620148 -36.620148 36.620148l-146.47623 0c-20.224731 0 -36.620148 -16.395416 -36.620148 -36.620148z" fill-rule="evenodd"/><path fill="#ffffff" d="m420.41718 324.2518l-40.40625 93.328125l-21.328125 0l-40.265625 -93.328125l23.328125 0l28.40625 66.65625l28.796875 -66.65625l21.46875 0z" fill-rule="nonzero"/></g></svg>