<svg version="1.1" viewBox="0.0 0.0 3840.0 2160.0" fill="none" stroke="none" stroke-linecap="square" stroke-miterlimit="10" xmlns:xlink="http://www.w3.org/1999/xlink" xmlns="http://www.w3.org/2000/svg"><clipPath id="g75d82a8b7c_0_423.0"><path d="m0 0l3840.0 0l0 2160.0l-3840.0 0l0 -2160.0z" clip-rule="nonzero"/></clipPath><g clip-path="url(#g75d82a8b7c_0_423.0)"><path fill="#ffffff" d="m0 0l3840.0 0l0 2160.0l-3840.0 0z" fill-rule="evenodd"/><path fill="#4ba173" d="m0 2118.9292l3840.0 0l0 41.0708l-3840.0 0z" fill-rule="evenodd"/><path fill="#000000" fill-opacity="0.0" d="m124.12861 227.71916l0 180.66142" fill-rule="evenodd"/><path stroke="#4ba173" stroke-width="16.0" stroke-linejoin="round" stroke-linecap="butt" d="m124.12861 227.71916l0 180.66142" fill-rule="evenodd"/><path fill="#000000" fill-opacity="0.0" d="m130.89764 186.88715l3578.2046 0l0 240.50394l-3578.2046 0z" fill-rule="evenodd"/><path fill="#202729" d="m180.53827 368.24713l0 -99.609375l34.046875 0q22.703125 0 36.890625 14.125q14.1875 14.109375 14.1875 35.765625q0 21.796875 -14.265625 35.765625q-14.25 13.953125 -36.8125 13.953125l-34.046875 0zm34.046875 -11.046875q17.03125 0 27.625 -10.671875q10.609375 -10.6875 10.609375 -28.0q0 -17.328125 -10.453125 -28.078125q-10.453125 -10.75 -27.78125 -10.75l-21.640625 0l0 77.5l21.640625 0zm67.79538 29.109375q2.390625 1.203125 6.125 1.203125q3.734375 0 6.265625 -1.578125q2.546875 -1.5625 4.484375 -6.046875l4.78125 -10.890625l-30.15625 -72.875l12.09375 0l24.03125 59.140625l23.90625 -59.140625l12.234375 0l-36.140625 86.765625q-5.96875 14.328125 -21.203125 14.625q-4.328125 0 -8.203125 -1.046875l1.78125 -10.15625zm124.09274 -18.0625l0 -47.1875q0 -9.5625 -4.40625 -13.140625q-4.40625 -3.578125 -11.71875 -3.578125q-6.2656555 0 -12.3125305 3.359375q-6.046875 3.359375 -9.03125 7.828125l0 52.71875l-11.203125 0l0 -72.125l11.203125 0l0 10.453125q4.625 -5.375 11.421875 -8.8125q6.7969055 -3.4375 14.2500305 -3.4375q23.0 0 23.0 23.296875l0 50.625l-11.203125 0zm78.70172 0l0 -8.21875q-9.109375 10.015625 -23.890625 10.015625q-10.90625 0 -18.078125 -6.875q-7.15625 -6.875 -7.15625 -17.015625q0 -10.453125 7.09375 -17.09375q7.09375 -6.65625 18.140625 -6.65625q15.53125 0 23.890625 9.859375l0 -13.0q0 -7.3125 -5.15625 -11.265625q-5.140625 -3.96875 -13.0625 -3.96875q-12.6875 0 -22.09375 10.015625l-5.234375 -7.765625q11.5 -11.953125 28.828125 -11.953125q13.28125 0 20.59375 6.421875q7.328125 6.421875 7.328125 17.921875l0 49.578125l-11.203125 0zm-19.859375 -6.265625q13.28125 0 19.859375 -8.96875l0 -13.59375q-6.578125 -8.953125 -19.859375 -8.953125q-7.921875 0 -12.84375 4.40625q-4.921875 4.40625 -4.921875 11.421875q0 6.875 4.921875 11.28125q4.921875 4.40625 12.84375 4.40625zm140.52411 6.265625l0 -48.984375q0 -14.921875 -13.296875 -14.921875q-5.671875 0 -10.984375 3.359375q-5.296875 3.359375 -8.125 7.6875l0 52.859375l-11.203125 0l0 -48.984375q0 -14.921875 -13.296875 -14.921875q-5.515625 0 -10.75 3.4375q-5.21875 3.421875 -8.203125 7.75l0 52.71875l-11.203125 0l0 -72.125l11.203125 0l0 10.453125q2.53125 -4.328125 9.546875 -8.28125q7.015625 -3.96875 13.734375 -3.96875q8.375 0 13.078125 3.890625q4.703125 3.875 6.34375 9.546875q3.734375 -5.8125 10.59375 -9.625q6.875 -3.8125 13.59375 -3.8125q20.15625 0 20.15625 21.8125l0 52.109375l-11.1875 0zm39.11035 -82.421875q-2.984375 0 -5.21875 -2.171875q-2.234375 -2.171875 -2.234375 -5.296875q0 -3.140625 2.234375 -5.375q2.234375 -2.25 5.21875 -2.25q3.140625 0 5.375 2.25q2.25 2.234375 2.25 5.375q0 3.125 -2.25 5.296875q-2.234375 2.171875 -5.375 2.171875zm-5.515625 82.421875l0 -72.125l11.203125 0l0 72.125l-11.203125 0zm65.39569 1.796875q-15.828125 0 -25.90625 -10.75q-10.078125 -10.765625 -10.078125 -27.1875q0 -16.28125 10.078125 -27.03125q10.078125 -10.75 25.90625 -10.75q16.734375 0 26.4375 12.546875l-7.46875 6.875q-6.859375 -9.40625 -18.359375 -9.40625q-11.0625 0 -18.0 7.6875q-6.9375 7.6875 -6.9375 20.078125q0 12.546875 6.859375 20.234375q6.875 7.6875 18.078125 7.6875q11.34375 0 18.359375 -9.40625l7.46875 6.875q-9.703125 12.546875 -26.4375 12.546875zm113.19415 0q-16.28125 0 -26.515625 -10.59375q-10.21875 -10.609375 -10.21875 -27.34375q0 -15.96875 10.15625 -26.875q10.15625 -10.90625 25.390625 -10.90625q15.53125 0 25.078125 10.75q9.5625 10.75 9.5625 27.9375l0 2.828125l-58.390625 0q0.59375 11.046875 7.984375 18.0q7.40625 6.9375 18.0 6.9375q13.140625 0 22.25 -9.109375l5.375 7.3125q-11.046875 11.0625 -28.671875 11.0625zm22.40625 -42.421875q0 -10.0 -6.578125 -17.015625q-6.5625 -7.015625 -17.171875 -7.015625q-10.0 0 -16.65625 7.015625q-6.640625 7.015625 -6.9375 17.015625l47.34375 0zm75.85303 40.625l-21.65625 -29.5625l-21.640625 29.5625l-12.84375 0l27.625 -37.03125l-26.140625 -35.09375l13.0 0l20.0 27.46875l20.015625 -27.46875l12.984375 0l-26.125 35.09375l27.78125 37.03125l-13.0 0zm52.860657 1.796875q-16.28125 0 -26.515625 -10.59375q-10.21875 -10.609375 -10.21875 -27.34375q0 -15.96875 10.15625 -26.875q10.15625 -10.90625 25.390625 -10.90625q15.53125 0 25.078125 10.75q9.5625 10.75 9.5625 27.9375l0 2.828125l-58.390625 0q0.59375 11.046875 7.984375 18.0q7.40625 6.9375 18.0 6.9375q13.140625 0 22.25 -9.109375l5.375 7.3125q-11.046875 11.0625 -28.671875 11.0625zm22.40625 -42.421875q0 -10.0 -6.578125 -17.015625q-6.5625 -7.015625 -17.171875 -7.015625q-10.0 0 -16.65625 7.015625q-6.640625 7.015625 -6.9375 17.015625l47.34375 0zm60.915466 42.421875q-15.828125 0 -25.90625 -10.75q-10.078064 -10.765625 -10.078064 -27.1875q0 -16.28125 10.078064 -27.03125q10.078125 -10.75 25.90625 -10.75q16.734375 0 26.4375 12.546875l-7.46875 6.875q-6.859375 -9.40625 -18.359375 -9.40625q-11.0625 0 -18.0 7.6875q-6.9375 7.6875 -6.9375 20.078125q0 12.546875 6.859375 20.234375q6.875 7.6875 18.078125 7.6875q11.34375 0 18.359375 -9.40625l7.46875 6.875q-9.703125 12.546875 -26.4375 12.546875zm90.79248 -1.796875l0 -10.15625q-4.171875 4.78125 -10.890625 8.375q-6.71875 3.578125 -14.78125 3.578125q-23.0 0 -23.0 -23.0l0 -50.921875l11.203125 0l0 47.484375q0 8.515625 3.875 12.46875q3.890625 3.953125 12.25 3.953125q6.5625 0 12.390625 -3.28125q5.828125 -3.28125 8.953125 -7.609375l0 -53.015625l11.203125 0l0 72.125l-11.203125 0zm51.82666 1.796875q-15.984375 0 -15.984375 -16.875l0 -47.1875l-11.9375 0l0 -9.859375l11.9375 0l0 -19.71875l11.203125 0l0 19.71875l14.625 0l0 9.859375l-14.625 0l0 44.796875q0 4.03125 1.78125 6.640625q1.796875 2.609375 5.53125 2.609375q4.625 0 7.625 -2.984375l3.28125 8.359375q-4.625 4.640625 -13.4375 4.640625zm31.199463 -84.21875q-2.984375 0 -5.21875 -2.171875q-2.234375 -2.171875 -2.234375 -5.296875q0 -3.140625 2.234375 -5.375q2.234375 -2.25 5.21875 -2.25q3.140625 0 5.375 2.25q2.25 2.234375 2.25 5.375q0 3.125 -2.25 5.296875q-2.234375 2.171875 -5.375 2.171875zm-5.515625 82.421875l0 -72.125l11.203125 0l0 72.125l-11.203125 0zm65.09888 1.796875q-15.671875 0 -25.6875 -10.671875q-10.0 -10.6875 -10.0 -27.265625q0 -16.71875 10.0 -27.25q10.015625 -10.53125 25.6875 -10.53125q15.6875 0 25.6875 10.53125q10.0 10.53125 10.0 27.25q0 16.578125 -10.0 27.265625q-10.0 10.671875 -25.6875 10.671875zm0 -10.015625q10.453125 0 17.171875 -7.828125q6.71875 -7.84375 6.71875 -20.09375q0 -12.09375 -6.71875 -19.921875q-6.71875 -7.84375 -17.171875 -7.84375q-10.453125 0 -17.25 7.765625q-6.78125 7.765625 -6.78125 20.0q0 12.390625 6.71875 20.15625q6.71875 7.765625 17.3125 7.765625zm102.58765 8.21875l0 -47.1875q0 -9.5625 -4.40625 -13.140625q-4.40625 -3.578125 -11.71875 -3.578125q-6.265625 0 -12.3125 3.359375q-6.046875 3.359375 -9.03125 7.828125l0 52.71875l-11.203125 0l0 -72.125l11.203125 0l0 10.453125q4.625 -5.375 11.421875 -8.8125q6.796875 -3.4375 14.25 -3.4375q23.0 0 23.0 23.296875l0 50.625l-11.203125 0zm77.65039 -82.421875q-2.984375 0 -5.21875 -2.171875q-2.234375 -2.171875 -2.234375 -5.296875q0 -3.140625 2.234375 -5.375q2.234375 -2.25 5.21875 -2.25q3.140625 0 5.375 2.25q2.25 2.234375 2.25 5.375q0 3.125 -2.25 5.296875q-2.234375 2.171875 -5.375 2.171875zm-5.515625 82.421875l0 -72.125l11.203125 0l0 72.125l-11.203125 0zm56.442627 1.796875q-18.375 0 -29.125 -11.359375l5.828125 -8.0625q3.578125 4.1875 9.921875 7.25q6.359375 3.0625 13.828125 3.0625q8.359375 0 12.6875 -3.5q4.328125 -3.515625 4.328125 -8.90625q0 -4.765625 -4.703125 -7.53125q-4.703125 -2.765625 -17.546875 -5.75q-10.890625 -2.234375 -16.640625 -7.09375q-5.75 -4.859375 -5.75 -13.0625q0 -9.109375 7.3125 -14.9375q7.3125 -5.828125 19.5625 -5.828125q16.28125 0 26.734375 10.453125l-5.234375 7.765625q-3.28125 -3.875 -8.890625 -6.484375q-5.59375 -2.625 -12.609375 -2.625q-7.46875 0 -11.734375 3.296875q-4.25 3.28125 -4.25 8.0625q0 4.328125 4.78125 6.875q4.78125 2.53125 17.625 5.21875q10.890625 2.53125 16.5625 7.6875q5.6875 5.15625 5.6875 13.65625q0 10.015625 -7.765625 15.921875q-7.765625 5.890625 -20.609375 5.890625zm130.21436 -1.796875l0 -8.21875q-9.109375 10.015625 -23.890625 10.015625q-10.90625 0 -18.078125 -6.875q-7.15625 -6.875 -7.15625 -17.015625q0 -10.453125 7.09375 -17.09375q7.09375 -6.65625 18.140625 -6.65625q15.53125 0 23.890625 9.859375l0 -13.0q0 -7.3125 -5.15625 -11.265625q-5.140625 -3.96875 -13.0625 -3.96875q-12.6875 0 -22.09375 10.015625l-5.234375 -7.765625q11.5 -11.953125 28.828125 -11.953125q13.28125 0 20.59375 6.421875q7.328125 6.421875 7.328125 17.921875l0 49.578125l-11.203125 0zm-19.859375 -6.265625q13.28125 0 19.859375 -8.96875l0 -13.59375q-6.578125 -8.953125 -19.859375 -8.953125q-7.921875 0 -12.84375 4.40625q-4.921875 4.40625 -4.921875 11.421875q0 6.875 4.921875 11.28125q4.921875 4.40625 12.84375 4.40625zm114.83215 8.0625q-18.375 0 -29.125 -11.359375l5.828125 -8.0625q3.578125 4.1875 9.921875 7.25q6.359375 3.0625 13.828125 3.0625q8.359375 0 12.6875 -3.5q4.328125 -3.515625 4.328125 -8.90625q0 -4.765625 -4.703125 -7.53125q-4.703125 -2.765625 -17.546875 -5.75q-10.890625 -2.234375 -16.640625 -7.09375q-5.75 -4.859375 -5.75 -13.0625q0 -9.109375 7.3125 -14.9375q7.3125 -5.828125 19.5625 -5.828125q16.28125 0 26.734375 10.453125l-5.234375 7.765625q-3.28125 -3.875 -8.890625 -6.484375q-5.59375 -2.625 -12.609375 -2.625q-7.46875 0 -11.734375 3.296875q-4.25 3.28125 -4.25 8.0625q0 4.328125 4.78125 6.875q4.78125 2.53125 17.625 5.21875q10.890625 2.53125 16.5625 7.6875q5.6875 5.15625 5.6875 13.65625q0 10.015625 -7.765625 15.921875q-7.765625 5.890625 -20.609375 5.890625zm64.81262 0q-15.984375 0 -15.984375 -16.875l0 -47.1875l-11.9375 0l0 -9.859375l11.9375 0l0 -19.71875l11.203125 0l0 19.71875l14.625 0l0 9.859375l-14.625 0l0 44.796875q0 4.03125 1.78125 6.640625q1.796875 2.609375 5.53125 2.609375q4.625 0 7.625 -2.984375l3.28125 8.359375q-4.625 4.640625 -13.4375 4.640625zm25.683716 -1.796875l0 -72.125l11.203125 0l0 11.640625q10.0 -13.140625 24.03125 -13.140625l0 11.5l-4.46875 -0.4375q-5.078125 0 -11.203125 3.65625q-6.125 3.65625 -8.359375 7.84375l0 51.0625l-11.203125 0zm94.37207 0l0 -8.21875q-9.109375 10.015625 -23.890625 10.015625q-10.90625 0 -18.078125 -6.875q-7.15625 -6.875 -7.15625 -17.015625q0 -10.453125 7.09375 -17.09375q7.09375 -6.65625 18.140625 -6.65625q15.53125 0 23.890625 9.859375l0 -13.0q0 -7.3125 -5.15625 -11.265625q-5.140625 -3.96875 -13.0625 -3.96875q-12.6875 0 -22.09375 10.015625l-5.234375 -7.765625q11.5 -11.953125 28.828125 -11.953125q13.28125 0 20.59375 6.421875q7.328125 6.421875 7.328125 17.921875l0 49.578125l-11.203125 0zm-19.859375 -6.265625q13.28125 0 19.859375 -8.96875l0 -13.59375q-6.578125 -8.953125 -19.859375 -8.953125q-7.921875 0 -12.84375 4.40625q-4.921875 4.40625 -4.921875 11.421875q0 6.875 4.921875 11.28125q4.921875 4.40625 12.84375 4.40625zm71.6803 8.0625q-15.984375 0 -15.984375 -16.875l0 -47.1875l-11.9375 0l0 -9.859375l11.9375 0l0 -19.71875l11.203125 0l0 19.71875l14.625 0l0 9.859375l-14.625 0l0 44.796875q0 4.03125 1.78125 6.640625q1.796875 2.609375 5.53125 2.609375q4.625 0 7.625 -2.984375l3.28125 8.359375q-4.625 4.640625 -13.4375 4.640625zm58.23059 0q-16.28125 0 -26.515625 -10.59375q-10.21875 -10.609375 -10.21875 -27.34375q0 -15.96875 10.15625 -26.875q10.15625 -10.90625 25.390625 -10.90625q15.53125 0 25.078125 10.75q9.5625 10.75 9.5625 27.9375l0 2.828125l-58.390625 0q0.59375 11.046875 7.984375 18.0q7.40625 6.9375 18.0 6.9375q13.140625 0 22.25 -9.109375l5.375 7.3125q-11.046875 11.0625 -28.671875 11.0625zm22.40625 -42.421875q0 -10.0 -6.578125 -17.015625q-6.5625 -7.015625 -17.171875 -7.015625q-10.0 0 -16.65625 7.015625q-6.640625 7.015625 -6.9375 17.015625l47.34375 0zm58.087402 69.890625q-9.265625 0 -15.984375 -2.25q-6.71875 -2.234375 -13.140625 -8.5l5.671875 -8.359375q4.484375 5.375 10.078125 7.609375q5.609375 2.25 13.375 2.25q11.046875 0 17.09375 -5.75q6.046875 -5.75 6.046875 -15.90625l0 -10.3125q-3.875 5.53125 -10.234375 9.1875q-6.34375 3.65625 -13.953125 3.65625q-14.640625 0 -23.375 -10.296875q-8.734375 -10.3125 -8.734375 -27.03125q0 -17.328125 8.875 -27.40625q8.890625 -10.078125 23.234375 -10.078125q14.9375 0 24.1875 12.703125l0 -10.90625l11.203125 0l0 70.03125q0 15.234375 -8.96875 23.296875q-8.953125 8.0625 -25.375 8.0625zm1.640625 -38.21875q6.125 0 12.171875 -3.28125q6.046875 -3.296875 9.328125 -8.515625l0 -31.515625q-3.28125 -5.21875 -9.40625 -8.421875q-6.125 -3.21875 -12.09375 -3.21875q-10.609375 0 -16.875 7.609375q-6.265625 7.609375 -6.265625 19.859375q0 12.390625 6.421875 19.9375q6.421875 7.546875 16.71875 7.546875zm52.85498 27.015625q2.390625 1.203125 6.125 1.203125q3.734375 0 6.265625 -1.578125q2.546875 -1.5625 4.484375 -6.046875l4.78125 -10.890625l-30.15625 -72.875l12.09375 0l24.03125 59.140625l23.90625 -59.140625l12.234375 0l-36.140625 86.765625q-5.96875 14.328125 -21.203125 14.625q-4.328125 0 -8.203125 -1.046875l1.78125 -10.15625z" fill-rule="nonzero"/><path fill="#4ba173" d="m130.89764 1007.4653l0 0c0 -20.030457 16.23793 -36.268433 36.268433 -36.268433l373.66785 0c9.6189575 0 18.843994 3.821167 25.64563 10.622803c6.801697 6.8016357 10.622803 16.026672 10.622803 25.64563l0 145.0694c0 20.030518 -16.237915 36.268433 -36.268433 36.268433l-373.66785 0c-20.030502 0 -36.268433 -16.237915 -36.268433 -36.268433z" fill-rule="evenodd"/><path stroke="#4ba173" stroke-width="1.0" stroke-linejoin="round" stroke-linecap="butt" d="m130.89764 1007.4653l0 0c0 -20.030457 16.23793 -36.268433 36.268433 -36.268433l373.66785 0c9.6189575 0 18.843994 3.821167 25.64563 10.622803c6.801697 6.8016357 10.622803 16.026672 10.622803 25.64563l0 145.0694c0 20.030518 -16.237915 36.268433 -36.268433 36.268433l-373.66785 0c-20.030502 0 -36.268433 -16.237915 -36.268433 -36.268433z" fill-rule="evenodd"/><path fill="#000000" d="m263.73132 1064.44l0 -4.609375q-1.734375 2.375 -4.453125 3.875q-2.71875 1.5 -5.984375 1.5q-6.203125 0 -9.984375 -4.40625q-3.765625 -4.421875 -3.765625 -11.78125q0 -7.421875 3.796875 -11.84375q3.8125 -4.421875 9.953125 -4.421875q3.140625 0 5.859375 1.453125q2.71875 1.4375 4.578125 4.0l0 -16.453064l4.796875 0l0 42.68744l-4.796875 0zm-9.28125 -3.515625q2.875 0 5.4375 -1.40625q2.5625 -1.421875 3.84375 -3.46875l0 -14.015625q-1.28125 -2.046875 -3.84375 -3.515625q-2.5625 -1.46875 -5.4375 -1.46875q-4.484375 0 -7.203125 3.265625q-2.71875 3.265625 -2.71875 8.703125q0 5.3125 2.6875 8.609375q2.6875 3.296875 7.234375 3.296875zm22.721832 11.265625q1.015625 0.5 2.625 0.5q1.59375 0 2.671875 -0.671875q1.09375 -0.671875 1.9375 -2.59375l2.046875 -4.671875l-12.9375 -31.21875l5.1875 0l10.3125 25.34375l10.234375 -25.34375l5.25 0l-15.484375 37.171875q-2.5625 6.15625 -9.09375 6.28125q-1.859375 0 -3.515625 -0.453125l0.765625 -4.34375zm53.172424 -7.75l0 -20.21875q0 -4.09375 -1.890625 -5.625q-1.875 -1.546875 -5.015625 -1.546875q-2.6875 0 -5.28125 1.4375q-2.59375 1.4375 -3.875 3.359375l0 22.59375l-4.796875 0l0 -30.90625l4.796875 0l0 4.46875q1.984375 -2.296875 4.890625 -3.765625q2.921875 -1.484375 6.125 -1.484375q9.859375 0 9.859375 9.984375l0 21.703125l-4.8125 0zm33.732697 0l0 -3.515625q-3.90625 4.28125 -10.234375 4.28125q-4.671875 0 -7.75 -2.9375q-3.0625 -2.953125 -3.0625 -7.296875q0 -4.484375 3.03125 -7.328125q3.046875 -2.84375 7.78125 -2.84375q6.65625 0 10.234375 4.21875l0 -5.5625q0 -3.140625 -2.203125 -4.828125q-2.203125 -1.703125 -5.609375 -1.703125q-5.4375 0 -9.46875 4.28125l-2.234375 -3.328125q4.921875 -5.125 12.34375 -5.125q5.703125 0 8.828125 2.765625q3.140625 2.75 3.140625 7.671875l0 21.25l-4.796875 0zm-8.515625 -2.6875q5.703125 0 8.515625 -3.84375l0 -5.828125q-2.8125 -3.828125 -8.515625 -3.828125q-3.390625 0 -5.5 1.890625q-2.109375 1.875 -2.109375 4.890625q0 2.9375 2.109375 4.828125q2.109375 1.890625 5.5 1.890625zm60.227936 2.6875l0 -20.984375q0 -6.40625 -5.6875 -6.40625q-2.4375 0 -4.71875 1.4375q-2.265625 1.4375 -3.484375 3.296875l0 22.65625l-4.796875 0l0 -20.984375q0 -6.40625 -5.6875 -6.40625q-2.375 0 -4.625 1.46875q-2.234375 1.46875 -3.515625 3.328125l0 22.59375l-4.796875 0l0 -30.90625l4.796875 0l0 4.46875q1.09375 -1.84375 4.09375 -3.546875q3.015625 -1.703125 5.890625 -1.703125q3.59375 0 5.609375 1.671875q2.015625 1.65625 2.71875 4.09375q1.59375 -2.5 4.53125 -4.125q2.953125 -1.640625 5.828125 -1.640625q8.640625 0 8.640625 9.34375l0 22.34375l-4.796875 0zm16.774414 -35.328125q-1.28125 0 -2.25 -0.921875q-0.953125 -0.9375 -0.953125 -2.28125q0 -1.34375 0.953125 -2.296814q0.96875 -0.96875 2.25 -0.96875q1.34375 0 2.296875 0.96875q0.96875 0.95306396 0.96875 2.296814q0 1.34375 -0.96875 2.28125q-0.953125 0.921875 -2.296875 0.921875zm-2.375 35.328125l0 -30.90625l4.796875 0l0 30.90625l-4.796875 0zm28.040588 0.765625q-6.796875 0 -11.109375 -4.609375q-4.3125 -4.609375 -4.3125 -11.640625q0 -6.984375 4.3125 -11.59375q4.3125 -4.609375 11.109375 -4.609375q7.15625 0 11.328125 5.390625l-3.203125 2.9375q-2.953125 -4.03125 -7.875 -4.03125q-4.734375 0 -7.71875 3.296875q-2.96875 3.296875 -2.96875 8.609375q0 5.375 2.9375 8.671875q2.953125 3.296875 7.75 3.296875q4.859375 0 7.875 -4.03125l3.203125 2.9375q-4.171875 5.375 -11.328125 5.375z" fill-rule="nonzero"/><path fill="#000000" d="m290.63815 1142.2056q-6.96875 0 -11.359375 -4.53125q-4.375 -4.546875 -4.375 -11.71875q0 -6.859375 4.34375 -11.53125q4.359375 -4.671875 10.875 -4.671875q6.65625 0 10.75 4.609375q4.109375 4.609375 4.109375 11.96875l0 1.21875l-25.03125 0q0.25 4.734375 3.421875 7.71875q3.171875 2.96875 7.71875 2.96875q5.625 0 9.53125 -3.90625l2.3125 3.140625q-4.75 4.734375 -12.296875 4.734375zm9.609375 -18.171875q0 -4.296875 -2.828125 -7.296875q-2.8125 -3.015625 -7.359375 -3.015625q-4.28125 0 -7.140625 3.015625q-2.84375 3.0 -2.96875 7.296875l20.296875 0zm32.50067 17.40625l-9.28125 -12.671875l-9.28125 12.671875l-5.5 0l11.84375 -15.875l-11.203125 -15.03125l5.5625 0l8.578125 11.765625l8.578125 -11.765625l5.578125 0l-11.203125 15.03125l11.90625 15.875l-5.578125 0zm22.657837 0.765625q-6.96875 0 -11.359375 -4.53125q-4.375 -4.546875 -4.375 -11.71875q0 -6.859375 4.34375 -11.53125q4.359375 -4.671875 10.875 -4.671875q6.65625 0 10.75 4.609375q4.109375 4.609375 4.109375 11.96875l0 1.21875l-25.03125 0q0.25 4.734375 3.421875 7.71875q3.171875 2.96875 7.71875 2.96875q5.625 0 9.53125 -3.90625l2.3125 3.140625q-4.75 4.734375 -12.296875 4.734375zm9.609375 -18.171875q0 -4.296875 -2.828125 -7.296875q-2.8125 -3.015625 -7.359375 -3.015625q-4.28125 0 -7.140625 3.015625q-2.84375 3.0 -2.96875 7.296875l20.296875 0zm26.110046 18.171875q-6.796875 0 -11.109375 -4.609375q-4.3125 -4.609375 -4.3125 -11.640625q0 -6.984375 4.3125 -11.59375q4.3125 -4.609375 11.109375 -4.609375q7.15625 0 11.328125 5.390625l-3.203125 2.9375q-2.953125 -4.03125 -7.875 -4.03125q-4.734375 0 -7.71875 3.296875q-2.96875 3.296875 -2.96875 8.609375q0 5.375 2.9375 8.671875q2.953125 3.296875 7.75 3.296875q4.859375 0 7.875 -4.03125l3.203125 2.9375q-4.171875 5.375 -11.328125 5.375zm25.086182 11.96875q-4.359375 -5.953125 -6.703125 -13.25q-2.328125 -7.296875 -2.328125 -15.03125q0 -7.75 2.328125 -15.015625q2.34375 -7.265625 6.703125 -13.28125l2.875 2.1875q-3.84375 7.671875 -5.25 13.40625q-1.40625 5.71875 -1.40625 12.703125q0 6.90625 1.4375 12.734375q1.4375 5.828125 5.21875 13.3125l-2.875 2.234375zm5.1220093 -2.234375q3.765625 -7.421875 5.234375 -13.46875q1.484375 -6.0625 1.484375 -12.578125q0 -6.53125 -1.453125 -12.453125q-1.4375 -5.921875 -5.265625 -13.65625l2.875 -2.1875q4.421875 6.015625 6.75 13.28125q2.34375 7.265625 2.34375 15.015625q0 7.734375 -2.34375 15.03125q-2.328125 7.296875 -6.75 13.25l-2.875 -2.234375z" fill-rule="nonzero"/><path fill="#63d297" d="m1478.063 629.859l0 0c0 -20.030518 16.237915 -36.268433 36.268433 -36.268433l373.66785 0c9.619019 0 18.843994 3.821106 25.64563 10.622742c6.8016357 6.8016357 10.622803 16.026672 10.622803 25.64569l0 145.0694c0 20.030518 -16.237915 36.268433 -36.268433 36.268433l-373.66785 0c-20.030518 0 -36.268433 -16.237915 -36.268433 -36.268433z" fill-rule="evenodd"/><path stroke="#4ba173" stroke-width="1.0" stroke-linejoin="round" stroke-linecap="butt" d="m1478.063 629.859l0 0c0 -20.030518 16.237915 -36.268433 36.268433 -36.268433l373.66785 0c9.619019 0 18.843994 3.821106 25.64563 10.622742c6.8016357 6.8016357 10.622803 16.026672 10.622803 25.64569l0 145.0694c0 20.030518 -16.237915 36.268433 -36.268433 36.268433l-373.66785 0c-20.030518 0 -36.268433 -16.237915 -36.268433 -36.268433z" fill-rule="evenodd"/><path fill="#000000" d="m1605.8024 686.8337l0 -30.90625l4.796875 0l0 4.984375q4.296875 -5.625 10.3125 -5.625l0 4.921875l-1.921875 -0.1875q-2.171875 0 -4.796875 1.5625q-2.625 1.5625 -3.59375 3.359375l0 21.890625l-4.796875 0zm35.07312 0.765625q-6.96875 0 -11.359375 -4.53125q-4.375 -4.546875 -4.375 -11.71875q0 -6.859375 4.34375 -11.53125q4.359375 -4.671875 10.875 -4.671875q6.65625 0 10.75 4.609375q4.109375 4.609375 4.109375 11.96875l0 1.21875l-25.03125 0q0.25 4.734375 3.421875 7.71875q3.171875 2.96875 7.71875 2.96875q5.625 0 9.53125 -3.90625l2.3125 3.140625q-4.75 4.734375 -12.296875 4.734375zm9.609375 -18.171875q0 -4.296875 -2.828125 -7.296875q-2.8125 -3.015625 -7.359375 -3.015625q-4.28125 0 -7.140625 3.015625q-2.84375 3.0 -2.96875 7.296875l20.296875 0zm49.781982 17.40625l0 -20.984375q0 -6.40625 -5.6875 -6.40625q-2.4375 0 -4.71875 1.4375q-2.265625 1.4375 -3.484375 3.296875l0 22.65625l-4.796875 0l0 -20.984375q0 -6.40625 -5.6875 -6.40625q-2.375 0 -4.625 1.46875q-2.234375 1.46875 -3.515625 3.328125l0 22.59375l-4.796875 0l0 -30.90625l4.796875 0l0 4.46875q1.09375 -1.84375 4.09375 -3.546875q3.015625 -1.703125 5.890625 -1.703125q3.59375 0 5.609375 1.671875q2.015625 1.65625 2.71875 4.09375q1.59375 -2.5 4.53125 -4.125q2.953125 -1.640625 5.828125 -1.640625q8.640625 0 8.640625 9.34375l0 22.34375l-4.796875 0zm27.899414 0.765625q-6.71875 0 -11.0 -4.578125q-4.28125 -4.578125 -4.28125 -11.671875q0 -7.171875 4.28125 -11.6875q4.28125 -4.515625 11.0 -4.515625q6.734375 0 11.015625 4.515625q4.28125 4.515625 4.28125 11.6875q0 7.09375 -4.28125 11.671875q-4.28125 4.578125 -11.015625 4.578125zm0 -4.28125q4.484375 0 7.359375 -3.359375q2.890625 -3.359375 2.890625 -8.609375q0 -5.1875 -2.890625 -8.546875q-2.875 -3.359375 -7.359375 -3.359375q-4.46875 0 -7.390625 3.328125q-2.90625 3.328125 -2.90625 8.578125q0 5.3125 2.875 8.640625q2.890625 3.328125 7.421875 3.328125zm30.92041 4.28125q-6.84375 0 -6.84375 -7.234375l0 -20.21875l-5.125 0l0 -4.21875l5.125 0l0 -8.453125l4.796875 0l0 8.453125l6.265625 0l0 4.21875l-6.265625 0l0 19.203125q0 1.71875 0.765625 2.84375q0.765625 1.125 2.375 1.125q1.984375 0 3.25 -1.28125l1.421875 3.578125q-1.984375 1.984375 -5.765625 1.984375zm24.956543 0q-6.96875 0 -11.359375 -4.53125q-4.375 -4.546875 -4.375 -11.71875q0 -6.859375 4.34375 -11.53125q4.359375 -4.671875 10.875 -4.671875q6.65625 0 10.75 4.609375q4.109375 4.609375 4.109375 11.96875l0 1.21875l-25.03125 0q0.25 4.734375 3.421875 7.71875q3.171875 2.96875 7.71875 2.96875q5.625 0 9.53125 -3.90625l2.3125 3.140625q-4.75 4.734375 -12.296875 4.734375zm9.609375 -18.171875q0 -4.296875 -2.828125 -7.296875q-2.8125 -3.015625 -7.359375 -3.015625q-4.28125 0 -7.140625 3.015625q-2.84375 3.0 -2.96875 7.296875l20.296875 0z" fill-rule="nonzero"/><path fill="#000000" d="m1637.8035 764.5993q-6.96875 0 -11.359375 -4.53125q-4.375 -4.546875 -4.375 -11.71875q0 -6.859375 4.34375 -11.53125q4.359375 -4.671875 10.875 -4.671875q6.65625 0 10.75 4.609375q4.109375 4.609375 4.109375 11.96875l0 1.21875l-25.03125 0q0.25 4.734375 3.421875 7.71875q3.171875 2.96875 7.71875 2.96875q5.625 0 9.53125 -3.90625l2.3125 3.140625q-4.75 4.734375 -12.296875 4.734375zm9.609375 -18.171875q0 -4.296875 -2.828125 -7.296875q-2.8125 -3.015625 -7.359375 -3.015625q-4.28125 0 -7.140625 3.015625q-2.84375 3.0 -2.96875 7.296875l20.296875 0zm32.500732 17.40625l-9.28125 -12.671875l-9.28125 12.671875l-5.5 0l11.84375 -15.875l-11.203125 -15.03125l5.5625 0l8.578125 11.765625l8.578125 -11.765625l5.578125 0l-11.203125 15.03125l11.90625 15.875l-5.578125 0zm22.657837 0.765625q-6.96875 0 -11.359375 -4.53125q-4.375 -4.546875 -4.375 -11.71875q0 -6.859375 4.34375 -11.53125q4.359375 -4.671875 10.875 -4.671875q6.65625 0 10.75 4.609375q4.109375 4.609375 4.109375 11.96875l0 1.21875l-25.03125 0q0.25 4.734375 3.421875 7.71875q3.171875 2.96875 7.71875 2.96875q5.625 0 9.53125 -3.90625l2.3125 3.140625q-4.75 4.734375 -12.296875 4.734375zm9.609375 -18.171875q0 -4.296875 -2.828125 -7.296875q-2.8125 -3.015625 -7.359375 -3.015625q-4.28125 0 -7.140625 3.015625q-2.84375 3.0 -2.96875 7.296875l20.296875 0zm26.109985 18.171875q-6.796875 0 -11.109375 -4.609375q-4.3125 -4.609375 -4.3125 -11.640625q0 -6.984375 4.3125 -11.59375q4.3125 -4.609375 11.109375 -4.609375q7.15625 0 11.328125 5.390625l-3.203125 2.9375q-2.953125 -4.03125 -7.875 -4.03125q-4.734375 0 -7.71875 3.296875q-2.96875 3.296875 -2.96875 8.609375q0 5.375 2.9375 8.671875q2.953125 3.296875 7.75 3.296875q4.859375 0 7.875 -4.03125l3.203125 2.9375q-4.171875 5.375 -11.328125 5.375zm25.086182 11.96875q-4.359375 -5.953125 -6.703125 -13.25q-2.328125 -7.296875 -2.328125 -15.03125q0 -7.75 2.328125 -15.015625q2.34375 -7.265625 6.703125 -13.28125l2.875 2.1875q-3.84375 7.671875 -5.25 13.40625q-1.40625 5.71875 -1.40625 12.703125q0 6.90625 1.4375 12.734375q1.4375 5.828125 5.21875 13.3125l-2.875 2.234375zm5.1220703 -2.234375q3.765625 -7.421875 5.234375 -13.46875q1.484375 -6.0625 1.484375 -12.578125q0 -6.53125 -1.453125 -12.453125q-1.4375 -5.921875 -5.265625 -13.65625l2.875 -2.1875q4.421875 6.015625 6.75 13.28125q2.34375 7.265625 2.34375 15.015625q0 7.734375 -2.34375 15.03125q-2.328125 7.296875 -6.75 13.25l-2.875 -2.234375z" fill-rule="nonzero"/><path fill="#63d297" d="m798.5066 1385.0715l0 0c0 -20.030396 16.237915 -36.268433 36.268433 -36.268433l373.66785 0c9.619019 0 18.843994 3.821167 25.64563 10.622803c6.8016357 6.8016357 10.622803 16.026733 10.622803 25.64563l0 145.06946c0 20.030518 -16.237915 36.268433 -36.268433 36.268433l-373.66785 0c-20.030518 0 -36.268433 -16.237915 -36.268433 -36.268433z" fill-rule="evenodd"/><path stroke="#4ba173" stroke-width="1.0" stroke-linejoin="round" stroke-linecap="butt" d="m798.5066 1385.0715l0 0c0 -20.030396 16.237915 -36.268433 36.268433 -36.268433l373.66785 0c9.619019 0 18.843994 3.821167 25.64563 10.622803c6.8016357 6.8016357 10.622803 16.026733 10.622803 25.64563l0 145.06946c0 20.030518 -16.237915 36.268433 -36.268433 36.268433l-373.66785 0c-20.030518 0 -36.268433 -16.237915 -36.268433 -36.268433z" fill-rule="evenodd"/><path fill="#000000" d="m874.79034 1442.0463l-3.765625 -9.46875l-21.25 0l-3.78125 9.46875l-6.078125 0l17.15625 -42.6875l6.578125 0l17.21875 42.6875l-6.078125 0zm-14.390625 -37.1875l-9.09375 22.984375l18.109375 0l-9.015625 -22.984375zm39.48694 37.953125q-6.796875 0 -11.109375 -4.609375q-4.3125 -4.609375 -4.3125 -11.640625q0 -6.984375 4.3125 -11.59375q4.3125 -4.609375 11.109375 -4.609375q7.15625 0 11.328125 5.390625l-3.203125 2.9375q-2.953125 -4.03125 -7.875 -4.03125q-4.734375 0 -7.71875 3.296875q-2.96875 3.296875 -2.96875 8.609375q0 5.375 2.9375 8.671875q2.953125 3.296875 7.75 3.296875q4.859375 0 7.875 -4.03125l3.203125 2.9375q-4.171875 5.375 -11.328125 5.375zm30.976807 -4.28125q2.625 0 5.3125 -1.4375q2.6875 -1.453125 3.890625 -3.5625l0 -13.953125q-1.140625 -1.984375 -3.703125 -3.453125q-2.5625 -1.46875 -5.5 -1.46875q-4.546875 0 -7.203125 3.296875q-2.65625 3.296875 -2.65625 8.609375q0 5.3125 2.65625 8.640625q2.65625 3.328125 7.203125 3.328125zm-1.15625 4.28125q-6.203125 0 -9.984375 -4.40625q-3.78125 -4.421875 -3.78125 -11.84375q0 -7.5625 3.8125 -11.875q3.8125 -4.328125 9.953125 -4.328125q3.265625 0 5.984375 1.515625q2.71875 1.5 4.375 3.875l0 -4.609375l4.8125 0l0 42.6875l-4.8125 0l0 -16.453125q-3.828125 5.4375 -10.359375 5.4375zm45.686096 -0.765625l0 -4.359375q-1.78125 2.0625 -4.671875 3.59375q-2.875 1.53125 -6.328125 1.53125q-9.859375 0 -9.859375 -9.859375l0 -21.8125l4.796875 0l0 20.34375q0 3.65625 1.65625 5.359375q1.671875 1.6875 5.265625 1.6875q2.8125 0 5.296875 -1.40625q2.5 -1.421875 3.84375 -3.265625l0 -22.71875l4.8125 0l0 30.90625l-4.8125 0zm16.779541 -35.328125q-1.28125 0 -2.25 -0.921875q-0.953125 -0.9375 -0.953125 -2.28125q0 -1.34375 0.953125 -2.296875q0.96875 -0.96875 2.25 -0.96875q1.34375 0 2.296875 0.96875q0.96875 0.953125 0.96875 2.296875q0 1.34375 -0.96875 2.28125q-0.953125 0.921875 -2.296875 0.921875zm-2.375 35.328125l0 -30.90625l4.796875 0l0 30.90625l-4.796875 0zm14.399963 0l0 -30.90625l4.796875 0l0 4.984375q4.296875 -5.625 10.3125 -5.625l0 4.921875l-1.921875 -0.1875q-2.171875 0 -4.796875 1.5625q-2.625 1.5625 -3.59375 3.359375l0 21.890625l-4.796875 0zm35.07306 0.765625q-6.96875 0 -11.359375 -4.53125q-4.374939 -4.546875 -4.374939 -11.71875q0 -6.859375 4.343689 -11.53125q4.359375 -4.671875 10.875 -4.671875q6.65625 0 10.75 4.609375q4.109375 4.609375 4.109375 11.96875l0 1.21875l-25.03125 0q0.25 4.734375 3.421875 7.71875q3.171875 2.96875 7.71875 2.96875q5.625 0 9.53125 -3.90625l2.3125 3.140625q-4.75 4.734375 -12.296875 4.734375zm9.609375 -18.171875q0 -4.296875 -2.828125 -7.296875q-2.8125 -3.015625 -7.359375 -3.015625q-4.28125 0 -7.140625 3.015625q-2.84375 3.0 -2.96875 7.296875l20.296875 0zm28.981445 17.40625l0 -42.6875l4.796875 0l0 42.6875l-4.796875 0zm27.900024 0.765625q-6.71875 0 -11.0 -4.578125q-4.28125 -4.578125 -4.28125 -11.671875q0 -7.171875 4.28125 -11.6875q4.28125 -4.515625 11.0 -4.515625q6.734375 0 11.015625 4.515625q4.28125 4.515625 4.28125 11.6875q0 7.09375 -4.28125 11.671875q-4.28125 4.578125 -11.015625 4.578125zm0 -4.28125q4.484375 0 7.359375 -3.359375q2.890625 -3.359375 2.890625 -8.609375q0 -5.1875 -2.890625 -8.546875q-2.875 -3.359375 -7.359375 -3.359375q-4.46875 0 -7.390625 3.328125q-2.90625 3.328125 -2.90625 8.578125q0 5.3125 2.875 8.640625q2.890625 3.328125 7.421875 3.328125zm36.748535 4.28125q-6.796875 0 -11.109375 -4.609375q-4.3125 -4.609375 -4.3125 -11.640625q0 -6.984375 4.3125 -11.59375q4.3125 -4.609375 11.109375 -4.609375q7.15625 0 11.328125 5.390625l-3.203125 2.9375q-2.953125 -4.03125 -7.875 -4.03125q-4.734375 0 -7.71875 3.296875q-2.96875 3.296875 -2.96875 8.609375q0 5.375 2.9375 8.671875q2.953125 3.296875 7.75 3.296875q4.859375 0 7.875 -4.03125l3.203125 2.9375q-4.171875 5.375 -11.328125 5.375zm37.36743 -0.765625l0 -3.515625q-3.90625 4.28125 -10.234375 4.28125q-4.671875 0 -7.75 -2.9375q-3.0625 -2.953125 -3.0625 -7.296875q0 -4.484375 3.03125 -7.328125q3.046875 -2.84375 7.78125 -2.84375q6.65625 0 10.234375 4.21875l0 -5.5625q0 -3.140625 -2.203125 -4.828125q-2.203125 -1.703125 -5.609375 -1.703125q-5.4375 0 -9.46875 4.28125l-2.234375 -3.328125q4.921875 -5.125 12.34375 -5.125q5.703125 0 8.828125 2.765625q3.140625 2.75 3.140625 7.671875l0 21.25l-4.796875 0zm-8.515625 -2.6875q5.703125 0 8.515625 -3.84375l0 -5.828125q-2.8125 -3.828125 -8.515625 -3.828125q-3.390625 0 -5.5 1.890625q-2.109375 1.875 -2.109375 4.890625q0 2.9375 2.109375 4.828125q2.109375 1.890625 5.5 1.890625zm22.915405 2.6875l0 -42.6875l4.796875 0l0 42.6875l-4.796875 0z" fill-rule="nonzero"/><path fill="#000000" d="m887.718 1519.0463l0 -30.90625l4.796875 0l0 4.984375q4.296875 -5.625 10.3125 -5.625l0 4.921875l-1.921875 -0.1875q-2.171875 0 -4.796875 1.5625q-2.625 1.5625 -3.59375 3.359375l0 21.890625l-4.796875 0zm35.07312 0.765625q-6.96875 0 -11.359375 -4.53125q-4.375 -4.546875 -4.375 -11.71875q0 -6.859375 4.34375 -11.53125q4.359375 -4.671875 10.875 -4.671875q6.65625 0 10.75 4.609375q4.109375 4.609375 4.109375 11.96875l0 1.21875l-25.03125 0q0.25 4.734375 3.421875 7.71875q3.171875 2.96875 7.71875 2.96875q5.625 0 9.53125 -3.90625l2.3125 3.140625q-4.75 4.734375 -12.296875 4.734375zm9.609375 -18.171875q0 -4.296875 -2.828125 -7.296875q-2.8125 -3.015625 -7.359375 -3.015625q-4.28125 0 -7.140625 3.015625q-2.84375 3.0 -2.96875 7.296875l20.296875 0zm22.266296 18.171875q-7.875 0 -12.484375 -4.859375l2.5 -3.453125q1.53125 1.78125 4.25 3.09375q2.71875 1.3125 5.921875 1.3125q3.59375 0 5.4375 -1.5q1.859375 -1.5 1.859375 -3.8125q0 -2.046875 -2.015625 -3.21875q-2.015625 -1.1875 -7.515625 -2.46875q-4.671875 -0.96875 -7.140625 -3.046875q-2.46875 -2.078125 -2.46875 -5.59375q0 -3.90625 3.140625 -6.40625q3.140625 -2.5 8.390625 -2.5q6.96875 0 11.453125 4.484375l-2.234375 3.328125q-1.421875 -1.65625 -3.828125 -2.78125q-2.390625 -1.125 -5.390625 -1.125q-3.203125 0 -5.03125 1.421875q-1.828125 1.40625 -1.828125 3.453125q0 1.84375 2.046875 2.9375q2.0625 1.09375 7.5625 2.234375q4.671875 1.09375 7.09375 3.3125q2.4375 2.203125 2.4375 5.84375q0 4.296875 -3.328125 6.828125q-3.328125 2.515625 -8.828125 2.515625zm33.463074 0q-6.71875 0 -11.0 -4.578125q-4.28125 -4.578125 -4.28125 -11.671875q0 -7.171875 4.28125 -11.6875q4.28125 -4.515625 11.0 -4.515625q6.734375 0 11.015625 4.515625q4.28125 4.515625 4.28125 11.6875q0 7.09375 -4.28125 11.671875q-4.28125 4.578125 -11.015625 4.578125zm0 -4.28125q4.484375 0 7.359375 -3.359375q2.890625 -3.359375 2.890625 -8.609375q0 -5.1875 -2.890625 -8.546875q-2.875 -3.359375 -7.359375 -3.359375q-4.46875 0 -7.390625 3.328125q-2.90625 3.328125 -2.90625 8.578125q0 5.3125 2.875 8.640625q2.890625 3.328125 7.421875 3.328125zm43.967285 3.515625l0 -4.359375q-1.78125 2.0625 -4.671875 3.59375q-2.875 1.53125 -6.328125 1.53125q-9.859375 0 -9.859375 -9.859375l0 -21.8125l4.796875 0l0 20.34375q0 3.65625 1.65625 5.359375q1.671875 1.6875 5.265625 1.6875q2.8125 0 5.296875 -1.40625q2.5 -1.421875 3.84375 -3.265625l0 -22.71875l4.8125 0l0 30.90625l-4.8125 0zm14.404541 0l0 -30.90625l4.796875 0l0 4.984375q4.296875 -5.625 10.3125 -5.625l0 4.921875l-1.921875 -0.1875q-2.171875 0 -4.796875 1.5625q-2.625 1.5625 -3.59375 3.359375l0 21.890625l-4.796875 0zm34.76062 0.765625q-6.796875 0 -11.109375 -4.609375q-4.3125 -4.609375 -4.3125 -11.640625q0 -6.984375 4.3125 -11.59375q4.3125 -4.609375 11.109375 -4.609375q7.15625 0 11.328125 5.390625l-3.203125 2.9375q-2.953125 -4.03125 -7.875 -4.03125q-4.734375 0 -7.71875 3.296875q-2.96875 3.296875 -2.96875 8.609375q0 5.375 2.9375 8.671875q2.953125 3.296875 7.75 3.296875q4.859375 0 7.875 -4.03125l3.203125 2.9375q-4.171875 5.375 -11.328125 5.375zm31.992432 0q-6.96875 0 -11.359375 -4.53125q-4.375 -4.546875 -4.375 -11.71875q0 -6.859375 4.34375 -11.53125q4.359375 -4.671875 10.875 -4.671875q6.65625 0 10.75 4.609375q4.109375 4.609375 4.109375 11.96875l0 1.21875l-25.03125 0q0.25 4.734375 3.421875 7.71875q3.171875 2.96875 7.71875 2.96875q5.625 0 9.53125 -3.90625l2.3125 3.140625q-4.75 4.734375 -12.296875 4.734375zm9.609375 -18.171875q0 -4.296875 -2.828125 -7.296875q-2.8125 -3.015625 -7.359375 -3.015625q-4.28125 0 -7.140625 3.015625q-2.84375 3.0 -2.96875 7.296875l20.296875 0zm22.266357 18.171875q-7.875 0 -12.484375 -4.859375l2.5 -3.453125q1.53125 1.78125 4.25 3.09375q2.71875 1.3125 5.921875 1.3125q3.59375 0 5.4375 -1.5q1.859375 -1.5 1.859375 -3.8125q0 -2.046875 -2.015625 -3.21875q-2.015625 -1.1875 -7.515625 -2.46875q-4.671875 -0.96875 -7.140625 -3.046875q-2.46875 -2.078125 -2.46875 -5.59375q0 -3.90625 3.140625 -6.40625q3.140625 -2.5 8.390625 -2.5q6.96875 0 11.453125 4.484375l-2.234375 3.328125q-1.421875 -1.65625 -3.828125 -2.78125q-2.390625 -1.125 -5.390625 -1.125q-3.203125 0 -5.03125 1.421875q-1.828125 1.40625 -1.828125 3.453125q0 1.84375 2.046875 2.9375q2.0625 1.09375 7.5625 2.234375q4.671875 1.09375 7.09375 3.3125q2.4375 2.203125 2.4375 5.84375q0 4.296875 -3.328125 6.828125q-3.328125 2.515625 -8.828125 2.515625z" fill-rule="nonzero"/><path fill="#63d297" d="m1478.063 1385.0715l0 0c0 -20.030396 16.237915 -36.268433 36.268433 -36.268433l373.66785 0c9.619019 0 18.843994 3.821167 25.64563 10.622803c6.8016357 6.8016357 10.622803 16.026733 10.622803 25.64563l0 145.06946c0 20.030518 -16.237915 36.268433 -36.268433 36.268433l-373.66785 0c-20.030518 0 -36.268433 -16.237915 -36.268433 -36.268433z" fill-rule="evenodd"/><path stroke="#4ba173" stroke-width="1.0" stroke-linejoin="round" stroke-linecap="butt" d="m1478.063 1385.0715l0 0c0 -20.030396 16.237915 -36.268433 36.268433 -36.268433l373.66785 0c9.619019 0 18.843994 3.821167 25.64563 10.622803c6.8016357 6.8016357 10.622803 16.026733 10.622803 25.64563l0 145.06946c0 20.030518 -16.237915 36.268433 -36.268433 36.268433l-373.66785 0c-20.030518 0 -36.268433 -16.237915 -36.268433 -36.268433z" fill-rule="evenodd"/><path fill="#000000" d="m1561.6793 1442.8119q-7.875 0 -12.484375 -4.859375l2.5 -3.453125q1.53125 1.78125 4.25 3.09375q2.71875 1.3125 5.921875 1.3125q3.59375 0 5.4375 -1.5q1.859375 -1.5 1.859375 -3.8125q0 -2.046875 -2.015625 -3.21875q-2.015625 -1.1875 -7.515625 -2.46875q-4.671875 -0.96875 -7.140625 -3.046875q-2.46875 -2.078125 -2.46875 -5.59375q0 -3.90625 3.140625 -6.40625q3.140625 -2.5 8.390625 -2.5q6.96875 0 11.453125 4.484375l-2.234375 3.328125q-1.421875 -1.65625 -3.828125 -2.78125q-2.390625 -1.125 -5.390625 -1.125q-3.203125 0 -5.03125 1.421875q-1.828125 1.40625 -1.828125 3.453125q0 1.84375 2.046875 2.9375q2.0625 1.09375 7.5625 2.234375q4.671875 1.09375 7.09375 3.3125q2.4375 2.203125 2.4375 5.84375q0 4.296875 -3.328125 6.828125q-3.328125 2.515625 -8.828125 2.515625zm39.29126 -0.765625l0 -3.515625q-3.90625 4.28125 -10.234375 4.28125q-4.671875 0 -7.75 -2.9375q-3.0625 -2.953125 -3.0625 -7.296875q0 -4.484375 3.03125 -7.328125q3.046875 -2.84375 7.78125 -2.84375q6.65625 0 10.234375 4.21875l0 -5.5625q0 -3.140625 -2.203125 -4.828125q-2.203125 -1.703125 -5.609375 -1.703125q-5.4375 0 -9.46875 4.28125l-2.234375 -3.328125q4.921875 -5.125 12.34375 -5.125q5.703125 0 8.828125 2.765625q3.140625 2.75 3.140625 7.671875l0 21.25l-4.796875 0zm-8.515625 -2.6875q5.703125 0 8.515625 -3.84375l0 -5.828125q-2.8125 -3.828125 -8.515625 -3.828125q-3.390625 0 -5.5 1.890625q-2.109375 1.875 -2.109375 4.890625q0 2.9375 2.109375 4.828125q2.109375 1.890625 5.5 1.890625zm43.77478 2.6875l0 -20.21875q0 -4.09375 -1.890625 -5.625q-1.875 -1.546875 -5.015625 -1.546875q-2.6875 0 -5.28125 1.4375q-2.59375 1.4375 -3.875 3.359375l0 22.59375l-4.796875 0l0 -30.90625l4.796875 0l0 4.46875q1.984375 -2.296875 4.890625 -3.765625q2.921875 -1.484375 6.125 -1.484375q9.859375 0 9.859375 9.984375l0 21.703125l-4.8125 0zm36.81079 0l0 -4.609375q-1.734375 2.375 -4.453125 3.875q-2.71875 1.5 -5.984375 1.5q-6.203125 0 -9.984375 -4.40625q-3.765625 -4.421875 -3.765625 -11.78125q0 -7.421875 3.796875 -11.84375q3.8125 -4.421875 9.953125 -4.421875q3.140625 0 5.859375 1.453125q2.71875 1.4375 4.578125 4.0l0 -16.453125l4.796875 0l0 42.6875l-4.796875 0zm-9.28125 -3.515625q2.875 0 5.4375 -1.40625q2.5625 -1.421875 3.84375 -3.46875l0 -14.015625q-1.28125 -2.046875 -3.84375 -3.515625q-2.5625 -1.46875 -5.4375 -1.46875q-4.484375 0 -7.203125 3.265625q-2.71875 3.265625 -2.71875 8.703125q0 5.3125 2.6875 8.609375q2.6875 3.296875 7.234375 3.296875zm28.471924 -4.875q1.28125 2.046875 3.8125 3.46875q2.53125 1.40625 5.40625 1.40625q4.546875 0 7.265625 -3.296875q2.71875 -3.296875 2.71875 -8.609375q0 -5.375 -2.6875 -8.671875q-2.6875 -3.296875 -7.296875 -3.296875q-2.875 0 -5.40625 1.46875q-2.53125 1.46875 -3.8125 3.515625l0 14.015625zm-4.796875 8.390625l0 -42.6875l4.796875 0l0 16.453125q3.96875 -5.453125 10.4375 -5.453125q6.140625 0 9.953125 4.484375q3.8125 4.484375 3.8125 11.78125q0 7.421875 -3.8125 11.8125q-3.8125 4.375 -9.953125 4.375q-3.265625 0 -5.984375 -1.5q-2.71875 -1.5 -4.453125 -3.875l0 4.609375l-4.796875 0zm50.299927 0.765625q-6.71875 0 -11.0 -4.578125q-4.28125 -4.578125 -4.28125 -11.671875q0 -7.171875 4.28125 -11.6875q4.28125 -4.515625 11.0 -4.515625q6.734375 0 11.015625 4.515625q4.28125 4.515625 4.28125 11.6875q0 7.09375 -4.28125 11.671875q-4.28125 4.578125 -11.015625 4.578125zm0 -4.28125q4.484375 0 7.359375 -3.359375q2.890625 -3.359375 2.890625 -8.609375q0 -5.1875 -2.890625 -8.546875q-2.875 -3.359375 -7.359375 -3.359375q-4.46875 0 -7.390625 3.328125q-2.90625 3.328125 -2.90625 8.578125q0 5.3125 2.875 8.640625q2.890625 3.328125 7.421875 3.328125zm40.77112 3.515625l-9.28125 -12.671875l-9.28125 12.671875l-5.5 0l11.84375 -15.875l-11.203125 -15.03125l5.5625 0l8.578125 11.765625l8.578125 -11.765625l5.578125 0l-11.203125 15.03125l11.90625 15.875l-5.578125 0zm22.657837 0.765625q-6.96875 0 -11.359375 -4.53125q-4.375 -4.546875 -4.375 -11.71875q0 -6.859375 4.34375 -11.53125q4.359375 -4.671875 10.875 -4.671875q6.65625 0 10.75 4.609375q4.109375 4.609375 4.109375 11.96875l0 1.21875l-25.03125 0q0.25 4.734375 3.421875 7.71875q3.171875 2.96875 7.71875 2.96875q5.625 0 9.53125 -3.90625l2.3125 3.140625q-4.75 4.734375 -12.296875 4.734375zm9.609375 -18.171875q0 -4.296875 -2.828125 -7.296875q-2.8125 -3.015625 -7.359375 -3.015625q-4.28125 0 -7.140625 3.015625q-2.84375 3.0 -2.96875 7.296875l20.296875 0zm34.875732 17.40625l0 -4.609375q-1.734375 2.375 -4.453125 3.875q-2.71875 1.5 -5.984375 1.5q-6.203125 0 -9.984375 -4.40625q-3.765625 -4.421875 -3.765625 -11.78125q0 -7.421875 3.796875 -11.84375q3.8125 -4.421875 9.953125 -4.421875q3.140625 0 5.859375 1.453125q2.71875 1.4375 4.578125 4.0l0 -16.453125l4.796875 0l0 42.6875l-4.796875 0zm-9.28125 -3.515625q2.875 0 5.4375 -1.40625q2.5625 -1.421875 3.84375 -3.46875l0 -14.015625q-1.28125 -2.046875 -3.84375 -3.515625q-2.5625 -1.46875 -5.4375 -1.46875q-4.484375 0 -7.203125 3.265625q-2.71875 3.265625 -2.71875 8.703125q0 5.3125 2.6875 8.609375q2.6875 3.296875 7.234375 3.296875z" fill-rule="nonzero"/><path fill="#000000" d="m1637.8035 1519.8119q-6.96875 0 -11.359375 -4.53125q-4.375 -4.546875 -4.375 -11.71875q0 -6.859375 4.34375 -11.53125q4.359375 -4.671875 10.875 -4.671875q6.65625 0 10.75 4.609375q4.109375 4.609375 4.109375 11.96875l0 1.21875l-25.03125 0q0.25 4.734375 3.421875 7.71875q3.171875 2.96875 7.71875 2.96875q5.625 0 9.53125 -3.90625l2.3125 3.140625q-4.75 4.734375 -12.296875 4.734375zm9.609375 -18.171875q0 -4.296875 -2.828125 -7.296875q-2.8125 -3.015625 -7.359375 -3.015625q-4.28125 0 -7.140625 3.015625q-2.84375 3.0 -2.96875 7.296875l20.296875 0zm32.500732 17.40625l-9.28125 -12.671875l-9.28125 12.671875l-5.5 0l11.84375 -15.875l-11.203125 -15.03125l5.5625 0l8.578125 11.765625l8.578125 -11.765625l5.578125 0l-11.203125 15.03125l11.90625 15.875l-5.578125 0zm22.657837 0.765625q-6.96875 0 -11.359375 -4.53125q-4.375 -4.546875 -4.375 -11.71875q0 -6.859375 4.34375 -11.53125q4.359375 -4.671875 10.875 -4.671875q6.65625 0 10.75 4.609375q4.109375 4.609375 4.109375 11.96875l0 1.21875l-25.03125 0q0.25 4.734375 3.421875 7.71875q3.171875 2.96875 7.71875 2.96875q5.625 0 9.53125 -3.90625l2.3125 3.140625q-4.75 4.734375 -12.296875 4.734375zm9.609375 -18.171875q0 -4.296875 -2.828125 -7.296875q-2.8125 -3.015625 -7.359375 -3.015625q-4.28125 0 -7.140625 3.015625q-2.84375 3.0 -2.96875 7.296875l20.296875 0zm26.109985 18.171875q-6.796875 0 -11.109375 -4.609375q-4.3125 -4.609375 -4.3125 -11.640625q0 -6.984375 4.3125 -11.59375q4.3125 -4.609375 11.109375 -4.609375q7.15625 0 11.328125 5.390625l-3.203125 2.9375q-2.953125 -4.03125 -7.875 -4.03125q-4.734375 0 -7.71875 3.296875q-2.96875 3.296875 -2.96875 8.609375q0 5.375 2.9375 8.671875q2.953125 3.296875 7.75 3.296875q4.859375 0 7.875 -4.03125l3.203125 2.9375q-4.171875 5.375 -11.328125 5.375zm25.086182 11.96875q-4.359375 -5.953125 -6.703125 -13.25q-2.328125 -7.296875 -2.328125 -15.03125q0 -7.75 2.328125 -15.015625q2.34375 -7.265625 6.703125 -13.28125l2.875 2.1875q-3.84375 7.671875 -5.25 13.40625q-1.40625 5.71875 -1.40625 12.703125q0 6.90625 1.4375 12.734375q1.4375 5.828125 5.21875 13.3125l-2.875 2.234375zm5.1220703 -2.234375q3.765625 -7.421875 5.234375 -13.46875q1.484375 -6.0625 1.484375 -12.578125q0 -6.53125 -1.453125 -12.453125q-1.4375 -5.921875 -5.265625 -13.65625l2.875 -2.1875q4.421875 6.015625 6.75 13.28125q2.34375 7.265625 2.34375 15.015625q0 7.734375 -2.34375 15.03125q-2.328125 7.296875 -6.75 13.25l-2.875 -2.234375z" fill-rule="nonzero"/><path fill="#4ba173" d="m3262.8977 1007.4653l0 0c0 -20.030457 16.237793 -36.268433 36.26831 -36.268433l373.66797 0c9.6188965 0 18.843994 3.821167 25.645508 10.622803c6.801758 6.8016357 10.622803 16.026672 10.622803 25.64563l0 145.0694c0 20.030518 -16.237793 36.268433 -36.26831 36.268433l-373.66797 0c-20.030518 0 -36.26831 -16.237915 -36.26831 -36.268433z" fill-rule="evenodd"/><path stroke="#4ba173" stroke-width="1.0" stroke-linejoin="round" stroke-linecap="butt" d="m3262.8977 1007.4653l0 0c0 -20.030457 16.237793 -36.268433 36.26831 -36.268433l373.66797 0c9.6188965 0 18.843994 3.821167 25.645508 10.622803c6.801758 6.8016357 10.622803 16.026672 10.622803 25.64563l0 145.0694c0 20.030518 -16.237793 36.268433 -36.26831 36.268433l-373.66797 0c-20.030518 0 -36.26831 -16.237915 -36.26831 -36.268433z" fill-rule="evenodd"/><path fill="#000000" d="m3414.6326 1102.94l0 -42.6875l14.59375 0q9.734375 0 15.8125 6.046875q6.078125 6.046875 6.078125 15.328125q0 9.34375 -6.109375 15.328125q-6.109375 5.984375 -15.78125 5.984375l-14.59375 0zm14.59375 -4.734375q7.296875 0 11.84375 -4.578125q4.546875 -4.578125 4.546875 -12.0q0 -7.421875 -4.484375 -12.03125q-4.46875 -4.609375 -11.90625 -4.609375l-9.28125 0l0 33.21875l9.28125 0zm43.518555 5.5q-6.71875 0 -11.0 -4.578125q-4.28125 -4.578125 -4.28125 -11.671875q0 -7.171875 4.28125 -11.6875q4.28125 -4.515625 11.0 -4.515625q6.734375 0 11.015625 4.515625q4.28125 4.515625 4.28125 11.6875q0 7.09375 -4.28125 11.671875q-4.28125 4.578125 -11.015625 4.578125zm0 -4.28125q4.484375 0 7.359375 -3.359375q2.890625 -3.359375 2.890625 -8.609375q0 -5.1875 -2.890625 -8.546875q-2.875 -3.359375 -7.359375 -3.359375q-4.46875 0 -7.390625 3.328125q-2.90625 3.328125 -2.90625 8.578125q0 5.3125 2.875 8.640625q2.890625 3.328125 7.421875 3.328125zm43.967285 3.515625l0 -20.21875q0 -4.09375 -1.890625 -5.625q-1.875 -1.546875 -5.015625 -1.546875q-2.6875 0 -5.28125 1.4375q-2.59375 1.4375 -3.875 3.359375l0 22.59375l-4.796875 0l0 -30.90625l4.796875 0l0 4.46875q1.984375 -2.296875 4.890625 -3.765625q2.921875 -1.484375 6.125 -1.484375q9.859375 0 9.859375 9.984375l0 21.703125l-4.8125 0zm28.35791 0.765625q-6.96875 0 -11.359375 -4.53125q-4.375 -4.546875 -4.375 -11.71875q0 -6.859375 4.34375 -11.53125q4.359375 -4.671875 10.875 -4.671875q6.65625 0 10.75 4.609375q4.109375 4.609375 4.109375 11.96875l0 1.21875l-25.03125 0q0.25 4.734375 3.421875 7.71875q3.171875 2.96875 7.71875 2.96875q5.625 0 9.53125 -3.90625l2.3125 3.140625q-4.75 4.734375 -12.296875 4.734375zm9.609375 -18.171875q0 -4.296875 -2.828125 -7.296875q-2.8125 -3.015625 -7.359375 -3.015625q-4.28125 0 -7.140625 3.015625q-2.84375 3.0 -2.96875 7.296875l20.296875 0z" fill-rule="nonzero"/><path fill="#000000" fill-opacity="0.0" d="m577.10236 1080.0l900.9764 -377.60632" fill-rule="evenodd"/><path stroke="#4ba173" stroke-width="8.0" stroke-linejoin="round" stroke-linecap="butt" d="m577.10236 1080.0l856.7072 -359.05273" fill-rule="evenodd"/><path fill="#4ba173" stroke="#4ba173" stroke-width="8.0" stroke-linecap="butt" d="m1438.9171 733.1341l28.375366 -26.219788l-38.590576 1.8461304z" fill-rule="evenodd"/><path fill="#000000" fill-opacity="0.0" d="m577.10236 1080.0l221.41736 377.60632" fill-rule="evenodd"/><path stroke="#4ba173" stroke-width="8.0" stroke-linejoin="round" stroke-linecap="butt" d="m577.10236 1080.0l197.1377 336.19983" fill-rule="evenodd"/><path fill="#4ba173" stroke="#4ba173" stroke-width="8.0" stroke-linecap="butt" d="m762.8414 1422.8837l29.762573 24.633911l-6.965088 -38.00171z" fill-rule="evenodd"/><path fill="#000000" fill-opacity="0.0" d="m1924.2677 702.3937l1338.6456 377.60632" fill-rule="evenodd"/><path stroke="#4ba173" stroke-width="8.0" stroke-linejoin="round" stroke-linecap="butt" d="m1924.2677 702.3937l1292.4486 364.57495" fill-rule="evenodd"/><path fill="#4ba173" stroke="#4ba173" stroke-width="8.0" stroke-linecap="butt" d="m3213.1287 1079.6863l38.52881 -2.8613281l-31.354004 -22.573853z" fill-rule="evenodd"/><path fill="#000000" fill-opacity="0.0" d="m1244.7113 1457.6063l233.35437 0" fill-rule="evenodd"/><path stroke="#4ba173" stroke-width="8.0" stroke-linejoin="round" stroke-linecap="butt" d="m1244.7113 1457.6063l185.35437 0" fill-rule="evenodd"/><path fill="#4ba173" stroke="#4ba173" stroke-width="8.0" stroke-linecap="butt" d="m1430.0657 1470.8202l36.304688 -13.213867l-36.304688 -13.213867z" fill-rule="evenodd"/><path fill="#000000" fill-opacity="0.0" d="m1924.2677 1457.6063l1338.6456 -377.60632" fill-rule="evenodd"/><path stroke="#4ba173" stroke-width="8.0" stroke-linejoin="round" stroke-linecap="butt" d="m1924.2677 1457.6063l1292.4486 -364.57495" fill-rule="evenodd"/><path fill="#4ba173" stroke="#4ba173" stroke-width="8.0" stroke-linecap="butt" d="m3220.3035 1105.7489l31.354004 -22.573853l-38.52881 -2.8613281z" fill-rule="evenodd"/><path fill="#000000" fill-opacity="0.0" d="m354.0 784.70605l0 186.48816" fill-rule="evenodd"/><path stroke="#4ba173" stroke-width="8.0" stroke-linejoin="round" stroke-linecap="butt" d="m354.0 784.70605l0 138.48816" fill-rule="evenodd"/><path fill="#4ba173" stroke="#4ba173" stroke-width="8.0" stroke-linecap="butt" d="m340.78613 923.1942l13.213867 36.30481l13.213867 -36.30481z" fill-rule="evenodd"/><path fill="#000000" fill-opacity="0.0" d="m389.0551 837.4593l-70.33072 35.181152" fill-rule="evenodd"/><path stroke="#4ba173" stroke-width="8.0" stroke-linejoin="round" stroke-linecap="butt" d="m389.0551 837.4593l-70.33072 35.181152" fill-rule="evenodd"/><path fill="#000000" fill-opacity="0.0" d="m389.6614 805.7743l135.77951 0l0 50.551147l-135.77951 0z" fill-rule="evenodd"/><path fill="#4ba173" d="m399.86453 845.6586l0 -4.328125l9.59375 0l0 4.328125l-9.59375 0zm12.0 0l0 -4.328125l9.59375 0l0 4.328125l-9.59375 0zm15.8437195 -13.890625q-1.25 0 -2.15625 -0.875q-0.890625 -0.875 -0.890625 -2.15625q0 -1.28125 0.890625 -2.140625q0.90625 -0.859375 2.15625 -0.859375q1.265625 0 2.140625 0.859375q0.890625 0.859375 0.890625 2.140625q0 1.28125 -0.890625 2.15625q-0.875 0.875 -2.140625 0.875zm-4.328125 29.25q-1.59375 0 -2.625 -0.28125q-1.046875 -0.28125 -2.21875 -1.078125l1.40625 -3.796875q1.15625 1.0 2.59375 1.0q1.171875 0 1.90625 -0.765625q0.734375 -0.765625 0.734375 -2.40625l0 -19.828125l5.078125 0l0 19.828125q0 3.328125 -1.703125 5.328125q-1.6875 2.0 -5.171875 2.0zm20.88562 -7.359375q-4.484375 0 -7.34375 -2.875q-2.859375 -2.890625 -2.859375 -7.296875q0 -4.390625 2.859375 -7.25q2.859375 -2.859375 7.34375 -2.859375q4.46875 0 7.34375 2.859375q2.890625 2.859375 2.890625 7.25q0 4.453125 -2.890625 7.3125q-2.875 2.859375 -7.34375 2.859375zm0 -4.53125q2.203125 0 3.578125 -1.578125q1.375 -1.578125 1.375 -4.0625q0 -2.390625 -1.375 -3.984375q-1.375 -1.609375 -3.578125 -1.609375q-2.125 0 -3.53125 1.546875q-1.390625 1.53125 -1.390625 4.046875q0 2.5625 1.390625 4.109375q1.40625 1.53125 3.53125 1.53125zm19.069366 -2.15625q0.640625 0.921875 1.875 1.546875q1.25 0.609375 2.484375 0.609375q2.25 0 3.578125 -1.53125q1.34375 -1.546875 1.34375 -4.0625q0 -2.515625 -1.34375 -4.078125q-1.328125 -1.5625 -3.578125 -1.5625q-1.234375 0 -2.484375 0.640625q-1.234375 0.640625 -1.875 1.59375l0 6.84375zm-5.078125 6.203125l0 -26.6875l5.078125 0l0 9.84375q2.328125 -2.953125 5.96875 -2.953125q3.84375 0 6.203125 2.796875q2.359375 2.796875 2.359375 7.359375q0 4.59375 -2.359375 7.359375q-2.359375 2.765625 -6.203125 2.765625q-3.5625 0 -5.96875 -2.96875l0 2.484375l-5.078125 0zm30.408722 0.484375q-2.53125 0 -4.828125 -0.796875q-2.296875 -0.8125 -3.8125 -2.203125l2.203125 -3.5625q1.15625 1.078125 3.078125 1.859375q1.921875 0.78125 3.59375 0.78125q3.234375 0 3.234375 -2.078125q0 -0.796875 -0.859375 -1.203125q-0.859375 -0.40625 -2.09375 -0.6875l-2.765625 -0.546875q-5.75 -1.25 -5.75 -5.765625q0 -2.6875 2.21875 -4.375q2.21875 -1.703125 5.703125 -1.703125q4.515625 0 7.796875 2.640625l-2.046875 3.46875q-0.875 -0.90625 -2.40625 -1.5625q-1.515625 -0.671875 -3.3125 -0.671875q-1.390625 0 -2.21875 0.5625q-0.8125 0.5625 -0.8125 1.359375q0 0.71875 0.828125 1.078125q0.84375 0.359375 2.125 0.625q1.28125 0.25 2.75 0.59375q1.484375 0.34375 2.765625 1.03125q1.28125 0.671875 2.125 1.828125q0.84375 1.15625 0.84375 3.125q0 2.796875 -2.28125 4.5q-2.28125 1.703125 -6.078125 1.703125z" fill-rule="nonzero"/><path fill="#000000" fill-opacity="0.0" d="m709.0551 1229.4594l-70.33069 35.18103" fill-rule="evenodd"/><path stroke="#4ba173" stroke-width="8.0" stroke-linejoin="round" stroke-linecap="butt" d="m709.0551 1229.4594l-70.33069 35.18103" fill-rule="evenodd"/><path fill="#000000" fill-opacity="0.0" d="m976.18896 878.5066l70.33069 35.18109" fill-rule="evenodd"/><path stroke="#4ba173" stroke-width="8.0" stroke-linejoin="round" stroke-linecap="butt" d="m976.18896 878.5066l70.33069 35.18109" fill-rule="evenodd"/><path fill="#000000" fill-opacity="0.0" d="m909.66144 821.7743l135.77948 0l0 50.551147l-135.77948 0z" fill-rule="evenodd"/><path fill="#4ba173" d="m919.86456 861.6586l0 -4.328125l9.59375 0l0 4.328125l-9.59375 0zm11.999939 0l0 -4.328125l9.59375 0l0 4.328125l-9.59375 0zm15.84375 -13.890625q-1.25 0 -2.15625 -0.875q-0.890625 -0.875 -0.890625 -2.15625q0 -1.28125 0.890625 -2.140625q0.90625 -0.859375 2.15625 -0.859375q1.265625 0 2.140625 0.859375q0.890625 0.859375 0.890625 2.140625q0 1.28125 -0.890625 2.15625q-0.875 0.875 -2.140625 0.875zm-4.328125 29.25q-1.59375 0 -2.625 -0.28125q-1.046875 -0.28125 -2.21875 -1.078125l1.40625 -3.796875q1.15625 1.0 2.59375 1.0q1.171875 0 1.90625 -0.765625q0.734375 -0.765625 0.734375 -2.40625l0 -19.828125l5.078125 0l0 19.828125q0 3.328125 -1.703125 5.328125q-1.6875 2.0 -5.171875 2.0zm20.88562 -7.359375q-4.484375 0 -7.34375 -2.875q-2.859375 -2.890625 -2.859375 -7.296875q0 -4.390625 2.859375 -7.25q2.859375 -2.859375 7.34375 -2.859375q4.46875 0 7.34375 2.859375q2.890625 2.859375 2.890625 7.25q0 4.453125 -2.890625 7.3125q-2.875 2.859375 -7.34375 2.859375zm0 -4.53125q2.203125 0 3.578125 -1.578125q1.375 -1.578125 1.375 -4.0625q0 -2.390625 -1.375 -3.984375q-1.375 -1.609375 -3.578125 -1.609375q-2.125 0 -3.53125 1.546875q-1.390625 1.53125 -1.390625 4.046875q0 2.5625 1.390625 4.109375q1.40625 1.53125 3.53125 1.53125zm19.069336 -2.15625q0.640625 0.921875 1.875 1.546875q1.25 0.609375 2.484375 0.609375q2.25 0 3.578125 -1.53125q1.34375 -1.546875 1.34375 -4.0625q0 -2.515625 -1.34375 -4.078125q-1.328125 -1.5625 -3.578125 -1.5625q-1.234375 0 -2.484375 0.640625q-1.234375 0.640625 -1.875 1.59375l0 6.84375zm-5.078125 6.203125l0 -26.6875l5.078125 0l0 9.84375q2.328125 -2.953125 5.96875 -2.953125q3.84375 0 6.203125 2.796875q2.359375 2.796875 2.359375 7.359375q0 4.59375 -2.359375 7.359375q-2.359375 2.765625 -6.203125 2.765625q-3.5625 0 -5.96875 -2.96875l0 2.484375l-5.078125 0zm30.408752 0.484375q-2.53125 0 -4.828125 -0.796875q-2.296875 -0.8125 -3.8125 -2.203125l2.203125 -3.5625q1.15625 1.078125 3.078125 1.859375q1.921875 0.78125 3.59375 0.78125q3.234375 0 3.234375 -2.078125q0 -0.796875 -0.859375 -1.203125q-0.859375 -0.40625 -2.09375 -0.6875l-2.765625 -0.546875q-5.75 -1.25 -5.75 -5.765625q0 -2.6875 2.21875 -4.375q2.21875 -1.703125 5.703125 -1.703125q4.515625 0 7.796875 2.640625l-2.046875 3.46875q-0.875 -0.90625 -2.40625 -1.5625q-1.515625 -0.671875 -3.3125 -0.671875q-1.390625 0 -2.21875 0.5625q-0.8125 0.5625 -0.8125 1.359375q0 0.71875 0.828125 1.078125q0.84375 0.359375 2.125 0.625q1.28125 0.25 2.75 0.59375q1.484375 0.34375 2.765625 1.03125q1.28125 0.671875 2.125 1.828125q0.84375 1.15625 0.84375 3.125q0 2.796875 -2.28125 4.5q-2.28125 1.703125 -6.078125 1.703125z" fill-rule="nonzero"/><path fill="#000000" fill-opacity="0.0" d="m565.66144 1253.7743l135.77948 0l0 50.551147l-135.77948 0z" fill-rule="evenodd"/><path fill="#4ba173" d="m575.86456 1293.6587l0 -4.328125l9.59375 0l0 4.328125l-9.59375 0zm11.999939 0l0 -4.328125l9.59375 0l0 4.328125l-9.59375 0zm15.84375 -13.890625q-1.25 0 -2.15625 -0.875q-0.890625 -0.875 -0.890625 -2.15625q0 -1.28125 0.890625 -2.140625q0.90625 -0.859375 2.15625 -0.859375q1.265625 0 2.140625 0.859375q0.890625 0.859375 0.890625 2.140625q0 1.28125 -0.890625 2.15625q-0.875 0.875 -2.140625 0.875zm-4.328125 29.25q-1.59375 0 -2.625 -0.28125q-1.046875 -0.28125 -2.21875 -1.078125l1.40625 -3.796875q1.15625 1.0 2.59375 1.0q1.171875 0 1.90625 -0.765625q0.734375 -0.765625 0.734375 -2.40625l0 -19.828125l5.078125 0l0 19.828125q0 3.328125 -1.703125 5.328125q-1.6875 2.0 -5.171875 2.0zm20.88562 -7.359375q-4.484375 0 -7.34375 -2.875q-2.859375 -2.890625 -2.859375 -7.296875q0 -4.390625 2.859375 -7.25q2.859375 -2.859375 7.34375 -2.859375q4.46875 0 7.34375 2.859375q2.890625 2.859375 2.890625 7.25q0 4.453125 -2.890625 7.3125q-2.875 2.859375 -7.34375 2.859375zm0 -4.53125q2.203125 0 3.578125 -1.578125q1.375 -1.578125 1.375 -4.0625q0 -2.390625 -1.375 -3.984375q-1.375 -1.609375 -3.578125 -1.609375q-2.125 0 -3.53125 1.546875q-1.390625 1.53125 -1.390625 4.046875q0 2.5625 1.390625 4.109375q1.40625 1.53125 3.53125 1.53125zm19.069336 -2.15625q0.640625 0.921875 1.875 1.546875q1.25 0.609375 2.484375 0.609375q2.25 0 3.578125 -1.53125q1.34375 -1.546875 1.34375 -4.0625q0 -2.515625 -1.34375 -4.078125q-1.328125 -1.5625 -3.578125 -1.5625q-1.234375 0 -2.484375 0.640625q-1.234375 0.640625 -1.875 1.59375l0 6.84375zm-5.078125 6.203125l0 -26.6875l5.078125 0l0 9.84375q2.328125 -2.953125 5.96875 -2.953125q3.84375 0 6.203125 2.796875q2.359375 2.796875 2.359375 7.359375q0 4.59375 -2.359375 7.359375q-2.359375 2.765625 -6.203125 2.765625q-3.5625 0 -5.96875 -2.96875l0 2.484375l-5.078125 0zm30.408752 0.484375q-2.53125 0 -4.828125 -0.796875q-2.296875 -0.8125 -3.8125 -2.203125l2.203125 -3.5625q1.15625 1.078125 3.078125 1.859375q1.921875 0.78125 3.59375 0.78125q3.234375 0 3.234375 -2.078125q0 -0.796875 -0.859375 -1.203125q-0.859375 -0.40625 -2.09375 -0.6875l-2.765625 -0.546875q-5.75 -1.25 -5.75 -5.765625q0 -2.6875 2.21875 -4.375q2.21875 -1.703125 5.703125 -1.703125q4.515625 0 7.796875 2.640625l-2.046875 3.46875q-0.875 -0.90625 -2.40625 -1.5625q-1.515625 -0.671875 -3.3125 -0.671875q-1.390625 0 -2.21875 0.5625q-0.8125 0.5625 -0.8125 1.359375q0 0.71875 0.828125 1.078125q0.84375 0.359375 2.125 0.625q1.28125 0.25 2.75 0.59375q1.484375 0.34375 2.765625 1.03125q1.28125 0.671875 2.125 1.828125q0.84375 1.15625 0.84375 3.125q0 2.796875 -2.28125 4.5q-2.28125 1.703125 -6.078125 1.703125z" fill-rule="nonzero"/><path fill="#000000" fill-opacity="0.0" d="m1361.3884 1417.8268l0 79.55908" fill-rule="evenodd"/><path stroke="#4ba173" stroke-width="8.0" stroke-linejoin="round" stroke-linecap="butt" d="m1361.3884 1417.8268l0 79.55908" fill-rule="evenodd"/><path fill="#000000" fill-opacity="0.0" d="m1284.4698 1360.6404l161.48022 0l0 50.55127l-161.48022 0z" fill-rule="evenodd"/><path fill="#4ba173" d="m1303.2355 1408.0404l2.3125 -6.765625l-3.796875 0l-2.28125 6.765625l-3.765625 0l2.28125 -6.765625l-3.828125 0l1.03125 -3.234375l3.921875 0l2.15625 -6.640625l-3.921875 0l1.0 -3.203125l4.046875 0l2.234375 -6.84375l3.765625 0l-2.234375 6.84375l3.75 0l2.25 -6.84375l3.796875 0l-2.328125 6.84375l3.890625 0l-0.96875 3.203125l-4.0 0l-2.203125 6.640625l4.046875 0l-1.0 3.234375l-4.125 0l-2.234375 6.765625l-3.796875 0zm5.546875 -16.640625l-3.75 0l-2.15625 6.640625l3.71875 0l2.1875 -6.640625zm24.96997 17.125q-6.203125 0 -10.203125 -3.9375q-4.0 -3.953125 -4.0 -9.859375q0 -3.921875 1.859375 -7.125q1.859375 -3.203125 5.140625 -4.9375q3.28125 -1.75 7.203125 -1.75q7.359375 0 11.15625 6.53125l-4.875 2.390625q-0.84375 -1.640625 -2.53125 -2.75q-1.671875 -1.125 -3.75 -1.125q-3.640625 0 -6.0 2.5q-2.359375 2.5 -2.359375 6.265625q0 3.875 2.390625 6.3125q2.40625 2.4375 5.96875 2.4375q2.078125 0 3.75 -1.09375q1.6875 -1.109375 2.53125 -2.78125l4.875 2.359375q-3.796875 6.5625 -11.15625 6.5625zm14.558105 -0.484375l0 -26.6875l12.484375 0q4.078125 0 6.515625 2.390625q2.4375 2.375 2.4375 6.21875q0 3.796875 -2.5 6.203125q-2.5 2.390625 -6.453125 2.390625l-6.8125 0l0 9.484375l-5.671875 0zm11.71875 -14.484375q1.6875 0 2.796875 -0.953125q1.125 -0.96875 1.125 -2.640625q0 -1.6875 -1.125 -2.640625q-1.109375 -0.96875 -2.796875 -0.96875l-6.046875 0l0 7.203125l6.046875 0zm25.288086 14.96875q-5.6875 0 -8.875 -2.921875q-3.171875 -2.921875 -3.171875 -8.203125l0 -16.046875l5.765625 0l0 15.84375q0 2.796875 1.578125 4.546875q1.578125 1.734375 4.703125 1.734375q3.109375 0 4.671875 -1.734375q1.5625 -1.75 1.5625 -4.546875l0 -15.84375l5.796875 0l0 16.0q0 5.28125 -3.125 8.234375q-3.109375 2.9375 -8.90625 2.9375zm24.116821 0q-2.53125 0 -4.828125 -0.796875q-2.296875 -0.8125 -3.8125 -2.203125l2.203125 -3.5625q1.15625 1.078125 3.078125 1.859375q1.921875 0.78125 3.59375 0.78125q3.234375 0 3.234375 -2.078125q0 -0.796875 -0.859375 -1.203125q-0.859375 -0.40625 -2.09375 -0.6875l-2.765625 -0.546875q-5.75 -1.25 -5.75 -5.765625q0 -2.6875 2.21875 -4.375q2.21875 -1.703125 5.703125 -1.703125q4.515625 0 7.796875 2.640625l-2.046875 3.46875q-0.875 -0.90625 -2.40625 -1.5625q-1.515625 -0.671875 -3.3125 -0.671875q-1.390625 0 -2.21875 0.5625q-0.8125 0.5625 -0.8125 1.359375q0 0.71875 0.828125 1.078125q0.84375 0.359375 2.125 0.625q1.28125 0.25 2.75 0.59375q1.484375 0.34375 2.765625 1.03125q1.28125 0.671875 2.125 1.828125q0.84375 1.15625 0.84375 3.125q0 2.796875 -2.28125 4.5q-2.28125 1.703125 -6.078125 1.703125z" fill-rule="nonzero"/><path fill="#63d297" d="m2519.573 992.32166l0 0c-5.2351074 -42.25946 11.953125 -84.09375 44.270996 -107.75104c32.318115 -23.657288 74.0979 -24.988586 107.611084 -3.429016l0 0c11.871338 -24.571411 33.599365 -41.536255 58.611816 -45.763c25.012451 -4.2268066 50.371338 4.780945 68.40625 24.298584l0 0c10.113037 -22.278015 29.969727 -37.24597 52.52417 -39.59253c22.554688 -2.3464966 44.614746 8.260498 58.35254 28.057129l0 0c18.270264 -23.614624 47.33911 -33.557373 74.627686 -25.52594c27.288818 8.031433 47.89624 32.594482 52.905518 63.06067l0 0c22.384277 6.706604 41.03003 23.755798 51.11963 46.742615c10.0896 22.986755 10.633301 49.65619 1.4907227 73.117676l0 0c22.041992 31.511414 27.198242 73.49994 13.544189 110.2962c-13.653809 36.796265 -44.066406 62.872192 -79.88818 68.49658c-0.2524414 34.534668 -17.495117 66.223145 -45.08203 82.85156c-27.586914 16.628296 -61.210205 15.5998535 -87.90991 -2.6889648c-11.372803 41.361206 -43.383057 71.79431 -82.201416 78.151245c-38.818115 6.3569336 -77.485596 -12.502075 -99.29614 -48.4292c-26.735352 17.708618 -58.81543 22.809937 -89.00391 14.153076c-30.188232 -8.656738 -55.941895 -30.342285 -71.451416 -60.164917l0 0c-27.320068 3.5117188 -53.734863 -12.036133 -66.134766 -38.927124c-12.399902 -26.890991 -8.145264 -59.400635 10.652344 -81.39465l0 0c-24.370117 -15.755371 -36.80542 -47.01941 -30.821045 -77.489136c5.984375 -30.469604 29.032227 -53.240295 57.125 -56.43811z" fill-rule="evenodd"/><path fill="#000000" fill-opacity="0.0" d="m2492.7292 1127.8776l0 0c11.500244 7.4350586 24.785889 10.807861 38.072998 9.665283m17.40332 110.65918c5.713867 -0.7344971 11.314697 -2.289795 16.657715 -4.6258545m143.78955 50.635864c-4.018799 -6.619873 -7.383545 -13.693848 -10.037109 -21.101318m191.5415 -8.62207l0 0c2.0734863 -7.5407715 3.416748 -15.30188 4.0078125 -23.153809m128.97925 -57.00586c0.26879883 -36.767456 -18.74292 -70.43213 -48.869385 -86.53406m115.21265 -92.25482c-4.8789062 12.52002 -12.326904 23.626282 -21.760498 32.44818m-30.845215 -152.31177l0 0c0.8312988 5.055847 1.2160645 10.187683 1.1489258 15.324402m-128.67993 -52.857605l0 0c-4.557617 5.890686 -8.3125 12.47345 -11.147705 19.543274m-99.72998 -8.010437l0 0c-2.428711 5.350464 -4.2424316 11.012146 -5.39917 16.854675m-121.62085 4.6101685l0 0c7.0913086 4.5619507 13.651611 10.052795 19.53711 16.351868m-171.41724 94.8288l0 0c0.7216797 5.824402 1.8615723 11.577087 3.409668 17.20404" fill-rule="evenodd"/><path stroke="#4ba173" stroke-width="1.0" stroke-linejoin="round" stroke-linecap="butt" d="m2519.573 992.32166l0 0c-5.2351074 -42.25946 11.953125 -84.09375 44.270996 -107.75104c32.318115 -23.657288 74.0979 -24.988586 107.611084 -3.429016l0 0c11.871338 -24.571411 33.599365 -41.536255 58.611816 -45.763c25.012451 -4.2268066 50.371338 4.780945 68.40625 24.298584l0 0c10.113037 -22.278015 29.969727 -37.24597 52.52417 -39.59253c22.554688 -2.3464966 44.614746 8.260498 58.35254 28.057129l0 0c18.270264 -23.614624 47.33911 -33.557373 74.627686 -25.52594c27.288818 8.031433 47.89624 32.594482 52.905518 63.06067l0 0c22.384277 6.706604 41.03003 23.755798 51.11963 46.742615c10.0896 22.986755 10.633301 49.65619 1.4907227 73.117676l0 0c22.041992 31.511414 27.198242 73.49994 13.544189 110.2962c-13.653809 36.796265 -44.066406 62.872192 -79.88818 68.49658c-0.2524414 34.534668 -17.495117 66.223145 -45.08203 82.85156c-27.586914 16.628296 -61.210205 15.5998535 -87.90991 -2.6889648c-11.372803 41.361206 -43.383057 71.79431 -82.201416 78.151245c-38.818115 6.3569336 -77.485596 -12.502075 -99.29614 -48.4292c-26.735352 17.708618 -58.81543 22.809937 -89.00391 14.153076c-30.188232 -8.656738 -55.941895 -30.342285 -71.451416 -60.164917l0 0c-27.320068 3.5117188 -53.734863 -12.036133 -66.134766 -38.927124c-12.399902 -26.890991 -8.145264 -59.400635 10.652344 -81.39465l0 0c-24.370117 -15.755371 -36.80542 -47.01941 -30.821045 -77.489136c5.984375 -30.469604 29.032227 -53.240295 57.125 -56.43811z" fill-rule="evenodd"/><path stroke="#4ba173" stroke-width="1.0" stroke-linejoin="round" stroke-linecap="butt" d="m2492.7292 1127.8776l0 0c11.500244 7.4350586 24.785889 10.807861 38.072998 9.665283m17.40332 110.65918c5.713867 -0.7344971 11.314697 -2.289795 16.657715 -4.6258545m143.78955 50.635864c-4.018799 -6.619873 -7.383545 -13.693848 -10.037109 -21.101318m191.5415 -8.62207l0 0c2.0734863 -7.5407715 3.416748 -15.30188 4.0078125 -23.153809m128.97925 -57.00586c0.26879883 -36.767456 -18.74292 -70.43213 -48.869385 -86.53406m115.21265 -92.25482c-4.8789062 12.52002 -12.326904 23.626282 -21.760498 32.44818m-30.845215 -152.31177l0 0c0.8312988 5.055847 1.2160645 10.187683 1.1489258 15.324402m-128.67993 -52.857605l0 0c-4.557617 5.890686 -8.3125 12.47345 -11.147705 19.543274m-99.72998 -8.010437l0 0c-2.428711 5.350464 -4.2424316 11.012146 -5.39917 16.854675m-121.62085 4.6101685l0 0c7.0913086 4.5619507 13.651611 10.052795 19.53711 16.351868m-171.41724 94.8288l0 0c0.7216797 5.824402 1.8615723 11.577087 3.409668 17.20404" fill-rule="evenodd"/><path fill="#000000" d="m2608.4656 1052.3009l0 -42.6875l17.15625 0q6.078125 0 9.71875 3.65625q3.65625 3.640625 3.65625 9.203125q0 5.640625 -3.71875 9.265625q-3.703125 3.609375 -9.65625 3.609375l-11.84375 0l0 16.953125l-5.3125 0zm16.515625 -21.703125q3.84375 0 6.171875 -2.234375q2.34375 -2.234375 2.34375 -5.890625q0 -3.640625 -2.34375 -5.875q-2.328125 -2.25 -6.171875 -2.25l-11.203125 0l0 16.25l11.203125 0zm23.239746 -13.625q-1.28125 0 -2.25 -0.921875q-0.953125 -0.9375 -0.953125 -2.28125q0 -1.34375 0.953125 -2.296875q0.96875 -0.96875 2.25 -0.96875q1.34375 0 2.296875 0.96875q0.96875 0.953125 0.96875 2.296875q0 1.34375 -0.96875 2.28125q-0.953125 0.921875 -2.296875 0.921875zm-2.375 35.328125l0 -30.90625l4.796875 0l0 30.90625l-4.796875 0zm28.040771 0.765625q-6.796875 0 -11.109375 -4.609375q-4.3125 -4.609375 -4.3125 -11.640625q0 -6.984375 4.3125 -11.59375q4.3125 -4.609375 11.109375 -4.609375q7.15625 0 11.328125 5.390625l-3.203125 2.9375q-2.953125 -4.03125 -7.875 -4.03125q-4.734375 0 -7.71875 3.296875q-2.96875 3.296875 -2.96875 8.609375q0 5.375 2.9375 8.671875q2.953125 3.296875 7.75 3.296875q4.859375 0 7.875 -4.03125l3.203125 2.9375q-4.171875 5.375 -11.328125 5.375zm39.101807 -0.765625l-11.140625 -13.890625l-5.125 5.0625l0 8.828125l-4.796875 0l0 -42.6875l4.796875 0l0 28.21875l16.265625 -16.4375l6.078125 0l-13.703125 14.015625l13.765625 16.890625l-6.140625 0zm29.689209 0l0 -26.6875l-5.109375 0l0 -4.21875l5.109375 0l0 -2.375q0 -4.796875 2.390625 -7.421875q2.40625 -2.625 6.578125 -2.625q3.90625 0 6.515625 2.375l-1.984375 3.125q-1.65625 -1.53125 -3.828125 -1.53125q-4.875 0 -4.875 6.078125l0 2.375l6.28125 0l0 4.21875l-6.28125 0l0 26.6875l-4.796875 0zm36.09619 0l0 -3.515625q-3.90625 4.28125 -10.234375 4.28125q-4.671875 0 -7.75 -2.9375q-3.0625 -2.953125 -3.0625 -7.296875q0 -4.484375 3.03125 -7.328125q3.046875 -2.84375 7.78125 -2.84375q6.65625 0 10.234375 4.21875l0 -5.5625q0 -3.140625 -2.203125 -4.828125q-2.203125 -1.703125 -5.609375 -1.703125q-5.4375 0 -9.46875 4.28125l-2.234375 -3.328125q4.921875 -5.125 12.34375 -5.125q5.703125 0 8.828125 2.765625q3.140625 2.75 3.140625 7.671875l0 21.25l-4.796875 0zm-8.515625 -2.6875q5.703125 0 8.515625 -3.84375l0 -5.828125q-2.8125 -3.828125 -8.515625 -3.828125q-3.390625 0 -5.5 1.890625q-2.109375 1.875 -2.109375 4.890625q0 2.9375 2.109375 4.828125q2.109375 1.890625 5.5 1.890625zm32.712402 3.453125q-7.875 0 -12.484375 -4.859375l2.5 -3.453125q1.53125 1.78125 4.25 3.09375q2.71875 1.3125 5.921875 1.3125q3.59375 0 5.4375 -1.5q1.859375 -1.5 1.859375 -3.8125q0 -2.046875 -2.015625 -3.21875q-2.015625 -1.1875 -7.515625 -2.46875q-4.671875 -0.96875 -7.140625 -3.046875q-2.46875 -2.078125 -2.46875 -5.59375q0 -3.90625 3.140625 -6.40625q3.140625 -2.5 8.390625 -2.5q6.96875 0 11.453125 4.484375l-2.234375 3.328125q-1.421875 -1.65625 -3.828125 -2.78125q-2.390625 -1.125 -5.390625 -1.125q-3.203125 0 -5.03125 1.421875q-1.828125 1.40625 -1.828125 3.453125q0 1.84375 2.046875 2.9375q2.0625 1.09375 7.5625 2.234375q4.671875 1.09375 7.09375 3.3125q2.4375 2.203125 2.4375 5.84375q0 4.296875 -3.328125 6.828125q-3.328125 2.515625 -8.828125 2.515625zm27.775635 0q-6.84375 0 -6.84375 -7.234375l0 -20.21875l-5.125 0l0 -4.21875l5.125 0l0 -8.453125l4.796875 0l0 8.453125l6.265625 0l0 4.21875l-6.265625 0l0 19.203125q0 1.71875 0.765625 2.84375q0.765625 1.125 2.375 1.125q1.984375 0 3.25 -1.28125l1.421875 3.578125q-1.984375 1.984375 -5.765625 1.984375zm24.956543 0q-6.96875 0 -11.359375 -4.53125q-4.375 -4.546875 -4.375 -11.71875q0 -6.859375 4.34375 -11.53125q4.359375 -4.671875 10.875 -4.671875q6.65625 0 10.75 4.609375q4.109375 4.609375 4.109375 11.96875l0 1.21875l-25.03125 0q0.25 4.734375 3.421875 7.71875q3.171875 2.96875 7.71875 2.96875q5.625 0 9.53125 -3.90625l2.3125 3.140625q-4.75 4.734375 -12.296875 4.734375zm9.609375 -18.171875q0 -4.296875 -2.828125 -7.296875q-2.8125 -3.015625 -7.359375 -3.015625q-4.28125 0 -7.140625 3.015625q-2.84375 3.0 -2.96875 7.296875l20.296875 0zm22.266357 18.171875q-7.875 0 -12.484375 -4.859375l2.5 -3.453125q1.53125 1.78125 4.25 3.09375q2.71875 1.3125 5.921875 1.3125q3.59375 0 5.4375 -1.5q1.859375 -1.5 1.859375 -3.8125q0 -2.046875 -2.015625 -3.21875q-2.015625 -1.1875 -7.515625 -2.46875q-4.671875 -0.96875 -7.140625 -3.046875q-2.46875 -2.078125 -2.46875 -5.59375q0 -3.90625 3.140625 -6.40625q3.140625 -2.5 8.390625 -2.5q6.96875 0 11.453125 4.484375l-2.234375 3.328125q-1.421875 -1.65625 -3.828125 -2.78125q-2.390625 -1.125 -5.390625 -1.125q-3.203125 0 -5.03125 1.421875q-1.828125 1.40625 -1.828125 3.453125q0 1.84375 2.046875 2.9375q2.0625 1.09375 7.5625 2.234375q4.671875 1.09375 7.09375 3.3125q2.4375 2.203125 2.4375 5.84375q0 4.296875 -3.328125 6.828125q-3.328125 2.515625 -8.828125 2.515625zm27.77539 0q-6.84375 0 -6.84375 -7.234375l0 -20.21875l-5.125 0l0 -4.21875l5.125 0l0 -8.453125l4.796875 0l0 8.453125l6.265625 0l0 4.21875l-6.265625 0l0 19.203125q0 1.71875 0.765625 2.84375q0.765625 1.125 2.375 1.125q1.984375 0 3.25 -1.28125l1.421875 3.578125q-1.984375 1.984375 -5.765625 1.984375z" fill-rule="nonzero"/><path fill="#000000" d="m2689.622 1129.3009l0 -30.90625l4.796875 0l0 4.984375q4.296875 -5.625 10.3125 -5.625l0 4.921875l-1.921875 -0.1875q-2.171875 0 -4.796875 1.5625q-2.625 1.5625 -3.59375 3.359375l0 21.890625l-4.796875 0zm35.072998 0.765625q-6.96875 0 -11.359375 -4.53125q-4.375 -4.546875 -4.375 -11.71875q0 -6.859375 4.34375 -11.53125q4.359375 -4.671875 10.875 -4.671875q6.65625 0 10.75 4.609375q4.109375 4.609375 4.109375 11.96875l0 1.21875l-25.03125 0q0.25 4.734375 3.421875 7.71875q3.171875 2.96875 7.71875 2.96875q5.625 0 9.53125 -3.90625l2.3125 3.140625q-4.75 4.734375 -12.296875 4.734375zm9.609375 -18.171875q0 -4.296875 -2.828125 -7.296875q-2.8125 -3.015625 -7.359375 -3.015625q-4.28125 0 -7.140625 3.015625q-2.84375 3.0 -2.96875 7.296875l20.296875 0zm22.266357 18.171875q-7.875 0 -12.484375 -4.859375l2.5 -3.453125q1.53125 1.78125 4.25 3.09375q2.71875 1.3125 5.921875 1.3125q3.59375 0 5.4375 -1.5q1.859375 -1.5 1.859375 -3.8125q0 -2.046875 -2.015625 -3.21875q-2.015625 -1.1875 -7.515625 -2.46875q-4.671875 -0.96875 -7.140625 -3.046875q-2.46875 -2.078125 -2.46875 -5.59375q0 -3.90625 3.140625 -6.40625q3.140625 -2.5 8.390625 -2.5q6.96875 0 11.453125 4.484375l-2.234375 3.328125q-1.421875 -1.65625 -3.828125 -2.78125q-2.390625 -1.125 -5.390625 -1.125q-3.203125 0 -5.03125 1.421875q-1.828125 1.40625 -1.828125 3.453125q0 1.84375 2.046875 2.9375q2.0625 1.09375 7.5625 2.234375q4.671875 1.09375 7.09375 3.3125q2.4375 2.203125 2.4375 5.84375q0 4.296875 -3.328125 6.828125q-3.328125 2.515625 -8.828125 2.515625zm40.822266 -0.765625l0 -4.359375q-1.78125 2.0625 -4.671875 3.59375q-2.875 1.53125 -6.328125 1.53125q-9.859375 0 -9.859375 -9.859375l0 -21.8125l4.796875 0l0 20.34375q0 3.65625 1.65625 5.359375q1.671875 1.6875 5.265625 1.6875q2.8125 0 5.296875 -1.40625q2.5 -1.421875 3.84375 -3.265625l0 -22.71875l4.8125 0l0 30.90625l-4.8125 0zm14.404785 0l0 -42.6875l4.796875 0l0 42.6875l-4.796875 0zm22.212402 0.765625q-6.84375 0 -6.84375 -7.234375l0 -20.21875l-5.125 0l0 -4.21875l5.125 0l0 -8.453125l4.796875 0l0 8.453125l6.265625 0l0 4.21875l-6.265625 0l0 19.203125q0 1.71875 0.765625 2.84375q0.765625 1.125 2.375 1.125q1.984375 0 3.25 -1.28125l1.421875 3.578125q-1.984375 1.984375 -5.765625 1.984375z" fill-rule="nonzero"/></g></svg>