<svg version="1.1" viewBox="0.0 0.0 3840.0 2160.0" fill="none" stroke="none" stroke-linecap="square" stroke-miterlimit="10" xmlns:xlink="http://www.w3.org/1999/xlink" xmlns="http://www.w3.org/2000/svg"><clipPath id="g6c1882f97b_1_44.0"><path d="m0 0l3840.0 0l0 2160.0l-3840.0 0l0 -2160.0z" clip-rule="nonzero"/></clipPath><g clip-path="url(#g6c1882f97b_1_44.0)"><path fill="#ffffff" d="m0 0l3840.0 0l0 2160.0l-3840.0 0z" fill-rule="evenodd"/><path fill="#2f6f28" d="m0 2118.9292l3840.0 0l0 41.0708l-3840.0 0z" fill-rule="evenodd"/><path fill="#000000" fill-opacity="0.0" d="m124.12861 227.71916l0 180.66142" fill-rule="evenodd"/><path stroke="#4ba173" stroke-width="16.0" stroke-linejoin="round" stroke-linecap="butt" d="m124.12861 227.71916l0 180.66142" fill-rule="evenodd"/><path fill="#000000" fill-opacity="0.0" d="m130.89764 186.88715l3578.2046 0l0 240.50394l-3578.2046 0z" fill-rule="evenodd"/><path fill="#202729" d="m180.53827 368.24713l0 -99.609375l40.03125 0q14.1875 0 22.6875 8.515625q8.515625 8.515625 8.515625 21.5q0 13.140625 -8.65625 21.578125q-8.65625 8.4375 -22.546875 8.4375l-27.625 0l0 39.578125l-12.40625 0zm38.53125 -50.625q8.96875 0 14.40625 -5.21875q5.453125 -5.234375 5.453125 -13.75q0 -8.5 -5.453125 -13.71875q-5.4375 -5.234375 -14.40625 -5.234375l-26.125 0l0 37.921875l26.125 0zm48.68692 50.625l0 -72.125l11.203125 0l0 11.640625q10.0 -13.140625 24.03125 -13.140625l0 11.5l-4.46875 -0.4375q-5.078125 0 -11.203125 3.65625q-6.125 3.65625 -8.359375 7.84375l0 51.0625l-11.203125 0zm80.77832 1.796875q-15.671875 0 -25.6875 -10.671875q-10.0 -10.6875 -10.0 -27.265625q0 -16.71875 10.0 -27.25q10.015625 -10.53125 25.6875 -10.53125q15.6875 0 25.6875 10.53125q10.0 10.53125 10.0 27.25q0 16.578125 -10.0 27.265625q-10.0 10.671875 -25.6875 10.671875zm0 -10.015625q10.453125 0 17.171875 -7.828125q6.71875 -7.84375 6.71875 -20.09375q0 -12.09375 -6.71875 -19.921875q-6.71875 -7.84375 -17.171875 -7.84375q-10.453125 0 -17.25 7.765625q-6.78125 7.765625 -6.78125 20.0q0 12.390625 6.71875 20.15625q6.71875 7.765625 17.3125 7.765625zm65.118866 -11.34375q2.984375 4.78125 8.875 8.0625q5.90625 3.28125 12.625 3.28125q10.59375 0 16.9375 -7.6875q6.359375 -7.6875 6.359375 -20.078125q0 -12.546875 -6.28125 -20.234375q-6.265625 -7.6875 -17.015625 -7.6875q-6.71875 0 -12.625 3.4375q-5.890625 3.421875 -8.875 8.203125l0 32.703125zm-11.203125 19.5625l0 -99.609375l11.203125 0l0 38.390625q9.25 -12.703125 24.328125 -12.703125q14.34375 0 23.21875 10.453125q8.890625 10.453125 8.890625 27.484375q0 17.3125 -8.890625 27.546875q-8.875 10.234375 -23.21875 10.234375q-7.609375 0 -13.953125 -3.5q-6.34375 -3.515625 -10.375 -9.046875l0 10.75l-11.203125 0zm85.86377 0l0 -99.609375l11.203125 0l0 99.609375l-11.203125 0zm66.14569 1.796875q-16.28125 0 -26.515625 -10.59375q-10.21875 -10.609375 -10.21875 -27.34375q0 -15.96875 10.15625 -26.875q10.15625 -10.90625 25.390625 -10.90625q15.53125 0 25.078125 10.75q9.5625 10.75 9.5625 27.9375l0 2.828125l-58.390625 0q0.59375 11.046875 7.984375 18.0q7.40625 6.9375 18.0 6.9375q13.140625 0 22.25 -9.109375l5.375 7.3125q-11.046875 11.0625 -28.671875 11.0625zm22.40625 -42.421875q0 -10.0 -6.578125 -17.015625q-6.5625 -7.015625 -17.171875 -7.015625q-10.0 0 -16.65625 7.015625q-6.640625 7.015625 -6.9375 17.015625l47.34375 0zm116.18121 40.625l0 -48.984375q0 -14.921875 -13.296875 -14.921875q-5.671875 0 -10.984375 3.359375q-5.296875 3.359375 -8.125 7.6875l0 52.859375l-11.203125 0l0 -48.984375q0 -14.921875 -13.296875 -14.921875q-5.515625 0 -10.75 3.4375q-5.21875 3.421875 -8.203125 7.75l0 52.71875l-11.203125 0l0 -72.125l11.203125 0l0 10.453125q2.53125 -4.328125 9.546875 -8.28125q7.015625 -3.96875 13.734375 -3.96875q8.375 0 13.078125 3.890625q4.703125 3.875 6.34375 9.546875q3.734375 -5.8125 10.59375 -9.625q6.875 -3.8125 13.59375 -3.8125q20.15625 0 20.15625 21.8125l0 52.109375l-11.1875 0zm39.563477 -56.75q-3.4375 0 -5.828125 -2.375q-2.390625 -2.390625 -2.390625 -5.828125q0 -3.4375 2.390625 -5.828125q2.390625 -2.390625 5.828125 -2.390625q3.4375 0 5.828125 2.390625q2.390625 2.390625 2.390625 5.828125q0 3.4375 -2.390625 5.828125q-2.390625 2.375 -5.828125 2.375zm0 58.25q-3.4375 0 -5.828125 -2.390625q-2.390625 -2.390625 -2.390625 -5.828125q0 -3.4375 2.390625 -5.828125q2.390625 -2.390625 5.828125 -2.390625q3.4375 0 5.828125 2.390625q2.390625 2.390625 2.390625 5.828125q0 3.4375 -2.390625 5.828125q-2.390625 2.390625 -5.828125 2.390625zm67.34088 -1.5l0 -99.609375l34.046875 0q22.703125 0 36.890625 14.125q14.1875 14.109375 14.1875 35.765625q0 21.796875 -14.265625 35.765625q-14.25 13.953125 -36.8125 13.953125l-34.046875 0zm34.046875 -11.046875q17.03125 0 27.625 -10.671875q10.609375 -10.6875 10.609375 -28.0q0 -17.328125 -10.453125 -28.078125q-10.453125 -10.75 -27.78125 -10.75l-21.640625 0l0 77.5l21.640625 0zm101.54541 12.84375q-15.671875 0 -25.6875 -10.671875q-10.0 -10.6875 -10.0 -27.265625q0 -16.71875 10.0 -27.25q10.015625 -10.53125 25.6875 -10.53125q15.6875 0 25.6875 10.53125q10.0 10.53125 10.0 27.25q0 16.578125 -10.0 27.265625q-10.0 10.671875 -25.6875 10.671875zm0 -10.015625q10.453125 0 17.171875 -7.828125q6.71875 -7.84375 6.71875 -20.09375q0 -12.09375 -6.71875 -19.921875q-6.71875 -7.84375 -17.171875 -7.84375q-10.453125 0 -17.25 7.765625q-6.78125 7.765625 -6.78125 20.0q0 12.390625 6.71875 20.15625q6.71875 7.765625 17.3125 7.765625zm116.33765 8.21875l-18.828125 -57.9375l-18.8125 57.9375l-11.203125 0l-22.984375 -72.125l11.640625 0l17.625 57.484375l18.96875 -57.484375l9.546875 0l18.96875 57.484375l17.625 -57.484375l11.640625 0l-23.0 72.125l-11.1875 0zm95.85693 0l0 -47.1875q0 -9.5625 -4.40625 -13.140625q-4.40625 -3.578125 -11.71875 -3.578125q-6.265625 0 -12.3125 3.359375q-6.046875 3.359375 -9.03125 7.828125l0 52.71875l-11.203125 0l0 -72.125l11.203125 0l0 10.453125q4.625 -5.375 11.421875 -8.8125q6.796875 -3.4375 14.25 -3.4375q23.0 0 23.0 23.296875l0 50.625l-11.203125 0zm33.60791 0l0 -99.609375l11.203125 0l0 99.609375l-11.203125 0zm65.09888 1.796875q-15.671875 0 -25.6875 -10.671875q-10.0 -10.6875 -10.0 -27.265625q0 -16.71875 10.0 -27.25q10.015625 -10.53125 25.6875 -10.53125q15.6875 0 25.6875 10.53125q10.0 10.53125 10.0 27.25q0 16.578125 -10.0 27.265625q-10.0 10.671875 -25.6875 10.671875zm0 -10.015625q10.453125 0 17.171875 -7.828125q6.71875 -7.84375 6.71875 -20.09375q0 -12.09375 -6.71875 -19.921875q-6.71875 -7.84375 -17.171875 -7.84375q-10.453125 0 -17.25 7.765625q-6.78125 7.765625 -6.78125 20.0q0 12.390625 6.71875 20.15625q6.71875 7.765625 17.3125 7.765625zm99.00952 8.21875l0 -8.21875q-9.109375 10.015625 -23.890625 10.015625q-10.90625 0 -18.078125 -6.875q-7.15625 -6.875 -7.15625 -17.015625q0 -10.453125 7.09375 -17.09375q7.09375 -6.65625 18.140625 -6.65625q15.53125 0 23.890625 9.859375l0 -13.0q0 -7.3125 -5.15625 -11.265625q-5.140625 -3.96875 -13.0625 -3.96875q-12.6875 0 -22.09375 10.015625l-5.234375 -7.765625q11.5 -11.953125 28.828125 -11.953125q13.28125 0 20.59375 6.421875q7.328125 6.421875 7.328125 17.921875l0 49.578125l-11.203125 0zm-19.859375 -6.265625q13.28125 0 19.859375 -8.96875l0 -13.59375q-6.578125 -8.953125 -19.859375 -8.953125q-7.921875 0 -12.84375 4.40625q-4.921875 4.40625 -4.921875 11.421875q0 6.875 4.921875 11.28125q4.921875 4.40625 12.84375 4.40625zm105.727295 6.265625l0 -10.75q-4.03125 5.53125 -10.390625 9.046875q-6.34375 3.5 -13.953125 3.5q-14.484375 0 -23.296875 -10.296875q-8.8125 -10.3125 -8.8125 -27.484375q0 -17.328125 8.875 -27.625q8.890625 -10.3125 23.234375 -10.3125q7.3125 0 13.65625 3.359375q6.359375 3.359375 10.6875 9.34375l0 -38.390625l11.203125 0l0 99.609375l-11.203125 0zm-21.65625 -8.21875q6.71875 0 12.6875 -3.28125q5.984375 -3.28125 8.96875 -8.0625l0 -32.703125q-2.984375 -4.78125 -8.96875 -8.203125q-5.96875 -3.4375 -12.6875 -3.4375q-10.453125 0 -16.796875 7.609375q-6.34375 7.609375 -6.34375 20.3125q0 12.390625 6.265625 20.078125q6.265625 7.6875 16.875 7.6875zm111.99988 10.015625q-15.984375 0 -15.984375 -16.875l0 -47.1875l-11.9375 0l0 -9.859375l11.9375 0l0 -19.71875l11.203125 0l0 19.71875l14.625 0l0 9.859375l-14.625 0l0 44.796875q0 4.03125 1.78125 6.640625q1.796875 2.609375 5.53125 2.609375q4.625 0 7.625 -2.984375l3.28125 8.359375q-4.625 4.640625 -13.4375 4.640625zm31.19934 -84.21875q-2.984375 0 -5.21875 -2.171875q-2.234375 -2.171875 -2.234375 -5.296875q0 -3.140625 2.234375 -5.375q2.234375 -2.25 5.21875 -2.25q3.140625 0 5.375 2.25q2.25 2.234375 2.25 5.375q0 3.125 -2.25 5.296875q-2.234375 2.171875 -5.375 2.171875zm-5.515625 82.421875l0 -72.125l11.203125 0l0 72.125l-11.203125 0zm120.66138 0l0 -48.984375q0 -14.921875 -13.296875 -14.921875q-5.671875 0 -10.984375 3.359375q-5.296875 3.359375 -8.125 7.6875l0 52.859375l-11.203125 0l0 -48.984375q0 -14.921875 -13.296875 -14.921875q-5.515625 0 -10.75 3.4375q-5.21875 3.421875 -8.203125 7.75l0 52.71875l-11.203125 0l0 -72.125l11.203125 0l0 10.453125q2.53125 -4.328125 9.546875 -8.28125q7.015625 -3.96875 13.734375 -3.96875q8.375 0 13.078125 3.890625q4.703125 3.875 6.34375 9.546875q3.734375 -5.8125 10.59375 -9.625q6.875 -3.8125 13.59375 -3.8125q20.15625 0 20.15625 21.8125l0 52.109375l-11.1875 0zm66.1416 1.796875q-16.28125 0 -26.515625 -10.59375q-10.21875 -10.609375 -10.21875 -27.34375q0 -15.96875 10.15625 -26.875q10.15625 -10.90625 25.390625 -10.90625q15.53125 0 25.078125 10.75q9.5625 10.75 9.5625 27.9375l0 2.828125l-58.390625 0q0.59375 11.046875 7.984375 18.0q7.40625 6.9375 18.0 6.9375q13.140625 0 22.25 -9.109375l5.375 7.3125q-11.046875 11.0625 -28.671875 11.0625zm22.40625 -42.421875q0 -10.0 -6.578125 -17.015625q-6.5625 -7.015625 -17.171875 -7.015625q-10.0 0 -16.65625 7.015625q-6.640625 7.015625 -6.9375 17.015625l47.34375 0zm51.962402 42.421875q-18.375 0 -29.125 -11.359375l5.828125 -8.0625q3.578125 4.1875 9.921875 7.25q6.359375 3.0625 13.828125 3.0625q8.359375 0 12.6875 -3.5q4.328125 -3.515625 4.328125 -8.90625q0 -4.765625 -4.703125 -7.53125q-4.703125 -2.765625 -17.546875 -5.75q-10.890625 -2.234375 -16.640625 -7.09375q-5.75 -4.859375 -5.75 -13.0625q0 -9.109375 7.3125 -14.9375q7.3125 -5.828125 19.5625 -5.828125q16.28125 0 26.734375 10.453125l-5.234375 7.765625q-3.28125 -3.875 -8.890625 -6.484375q-5.59375 -2.625 -12.609375 -2.625q-7.46875 0 -11.734375 3.296875q-4.25 3.28125 -4.25 8.0625q0 4.328125 4.78125 6.875q4.78125 2.53125 17.625 5.21875q10.890625 2.53125 16.5625 7.6875q5.6875 5.15625 5.6875 13.65625q0 10.015625 -7.765625 15.921875q-7.765625 5.890625 -20.609375 5.890625z" fill-rule="nonzero"/><path fill="#63d297" d="m1478.063 629.859l0 0c0 -20.030518 16.237915 -36.268433 36.268433 -36.268433l373.66785 0c9.619019 0 18.843994 3.821106 25.64563 10.622742c6.8016357 6.8016357 10.622803 16.026672 10.622803 25.64569l0 145.0694c0 20.030518 -16.237915 36.268433 -36.268433 36.268433l-373.66785 0c-20.030518 0 -36.268433 -16.237915 -36.268433 -36.268433z" fill-rule="evenodd"/><path stroke="#4ba173" stroke-width="1.0" stroke-linejoin="round" stroke-linecap="butt" d="m1478.063 629.859l0 0c0 -20.030518 16.237915 -36.268433 36.268433 -36.268433l373.66785 0c9.619019 0 18.843994 3.821106 25.64563 10.622742c6.8016357 6.8016357 10.622803 16.026672 10.622803 25.64569l0 145.0694c0 20.030518 -16.237915 36.268433 -36.268433 36.268433l-373.66785 0c-20.030518 0 -36.268433 -16.237915 -36.268433 -36.268433z" fill-rule="evenodd"/><path fill="#000000" d="m1605.8024 686.8337l0 -30.90625l4.796875 0l0 4.984375q4.296875 -5.625 10.3125 -5.625l0 4.921875l-1.921875 -0.1875q-2.171875 0 -4.796875 1.5625q-2.625 1.5625 -3.59375 3.359375l0 21.890625l-4.796875 0zm35.07312 0.765625q-6.96875 0 -11.359375 -4.53125q-4.375 -4.546875 -4.375 -11.71875q0 -6.859375 4.34375 -11.53125q4.359375 -4.671875 10.875 -4.671875q6.65625 0 10.75 4.609375q4.109375 4.609375 4.109375 11.96875l0 1.21875l-25.03125 0q0.25 4.734375 3.421875 7.71875q3.171875 2.96875 7.71875 2.96875q5.625 0 9.53125 -3.90625l2.3125 3.140625q-4.75 4.734375 -12.296875 4.734375zm9.609375 -18.171875q0 -4.296875 -2.828125 -7.296875q-2.8125 -3.015625 -7.359375 -3.015625q-4.28125 0 -7.140625 3.015625q-2.84375 3.0 -2.96875 7.296875l20.296875 0zm49.781982 17.40625l0 -20.984375q0 -6.40625 -5.6875 -6.40625q-2.4375 0 -4.71875 1.4375q-2.265625 1.4375 -3.484375 3.296875l0 22.65625l-4.796875 0l0 -20.984375q0 -6.40625 -5.6875 -6.40625q-2.375 0 -4.625 1.46875q-2.234375 1.46875 -3.515625 3.328125l0 22.59375l-4.796875 0l0 -30.90625l4.796875 0l0 4.46875q1.09375 -1.84375 4.09375 -3.546875q3.015625 -1.703125 5.890625 -1.703125q3.59375 0 5.609375 1.671875q2.015625 1.65625 2.71875 4.09375q1.59375 -2.5 4.53125 -4.125q2.953125 -1.640625 5.828125 -1.640625q8.640625 0 8.640625 9.34375l0 22.34375l-4.796875 0zm27.899414 0.765625q-6.71875 0 -11.0 -4.578125q-4.28125 -4.578125 -4.28125 -11.671875q0 -7.171875 4.28125 -11.6875q4.28125 -4.515625 11.0 -4.515625q6.734375 0 11.015625 4.515625q4.28125 4.515625 4.28125 11.6875q0 7.09375 -4.28125 11.671875q-4.28125 4.578125 -11.015625 4.578125zm0 -4.28125q4.484375 0 7.359375 -3.359375q2.890625 -3.359375 2.890625 -8.609375q0 -5.1875 -2.890625 -8.546875q-2.875 -3.359375 -7.359375 -3.359375q-4.46875 0 -7.390625 3.328125q-2.90625 3.328125 -2.90625 8.578125q0 5.3125 2.875 8.640625q2.890625 3.328125 7.421875 3.328125zm30.92041 4.28125q-6.84375 0 -6.84375 -7.234375l0 -20.21875l-5.125 0l0 -4.21875l5.125 0l0 -8.453125l4.796875 0l0 8.453125l6.265625 0l0 4.21875l-6.265625 0l0 19.203125q0 1.71875 0.765625 2.84375q0.765625 1.125 2.375 1.125q1.984375 0 3.25 -1.28125l1.421875 3.578125q-1.984375 1.984375 -5.765625 1.984375zm24.956543 0q-6.96875 0 -11.359375 -4.53125q-4.375 -4.546875 -4.375 -11.71875q0 -6.859375 4.34375 -11.53125q4.359375 -4.671875 10.875 -4.671875q6.65625 0 10.75 4.609375q4.109375 4.609375 4.109375 11.96875l0 1.21875l-25.03125 0q0.25 4.734375 3.421875 7.71875q3.171875 2.96875 7.71875 2.96875q5.625 0 9.53125 -3.90625l2.3125 3.140625q-4.75 4.734375 -12.296875 4.734375zm9.609375 -18.171875q0 -4.296875 -2.828125 -7.296875q-2.8125 -3.015625 -7.359375 -3.015625q-4.28125 0 -7.140625 3.015625q-2.84375 3.0 -2.96875 7.296875l20.296875 0z" fill-rule="nonzero"/><path fill="#000000" d="m1637.8035 764.5993q-6.96875 0 -11.359375 -4.53125q-4.375 -4.546875 -4.375 -11.71875q0 -6.859375 4.34375 -11.53125q4.359375 -4.671875 10.875 -4.671875q6.65625 0 10.75 4.609375q4.109375 4.609375 4.109375 11.96875l0 1.21875l-25.03125 0q0.25 4.734375 3.421875 7.71875q3.171875 2.96875 7.71875 2.96875q5.625 0 9.53125 -3.90625l2.3125 3.140625q-4.75 4.734375 -12.296875 4.734375zm9.609375 -18.171875q0 -4.296875 -2.828125 -7.296875q-2.8125 -3.015625 -7.359375 -3.015625q-4.28125 0 -7.140625 3.015625q-2.84375 3.0 -2.96875 7.296875l20.296875 0zm32.500732 17.40625l-9.28125 -12.671875l-9.28125 12.671875l-5.5 0l11.84375 -15.875l-11.203125 -15.03125l5.5625 0l8.578125 11.765625l8.578125 -11.765625l5.578125 0l-11.203125 15.03125l11.90625 15.875l-5.578125 0zm22.657837 0.765625q-6.96875 0 -11.359375 -4.53125q-4.375 -4.546875 -4.375 -11.71875q0 -6.859375 4.34375 -11.53125q4.359375 -4.671875 10.875 -4.671875q6.65625 0 10.75 4.609375q4.109375 4.609375 4.109375 11.96875l0 1.21875l-25.03125 0q0.25 4.734375 3.421875 7.71875q3.171875 2.96875 7.71875 2.96875q5.625 0 9.53125 -3.90625l2.3125 3.140625q-4.75 4.734375 -12.296875 4.734375zm9.609375 -18.171875q0 -4.296875 -2.828125 -7.296875q-2.8125 -3.015625 -7.359375 -3.015625q-4.28125 0 -7.140625 3.015625q-2.84375 3.0 -2.96875 7.296875l20.296875 0zm26.109985 18.171875q-6.796875 0 -11.109375 -4.609375q-4.3125 -4.609375 -4.3125 -11.640625q0 -6.984375 4.3125 -11.59375q4.3125 -4.609375 11.109375 -4.609375q7.15625 0 11.328125 5.390625l-3.203125 2.9375q-2.953125 -4.03125 -7.875 -4.03125q-4.734375 0 -7.71875 3.296875q-2.96875 3.296875 -2.96875 8.609375q0 5.375 2.9375 8.671875q2.953125 3.296875 7.75 3.296875q4.859375 0 7.875 -4.03125l3.203125 2.9375q-4.171875 5.375 -11.328125 5.375zm25.086182 11.96875q-4.359375 -5.953125 -6.703125 -13.25q-2.328125 -7.296875 -2.328125 -15.03125q0 -7.75 2.328125 -15.015625q2.34375 -7.265625 6.703125 -13.28125l2.875 2.1875q-3.84375 7.671875 -5.25 13.40625q-1.40625 5.71875 -1.40625 12.703125q0 6.90625 1.4375 12.734375q1.4375 5.828125 5.21875 13.3125l-2.875 2.234375zm5.1220703 -2.234375q3.765625 -7.421875 5.234375 -13.46875q1.484375 -6.0625 1.484375 -12.578125q0 -6.53125 -1.453125 -12.453125q-1.4375 -5.921875 -5.265625 -13.65625l2.875 -2.1875q4.421875 6.015625 6.75 13.28125q2.34375 7.265625 2.34375 15.015625q0 7.734375 -2.34375 15.03125q-2.328125 7.296875 -6.75 13.25l-2.875 -2.234375z" fill-rule="nonzero"/><path fill="#ff5252" d="m2017.8071 629.859l0 0c0 -20.030518 16.237915 -36.268433 36.26831 -36.268433l373.66797 0c9.6188965 0 18.843994 3.821106 25.645508 10.622742c6.801758 6.8016357 10.622803 16.026672 10.622803 25.64569l0 145.0694c0 20.030518 -16.237793 36.268433 -36.26831 36.268433l-373.66797 0c-20.030396 0 -36.26831 -16.237915 -36.26831 -36.268433z" fill-rule="evenodd"/><path stroke="#4ba173" stroke-width="1.0" stroke-linejoin="round" stroke-linecap="butt" d="m2017.8071 629.859l0 0c0 -20.030518 16.237915 -36.268433 36.26831 -36.268433l373.66797 0c9.6188965 0 18.843994 3.821106 25.645508 10.622742c6.801758 6.8016357 10.622803 16.026672 10.622803 25.64569l0 145.0694c0 20.030518 -16.237793 36.268433 -36.26831 36.268433l-373.66797 0c-20.030396 0 -36.26831 -16.237915 -36.26831 -36.268433z" fill-rule="evenodd"/><path fill="#000000" d="m2080.7102 686.8337l0 -42.6875l5.3125 0l0 37.953125l19.84375 0l0 4.734375l-25.15625 0zm44.6084 0.765625q-6.71875 0 -11.0 -4.578125q-4.28125 -4.578125 -4.28125 -11.671875q0 -7.171875 4.28125 -11.6875q4.28125 -4.515625 11.0 -4.515625q6.734375 0 11.015625 4.515625q4.28125 4.515625 4.28125 11.6875q0 7.09375 -4.28125 11.671875q-4.28125 4.578125 -11.015625 4.578125zm0 -4.28125q4.484375 0 7.359375 -3.359375q2.890625 -3.359375 2.890625 -8.609375q0 -5.1875 -2.890625 -8.546875q-2.875 -3.359375 -7.359375 -3.359375q-4.46875 0 -7.390625 3.328125q-2.90625 3.328125 -2.90625 8.578125q0 5.3125 2.875 8.640625q2.890625 3.328125 7.421875 3.328125zm36.748535 4.28125q-6.796875 0 -11.109375 -4.609375q-4.3125 -4.609375 -4.3125 -11.640625q0 -6.984375 4.3125 -11.59375q4.3125 -4.609375 11.109375 -4.609375q7.15625 0 11.328125 5.390625l-3.203125 2.9375q-2.953125 -4.03125 -7.875 -4.03125q-4.734375 0 -7.71875 3.296875q-2.96875 3.296875 -2.96875 8.609375q0 5.375 2.9375 8.671875q2.953125 3.296875 7.75 3.296875q4.859375 0 7.875 -4.03125l3.203125 2.9375q-4.171875 5.375 -11.328125 5.375zm39.101807 -0.765625l-11.140625 -13.890625l-5.125 5.0625l0 8.828125l-4.796875 0l0 -42.6875l4.796875 0l0 28.21875l16.265625 -16.4375l6.078125 0l-13.703125 14.015625l13.765625 16.890625l-6.140625 0zm41.84546 0.765625q-6.71875 0 -11.0 -4.578125q-4.28125 -4.578125 -4.28125 -11.671875q0 -7.171875 4.28125 -11.6875q4.28125 -4.515625 11.0 -4.515625q6.734375 0 11.015625 4.515625q4.28125 4.515625 4.28125 11.6875q0 7.09375 -4.28125 11.671875q-4.28125 4.578125 -11.015625 4.578125zm0 -4.28125q4.484375 0 7.359375 -3.359375q2.890625 -3.359375 2.890625 -8.609375q0 -5.1875 -2.890625 -8.546875q-2.875 -3.359375 -7.359375 -3.359375q-4.46875 0 -7.390625 3.328125q-2.90625 3.328125 -2.90625 8.578125q0 5.3125 2.875 8.640625q2.890625 3.328125 7.421875 3.328125zm43.967285 3.515625l0 -4.359375q-1.78125 2.0625 -4.671875 3.59375q-2.875 1.53125 -6.328125 1.53125q-9.859375 0 -9.859375 -9.859375l0 -21.8125l4.796875 0l0 20.34375q0 3.65625 1.65625 5.359375q1.671875 1.6875 5.265625 1.6875q2.8125 0 5.296875 -1.40625q2.5 -1.421875 3.84375 -3.265625l0 -22.71875l4.8125 0l0 30.90625l-4.8125 0zm22.217041 0.765625q-6.84375 0 -6.84375 -7.234375l0 -20.21875l-5.125 0l0 -4.21875l5.125 0l0 -8.453125l4.796875 0l0 8.453125l6.265625 0l0 4.21875l-6.265625 0l0 19.203125q0 1.71875 0.765625 2.84375q0.765625 1.125 2.375 1.125q1.984375 0 3.25 -1.28125l1.421875 3.578125q-1.984375 1.984375 -5.765625 1.984375zm26.237793 0q-6.59375 0 -10.4375 -5.4375l0 16.453125l-4.796875 0l0 -42.6875l4.796875 0l0 4.609375q1.671875 -2.375 4.421875 -3.875q2.75 -1.515625 6.015625 -1.515625q6.203125 0 9.984375 4.359375q3.78125 4.359375 3.78125 11.84375q0 7.421875 -3.75 11.84375q-3.75 4.40625 -10.015625 4.40625zm-1.21875 -4.28125q4.484375 0 7.203125 -3.265625q2.71875 -3.265625 2.71875 -8.703125q0 -5.3125 -2.6875 -8.609375q-2.6875 -3.296875 -7.234375 -3.296875q-2.875 0 -5.40625 1.4375q-2.53125 1.4375 -3.8125 3.484375l0 13.953125q1.28125 2.046875 3.8125 3.53125q2.53125 1.46875 5.40625 1.46875zm43.45166 3.515625l0 -4.359375q-1.78125 2.0625 -4.671875 3.59375q-2.875 1.53125 -6.328125 1.53125q-9.859375 0 -9.859375 -9.859375l0 -21.8125l4.796875 0l0 20.34375q0 3.65625 1.65625 5.359375q1.671875 1.6875 5.265625 1.6875q2.8125 0 5.296875 -1.40625q2.5 -1.421875 3.84375 -3.265625l0 -22.71875l4.8125 0l0 30.90625l-4.8125 0zm22.217285 0.765625q-6.84375 0 -6.84375 -7.234375l0 -20.21875l-5.125 0l0 -4.21875l5.125 0l0 -8.453125l4.796875 0l0 8.453125l6.265625 0l0 4.21875l-6.265625 0l0 19.203125q0 1.71875 0.765625 2.84375q0.765625 1.125 2.375 1.125q1.984375 0 3.25 -1.28125l1.421875 3.578125q-1.984375 1.984375 -5.765625 1.984375z" fill-rule="nonzero"/><path fill="#000000" d="m2197.519 764.5993q-6.84375 0 -6.84375 -7.234375l0 -20.21875l-5.125 0l0 -4.21875l5.125 0l0 -8.453125l4.796875 0l0 8.453125l6.265625 0l0 4.21875l-6.265625 0l0 19.203125q0 1.71875 0.765625 2.84375q0.765625 1.125 2.375 1.125q1.984375 0 3.25 -1.28125l1.421875 3.578125q-1.984375 1.984375 -5.765625 1.984375zm11.003418 -0.765625l0 -30.90625l4.796875 0l0 4.984375q4.296875 -5.625 10.3125 -5.625l0 4.921875l-1.921875 -0.1875q-2.171875 0 -4.796875 1.5625q-2.625 1.5625 -3.59375 3.359375l0 21.890625l-4.796875 0zm35.072998 0.765625q-6.96875 0 -11.359375 -4.53125q-4.375 -4.546875 -4.375 -11.71875q0 -6.859375 4.34375 -11.53125q4.359375 -4.671875 10.875 -4.671875q6.65625 0 10.75 4.609375q4.109375 4.609375 4.109375 11.96875l0 1.21875l-25.03125 0q0.25 4.734375 3.421875 7.71875q3.171875 2.96875 7.71875 2.96875q5.625 0 9.53125 -3.90625l2.3125 3.140625q-4.75 4.734375 -12.296875 4.734375zm9.609375 -18.171875q0 -4.296875 -2.828125 -7.296875q-2.8125 -3.015625 -7.359375 -3.015625q-4.28125 0 -7.140625 3.015625q-2.84375 3.0 -2.96875 7.296875l20.296875 0zm26.422607 18.171875q-6.96875 0 -11.359375 -4.53125q-4.375 -4.546875 -4.375 -11.71875q0 -6.859375 4.34375 -11.53125q4.359375 -4.671875 10.875 -4.671875q6.65625 0 10.75 4.609375q4.109375 4.609375 4.109375 11.96875l0 1.21875l-25.03125 0q0.25 4.734375 3.421875 7.71875q3.171875 2.96875 7.71875 2.96875q5.625 0 9.53125 -3.90625l2.3125 3.140625q-4.75 4.734375 -12.296875 4.734375zm9.609375 -18.171875q0 -4.296875 -2.828125 -7.296875q-2.8125 -3.015625 -7.359375 -3.015625q-4.28125 0 -7.140625 3.015625q-2.84375 3.0 -2.96875 7.296875l20.296875 0z" fill-rule="nonzero"/><path fill="#63d297" d="m2557.5513 629.859l0 0c0 -20.030518 16.237793 -36.268433 36.26831 -36.268433l373.66797 0c9.6188965 0 18.843994 3.821106 25.645508 10.622742c6.801758 6.8016357 10.622803 16.026672 10.622803 25.64569l0 145.0694c0 20.030518 -16.237793 36.268433 -36.26831 36.268433l-373.66797 0c-20.030518 0 -36.26831 -16.237915 -36.26831 -36.268433z" fill-rule="evenodd"/><path stroke="#4ba173" stroke-width="1.0" stroke-linejoin="round" stroke-linecap="butt" d="m2557.5513 629.859l0 0c0 -20.030518 16.237793 -36.268433 36.26831 -36.268433l373.66797 0c9.6188965 0 18.843994 3.821106 25.645508 10.622742c6.801758 6.8016357 10.622803 16.026672 10.622803 25.64569l0 145.0694c0 20.030518 -16.237793 36.268433 -36.26831 36.268433l-373.66797 0c-20.030518 0 -36.26831 -16.237915 -36.26831 -36.268433z" fill-rule="evenodd"/><path fill="#000000" d="m2593.2861 725.3337l0 -42.6875l27.96875 0l0 4.734375l-22.65625 0l0 13.765625l22.21875 0l0 4.734375l-22.21875 0l0 19.453125l-5.3125 0zm48.965576 0.765625q-6.96875 0 -11.359375 -4.53125q-4.375 -4.546875 -4.375 -11.71875q0 -6.859375 4.34375 -11.53125q4.359375 -4.671875 10.875 -4.671875q6.65625 0 10.75 4.609375q4.109375 4.609375 4.109375 11.96875l0 1.21875l-25.03125 0q0.25 4.734375 3.421875 7.71875q3.171875 2.96875 7.71875 2.96875q5.625 0 9.53125 -3.90625l2.3125 3.140625q-4.75 4.734375 -12.296875 4.734375zm9.609375 -18.171875q0 -4.296875 -2.828125 -7.296875q-2.8125 -3.015625 -7.359375 -3.015625q-4.28125 0 -7.140625 3.015625q-2.84375 3.0 -2.96875 7.296875l20.296875 0zm20.281982 18.171875q-6.84375 0 -6.84375 -7.234375l0 -20.21875l-5.125 0l0 -4.21875l5.125 0l0 -8.453125l4.796875 0l0 8.453125l6.265625 0l0 4.21875l-6.265625 0l0 19.203125q0 1.71875 0.765625 2.84375q0.765625 1.125 2.375 1.125q1.984375 0 3.25 -1.28125l1.421875 3.578125q-1.984375 1.984375 -5.765625 1.984375zm24.644043 0q-6.796875 0 -11.109375 -4.609375q-4.3125 -4.609375 -4.3125 -11.640625q0 -6.984375 4.3125 -11.59375q4.3125 -4.609375 11.109375 -4.609375q7.15625 0 11.328125 5.390625l-3.203125 2.9375q-2.953125 -4.03125 -7.875 -4.03125q-4.734375 0 -7.71875 3.296875q-2.96875 3.296875 -2.96875 8.609375q0 5.375 2.9375 8.671875q2.953125 3.296875 7.75 3.296875q4.859375 0 7.875 -4.03125l3.203125 2.9375q-4.171875 5.375 -11.328125 5.375zm38.976807 -0.765625l0 -20.359375q0 -3.453125 -1.640625 -5.234375q-1.625 -1.796875 -5.34375 -1.796875q-2.625 0 -5.09375 1.34375q-2.453125 1.34375 -4.0625 3.453125l0 22.59375l-4.796875 0l0 -42.6875l4.796875 0l0 16.25q2.046875 -2.359375 4.984375 -3.796875q2.953125 -1.453125 6.09375 -1.453125q9.859375 0 9.859375 9.859375l0 21.828125l-4.796875 0zm44.402588 0.765625q-6.71875 0 -11.0 -4.578125q-4.28125 -4.578125 -4.28125 -11.671875q0 -7.171875 4.28125 -11.6875q4.28125 -4.515625 11.0 -4.515625q6.734375 0 11.015625 4.515625q4.28125 4.515625 4.28125 11.6875q0 7.09375 -4.28125 11.671875q-4.28125 4.578125 -11.015625 4.578125zm0 -4.28125q4.484375 0 7.359375 -3.359375q2.890625 -3.359375 2.890625 -8.609375q0 -5.1875 -2.890625 -8.546875q-2.875 -3.359375 -7.359375 -3.359375q-4.46875 0 -7.390625 3.328125q-2.90625 3.328125 -2.90625 8.578125q0 5.3125 2.875 8.640625q2.890625 3.328125 7.421875 3.328125zm43.967285 3.515625l0 -4.359375q-1.78125 2.0625 -4.671875 3.59375q-2.875 1.53125 -6.328125 1.53125q-9.859375 0 -9.859375 -9.859375l0 -21.8125l4.796875 0l0 20.34375q0 3.65625 1.65625 5.359375q1.671875 1.6875 5.265625 1.6875q2.8125 0 5.296875 -1.40625q2.5 -1.421875 3.84375 -3.265625l0 -22.71875l4.8125 0l0 30.90625l-4.8125 0zm22.217041 0.765625q-6.84375 0 -6.84375 -7.234375l0 -20.21875l-5.125 0l0 -4.21875l5.125 0l0 -8.453125l4.796875 0l0 8.453125l6.265625 0l0 4.21875l-6.265625 0l0 19.203125q0 1.71875 0.765625 2.84375q0.765625 1.125 2.375 1.125q1.984375 0 3.25 -1.28125l1.421875 3.578125q-1.984375 1.984375 -5.765625 1.984375zm26.237793 0q-6.59375 0 -10.4375 -5.4375l0 16.453125l-4.796875 0l0 -42.6875l4.796875 0l0 4.609375q1.671875 -2.375 4.421875 -3.875q2.75 -1.515625 6.015625 -1.515625q6.203125 0 9.984375 4.359375q3.78125 4.359375 3.78125 11.84375q0 7.421875 -3.75 11.84375q-3.75 4.40625 -10.015625 4.40625zm-1.21875 -4.28125q4.484375 0 7.203125 -3.265625q2.71875 -3.265625 2.71875 -8.703125q0 -5.3125 -2.6875 -8.609375q-2.6875 -3.296875 -7.234375 -3.296875q-2.875 0 -5.40625 1.4375q-2.53125 1.4375 -3.8125 3.484375l0 13.953125q1.28125 2.046875 3.8125 3.53125q2.53125 1.46875 5.40625 1.46875zm43.45166 3.515625l0 -4.359375q-1.78125 2.0625 -4.671875 3.59375q-2.875 1.53125 -6.328125 1.53125q-9.859375 0 -9.859375 -9.859375l0 -21.8125l4.796875 0l0 20.34375q0 3.65625 1.65625 5.359375q1.671875 1.6875 5.265625 1.6875q2.8125 0 5.296875 -1.40625q2.5 -1.421875 3.84375 -3.265625l0 -22.71875l4.8125 0l0 30.90625l-4.8125 0zm22.217041 0.765625q-6.84375 0 -6.84375 -7.234375l0 -20.21875l-5.125 0l0 -4.21875l5.125 0l0 -8.453125l4.796875 0l0 8.453125l6.265625 0l0 4.21875l-6.265625 0l0 19.203125q0 1.71875 0.765625 2.84375q0.765625 1.125 2.375 1.125q1.984375 0 3.25 -1.28125l1.421875 3.578125q-1.984375 1.984375 -5.765625 1.984375zm20.800537 0q-7.875 0 -12.484375 -4.859375l2.5 -3.453125q1.53125 1.78125 4.25 3.09375q2.71875 1.3125 5.921875 1.3125q3.59375 0 5.4375 -1.5q1.859375 -1.5 1.859375 -3.8125q0 -2.046875 -2.015625 -3.21875q-2.015625 -1.1875 -7.515625 -2.46875q-4.671875 -0.96875 -7.140625 -3.046875q-2.46875 -2.078125 -2.46875 -5.59375q0 -3.90625 3.140625 -6.40625q3.140625 -2.5 8.390625 -2.5q6.96875 0 11.453125 4.484375l-2.234375 3.328125q-1.421875 -1.65625 -3.828125 -2.78125q-2.390625 -1.125 -5.390625 -1.125q-3.203125 0 -5.03125 1.421875q-1.828125 1.40625 -1.828125 3.453125q0 1.84375 2.046875 2.9375q2.0625 1.09375 7.5625 2.234375q4.671875 1.09375 7.09375 3.3125q2.4375 2.203125 2.4375 5.84375q0 4.296875 -3.328125 6.828125q-3.328125 2.515625 -8.828125 2.515625z" fill-rule="nonzero"/><path fill="#000000" fill-opacity="0.0" d="m1924.2677 702.3937l93.543335 0" fill-rule="evenodd"/><path stroke="#4ba173" stroke-width="8.0" stroke-linejoin="round" stroke-linecap="butt" d="m1924.2677 702.3937l45.543335 0" fill-rule="evenodd"/><path fill="#4ba173" stroke="#4ba173" stroke-width="8.0" stroke-linecap="butt" d="m1969.811 715.60754l36.30481 -13.213867l-36.30481 -13.213806z" fill-rule="evenodd"/><path fill="#000000" fill-opacity="0.0" d="m2464.0117 702.3937l93.54346 0" fill-rule="evenodd"/><path stroke="#4ba173" stroke-width="8.0" stroke-linejoin="round" stroke-linecap="butt" d="m2464.0117 702.3937l45.543457 0" fill-rule="evenodd"/><path fill="#4ba173" stroke="#4ba173" stroke-width="8.0" stroke-linecap="butt" d="m2509.5552 715.60754l36.304688 -13.213867l-36.304688 -13.213806z" fill-rule="evenodd"/><path fill="#000000" fill-opacity="0.0" d="m130.89764 1049.252l3578.2046 0l0 869.41736l-3578.2046 0z" fill-rule="evenodd"/><path fill="#616161" d="m221.69452 1179.412l-37.34375 -51.078125l0 51.078125l-7.96875 0l0 -64.03125l8.15625 0l36.875 50.015625l0 -50.015625l7.96875 0l0 64.03125l-7.6875 0zm43.29608 1.15625q-10.468735 0 -17.04686 -6.8125q-6.5625 -6.828125 -6.5625 -17.578125q0 -10.265625 6.515625 -17.265625q6.53125 -7.015625 16.32811 -7.015625q9.984375 0 16.125 6.90625q6.140625 6.90625 6.140625 17.953125l0 1.828125l-37.531235 0q0.390625 7.09375 5.140625 11.5625q4.7499847 4.46875 11.562485 4.46875q8.453125 0 14.3125 -5.859375l3.453125 4.703125q-7.109375 7.109375 -18.4375 7.109375zm14.40625 -27.265625q0 -6.4375 -4.234375 -10.9375q-4.21875 -4.515625 -11.03125 -4.515625q-6.4375 0 -10.718735 4.515625q-4.265625 4.5 -4.453125 10.9375l30.437485 0zm30.422974 27.265625q-10.265625 0 -10.265625 -10.859375l0 -30.328125l-7.6875 0l0 -6.34375l7.6875 0l0 -12.671875l7.203125 0l0 12.671875l9.40625 0l0 6.34375l-9.40625 0l0 28.796875q0 2.59375 1.140625 4.28125q1.15625 1.671875 3.5625 1.671875q2.96875 0 4.890625 -1.921875l2.109375 5.375q-2.96875 2.984375 -8.640625 2.984375zm56.645874 -1.15625l-12.09375 -37.25l-12.09375 37.25l-7.203125 0l-14.78125 -46.375l7.484375 0l11.328125 36.96875l12.1875 -36.96875l6.140625 0l12.203125 36.96875l11.328125 -36.96875l7.484375 0l-14.78125 46.375l-7.203125 0zm50.58899 1.15625q-10.078125 0 -16.515625 -6.859375q-6.421875 -6.875 -6.421875 -17.53125q0 -10.75 6.421875 -17.515625q6.4375 -6.765625 16.515625 -6.765625q10.078125 0 16.515625 6.765625q6.4375 6.765625 6.4375 17.515625q0 10.65625 -6.4375 17.53125q-6.4375 6.859375 -16.515625 6.859375zm0 -6.4375q6.71875 0 11.03125 -5.03125q4.328125 -5.046875 4.328125 -12.921875q0 -7.78125 -4.328125 -12.8125q-4.3125 -5.046875 -11.03125 -5.046875q-6.71875 0 -11.09375 5.0q-4.359375 4.984375 -4.359375 12.859375q0 7.96875 4.3125 12.96875q4.328125 4.984375 11.140625 4.984375zm34.661957 5.28125l0 -46.375l7.203125 0l0 7.5q6.421875 -8.453125 15.453125 -8.453125l0 7.390625l-2.890625 -0.28125q-3.25 0 -7.1875 2.359375q-3.9375 2.34375 -5.375 5.03125l0 32.828125l-7.203125 0zm63.258087 0l-16.703094 -20.828125l-7.671875 7.578125l0 13.25l-7.203125 0l0 -64.03125l7.203125 0l0 42.328125l24.37497 -24.671875l9.125 0l-20.546844 21.03125l20.640594 25.34375l-9.21875 0zm21.312744 -52.984375q-1.921875 0 -3.359375 -1.390625q-1.4375 -1.40625 -1.4375 -3.421875q0 -2.015625 1.4375 -3.453125q1.4375 -1.4375 3.359375 -1.4375q2.015625 0 3.453125 1.4375q1.4375 1.4375 1.4375 3.453125q0 2.015625 -1.4375 3.421875q-1.4375 1.390625 -3.453125 1.390625zm-3.546875 52.984375l0 -46.375l7.203125 0l0 46.375l-7.203125 0zm52.89685 0l0 -30.34375q0 -6.140625 -2.84375 -8.4375q-2.828125 -2.3125 -7.53125 -2.3125q-4.03125 0 -7.921875 2.171875q-3.890625 2.15625 -5.796875 5.03125l0 33.890625l-7.203125 0l0 -46.375l7.203125 0l0 6.734375q2.96875 -3.46875 7.328125 -5.671875q4.375 -2.203125 9.171875 -2.203125q14.796875 0 14.796875 14.96875l0 32.546875l-7.203125 0zm40.22412 18.8125q-5.953125 0 -10.28125 -1.4375q-4.3125 -1.4375 -8.4375 -5.46875l3.640625 -5.375q2.875 3.453125 6.46875 4.890625q3.609375 1.4375 8.609375 1.4375q7.09375 0 10.984375 -3.703125q3.890625 -3.6875 3.890625 -10.21875l0 -6.625q-2.5 3.5625 -6.578125 5.921875q-4.078125 2.34375 -8.96875 2.34375q-9.40625 0 -15.03125 -6.625q-5.609375 -6.625 -5.609375 -17.375q0 -11.140625 5.703125 -17.609375q5.71875 -6.484375 14.9375 -6.484375q9.59375 0 15.546875 8.15625l0 -7.015625l7.203125 0l0 45.03125q0 9.796875 -5.765625 14.96875q-5.75 5.1875 -16.3125 5.1875zm1.046875 -24.578125q3.9375 0 7.828125 -2.109375q3.890625 -2.109375 6.0 -5.46875l0 -20.25q-2.109375 -3.359375 -6.046875 -5.421875q-3.9375 -2.078125 -7.78125 -2.078125q-6.8125 0 -10.84375 4.90625q-4.03125 4.890625 -4.03125 12.765625q0 7.96875 4.125 12.8125q4.125 4.84375 10.75 4.84375zm63.74695 -47.21875q-1.921875 0 -3.359375 -1.390625q-1.4375 -1.40625 -1.4375 -3.421875q0 -2.015625 1.4375 -3.453125q1.4375 -1.4375 3.359375 -1.4375q2.015625 0 3.453125 1.4375q1.4375 1.4375 1.4375 3.453125q0 2.015625 -1.4375 3.421875q-1.4375 1.390625 -3.453125 1.390625zm-3.546875 52.984375l0 -46.375l7.203125 0l0 46.375l-7.203125 0zm36.287476 1.15625q-11.8125 0 -18.71875 -7.296875l3.734375 -5.1875q2.3125 2.6875 6.390625 4.65625q4.078125 1.96875 8.875 1.96875q5.375 0 8.15625 -2.25q2.796875 -2.265625 2.796875 -5.71875q0 -3.078125 -3.03125 -4.84375q-3.015625 -1.78125 -11.28125 -3.703125q-7.0 -1.4375 -10.703125 -4.546875q-3.6875 -3.125 -3.6875 -8.40625q0 -5.859375 4.703125 -9.59375q4.703125 -3.75 12.578125 -3.75q10.453125 0 17.171875 6.71875l-3.359375 4.984375q-2.109375 -2.484375 -5.71875 -4.15625q-3.59375 -1.6875 -8.09375 -1.6875q-4.8125 0 -7.546875 2.109375q-2.734375 2.109375 -2.734375 5.171875q0 2.796875 3.0625 4.4375q3.078125 1.625 11.34375 3.34375q7.0 1.640625 10.640625 4.953125q3.65625 3.296875 3.65625 8.78125q0 6.421875 -5.0 10.21875q-4.984375 3.796875 -13.234375 3.796875zm44.639954 0q-11.8125 0 -18.71875 -7.296875l3.734375 -5.1875q2.3125 2.6875 6.390625 4.65625q4.078125 1.96875 8.875 1.96875q5.375 0 8.15625 -2.25q2.796875 -2.265625 2.796875 -5.71875q0 -3.078125 -3.03125 -4.84375q-3.015625 -1.78125 -11.28125 -3.703125q-7.0 -1.4375 -10.703125 -4.546875q-3.6875 -3.125 -3.6875 -8.40625q0 -5.859375 4.703125 -9.59375q4.703125 -3.75 12.578125 -3.75q10.453125 0 17.171875 6.71875l-3.359375 4.984375q-2.109375 -2.484375 -5.71875 -4.15625q-3.59375 -1.6875 -8.09375 -1.6875q-4.8125 0 -7.546875 2.109375q-2.734375 2.109375 -2.734375 5.171875q0 2.796875 3.0625 4.4375q3.078125 1.625 11.34375 3.34375q7.0 1.640625 10.640625 4.953125q3.65625 3.296875 3.65625 8.78125q0 6.421875 -5.0 10.21875q-4.984375 3.796875 -13.234375 3.796875zm61.24939 -1.15625l0 -6.53125q-2.6875 3.078125 -7.015625 5.390625q-4.3125 2.296875 -9.5 2.296875q-14.78125 0 -14.78125 -14.78125l0 -32.75l7.203125 0l0 30.53125q0 5.46875 2.484375 8.015625q2.5 2.546875 7.875 2.546875q4.21875 0 7.96875 -2.109375q3.75 -2.109375 5.765625 -4.890625l0 -34.09375l7.203125 0l0 46.375l-7.203125 0zm42.520996 1.15625q-10.46875 0 -17.046875 -6.8125q-6.5625 -6.828125 -6.5625 -17.578125q0 -10.265625 6.515625 -17.265625q6.53125 -7.015625 16.328125 -7.015625q9.984375 0 16.125 6.90625q6.140625 6.90625 6.140625 17.953125l0 1.828125l-37.53125 0q0.390625 7.09375 5.140625 11.5625q4.75 4.46875 11.5625 4.46875q8.453125 0 14.3125 -5.859375l3.453125 4.703125q-7.109375 7.109375 -18.4375 7.109375zm14.40625 -27.265625q0 -6.4375 -4.234375 -10.9375q-4.21875 -4.515625 -11.03125 -4.515625q-6.4375 0 -10.71875 4.515625q-4.265625 4.5 -4.453125 10.9375l30.4375 0zm33.40735 27.265625q-11.8125 0 -18.71875 -7.296875l3.734375 -5.1875q2.3125 2.6875 6.390625 4.65625q4.078125 1.96875 8.875 1.96875q5.375 0 8.15625 -2.25q2.796875 -2.265625 2.796875 -5.71875q0 -3.078125 -3.03125 -4.84375q-3.015625 -1.78125 -11.28125 -3.703125q-7.0 -1.4375 -10.703125 -4.546875q-3.6875 -3.125 -3.6875 -8.40625q0 -5.859375 4.703125 -9.59375q4.703125 -3.75 12.578125 -3.75q10.453125 0 17.171875 6.71875l-3.359375 4.984375q-2.109375 -2.484375 -5.71875 -4.15625q-3.59375 -1.6875 -8.09375 -1.6875q-4.8125 0 -7.546875 2.109375q-2.734375 2.109375 -2.734375 5.171875q0 2.796875 3.0625 4.4375q3.078125 1.625 11.34375 3.34375q7.0 1.640625 10.640625 4.953125q3.65625 3.296875 3.65625 8.78125q0 6.421875 -5.0 10.21875q-4.984375 3.796875 -13.234375 3.796875zm75.15802 0q-10.171875 0 -16.65625 -6.90625q-6.46875 -6.921875 -6.46875 -17.484375q0 -10.46875 6.46875 -17.375q6.484375 -6.90625 16.65625 -6.90625q10.765625 0 17.0 8.0625l-4.796875 4.40625q-4.421875 -6.046875 -11.8125 -6.046875q-7.109375 0 -11.578125 4.953125q-4.453125 4.9375 -4.453125 12.90625q0 8.0625 4.40625 13.015625q4.421875 4.9375 11.625 4.9375q7.296875 0 11.8125 -6.046875l4.796875 4.421875q-6.234375 8.0625 -17.0 8.0625zm56.066772 -1.15625l0 -5.28125q-5.84375 6.4375 -15.359375 6.4375q-7.0 0 -11.609314 -4.421875q-4.609375 -4.421875 -4.609375 -10.9375q0 -6.71875 4.5625 -10.984375q4.562439 -4.28125 11.656189 -4.28125q9.984375 0 15.359375 6.328125l0 -8.34375q0 -4.703125 -3.3125 -7.25q-3.3125 -2.546875 -8.390625 -2.546875q-8.171875 0 -14.21875 6.4375l-3.359314 -5.0q7.390564 -7.671875 18.531189 -7.671875q8.546875 0 13.25 4.125q4.703125 4.125 4.703125 11.515625l0 31.875l-7.203125 0zm-12.765625 -4.03125q8.546875 0 12.765625 -5.765625l0 -8.734375q-4.21875 -5.75 -12.765625 -5.75q-5.078125 0 -8.25 2.828125q-3.171875 2.828125 -3.171875 7.34375q0 4.40625 3.171875 7.25q3.171875 2.828125 8.25 2.828125zm65.670166 4.03125l0 -30.34375q0 -6.140625 -2.84375 -8.4375q-2.828125 -2.3125 -7.53125 -2.3125q-4.03125 0 -7.921875 2.171875q-3.890625 2.15625 -5.796875 5.03125l0 33.890625l-7.203125 0l0 -46.375l7.203125 0l0 6.734375q2.96875 -3.46875 7.328125 -5.671875q4.375 -2.203125 9.171875 -2.203125q14.796875 0 14.796875 14.96875l0 32.546875l-7.203125 0zm66.804565 1.15625q-10.171875 0 -16.65625 -6.90625q-6.46875 -6.921875 -6.46875 -17.484375q0 -10.46875 6.46875 -17.375q6.484375 -6.90625 16.65625 -6.90625q10.765625 0 17.0 8.0625l-4.796875 4.40625q-4.421875 -6.046875 -11.8125 -6.046875q-7.109375 0 -11.578125 4.953125q-4.453125 4.9375 -4.453125 12.90625q0 8.0625 4.40625 13.015625q4.421875 4.9375 11.625 4.9375q7.296875 0 11.8125 -6.046875l4.796875 4.421875q-6.234375 8.0625 -17.0 8.0625zm56.066895 -1.15625l0 -5.28125q-5.84375 6.4375 -15.359375 6.4375q-7.0 0 -11.609375 -4.421875q-4.609375 -4.421875 -4.609375 -10.9375q0 -6.71875 4.5625 -10.984375q4.5625 -4.28125 11.65625 -4.28125q9.984375 0 15.359375 6.328125l0 -8.34375q0 -4.703125 -3.3125 -7.25q-3.3125 -2.546875 -8.390625 -2.546875q-8.171875 0 -14.21875 6.4375l-3.359375 -5.0q7.390625 -7.671875 18.53125 -7.671875q8.546875 0 13.25 4.125q4.703125 4.125 4.703125 11.515625l0 31.875l-7.203125 0zm-12.765625 -4.03125q8.546875 0 12.765625 -5.765625l0 -8.734375q-4.21875 -5.75 -12.765625 -5.75q-5.078125 0 -8.25 2.828125q-3.171875 2.828125 -3.171875 7.34375q0 4.40625 3.171875 7.25q3.171875 2.828125 8.25 2.828125zm65.670044 4.03125l0 -6.53125q-2.6875 3.078125 -7.015625 5.390625q-4.3125 2.296875 -9.5 2.296875q-14.78125 0 -14.78125 -14.78125l0 -32.75l7.203125 0l0 30.53125q0 5.46875 2.484375 8.015625q2.5 2.546875 7.875 2.546875q4.21875 0 7.96875 -2.109375q3.75 -2.109375 5.765625 -4.890625l0 -34.09375l7.203125 0l0 46.375l-7.203125 0zm36.28662 1.15625q-11.8125 0 -18.71875 -7.296875l3.734375 -5.1875q2.3125 2.6875 6.390625 4.65625q4.078125 1.96875 8.875 1.96875q5.375 0 8.15625 -2.25q2.796875 -2.265625 2.796875 -5.71875q0 -3.078125 -3.03125 -4.84375q-3.015625 -1.78125 -11.28125 -3.703125q-7.0 -1.4375 -10.703125 -4.546875q-3.6875 -3.125 -3.6875 -8.40625q0 -5.859375 4.703125 -9.59375q4.703125 -3.75 12.578125 -3.75q10.453125 0 17.171875 6.71875l-3.359375 4.984375q-2.109375 -2.484375 -5.71875 -4.15625q-3.59375 -1.6875 -8.09375 -1.6875q-4.8125 0 -7.546875 2.109375q-2.734375 2.109375 -2.734375 5.171875q0 2.796875 3.0625 4.4375q3.078125 1.625 11.34375 3.34375q7.0 1.640625 10.640625 4.953125q3.65625 3.296875 3.65625 8.78125q0 6.421875 -5.0 10.21875q-4.984375 3.796875 -13.234375 3.796875zm50.87439 0q-10.46875 0 -17.046875 -6.8125q-6.5625 -6.828125 -6.5625 -17.578125q0 -10.265625 6.515625 -17.265625q6.53125 -7.015625 16.328125 -7.015625q9.984375 0 16.125 6.90625q6.140625 6.90625 6.140625 17.953125l0 1.828125l-37.53125 0q0.390625 7.09375 5.140625 11.5625q4.75 4.46875 11.5625 4.46875q8.453125 0 14.3125 -5.859375l3.453125 4.703125q-7.109375 7.109375 -18.4375 7.109375zm14.40625 -27.265625q0 -6.4375 -4.234375 -10.9375q-4.21875 -4.515625 -11.03125 -4.515625q-6.4375 0 -10.71875 4.515625q-4.265625 4.5 -4.453125 10.9375l30.4375 0zm21.891602 27.0625q-2.21875 0 -3.75 -1.53125q-1.53125 -1.53125 -1.53125 -3.734375q0 -2.21875 1.53125 -3.75q1.53125 -1.53125 3.75 -1.53125q2.203125 0 3.734375 1.53125q1.53125 1.53125 1.53125 3.75q0 2.203125 -1.53125 3.734375q-1.53125 1.53125 -3.734375 1.53125zm22.079956 0q-2.21875 0 -3.75 -1.53125q-1.53125 -1.53125 -1.53125 -3.734375q0 -2.21875 1.53125 -3.75q1.53125 -1.53125 3.75 -1.53125q2.203125 0 3.734375 1.53125q1.53125 1.53125 1.53125 3.75q0 2.203125 -1.53125 3.734375q-1.53125 1.53125 -3.734375 1.53125zm22.079956 0q-2.21875 0 -3.75 -1.53125q-1.53125 -1.53125 -1.53125 -3.734375q0 -2.21875 1.53125 -3.75q1.53125 -1.53125 3.75 -1.53125q2.203125 0 3.734375 1.53125q1.53125 1.53125 1.53125 3.75q0 2.203125 -1.53125 3.734375q-1.53125 1.53125 -3.734375 1.53125z" fill-rule="nonzero"/><path fill="#616161" d="m163.9289 1349.6932q5.15625 0 10.125 2.671875q4.96875 2.671875 7.734375 7.640625q2.765625 4.96875 2.765625 10.3125q0 8.578125 -6.046875 14.625q-6.046875 6.046875 -14.578125 6.046875q-8.578125 0 -14.625 -6.046875q-6.046875 -6.046875 -6.046875 -14.625q0 -5.390625 2.765625 -10.328125q2.765625 -4.953125 7.734375 -7.625q4.96875 -2.671875 10.171875 -2.671875z" fill-rule="nonzero"/><path fill="#616161" d="m245.1164 1398.5682q-15.453125 0 -24.578125 -10.1875l4.71875 -6.046875q3.921875 4.421875 9.203125 6.78125q5.28125 2.34375 10.953125 2.34375q6.90625 0 10.984375 -3.0625q4.078125 -3.078125 4.078125 -7.96875q0 -7.59375 -11.890625 -10.859375q-14.125 -3.734375 -18.015625 -5.9375q-3.875 -2.21875 -5.953125 -5.53125q-2.0625 -3.3125 -2.0625 -7.921875q0 -7.671875 6.1875 -12.703125q6.203125 -5.046875 15.796875 -5.046875q14.40625 0 22.765625 8.921875l-4.8125 5.859375q-6.90625 -7.6875 -18.515625 -7.6875q-5.765625 0 -9.46875 2.796875q-3.6875 2.78125 -3.6875 7.375q0 3.359375 3.0625 5.71875q3.078125 2.359375 8.9375 3.796875q13.625 3.734375 17.609375 6.140625q3.984375 2.40625 6.140625 5.90625q2.171875 3.5 2.171875 8.5q0 8.828125 -6.4375 13.828125q-6.4375 4.984375 -17.1875 4.984375zm35.240356 -1.15625l0 -64.03125l7.203125 0l0 64.03125l-7.203125 0zm41.849976 1.15625q-10.078125 0 -16.515625 -6.859375q-6.421875 -6.875 -6.421875 -17.53125q0 -10.75 6.421875 -17.515625q6.4375 -6.765625 16.515625 -6.765625q10.078125 0 16.515625 6.765625q6.4375 6.765625 6.4375 17.515625q0 10.65625 -6.4375 17.53125q-6.4375 6.859375 -16.515625 6.859375zm0 -6.4375q6.71875 0 11.03125 -5.03125q4.328125 -5.046875 4.328125 -12.921875q0 -7.78125 -4.328125 -12.8125q-4.3125 -5.046875 -11.03125 -5.046875q-6.71875 0 -11.09375 5.0q-4.359375 4.984375 -4.359375 12.859375q0 7.96875 4.3125 12.96875q4.328125 4.984375 11.140625 4.984375zm74.78699 5.28125l-12.09375 -37.25l-12.09375 37.25l-7.203125 0l-14.78125 -46.375l7.484375 0l11.328125 36.96875l12.1875 -36.96875l6.140625 0l12.203125 36.96875l11.328125 -36.96875l7.484375 0l-14.78125 46.375l-7.203125 0zm88.700714 0l0 -6.90625q-2.59375 3.546875 -6.671875 5.8125q-4.078125 2.25 -8.96875 2.25q-9.3125 0 -14.984375 -6.625q-5.65625 -6.625 -5.65625 -17.671875q0 -11.125 5.703125 -17.75q5.71875 -6.625 14.9375 -6.625q4.703125 0 8.78125 2.15625q4.078125 2.15625 6.859375 6.0l0 -24.671875l7.203125 0l0 64.03125l-7.203125 0zm-13.921875 -5.28125q4.328125 0 8.15625 -2.109375q3.84375 -2.109375 5.765625 -5.1875l0 -21.015625q-1.921875 -3.078125 -5.765625 -5.28125q-3.828125 -2.21875 -8.15625 -2.21875q-6.71875 0 -10.796875 4.90625q-4.078125 4.890625 -4.078125 13.046875q0 7.96875 4.03125 12.921875q4.03125 4.9375 10.84375 4.9375zm55.778107 6.4375q-10.078125 0 -16.515625 -6.859375q-6.421875 -6.875 -6.421875 -17.53125q0 -10.75 6.421875 -17.515625q6.4375 -6.765625 16.515625 -6.765625q10.078125 0 16.515625 6.765625q6.4375 6.765625 6.4375 17.515625q0 10.65625 -6.4375 17.53125q-6.4375 6.859375 -16.515625 6.859375zm0 -6.4375q6.71875 0 11.03125 -5.03125q4.328125 -5.046875 4.328125 -12.921875q0 -7.78125 -4.328125 -12.8125q-4.3125 -5.046875 -11.03125 -5.046875q-6.71875 0 -11.09375 5.0q-4.359375 4.984375 -4.359375 12.859375q0 7.96875 4.3125 12.96875q4.328125 4.984375 11.140625 4.984375zm74.78699 5.28125l-12.09375 -37.25l-12.09375 37.25l-7.203125 0l-14.78125 -46.375l7.484375 0l11.328125 36.96875l12.1875 -36.96875l6.140625 0l12.203125 36.96875l11.328125 -36.96875l7.484375 0l-14.78125 46.375l-7.203125 0zm61.635864 0l0 -30.34375q0 -6.140625 -2.84375 -8.4375q-2.828125 -2.3125 -7.53125 -2.3125q-4.03125 0 -7.921875 2.171875q-3.890625 2.15625 -5.796875 5.03125l0 33.890625l-7.203125 0l0 -46.375l7.203125 0l0 6.734375q2.96875 -3.46875 7.328125 -5.671875q4.375 -2.203125 9.171875 -2.203125q14.796875 0 14.796875 14.96875l0 32.546875l-7.203125 0zm21.599121 0l0 -64.03125l7.203125 0l0 64.03125l-7.203125 0zm41.849976 1.15625q-10.078125 0 -16.515625 -6.859375q-6.421875 -6.875 -6.421875 -17.53125q0 -10.75 6.421875 -17.515625q6.4375 -6.765625 16.515625 -6.765625q10.078125 0 16.515625 6.765625q6.4375 6.765625 6.4375 17.515625q0 10.65625 -6.4375 17.53125q-6.4375 6.859375 -16.515625 6.859375zm0 -6.4375q6.71875 0 11.03125 -5.03125q4.328125 -5.046875 4.328125 -12.921875q0 -7.78125 -4.328125 -12.8125q-4.3125 -5.046875 -11.03125 -5.046875q-6.71875 0 -11.09375 5.0q-4.359375 4.984375 -4.359375 12.859375q0 7.96875 4.3125 12.96875q4.328125 4.984375 11.140625 4.984375zm63.646362 5.28125l0 -5.28125q-5.84375 6.4375 -15.359375 6.4375q-7.0 0 -11.609375 -4.421875q-4.609375 -4.421875 -4.609375 -10.9375q0 -6.71875 4.5625 -10.984375q4.5625 -4.28125 11.65625 -4.28125q9.984375 0 15.359375 6.328125l0 -8.34375q0 -4.703125 -3.3125 -7.25q-3.3125 -2.546875 -8.390625 -2.546875q-8.171875 0 -14.21875 6.4375l-3.359375 -5.0q7.390625 -7.671875 18.53125 -7.671875q8.546875 0 13.25 4.125q4.703125 4.125 4.703125 11.515625l0 31.875l-7.203125 0zm-12.765625 -4.03125q8.546875 0 12.765625 -5.765625l0 -8.734375q-4.21875 -5.75 -12.765625 -5.75q-5.078125 0 -8.25 2.828125q-3.171875 2.828125 -3.171875 7.34375q0 4.40625 3.171875 7.25q3.171875 2.828125 8.25 2.828125zm67.96698 4.03125l0 -6.90625q-2.59375 3.546875 -6.671875 5.8125q-4.078125 2.25 -8.96875 2.25q-9.3125 0 -14.984375 -6.625q-5.65625 -6.625 -5.65625 -17.671875q0 -11.125 5.703125 -17.75q5.71875 -6.625 14.9375 -6.625q4.703125 0 8.78125 2.15625q4.078125 2.15625 6.859375 6.0l0 -24.671875l7.203125 0l0 64.03125l-7.203125 0zm-13.921875 -5.28125q4.328125 0 8.15625 -2.109375q3.84375 -2.109375 5.765625 -5.1875l0 -21.015625q-1.921875 -3.078125 -5.765625 -5.28125q-3.828125 -2.21875 -8.15625 -2.21875q-6.71875 0 -10.796875 4.90625q-4.078125 4.890625 -4.078125 13.046875q0 7.96875 4.03125 12.921875q4.03125 4.9375 10.84375 4.9375zm50.215576 6.4375q-11.8125 0 -18.71875 -7.296875l3.734375 -5.1875q2.3125 2.6875 6.390625 4.65625q4.078125 1.96875 8.875 1.96875q5.375 0 8.15625 -2.25q2.796875 -2.265625 2.796875 -5.71875q0 -3.078125 -3.03125 -4.84375q-3.015625 -1.78125 -11.28125 -3.703125q-7.0 -1.4375 -10.703125 -4.546875q-3.6875 -3.125 -3.6875 -8.40625q0 -5.859375 4.703125 -9.59375q4.703125 -3.75 12.578125 -3.75q10.453125 0 17.171875 6.71875l-3.359375 4.984375q-2.109375 -2.484375 -5.71875 -4.15625q-3.59375 -1.6875 -8.09375 -1.6875q-4.8125 0 -7.546875 2.109375q-2.734375 2.109375 -2.734375 5.171875q0 2.796875 3.0625 4.4375q3.078125 1.625 11.34375 3.34375q7.0 1.640625 10.640625 4.953125q3.65625 3.296875 3.65625 8.78125q0 6.421875 -5.0 10.21875q-4.984375 3.796875 -13.234375 3.796875z" fill-rule="nonzero"/><path fill="#616161" d="m163.9289 1481.6932q5.15625 0 10.125 2.671875q4.96875 2.671875 7.734375 7.640625q2.765625 4.96875 2.765625 10.3125q0 8.578125 -6.046875 14.625q-6.046875 6.046875 -14.578125 6.046875q-8.578125 0 -14.625 -6.046875q-6.046875 -6.046875 -6.046875 -14.625q0 -5.390625 2.765625 -10.328125q2.765625 -4.953125 7.734375 -7.625q4.96875 -2.671875 10.171875 -2.671875z" fill-rule="nonzero"/><path fill="#616161" d="m245.1164 1530.5682q-15.453125 0 -24.578125 -10.1875l4.71875 -6.046875q3.921875 4.421875 9.203125 6.78125q5.28125 2.34375 10.953125 2.34375q6.90625 0 10.984375 -3.0625q4.078125 -3.078125 4.078125 -7.96875q0 -7.59375 -11.890625 -10.859375q-14.125 -3.734375 -18.015625 -5.9375q-3.875 -2.21875 -5.953125 -5.53125q-2.0625 -3.3125 -2.0625 -7.921875q0 -7.671875 6.1875 -12.703125q6.203125 -5.046875 15.796875 -5.046875q14.40625 0 22.765625 8.921875l-4.8125 5.859375q-6.90625 -7.6875 -18.515625 -7.6875q-5.765625 0 -9.46875 2.796875q-3.6875 2.78125 -3.6875 7.375q0 3.359375 3.0625 5.71875q3.078125 2.359375 8.9375 3.796875q13.625 3.734375 17.609375 6.140625q3.984375 2.40625 6.140625 5.90625q2.171875 3.5 2.171875 8.5q0 8.828125 -6.4375 13.828125q-6.4375 4.984375 -17.1875 4.984375zm45.311462 0q-10.265625 0 -10.265625 -10.859375l0 -30.328125l-7.6875 0l0 -6.34375l7.6875 0l0 -12.671875l7.203125 0l0 12.671875l9.40625 0l0 6.34375l-9.40625 0l0 28.796875q0 2.59375 1.140625 4.28125q1.15625 1.671875 3.5625 1.671875q2.96875 0 4.890625 -1.921875l2.109375 5.375q-2.96875 2.984375 -8.640625 2.984375zm47.81775 -1.15625l0 -6.53125q-2.6875 3.078125 -7.015625 5.390625q-4.3125 2.296875 -9.5 2.296875q-14.78125 0 -14.78125 -14.78125l0 -32.75l7.203125 0l0 30.53125q0 5.46875 2.484375 8.015625q2.5 2.546875 7.875 2.546875q4.21875 0 7.96875 -2.109375q3.75 -2.109375 5.765625 -4.890625l0 -34.09375l7.203125 0l0 46.375l-7.203125 0zm42.03659 1.15625q-10.171875 0 -16.65625 -6.90625q-6.46875 -6.921875 -6.46875 -17.484375q0 -10.46875 6.46875 -17.375q6.484375 -6.90625 16.65625 -6.90625q10.7656555 0 17.00003 8.0625l-4.796875 4.40625q-4.421875 -6.046875 -11.8125305 -6.046875q-7.109375 0 -11.578125 4.953125q-4.453125 4.9375 -4.453125 12.90625q0 8.0625 4.40625 13.015625q4.421875 4.9375 11.625 4.9375q7.2969055 0 11.8125305 -6.046875l4.796875 4.421875q-6.234375 8.0625 -17.00003 8.0625zm58.660614 -1.15625l-16.703125 -20.828125l-7.671875 7.578125l0 13.25l-7.203125 0l0 -64.03125l7.203125 0l0 42.328125l24.375 -24.671875l9.125 0l-20.546875 21.03125l20.640625 25.34375l-9.21875 0zm76.12756 0l0 -6.90625q-2.59375 3.546875 -6.6718445 5.8125q-4.078125 2.25 -8.96875 2.25q-9.3125 0 -14.984375 -6.625q-5.65625 -6.625 -5.65625 -17.671875q0 -11.125 5.703125 -17.75q5.71875 -6.625 14.9375 -6.625q4.703125 0 8.78125 2.15625q4.0780945 2.15625 6.8593445 6.0l0 -24.671875l7.203125 0l0 64.03125l-7.203125 0zm-13.9218445 -5.28125q4.328125 0 8.15625 -2.109375q3.8437195 -2.109375 5.7655945 -5.1875l0 -21.015625q-1.921875 -3.078125 -5.7655945 -5.28125q-3.828125 -2.21875 -8.15625 -2.21875q-6.71875 0 -10.796875 4.90625q-4.078125 4.890625 -4.078125 13.046875q0 7.96875 4.03125 12.921875q4.03125 4.9375 10.84375 4.9375zm55.778107 6.4375q-10.078125 0 -16.515625 -6.859375q-6.421875 -6.875 -6.421875 -17.53125q0 -10.75 6.421875 -17.515625q6.4375 -6.765625 16.515625 -6.765625q10.078125 0 16.515625 6.765625q6.4375 6.765625 6.4375 17.515625q0 10.65625 -6.4375 17.53125q-6.4375 6.859375 -16.515625 6.859375zm0 -6.4375q6.71875 0 11.03125 -5.03125q4.328125 -5.046875 4.328125 -12.921875q0 -7.78125 -4.328125 -12.8125q-4.3125 -5.046875 -11.03125 -5.046875q-6.71875 0 -11.09375 5.0q-4.359375 4.984375 -4.359375 12.859375q0 7.96875 4.3125 12.96875q4.328125 4.984375 11.140625 4.984375zm74.78699 5.28125l-12.09375 -37.25l-12.09375 37.25l-7.203125 0l-14.78125 -46.375l7.484375 0l11.328125 36.96875l12.1875 -36.96875l6.140625 0l12.203125 36.96875l11.328125 -36.96875l7.484375 0l-14.78125 46.375l-7.203125 0zm61.635864 0l0 -30.34375q0 -6.140625 -2.84375 -8.4375q-2.828125 -2.3125 -7.53125 -2.3125q-4.03125 0 -7.921875 2.171875q-3.890625 2.15625 -5.796875 5.03125l0 33.890625l-7.203125 0l0 -46.375l7.203125 0l0 6.734375q2.96875 -3.46875 7.328125 -5.671875q4.375 -2.203125 9.171875 -2.203125q14.796875 0 14.796875 14.96875l0 32.546875l-7.203125 0zm21.599121 0l0 -64.03125l7.203125 0l0 64.03125l-7.203125 0zm41.849976 1.15625q-10.078125 0 -16.515625 -6.859375q-6.421875 -6.875 -6.421875 -17.53125q0 -10.75 6.421875 -17.515625q6.4375 -6.765625 16.515625 -6.765625q10.078125 0 16.515625 6.765625q6.4375 6.765625 6.4375 17.515625q0 10.65625 -6.4375 17.53125q-6.4375 6.859375 -16.515625 6.859375zm0 -6.4375q6.71875 0 11.03125 -5.03125q4.328125 -5.046875 4.328125 -12.921875q0 -7.78125 -4.328125 -12.8125q-4.3125 -5.046875 -11.03125 -5.046875q-6.71875 0 -11.09375 5.0q-4.359375 4.984375 -4.359375 12.859375q0 7.96875 4.3125 12.96875q4.328125 4.984375 11.140625 4.984375zm63.646362 5.28125l0 -5.28125q-5.84375 6.4375 -15.359375 6.4375q-7.0 0 -11.609375 -4.421875q-4.609375 -4.421875 -4.609375 -10.9375q0 -6.71875 4.5625 -10.984375q4.5625 -4.28125 11.65625 -4.28125q9.984375 0 15.359375 6.328125l0 -8.34375q0 -4.703125 -3.3125 -7.25q-3.3125 -2.546875 -8.390625 -2.546875q-8.171875 0 -14.21875 6.4375l-3.359375 -5.0q7.390625 -7.671875 18.53125 -7.671875q8.546875 0 13.25 4.125q4.703125 4.125 4.703125 11.515625l0 31.875l-7.203125 0zm-12.765625 -4.03125q8.546875 0 12.765625 -5.765625l0 -8.734375q-4.21875 -5.75 -12.765625 -5.75q-5.078125 0 -8.25 2.828125q-3.171875 2.828125 -3.171875 7.34375q0 4.40625 3.171875 7.25q3.171875 2.828125 8.25 2.828125zm67.96698 4.03125l0 -6.90625q-2.59375 3.546875 -6.671875 5.8125q-4.078125 2.25 -8.96875 2.25q-9.3125 0 -14.984375 -6.625q-5.65625 -6.625 -5.65625 -17.671875q0 -11.125 5.703125 -17.75q5.71875 -6.625 14.9375 -6.625q4.703125 0 8.78125 2.15625q4.078125 2.15625 6.859375 6.0l0 -24.671875l7.203125 0l0 64.03125l-7.203125 0zm-13.921875 -5.28125q4.328125 0 8.15625 -2.109375q3.84375 -2.109375 5.765625 -5.1875l0 -21.015625q-1.921875 -3.078125 -5.765625 -5.28125q-3.828125 -2.21875 -8.15625 -2.21875q-6.71875 0 -10.796875 4.90625q-4.078125 4.890625 -4.078125 13.046875q0 7.96875 4.03125 12.921875q4.03125 4.9375 10.84375 4.9375zm50.215576 6.4375q-11.8125 0 -18.71875 -7.296875l3.734375 -5.1875q2.3125 2.6875 6.390625 4.65625q4.078125 1.96875 8.875 1.96875q5.375 0 8.15625 -2.25q2.796875 -2.265625 2.796875 -5.71875q0 -3.078125 -3.03125 -4.84375q-3.015625 -1.78125 -11.28125 -3.703125q-7.0 -1.4375 -10.703125 -4.546875q-3.6875 -3.125 -3.6875 -8.40625q0 -5.859375 4.703125 -9.59375q4.703125 -3.75 12.578125 -3.75q10.453125 0 17.171875 6.71875l-3.359375 4.984375q-2.109375 -2.484375 -5.71875 -4.15625q-3.59375 -1.6875 -8.09375 -1.6875q-4.8125 0 -7.546875 2.109375q-2.734375 2.109375 -2.734375 5.171875q0 2.796875 3.0625 4.4375q3.078125 1.625 11.34375 3.34375q7.0 1.640625 10.640625 4.953125q3.65625 3.296875 3.65625 8.78125q0 6.421875 -5.0 10.21875q-4.984375 3.796875 -13.234375 3.796875z" fill-rule="nonzero"/><path fill="#ff5252" d="m2733.8818 908.93567l23.385986 0l0 140.31494l46.771484 0l0 -140.31494l23.385986 0l-46.77173 -46.771606z" fill-rule="evenodd"/><path stroke="#4ba173" stroke-width="1.0" stroke-linejoin="round" stroke-linecap="butt" d="m2733.8818 908.93567l23.385986 0l0 140.31494l46.771484 0l0 -140.31494l23.385986 0l-46.77173 -46.771606z" fill-rule="evenodd"/><path fill="#000000" fill-opacity="0.0" d="m2827.4253 899.0l562.39355 0l0 113.4173l-562.39355 0z" fill-rule="evenodd"/><path fill="#ff5252" d="m2855.2378 979.4143q-10.296875 0 -16.375 -6.78125l3.125 -4.03125q2.625 2.9375 6.140625 4.515625q3.53125 1.5625 7.3125 1.5625q4.59375 0 7.3125 -2.046875q2.734375 -2.046875 2.734375 -5.3125q0 -5.0625 -7.9375 -7.234375q-9.40625 -2.5 -12.0 -3.96875q-2.59375 -1.46875 -3.96875 -3.671875q-1.375 -2.21875 -1.375 -5.28125q0 -5.125 4.125 -8.484375q4.125 -3.359375 10.53125 -3.359375q9.59375 0 15.15625 5.953125l-3.1875 3.90625q-4.609375 -5.125 -12.359375 -5.125q-3.84375 0 -6.3125 1.859375q-2.453125 1.859375 -2.453125 4.921875q0 2.25 2.046875 3.8125q2.046875 1.5625 5.953125 2.53125q9.09375 2.5 11.75 4.09375q2.65625 1.59375 4.09375 3.9375q1.4375 2.328125 1.4375 5.65625q0 5.890625 -4.296875 9.21875q-4.28125 3.328125 -11.453125 3.328125zm23.488281 -0.765625l0 -42.6875l4.796875 0l0 42.6875l-4.796875 0zm27.899902 0.765625q-6.71875 0 -11.0 -4.578125q-4.28125 -4.578125 -4.28125 -11.671875q0 -7.171875 4.28125 -11.6875q4.28125 -4.515625 11.0 -4.515625q6.734375 0 11.015625 4.515625q4.28125 4.515625 4.28125 11.6875q0 7.09375 -4.28125 11.671875q-4.28125 4.578125 -11.015625 4.578125zm0 -4.28125q4.484375 0 7.359375 -3.359375q2.890625 -3.359375 2.890625 -8.609375q0 -5.1875 -2.890625 -8.546875q-2.875 -3.359375 -7.359375 -3.359375q-4.46875 0 -7.390625 3.328125q-2.90625 3.328125 -2.90625 8.578125q0 5.3125 2.875 8.640625q2.890625 3.328125 7.421875 3.328125zm49.85791 3.515625l-8.0625 -24.828125l-8.0625 24.828125l-4.796875 0l-9.859375 -30.90625l5.0 0l7.546875 24.640625l8.125 -24.640625l4.09375 0l8.125 24.640625l7.5625 -24.640625l4.984375 0l-9.84375 30.90625l-4.8125 0z" fill-rule="nonzero"/></g></svg>