<svg version="1.1" viewBox="0.0 0.0 960.0 540.0" fill="none" stroke="none" stroke-linecap="square" stroke-miterlimit="10" xmlns:xlink="http://www.w3.org/1999/xlink" xmlns="http://www.w3.org/2000/svg"><clipPath id="ga062b5ccd6_0_0.0"><path d="m0 0l960.0 0l0 540.0l-960.0 0l0 -540.0z" clip-rule="nonzero"/></clipPath><g clip-path="url(#ga062b5ccd6_0_0.0)"><path fill="#ffffff" d="m0 0l960.0 0l0 540.0l-960.0 0z" fill-rule="evenodd"/><path fill="#000000" fill-opacity="0.0" d="m24.929134 134.25197l910.1417 0" fill-rule="evenodd"/><path stroke="#999999" stroke-width="2.0" stroke-linejoin="round" stroke-linecap="butt" stroke-dasharray="2.0,6.0" d="m24.929134 134.25197l910.1417 0" fill-rule="evenodd"/><path fill="#38761d" d="m343.44882 29.86641l0 0c0 -7.4074306 6.0049133 -13.41234 13.4123535 -13.41234l246.27768 0c3.557129 0 6.968628 1.4130802 9.483948 3.9283829c2.5153198 2.5153027 3.9284058 5.9267845 3.9284058 9.483957l0 53.64776c0 7.4074326 -6.004944 13.412338 -13.4123535 13.412338l-246.27768 0c-7.40744 0 -13.4123535 -6.0049057 -13.4123535 -13.412338z" fill-rule="evenodd"/><path stroke="#000000" stroke-width="2.0" stroke-linejoin="round" stroke-linecap="butt" d="m343.44882 29.86641l0 0c0 -7.4074306 6.0049133 -13.41234 13.4123535 -13.41234l246.27768 0c3.557129 0 6.968628 1.4130802 9.483948 3.9283829c2.5153198 2.5153027 3.9284058 5.9267845 3.9284058 9.483957l0 53.64776c0 7.4074326 -6.004944 13.412338 -13.4123535 13.412338l-246.27768 0c-7.40744 0 -13.4123535 -6.0049057 -13.4123535 -13.412338z" fill-rule="evenodd"/><path fill="#ffffff" d="m409.0625 65.230286l0 -17.1875l6.4375 0q1.96875 0 3.15625 0.53125q1.1875 0.515625 1.859375 1.609375q0.6875 1.078125 0.6875 2.265625q0 1.09375 -0.609375 2.078125q-0.59375 0.96875 -1.796875 1.5625q1.5625 0.453125 2.390625 1.5625q0.84375 1.09375 0.84375 2.59375q0 1.203125 -0.515625 2.25q-0.5 1.03125 -1.25 1.59375q-0.75 0.5625 -1.890625 0.859375q-1.125 0.28125 -2.765625 0.28125l-6.546875 0zm2.265625 -9.96875l3.71875 0q1.515625 0 2.171875 -0.1875q0.859375 -0.265625 1.296875 -0.859375q0.4375 -0.59375 0.4375 -1.5q0 -0.859375 -0.40625 -1.5q-0.40625 -0.65625 -1.171875 -0.890625q-0.765625 -0.25 -2.609375 -0.25l-3.4375 0l0 5.1875zm0 7.9375l4.28125 0q1.09375 0 1.546875 -0.078125q0.78125 -0.140625 1.3125 -0.46875q0.53125 -0.328125 0.859375 -0.953125q0.34375 -0.625 0.34375 -1.453125q0 -0.953125 -0.5 -1.65625q-0.484375 -0.71875 -1.359375 -1.0q-0.875 -0.296875 -2.515625 -0.296875l-3.96875 0l0 5.90625zm13.5078125 2.03125l0 -17.1875l2.109375 0l0 17.1875l-2.109375 0zm13.503906 -1.53125q-1.171875 0.984375 -2.265625 1.40625q-1.078125 0.40625 -2.3125 0.40625q-2.046875 0 -3.15625 -1.0q-1.09375 -1.0 -1.09375 -2.5625q0 -0.921875 0.40625 -1.671875q0.421875 -0.75 1.09375 -1.203125q0.671875 -0.46875 1.515625 -0.703125q0.625 -0.15625 1.875 -0.3125q2.5625 -0.3125 3.765625 -0.734375q0.015625 -0.421875 0.015625 -0.546875q0 -1.28125 -0.609375 -1.8125q-0.796875 -0.71875 -2.390625 -0.71875q-1.5 0 -2.203125 0.53125q-0.703125 0.515625 -1.046875 1.84375l-2.0625 -0.28125q0.28125 -1.328125 0.921875 -2.140625q0.640625 -0.8125 1.859375 -1.25q1.21875 -0.453125 2.828125 -0.453125q1.59375 0 2.59375 0.375q1.0 0.375 1.46875 0.953125q0.46875 0.5625 0.65625 1.4375q0.09375 0.53125 0.09375 1.9375l0 2.8125q0 2.9375 0.140625 3.71875q0.140625 0.78125 0.53125 1.5l-2.203125 0q-0.328125 -0.65625 -0.421875 -1.53125zm-0.171875 -4.71875q-1.15625 0.46875 -3.453125 0.796875q-1.296875 0.1875 -1.84375 0.421875q-0.53125 0.234375 -0.828125 0.6875q-0.28125 0.453125 -0.28125 1.0q0 0.84375 0.625 1.40625q0.640625 0.5625 1.875 0.5625q1.21875 0 2.171875 -0.53125q0.953125 -0.53125 1.390625 -1.453125q0.34375 -0.71875 0.34375 -2.109375l0 -0.78125zm4.2851562 6.25l0 -1.71875l7.921875 -9.09375q-1.34375 0.078125 -2.375 0.078125l-5.078125 0l0 -1.71875l10.171875 0l0 1.40625l-6.734375 7.890625l-1.296875 1.4375q1.40625 -0.09375 2.65625 -0.09375l5.75 0l0 1.8125l-11.015625 0zm21.640625 -4.015625l2.171875 0.28125q-0.515625 1.90625 -1.90625 2.96875q-1.390625 1.046875 -3.5625 1.046875q-2.734375 0 -4.34375 -1.671875q-1.59375 -1.6875 -1.59375 -4.734375q0 -3.140625 1.609375 -4.875q1.625 -1.734375 4.203125 -1.734375q2.5 0 4.078125 1.703125q1.59375 1.703125 1.59375 4.78125q0 0.1875 -0.015625 0.5625l-9.28125 0q0.109375 2.046875 1.15625 3.140625q1.046875 1.09375 2.609375 1.09375q1.15625 0 1.96875 -0.609375q0.828125 -0.609375 1.3125 -1.953125zm-6.9375 -3.40625l6.953125 0q-0.140625 -1.5625 -0.796875 -2.359375q-1.0 -1.21875 -2.609375 -1.21875q-1.453125 0 -2.453125 0.984375q-0.984375 0.96875 -1.09375 2.59375zm17.640625 1.203125q0 -3.46875 1.921875 -5.125q1.609375 -1.390625 3.921875 -1.390625q2.5625 0 4.1875 1.6875q1.625 1.6875 1.625 4.640625q0 2.40625 -0.71875 3.78125q-0.71875 1.375 -2.09375 2.140625q-1.375 0.765625 -3.0 0.765625q-2.625 0 -4.234375 -1.671875q-1.609375 -1.6875 -1.609375 -4.828125zm2.171875 0q0 2.390625 1.03125 3.578125q1.046875 1.1875 2.640625 1.1875q1.5625 0 2.609375 -1.1875q1.046875 -1.203125 1.046875 -3.65625q0 -2.3125 -1.0625 -3.5q-1.046875 -1.1875 -2.59375 -1.1875q-1.59375 0 -2.640625 1.1875q-1.03125 1.1875 -1.03125 3.578125zm11.957031 6.21875l0 -12.453125l1.90625 0l0 1.78125q1.375 -2.0625 3.953125 -2.0625q1.125 0 2.0625 0.40625q0.953125 0.40625 1.421875 1.0625q0.46875 0.65625 0.65625 1.5625q0.125 0.578125 0.125 2.046875l0 7.65625l-2.109375 0l0 -7.578125q0 -1.28125 -0.25 -1.921875q-0.25 -0.640625 -0.875 -1.015625q-0.625 -0.390625 -1.46875 -0.390625q-1.34375 0 -2.328125 0.859375q-0.984375 0.859375 -0.984375 3.25l0 6.796875l-2.109375 0zm20.21875 0l0 -17.1875l3.421875 0l4.0625 12.171875q0.5625 1.703125 0.828125 2.546875q0.296875 -0.9375 0.90625 -2.765625l4.125 -11.953125l3.046875 0l0 17.1875l-2.1875 0l0 -14.375l-4.984375 14.375l-2.0625 0l-4.96875 -14.625l0 14.625l-2.1875 0zm27.914062 -1.53125q-1.171875 0.984375 -2.265625 1.40625q-1.078125 0.40625 -2.3125 0.40625q-2.046875 0 -3.15625 -1.0q-1.09375 -1.0 -1.09375 -2.5625q0 -0.921875 0.40625 -1.671875q0.421875 -0.75 1.09375 -1.203125q0.671875 -0.46875 1.515625 -0.703125q0.625 -0.15625 1.875 -0.3125q2.5625 -0.3125 3.765625 -0.734375q0.015625 -0.421875 0.015625 -0.546875q0 -1.28125 -0.609375 -1.8125q-0.796875 -0.71875 -2.390625 -0.71875q-1.5 0 -2.203125 0.53125q-0.703125 0.515625 -1.046875 1.84375l-2.0625 -0.28125q0.28125 -1.328125 0.921875 -2.140625q0.640625 -0.8125 1.859375 -1.25q1.21875 -0.453125 2.828125 -0.453125q1.59375 0 2.59375 0.375q1.0 0.375 1.46875 0.953125q0.46875 0.5625 0.65625 1.4375q0.09375 0.53125 0.09375 1.9375l0 2.8125q0 2.9375 0.140625 3.71875q0.140625 0.78125 0.53125 1.5l-2.203125 0q-0.328125 -0.65625 -0.421875 -1.53125zm-0.171875 -4.71875q-1.15625 0.46875 -3.453125 0.796875q-1.296875 0.1875 -1.84375 0.421875q-0.53125 0.234375 -0.828125 0.6875q-0.28125 0.453125 -0.28125 1.0q0 0.84375 0.625 1.40625q0.640625 0.5625 1.875 0.5625q1.21875 0 2.171875 -0.53125q0.953125 -0.53125 1.390625 -1.453125q0.34375 -0.71875 0.34375 -2.109375l0 -0.78125zm13.519531 1.6875l2.078125 0.265625q-0.34375 2.15625 -1.75 3.375q-1.390625 1.203125 -3.4375 1.203125q-2.546875 0 -4.109375 -1.671875q-1.546875 -1.671875 -1.546875 -4.78125q0 -2.015625 0.671875 -3.53125q0.671875 -1.515625 2.03125 -2.265625q1.359375 -0.765625 2.96875 -0.765625q2.03125 0 3.3125 1.03125q1.296875 1.03125 1.65625 2.90625l-2.046875 0.328125q-0.296875 -1.265625 -1.046875 -1.890625q-0.734375 -0.640625 -1.796875 -0.640625q-1.59375 0 -2.59375 1.15625q-0.984375 1.140625 -0.984375 3.609375q0 2.5 0.953125 3.640625q0.96875 1.140625 2.515625 1.140625q1.234375 0 2.0625 -0.765625q0.84375 -0.765625 1.0625 -2.34375z" fill-rule="nonzero"/><path fill="#000000" fill-opacity="0.0" d="m480.0 96.926506l0 77.13386" fill-rule="evenodd"/><path stroke="#000000" stroke-width="2.0" stroke-linejoin="round" stroke-linecap="butt" d="m480.0 96.926506l0 65.13386" fill-rule="evenodd"/><path fill="#000000" stroke="#000000" stroke-width="2.0" stroke-linecap="butt" d="m476.69653 162.06036l3.3034668 9.076202l3.3034668 -9.076202z" fill-rule="evenodd"/><path fill="#38761d" d="m41.204723 426.70892l0 0c0 -7.40744 6.0049095 -13.412323 13.412342 -13.412323l850.7816 0c3.55719 0 6.968628 1.4130554 9.483948 3.9283752c2.5153198 2.5152893 3.9284058 5.9267883 3.9284058 9.483948l0 53.647766c0 7.40744 -6.004944 13.4123535 -13.4123535 13.4123535l-850.7816 0c-7.4074326 0 -13.412342 -6.0049133 -13.412342 -13.4123535z" fill-rule="evenodd"/><path stroke="#000000" stroke-width="2.0" stroke-linejoin="round" stroke-linecap="butt" d="m41.204723 426.70892l0 0c0 -7.40744 6.0049095 -13.412323 13.412342 -13.412323l850.7816 0c3.55719 0 6.968628 1.4130554 9.483948 3.9283752c2.5153198 2.5152893 3.9284058 5.9267883 3.9284058 9.483948l0 53.647766c0 7.40744 -6.004944 13.4123535 -13.4123535 13.4123535l-850.7816 0c-7.4074326 0 -13.412342 -6.0049133 -13.412342 -13.4123535z" fill-rule="evenodd"/><path fill="#ffffff" d="m393.56647 447.5728l0 -12.453125l1.890625 0l0 1.75q0.59375 -0.90625 1.5625 -1.46875q0.96875 -0.5625 2.21875 -0.5625q1.375 0 2.25 0.578125q0.890625 0.578125 1.265625 1.609375q1.46875 -2.1875 3.84375 -2.1875q1.84375 0 2.84375 1.03125q1.0 1.03125 1.0 3.15625l0 8.546875l-2.109375 0l0 -7.84375q0 -1.265625 -0.203125 -1.8125q-0.203125 -0.5625 -0.75 -0.90625q-0.53125 -0.34375 -1.25 -0.34375q-1.3125 0 -2.1875 0.875q-0.859375 0.875 -0.859375 2.796875l0 7.234375l-2.109375 0l0 -8.09375q0 -1.40625 -0.515625 -2.109375q-0.515625 -0.703125 -1.6875 -0.703125q-0.890625 0 -1.65625 0.46875q-0.75 0.46875 -1.09375 1.375q-0.34375 0.90625 -0.34375 2.609375l0 6.453125l-2.109375 0zm28.117188 -1.53125q-1.171875 0.984375 -2.265625 1.40625q-1.078125 0.40625 -2.3125 0.40625q-2.046875 0 -3.15625 -1.0q-1.09375 -1.0 -1.09375 -2.5625q0 -0.921875 0.40625 -1.671875q0.421875 -0.75 1.09375 -1.203125q0.671875 -0.46875 1.515625 -0.703125q0.625 -0.15625 1.875 -0.3125q2.5625 -0.3125 3.765625 -0.734375q0.015625 -0.421875 0.015625 -0.546875q0 -1.28125 -0.609375 -1.8125q-0.796875 -0.71875 -2.390625 -0.71875q-1.5 0 -2.203125 0.53125q-0.703125 0.515625 -1.046875 1.84375l-2.0625 -0.28125q0.28125 -1.328125 0.921875 -2.140625q0.640625 -0.8125 1.859375 -1.25q1.21875 -0.453125 2.828125 -0.453125q1.59375 0 2.59375 0.375q1.0 0.375 1.46875 0.953125q0.46875 0.5625 0.65625 1.4375q0.09375 0.53125 0.09375 1.9375l0 2.8125q0 2.9375 0.140625 3.71875q0.140625 0.78125 0.53125 1.5l-2.203125 0q-0.328125 -0.65625 -0.421875 -1.53125zm-0.171875 -4.71875q-1.15625 0.46875 -3.453125 0.796875q-1.296875 0.1875 -1.84375 0.421875q-0.53125 0.234375 -0.828125 0.6875q-0.28125 0.453125 -0.28125 1.0q0 0.84375 0.625 1.40625q0.640625 0.5625 1.875 0.5625q1.21875 0 2.171875 -0.53125q0.953125 -0.53125 1.390625 -1.453125q0.34375 -0.71875 0.34375 -2.109375l0 -0.78125zm13.519531 1.6875l2.078125 0.265625q-0.34375 2.15625 -1.75 3.375q-1.390625 1.203125 -3.4375 1.203125q-2.546875 0 -4.109375 -1.671875q-1.546875 -1.671875 -1.546875 -4.78125q0 -2.015625 0.671875 -3.53125q0.671875 -1.515625 2.03125 -2.265625q1.359375 -0.765625 2.96875 -0.765625q2.03125 0 3.3125 1.03125q1.296875 1.03125 1.65625 2.90625l-2.046875 0.328125q-0.296875 -1.265625 -1.046875 -1.890625q-0.734375 -0.640625 -1.796875 -0.640625q-1.59375 0 -2.59375 1.15625q-0.984375 1.140625 -0.984375 3.609375q0 2.5 0.953125 3.640625q0.96875 1.140625 2.515625 1.140625q1.234375 0 2.0625 -0.765625q0.84375 -0.765625 1.0625 -2.34375zm3.453125 -3.8125q0 -4.265625 2.296875 -6.6875q2.296875 -2.421875 5.9375 -2.421875q2.375 0 4.28125 1.140625q1.921875 1.125 2.921875 3.171875q1.0 2.03125 1.0 4.609375q0 2.609375 -1.0625 4.671875q-1.046875 2.0625 -2.984375 3.125q-1.9375 1.0625 -4.171875 1.0625q-2.421875 0 -4.34375 -1.171875q-1.90625 -1.171875 -2.890625 -3.203125q-0.984375 -2.03125 -0.984375 -4.296875zm2.34375 0.046875q0 3.09375 1.671875 4.890625q1.671875 1.78125 4.1875 1.78125q2.578125 0 4.234375 -1.796875q1.65625 -1.8125 1.65625 -5.125q0 -2.09375 -0.71875 -3.65625q-0.703125 -1.578125 -2.078125 -2.4375q-1.359375 -0.859375 -3.046875 -0.859375q-2.421875 0 -4.171875 1.65625q-1.734375 1.65625 -1.734375 5.546875zm16.246094 2.8125l2.140625 -0.1875q0.15625 1.28125 0.703125 2.109375q0.5625 0.828125 1.734375 1.34375q1.171875 0.5 2.640625 0.5q1.296875 0 2.296875 -0.375q1.0 -0.390625 1.484375 -1.0625q0.484375 -0.6875 0.484375 -1.484375q0 -0.796875 -0.46875 -1.40625q-0.46875 -0.609375 -1.546875 -1.015625q-0.6875 -0.265625 -3.0625 -0.828125q-2.359375 -0.578125 -3.3125 -1.078125q-1.234375 -0.640625 -1.84375 -1.59375q-0.59375 -0.96875 -0.59375 -2.140625q0 -1.3125 0.734375 -2.4375q0.75 -1.125 2.15625 -1.703125q1.421875 -0.59375 3.15625 -0.59375q1.90625 0 3.359375 0.609375q1.46875 0.609375 2.25 1.8125q0.796875 1.1875 0.84375 2.703125l-2.171875 0.171875q-0.171875 -1.640625 -1.1875 -2.46875q-1.015625 -0.828125 -3.0 -0.828125q-2.0625 0 -3.015625 0.765625q-0.9375 0.75 -0.9375 1.8125q0 0.921875 0.671875 1.515625q0.65625 0.609375 3.421875 1.234375q2.78125 0.625 3.8125 1.09375q1.5 0.6875 2.203125 1.75q0.71875 1.0625 0.71875 2.4375q0 1.375 -0.78125 2.59375q-0.78125 1.203125 -2.25 1.890625q-1.46875 0.671875 -3.3125 0.671875q-2.328125 0 -3.90625 -0.671875q-1.578125 -0.6875 -2.484375 -2.046875q-0.890625 -1.375 -0.9375 -3.09375zm23.457031 5.515625l0 -17.1875l6.46875 0q1.71875 0 2.625 0.171875q1.265625 0.203125 2.109375 0.796875q0.859375 0.59375 1.375 1.671875q0.53125 1.0625 0.53125 2.328125q0 2.203125 -1.40625 3.71875q-1.390625 1.515625 -5.03125 1.515625l-4.40625 0l0 6.984375l-2.265625 0zm2.265625 -9.015625l4.4375 0q2.203125 0 3.125 -0.8125q0.9375 -0.828125 0.9375 -2.3125q0 -1.078125 -0.546875 -1.84375q-0.546875 -0.765625 -1.4375 -1.015625q-0.578125 -0.15625 -2.125 -0.15625l-4.390625 0l0 6.140625zm13.4140625 9.015625l0 -17.1875l2.109375 0l0 17.1875l-2.109375 0zm13.503906 -1.53125q-1.171875 0.984375 -2.265625 1.40625q-1.078125 0.40625 -2.3125 0.40625q-2.046875 0 -3.15625 -1.0q-1.09375 -1.0 -1.09375 -2.5625q0 -0.921875 0.40625 -1.671875q0.421875 -0.75 1.09375 -1.203125q0.671875 -0.46875 1.515625 -0.703125q0.625 -0.15625 1.875 -0.3125q2.5625 -0.3125 3.765625 -0.734375q0.015625 -0.421875 0.015625 -0.546875q0 -1.28125 -0.609375 -1.8125q-0.796875 -0.71875 -2.390625 -0.71875q-1.5 0 -2.203125 0.53125q-0.703125 0.515625 -1.046875 1.84375l-2.0625 -0.28125q0.28125 -1.328125 0.921875 -2.140625q0.640625 -0.8125 1.859375 -1.25q1.21875 -0.453125 2.828125 -0.453125q1.59375 0 2.59375 0.375q1.0 0.375 1.46875 0.953125q0.46875 0.5625 0.65625 1.4375q0.09375 0.53125 0.09375 1.9375l0 2.8125q0 2.9375 0.140625 3.71875q0.140625 0.78125 0.53125 1.5l-2.203125 0q-0.328125 -0.65625 -0.421875 -1.53125zm-0.171875 -4.71875q-1.15625 0.46875 -3.453125 0.796875q-1.296875 0.1875 -1.84375 0.421875q-0.53125 0.234375 -0.828125 0.6875q-0.28125 0.453125 -0.28125 1.0q0 0.84375 0.625 1.40625q0.640625 0.5625 1.875 0.5625q1.21875 0 2.171875 -0.53125q0.953125 -0.53125 1.390625 -1.453125q0.34375 -0.71875 0.34375 -2.109375l0 -0.78125zm10.003906 4.359375l0.3125 1.859375q-0.890625 0.203125 -1.59375 0.203125q-1.15625 0 -1.796875 -0.359375q-0.625 -0.375 -0.890625 -0.96875q-0.25 -0.59375 -0.25 -2.484375l0 -7.171875l-1.546875 0l0 -1.640625l1.546875 0l0 -3.078125l2.09375 -1.265625l0 4.34375l2.125 0l0 1.640625l-2.125 0l0 7.28125q0 0.90625 0.109375 1.171875q0.125 0.25 0.375 0.40625q0.25 0.140625 0.71875 0.140625q0.34375 0 0.921875 -0.078125zm2.5742188 1.890625l0 -10.8125l-1.875 0l0 -1.640625l1.875 0l0 -1.3125q0 -1.265625 0.21875 -1.875q0.296875 -0.8125 1.0625 -1.3125q0.78125 -0.515625 2.15625 -0.515625q0.890625 0 1.96875 0.203125l-0.3125 1.84375q-0.65625 -0.125 -1.25 -0.125q-0.953125 0 -1.359375 0.421875q-0.390625 0.40625 -0.390625 1.53125l0 1.140625l2.421875 0l0 1.640625l-2.421875 0l0 10.8125l-2.09375 0zm5.3710938 -6.21875q0 -3.46875 1.921875 -5.125q1.609375 -1.390625 3.921875 -1.390625q2.5625 0 4.1875 1.6875q1.625 1.6875 1.625 4.640625q0 2.40625 -0.71875 3.78125q-0.71875 1.375 -2.09375 2.140625q-1.375 0.765625 -3.0 0.765625q-2.625 0 -4.234375 -1.671875q-1.609375 -1.6875 -1.609375 -4.828125zm2.171875 0q0 2.390625 1.03125 3.578125q1.046875 1.1875 2.640625 1.1875q1.5625 0 2.609375 -1.1875q1.046875 -1.203125 1.046875 -3.65625q0 -2.3125 -1.0625 -3.5q-1.046875 -1.1875 -2.59375 -1.1875q-1.59375 0 -2.640625 1.1875q-1.03125 1.1875 -1.03125 3.578125zm11.941406 6.21875l0 -12.453125l1.890625 0l0 1.890625q0.734375 -1.328125 1.34375 -1.75q0.625 -0.421875 1.359375 -0.421875q1.0625 0 2.171875 0.6875l-0.734375 1.953125q-0.765625 -0.453125 -1.546875 -0.453125q-0.6875 0 -1.25 0.421875q-0.546875 0.40625 -0.78125 1.140625q-0.34375 1.125 -0.34375 2.46875l0 6.515625l-2.109375 0zm8.0078125 0l0 -12.453125l1.890625 0l0 1.75q0.59375 -0.90625 1.5625 -1.46875q0.96875 -0.5625 2.21875 -0.5625q1.375 0 2.25 0.578125q0.890625 0.578125 1.265625 1.609375q1.46875 -2.1875 3.84375 -2.1875q1.84375 0 2.84375 1.03125q1.0 1.03125 1.0 3.15625l0 8.546875l-2.109375 0l0 -7.84375q0 -1.265625 -0.203125 -1.8125q-0.203125 -0.5625 -0.75 -0.90625q-0.53125 -0.34375 -1.25 -0.34375q-1.3125 0 -2.1875 0.875q-0.859375 0.875 -0.859375 2.796875l0 7.234375l-2.109375 0l0 -8.09375q0 -1.40625 -0.515625 -2.109375q-0.515625 -0.703125 -1.6875 -0.703125q-0.890625 0 -1.65625 0.46875q-0.75 0.46875 -1.09375 1.375q-0.34375 0.90625 -0.34375 2.609375l0 6.453125l-2.109375 0z" fill-rule="nonzero"/><path fill="#ffffff" d="m121.56843 481.6197q-1.734375 -2.203125 -2.953125 -5.15625q-1.203125 -2.953125 -1.203125 -6.109375q0 -2.796875 0.90625 -5.34375q1.046875 -2.96875 3.25 -5.90625l1.515625 0q-1.421875 2.4375 -1.875 3.46875q-0.71875 1.625 -1.125 3.375q-0.5 2.203125 -0.5 4.40625q0 5.640625 3.5 11.265625l-1.515625 0z" fill-rule="nonzero"/><path fill="#ffffff" d="m126.32624 458.5728l0 1.890625l4.3125076 0l0 14.234375l-4.3125076 0l0 1.875l10.625008 0l0 -1.875l-4.140625 0l0 -16.125l-6.4843826 0zm14.402351 5.3125l0 1.890625l4.3125 0l0 8.921875l-4.3125 0l0 1.875l10.625 0l0 -1.875l-4.140625 0l0 -10.8125l-6.484375 0zm4.03125 -3.328125q0 0.53125 0.328125 0.890625q0.328125 0.34375 0.984375 0.34375q0.640625 0 0.96875 -0.34375q0.328125 -0.359375 0.328125 -0.890625q0 -0.28125 -0.09375 -0.53125q-0.09375 -0.25 -0.28125 -0.40625q-0.15625 -0.15625 -0.390625 -0.234375q-0.234375 -0.09375 -0.53125 -0.09375q-0.3125 0 -0.5625 0.09375q-0.234375 0.078125 -0.375 0.234375q-0.1875 0.171875 -0.28125 0.421875q-0.09375 0.234375 -0.09375 0.515625zm20.777344 9.8125l0 -0.25q0 -0.984375 -0.171875 -1.875q-0.15625 -0.90625 -0.46875 -1.640625q-0.296875 -0.65625 -0.703125 -1.1875q-0.390625 -0.546875 -0.90625 -0.921875q-0.5625 -0.390625 -1.25 -0.609375q-0.6875 -0.234375 -1.515625 -0.234375q-0.65625 0 -1.21875 0.140625q-0.5625 0.125 -1.03125 0.375q-0.375 0.1875 -0.703125 0.46875q-0.328125 0.28125 -0.59375 0.609375l0 -6.671875l-2.171875 0l0 18.0l2.0 0l0.109375 -1.4375q0.203125 0.265625 0.4375 0.484375q0.234375 0.21875 0.5 0.40625q0.53125 0.375 1.203125 0.578125q0.671875 0.203125 1.5 0.203125q0.71875 0 1.328125 -0.1875q0.609375 -0.171875 1.125 -0.484375q0.71875 -0.453125 1.21875 -1.140625q0.515625 -0.703125 0.84375 -1.59375q0.234375 -0.65625 0.34375 -1.421875q0.125 -0.78125 0.125 -1.609375zm-2.15625 -0.25l0 0.25q0 0.5625 -0.078125 1.109375q-0.0625 0.53125 -0.21875 1.0q-0.1875 0.625 -0.515625 1.125q-0.3125 0.5 -0.78125 0.828125q-0.34375 0.265625 -0.796875 0.40625q-0.4375 0.125 -0.984375 0.125q-0.5625 0 -1.03125 -0.140625q-0.46875 -0.15625 -0.84375 -0.421875q-0.375 -0.265625 -0.65625 -0.625q-0.28125 -0.359375 -0.5 -0.78125l0 -5.546875q0.203125 -0.421875 0.484375 -0.765625q0.296875 -0.359375 0.671875 -0.640625q0.359375 -0.25 0.828125 -0.390625q0.46875 -0.15625 1.03125 -0.15625q0.515625 0 0.9375 0.125q0.421875 0.109375 0.765625 0.328125q0.484375 0.28125 0.828125 0.796875q0.34375 0.515625 0.546875 1.140625q0.15625 0.5 0.234375 1.078125q0.078125 0.5625 0.078125 1.15625zm11.214844 4.921875q-1.015625 0 -1.703125 -0.390625q-0.6875 -0.40625 -1.09375 -1.0625q-0.421875 -0.65625 -0.609375 -1.46875q-0.171875 -0.8125 -0.171875 -1.640625l0 -0.5q0 -0.8125 0.171875 -1.625q0.1875 -0.8125 0.609375 -1.46875q0.421875 -0.640625 1.109375 -1.046875q0.6875 -0.40625 1.6875 -0.40625q0.65625 0 1.21875 0.234375q0.578125 0.21875 0.984375 0.609375q0.421875 0.375 0.65625 0.890625q0.234375 0.515625 0.25 1.078125l2.046875 0q0 -0.953125 -0.390625 -1.796875q-0.375 -0.84375 -1.0625 -1.46875q-0.6875 -0.609375 -1.640625 -0.96875q-0.9375 -0.359375 -2.0625 -0.359375q-1.4375 0 -2.515625 0.515625q-1.078125 0.515625 -1.796875 1.390625q-0.71875 0.875 -1.09375 2.03125q-0.359375 1.140625 -0.359375 2.390625l0 0.5q0 1.265625 0.359375 2.40625q0.375 1.140625 1.09375 2.015625q0.71875 0.875 1.796875 1.390625q1.078125 0.515625 2.515625 0.515625q1.015625 0 1.9375 -0.34375q0.921875 -0.34375 1.640625 -0.9375q0.71875 -0.578125 1.140625 -1.34375q0.4375 -0.765625 0.4375 -1.609375l-2.046875 0q-0.015625 0.53125 -0.28125 0.984375q-0.25 0.453125 -0.6875 0.78125q-0.4375 0.328125 -1.0 0.515625q-0.546875 0.1875 -1.140625 0.1875zm15.292969 -7.625l0 -4.984375l-2.171875 0l0 4.984375l-4.765625 0l0 2.15625l4.765625 0l0 5.28125l2.171875 0l0 -5.28125l4.765625 0l0 -2.15625l-4.765625 0zm14.402344 0l0 -4.984375l-2.171875 0l0 4.984375l-4.765625 0l0 2.15625l4.765625 0l0 5.28125l2.171875 0l0 -5.28125l4.765625 0l0 -2.15625l-4.765625 0zm11.886719 7.75q0 0.671875 0.421875 1.15625q0.4375 0.46875 1.28125 0.46875q0.828125 0 1.265625 -0.46875q0.453125 -0.46875 0.453125 -1.15625q0 -0.703125 -0.4375 -1.1875q-0.4375 -0.484375 -1.28125 -0.484375q-0.859375 0 -1.28125 0.5q-0.421875 0.484375 -0.421875 1.171875zm10.214844 -5.046875l0 0.25q0 1.359375 0.359375 2.546875q0.375 1.171875 1.03125 2.03125q0.65625 0.875 1.578125 1.375q0.9375 0.484375 2.09375 0.484375q1.171875 0 2.046875 -0.390625q0.875 -0.40625 1.515625 -1.1875l0.09375 1.34375l1.984375 0l0 -18.0l-2.171875 0l0 6.578125q-0.609375 -0.734375 -1.46875 -1.109375q-0.84375 -0.390625 -1.984375 -0.390625q-1.15625 0 -2.09375 0.484375q-0.9375 0.484375 -1.59375 1.34375q-0.671875 0.84375 -1.03125 2.046875q-0.359375 1.1875 -0.359375 2.59375zm2.171875 0.25l0 -0.25q0 -0.921875 0.203125 -1.75q0.203125 -0.84375 0.625 -1.484375q0.40625 -0.640625 1.046875 -1.015625q0.65625 -0.375 1.578125 -0.375q1.0625 0 1.765625 0.5q0.71875 0.5 1.140625 1.265625l0 5.890625q-0.421875 0.828125 -1.140625 1.328125q-0.703125 0.484375 -1.796875 0.484375q-0.90625 0 -1.546875 -0.359375q-0.640625 -0.375 -1.046875 -1.015625q-0.421875 -0.625 -0.625 -1.453125q-0.203125 -0.84375 -0.203125 -1.765625zm13.667969 11.328125q0.859375 0 1.515625 -0.328125q0.65625 -0.3125 1.140625 -0.78125q0.5 -0.46875 0.84375 -1.015625q0.34375 -0.546875 0.5625 -1.046875l6.4375 -14.640625l-2.421875 0l-3.28125 8.234375l-0.59375 1.484375l-0.5625 -1.53125l-3.484375 -8.1875l-2.421875 0l5.46875 12.09375l-0.875 1.6875q-0.109375 0.234375 -0.328125 0.59375q-0.203125 0.359375 -0.484375 0.703125q-0.28125 0.34375 -0.65625 0.578125q-0.375 0.25 -0.8125 0.25q-0.171875 0 -0.453125 -0.015625q-0.28125 -0.015625 -0.578125 -0.03125l-0.359375 1.765625q0.21875 0.046875 0.625 0.109375q0.40625 0.078125 0.71875 0.078125zm13.714844 -23.125l0 1.890625l4.3124847 0l0 14.234375l-4.3124847 0l0 1.875l10.624985 0l0 -1.875l-4.140625 0l0 -16.125l-6.4843597 0zm14.4023285 5.3125l0 1.890625l4.3125 0l0 8.921875l-4.3125 0l0 1.875l10.625 0l0 -1.875l-4.140625 0l0 -10.8125l-6.484375 0zm4.03125 -3.328125q0 0.53125 0.328125 0.890625q0.328125 0.34375 0.984375 0.34375q0.640625 0 0.96875 -0.34375q0.328125 -0.359375 0.328125 -0.890625q0 -0.28125 -0.09375 -0.53125q-0.09375 -0.25 -0.28125 -0.40625q-0.15625 -0.15625 -0.390625 -0.234375q-0.234375 -0.09375 -0.53125 -0.09375q-0.3125 0 -0.5625 0.09375q-0.234375 0.078125 -0.375 0.234375q-0.1875 0.171875 -0.28125 0.421875q-0.09375 0.234375 -0.09375 0.515625zm20.777344 9.8125l0 -0.25q0 -0.984375 -0.171875 -1.875q-0.15625 -0.90625 -0.46875 -1.640625q-0.296875 -0.65625 -0.703125 -1.1875q-0.390625 -0.546875 -0.90625 -0.921875q-0.5625 -0.390625 -1.25 -0.609375q-0.6875 -0.234375 -1.515625 -0.234375q-0.65625 0 -1.21875 0.140625q-0.5625 0.125 -1.03125 0.375q-0.375 0.1875 -0.703125 0.46875q-0.328125 0.28125 -0.59375 0.609375l0 -6.671875l-2.171875 0l0 18.0l2.0 0l0.109375 -1.4375q0.203125 0.265625 0.4375 0.484375q0.234375 0.21875 0.5 0.40625q0.53125 0.375 1.203125 0.578125q0.671875 0.203125 1.5 0.203125q0.71875 0 1.328125 -0.1875q0.609375 -0.171875 1.125 -0.484375q0.71875 -0.453125 1.21875 -1.140625q0.515625 -0.703125 0.84375 -1.59375q0.234375 -0.65625 0.34375 -1.421875q0.125 -0.78125 0.125 -1.609375zm-2.15625 -0.25l0 0.25q0 0.5625 -0.078125 1.109375q-0.0625 0.53125 -0.21875 1.0q-0.1875 0.625 -0.515625 1.125q-0.3125 0.5 -0.78125 0.828125q-0.34375 0.265625 -0.796875 0.40625q-0.4375 0.125 -0.984375 0.125q-0.5625 0 -1.03125 -0.140625q-0.46875 -0.15625 -0.84375 -0.421875q-0.375 -0.265625 -0.65625 -0.625q-0.28125 -0.359375 -0.5 -0.78125l0 -5.546875q0.203125 -0.421875 0.484375 -0.765625q0.296875 -0.359375 0.671875 -0.640625q0.359375 -0.25 0.828125 -0.390625q0.46875 -0.15625 1.03125 -0.15625q0.515625 0 0.9375 0.125q0.421875 0.109375 0.765625 0.328125q0.484375 0.28125 0.828125 0.796875q0.34375 0.515625 0.546875 1.140625q0.15625 0.5 0.234375 1.078125q0.078125 0.5625 0.078125 1.15625z" fill-rule="nonzero"/><path fill="#ffffff" d="m298.91998 476.5728l0 -2.40625l2.390625 0l0 2.40625q0 1.328125 -0.46875 2.140625q-0.46875 0.8125 -1.484375 1.265625l-0.578125 -0.90625q0.65625 -0.296875 0.96875 -0.875q0.328125 -0.5625 0.359375 -1.625l-1.1875 0z" fill-rule="nonzero"/><path fill="#ffffff" d="m312.4903 458.5728l0 1.890625l4.3125 0l0 14.234375l-4.3125 0l0 1.875l10.625 0l0 -1.875l-4.140625 0l0 -16.125l-6.484375 0zm14.402344 5.3125l0 1.890625l4.3125 0l0 8.921875l-4.3125 0l0 1.875l10.625 0l0 -1.875l-4.140625 0l0 -10.8125l-6.484375 0zm4.03125 -3.328125q0 0.53125 0.328125 0.890625q0.328125 0.34375 0.984375 0.34375q0.640625 0 0.96875 -0.34375q0.328125 -0.359375 0.328125 -0.890625q0 -0.28125 -0.09375 -0.53125q-0.09375 -0.25 -0.28125 -0.40625q-0.15625 -0.15625 -0.390625 -0.234375q-0.234375 -0.09375 -0.53125 -0.09375q-0.3125 0 -0.5625 0.09375q-0.234375 0.078125 -0.375 0.234375q-0.1875 0.171875 -0.28125 0.421875q-0.09375 0.234375 -0.09375 0.515625zm20.777344 9.8125l0 -0.25q0 -0.984375 -0.171875 -1.875q-0.15625 -0.90625 -0.46875 -1.640625q-0.296875 -0.65625 -0.703125 -1.1875q-0.390625 -0.546875 -0.90625 -0.921875q-0.5625 -0.390625 -1.25 -0.609375q-0.6875 -0.234375 -1.515625 -0.234375q-0.65625 0 -1.21875 0.140625q-0.5625 0.125 -1.03125 0.375q-0.375 0.1875 -0.703125 0.46875q-0.328125 0.28125 -0.59375 0.609375l0 -6.671875l-2.171875 0l0 18.0l2.0 0l0.109375 -1.4375q0.203125 0.265625 0.4375 0.484375q0.234375 0.21875 0.5 0.40625q0.53125 0.375 1.203125 0.578125q0.671875 0.203125 1.5 0.203125q0.71875 0 1.328125 -0.1875q0.609375 -0.171875 1.125 -0.484375q0.71875 -0.453125 1.21875 -1.140625q0.515625 -0.703125 0.84375 -1.59375q0.234375 -0.65625 0.34375 -1.421875q0.125 -0.78125 0.125 -1.609375zm-2.15625 -0.25l0 0.25q0 0.5625 -0.078125 1.109375q-0.0625 0.53125 -0.21875 1.0q-0.1875 0.625 -0.515625 1.125q-0.3125 0.5 -0.78125 0.828125q-0.34375 0.265625 -0.796875 0.40625q-0.4375 0.125 -0.984375 0.125q-0.5625 0 -1.03125 -0.140625q-0.46875 -0.15625 -0.84375 -0.421875q-0.375 -0.265625 -0.65625 -0.625q-0.28125 -0.359375 -0.5 -0.78125l0 -5.546875q0.203125 -0.421875 0.484375 -0.765625q0.296875 -0.359375 0.671875 -0.640625q0.359375 -0.25 0.828125 -0.390625q0.46875 -0.15625 1.03125 -0.15625q0.515625 0 0.9375 0.125q0.421875 0.109375 0.765625 0.328125q0.484375 0.28125 0.828125 0.796875q0.34375 0.515625 0.546875 1.140625q0.15625 0.5 0.234375 1.078125q0.078125 0.5625 0.078125 1.15625zm5.2148438 0l0 0.25q0 1.375 0.390625 2.546875q0.40625 1.171875 1.15625 2.03125q0.734375 0.875 1.796875 1.375q1.078125 0.484375 2.421875 0.484375q1.34375 0 2.40625 -0.484375q1.0625 -0.5 1.8125 -1.375q0.75 -0.859375 1.140625 -2.03125q0.40625 -1.171875 0.40625 -2.546875l0 -0.25q0 -1.375 -0.40625 -2.546875q-0.390625 -1.1875 -1.140625 -2.046875q-0.75 -0.875 -1.828125 -1.375q-1.0625 -0.5 -2.40625 -0.5q-1.34375 0 -2.40625 0.5q-1.0625 0.5 -1.796875 1.375q-0.75 0.859375 -1.15625 2.046875q-0.390625 1.171875 -0.390625 2.546875zm2.15625 0.25l0 -0.25q0 -0.9375 0.21875 -1.78125q0.234375 -0.84375 0.6875 -1.5q0.453125 -0.640625 1.109375 -1.015625q0.671875 -0.390625 1.578125 -0.390625q0.90625 0 1.578125 0.390625q0.671875 0.375 1.125 1.015625q0.453125 0.65625 0.671875 1.5q0.234375 0.84375 0.234375 1.78125l0 0.25q0 0.9375 -0.234375 1.796875q-0.21875 0.84375 -0.65625 1.484375q-0.453125 0.640625 -1.140625 1.015625q-0.671875 0.375 -1.5625 0.375q-0.890625 0 -1.578125 -0.375q-0.671875 -0.375 -1.125 -1.015625q-0.453125 -0.640625 -0.6875 -1.484375q-0.21875 -0.859375 -0.21875 -1.796875zm23.589844 0l0 -0.25q0 -0.984375 -0.171875 -1.875q-0.15625 -0.90625 -0.46875 -1.640625q-0.296875 -0.65625 -0.703125 -1.1875q-0.390625 -0.546875 -0.90625 -0.921875q-0.5625 -0.390625 -1.25 -0.609375q-0.6875 -0.234375 -1.515625 -0.234375q-0.65625 0 -1.21875 0.140625q-0.5625 0.125 -1.03125 0.375q-0.375 0.1875 -0.703125 0.46875q-0.328125 0.28125 -0.59375 0.609375l0 -6.671875l-2.171875 0l0 18.0l2.0 0l0.109375 -1.4375q0.203125 0.265625 0.4375 0.484375q0.234375 0.21875 0.5 0.40625q0.53125 0.375 1.203125 0.578125q0.671875 0.203125 1.5 0.203125q0.71875 0 1.328125 -0.1875q0.609375 -0.171875 1.125 -0.484375q0.71875 -0.453125 1.21875 -1.140625q0.515625 -0.703125 0.84375 -1.59375q0.234375 -0.65625 0.34375 -1.421875q0.125 -0.78125 0.125 -1.609375zm-2.15625 -0.25l0 0.25q0 0.5625 -0.078125 1.109375q-0.0625 0.53125 -0.21875 1.0q-0.1875 0.625 -0.515625 1.125q-0.3125 0.5 -0.78125 0.828125q-0.34375 0.265625 -0.796875 0.40625q-0.4375 0.125 -0.984375 0.125q-0.5625 0 -1.03125 -0.140625q-0.46875 -0.15625 -0.84375 -0.421875q-0.375 -0.265625 -0.65625 -0.625q-0.28125 -0.359375 -0.5 -0.78125l0 -5.546875q0.203125 -0.421875 0.484375 -0.765625q0.296875 -0.359375 0.671875 -0.640625q0.359375 -0.25 0.828125 -0.390625q0.46875 -0.15625 1.03125 -0.15625q0.515625 0 0.9375 0.125q0.421875 0.109375 0.765625 0.328125q0.484375 0.28125 0.828125 0.796875q0.34375 0.515625 0.546875 1.140625q0.15625 0.5 0.234375 1.078125q0.078125 0.5625 0.078125 1.15625zm7.2773438 -6.234375l0 1.890625l4.234375 0l0 10.875q0 0.90625 -0.234375 1.515625q-0.21875 0.625 -0.625 1.0q-0.390625 0.375 -0.9375 0.53125q-0.53125 0.15625 -1.140625 0.15625q-0.171875 0 -0.453125 -0.015625q-0.28125 0 -0.59375 -0.015625q-0.3125 -0.015625 -0.625 -0.046875q-0.296875 -0.03125 -0.5 -0.0625l-0.15625 1.78125q0.296875 0.046875 0.5625 0.078125q0.28125 0.046875 0.546875 0.078125q0.328125 0.015625 0.65625 0.03125q0.34375 0.015625 0.71875 0.015625q1.171875 0 2.078125 -0.34375q0.921875 -0.328125 1.578125 -0.96875q0.625 -0.640625 0.953125 -1.578125q0.34375 -0.9375 0.34375 -2.15625l0 -12.765625l-6.40625 0zm3.9375 -3.328125q0 0.515625 0.3125 0.875q0.3125 0.359375 0.96875 0.359375q0.65625 0 0.984375 -0.359375q0.328125 -0.359375 0.328125 -0.875q0 -0.53125 -0.328125 -0.890625q-0.328125 -0.375 -0.984375 -0.375q-0.65625 0 -0.96875 0.375q-0.3125 0.359375 -0.3125 0.890625zm14.402344 14.484375q-1.015625 0 -1.703125 -0.390625q-0.6875 -0.40625 -1.09375 -1.0625q-0.421875 -0.65625 -0.609375 -1.46875q-0.171875 -0.8125 -0.171875 -1.640625l0 -0.5q0 -0.8125 0.171875 -1.625q0.1875 -0.8125 0.609375 -1.46875q0.421875 -0.640625 1.109375 -1.046875q0.6875 -0.40625 1.6875 -0.40625q0.65625 0 1.21875 0.234375q0.578125 0.21875 0.984375 0.609375q0.421875 0.375 0.65625 0.890625q0.234375 0.515625 0.25 1.078125l2.046875 0q0 -0.953125 -0.390625 -1.796875q-0.375 -0.84375 -1.0625 -1.46875q-0.6875 -0.609375 -1.640625 -0.96875q-0.9375 -0.359375 -2.0625 -0.359375q-1.4375 0 -2.515625 0.515625q-1.078125 0.515625 -1.796875 1.390625q-0.71875 0.875 -1.09375 2.03125q-0.359375 1.140625 -0.359375 2.390625l0 0.5q0 1.265625 0.359375 2.40625q0.375 1.140625 1.09375 2.015625q0.71875 0.875 1.796875 1.390625q1.078125 0.515625 2.515625 0.515625q1.015625 0 1.9375 -0.34375q0.921875 -0.34375 1.640625 -0.9375q0.71875 -0.578125 1.140625 -1.34375q0.4375 -0.765625 0.4375 -1.609375l-2.046875 0q-0.015625 0.53125 -0.28125 0.984375q-0.25 0.453125 -0.6875 0.78125q-0.4375 0.328125 -1.0 0.515625q-0.546875 0.1875 -1.140625 0.1875zm12.777344 0.125q0 0.671875 0.421875 1.15625q0.4375 0.46875 1.28125 0.46875q0.828125 0 1.265625 -0.46875q0.453125 -0.46875 0.453125 -1.15625q0 -0.703125 -0.4375 -1.1875q-0.4375 -0.484375 -1.28125 -0.484375q-0.859375 0 -1.28125 0.5q-0.421875 0.484375 -0.421875 1.171875zm10.214844 -5.046875l0 0.25q0 1.359375 0.359375 2.546875q0.375 1.171875 1.03125 2.03125q0.65625 0.875 1.578125 1.375q0.9375 0.484375 2.09375 0.484375q1.171875 0 2.046875 -0.390625q0.875 -0.40625 1.515625 -1.1875l0.09375 1.34375l1.984375 0l0 -18.0l-2.171875 0l0 6.578125q-0.609375 -0.734375 -1.46875 -1.109375q-0.84375 -0.390625 -1.984375 -0.390625q-1.15625 0 -2.09375 0.484375q-0.9375 0.484375 -1.59375 1.34375q-0.671875 0.84375 -1.03125 2.046875q-0.359375 1.1875 -0.359375 2.59375zm2.171875 0.25l0 -0.25q0 -0.921875 0.203125 -1.75q0.203125 -0.84375 0.625 -1.484375q0.40625 -0.640625 1.046875 -1.015625q0.65625 -0.375 1.578125 -0.375q1.0625 0 1.765625 0.5q0.71875 0.5 1.140625 1.265625l0 5.890625q-0.421875 0.828125 -1.140625 1.328125q-0.703125 0.484375 -1.796875 0.484375q-0.90625 0 -1.546875 -0.359375q-0.640625 -0.375 -1.046875 -1.015625q-0.421875 -0.625 -0.625 -1.453125q-0.203125 -0.84375 -0.203125 -1.765625zm13.667969 11.328125q0.859375 0 1.515625 -0.328125q0.65625 -0.3125 1.140625 -0.78125q0.5 -0.46875 0.84375 -1.015625q0.34375 -0.546875 0.5625 -1.046875l6.4375 -14.640625l-2.421875 0l-3.28125 8.234375l-0.59375 1.484375l-0.5625 -1.53125l-3.484375 -8.1875l-2.421875 0l5.46875 12.09375l-0.875 1.6875q-0.109375 0.234375 -0.328125 0.59375q-0.203125 0.359375 -0.484375 0.703125q-0.28125 0.34375 -0.65625 0.578125q-0.375 0.25 -0.8125 0.25q-0.171875 0 -0.453125 -0.015625q-0.28125 -0.015625 -0.578125 -0.03125l-0.359375 1.765625q0.21875 0.046875 0.625 0.109375q0.40625 0.078125 0.71875 0.078125zm13.714844 -23.125l0 1.890625l4.3125 0l0 14.234375l-4.3125 0l0 1.875l10.625 0l0 -1.875l-4.140625 0l0 -16.125l-6.484375 0zm14.402344 5.3125l0 1.890625l4.3125 0l0 8.921875l-4.3125 0l0 1.875l10.625 0l0 -1.875l-4.140625 0l0 -10.8125l-6.484375 0zm4.03125 -3.328125q0 0.53125 0.328125 0.890625q0.328125 0.34375 0.984375 0.34375q0.640625 0 0.96875 -0.34375q0.328125 -0.359375 0.328125 -0.890625q0 -0.28125 -0.09375 -0.53125q-0.09375 -0.25 -0.28125 -0.40625q-0.15625 -0.15625 -0.390625 -0.234375q-0.234375 -0.09375 -0.53125 -0.09375q-0.3125 0 -0.5625 0.09375q-0.234375 0.078125 -0.375 0.234375q-0.1875 0.171875 -0.28125 0.421875q-0.09375 0.234375 -0.09375 0.515625zm20.777344 9.8125l0 -0.25q0 -0.984375 -0.171875 -1.875q-0.15625 -0.90625 -0.46875 -1.640625q-0.296875 -0.65625 -0.703125 -1.1875q-0.390625 -0.546875 -0.90625 -0.921875q-0.5625 -0.390625 -1.25 -0.609375q-0.6875 -0.234375 -1.515625 -0.234375q-0.65625 0 -1.21875 0.140625q-0.5625 0.125 -1.03125 0.375q-0.375 0.1875 -0.703125 0.46875q-0.328125 0.28125 -0.59375 0.609375l0 -6.671875l-2.171875 0l0 18.0l2.0 0l0.109375 -1.4375q0.203125 0.265625 0.4375 0.484375q0.234375 0.21875 0.5 0.40625q0.53125 0.375 1.203125 0.578125q0.671875 0.203125 1.5 0.203125q0.71875 0 1.328125 -0.1875q0.609375 -0.171875 1.125 -0.484375q0.71875 -0.453125 1.21875 -1.140625q0.515625 -0.703125 0.84375 -1.59375q0.234375 -0.65625 0.34375 -1.421875q0.125 -0.78125 0.125 -1.609375zm-2.15625 -0.25l0 0.25q0 0.5625 -0.078125 1.109375q-0.0625 0.53125 -0.21875 1.0q-0.1875 0.625 -0.515625 1.125q-0.3125 0.5 -0.78125 0.828125q-0.34375 0.265625 -0.796875 0.40625q-0.4375 0.125 -0.984375 0.125q-0.5625 0 -1.03125 -0.140625q-0.46875 -0.15625 -0.84375 -0.421875q-0.375 -0.265625 -0.65625 -0.625q-0.28125 -0.359375 -0.5 -0.78125l0 -5.546875q0.203125 -0.421875 0.484375 -0.765625q0.296875 -0.359375 0.671875 -0.640625q0.359375 -0.25 0.828125 -0.390625q0.46875 -0.15625 1.03125 -0.15625q0.515625 0 0.9375 0.125q0.421875 0.109375 0.765625 0.328125q0.484375 0.28125 0.828125 0.796875q0.34375 0.515625 0.546875 1.140625q0.15625 0.5 0.234375 1.078125q0.078125 0.5625 0.078125 1.15625z" fill-rule="nonzero"/><path fill="#ffffff" d="m499.4864 476.5728l0 -2.40625l2.390625 0l0 2.40625q0 1.328125 -0.46875 2.140625q-0.46875 0.8125 -1.484375 1.265625l-0.578125 -0.90625q0.65625 -0.296875 0.96875 -0.875q0.328125 -0.5625 0.359375 -1.625l-1.1875 0z" fill-rule="nonzero"/><path fill="#ffffff" d="m522.21295 469.04156l0 -1.84375l-7.09375 0l0 -5.84375l8.28125 0l0 -1.84375l-10.484375 0l0 17.0625l2.203125 0l0 -7.53125l7.09375 0zm4.3085938 1.078125l0 0.25q0 1.375 0.390625 2.546875q0.40625 1.171875 1.15625 2.03125q0.734375 0.875 1.796875 1.375q1.078125 0.484375 2.421875 0.484375q1.34375 0 2.40625 -0.484375q1.0625 -0.5 1.8125 -1.375q0.75 -0.859375 1.140625 -2.03125q0.40625 -1.171875 0.40625 -2.546875l0 -0.25q0 -1.375 -0.40625 -2.546875q-0.390625 -1.1875 -1.140625 -2.046875q-0.75 -0.875 -1.828125 -1.375q-1.0625 -0.5 -2.40625 -0.5q-1.34375 0 -2.40625 0.5q-1.0625 0.5 -1.796875 1.375q-0.75 0.859375 -1.15625 2.046875q-0.390625 1.171875 -0.390625 2.546875zm2.15625 0.25l0 -0.25q0 -0.9375 0.21875 -1.78125q0.234375 -0.84375 0.6875 -1.5q0.453125 -0.640625 1.109375 -1.015625q0.671875 -0.390625 1.578125 -0.390625q0.90625 0 1.578125 0.390625q0.671875 0.375 1.125 1.015625q0.453125 0.65625 0.671875 1.5q0.234375 0.84375 0.234375 1.78125l0 0.25q0 0.9375 -0.234375 1.796875q-0.21875 0.84375 -0.65625 1.484375q-0.453125 0.640625 -1.140625 1.015625q-0.671875 0.375 -1.5625 0.375q-0.890625 0 -1.578125 -0.375q-0.671875 -0.375 -1.125 -1.015625q-0.453125 -0.640625 -0.6875 -1.484375q-0.21875 -0.859375 -0.21875 -1.796875zm21.199219 6.203125l1.96875 0l0 -12.6875l-2.171875 0l0 9.09375q-0.171875 0.421875 -0.4375 0.765625q-0.265625 0.34375 -0.625 0.59375q-0.421875 0.296875 -1.0 0.46875q-0.5625 0.171875 -1.296875 0.171875q-0.609375 0 -1.09375 -0.15625q-0.46875 -0.171875 -0.796875 -0.578125q-0.328125 -0.40625 -0.5 -1.078125q-0.15625 -0.6875 -0.15625 -1.71875l0 -7.5625l-2.171875 0l0 7.546875q0 1.40625 0.3125 2.421875q0.3125 1.015625 0.890625 1.671875q0.5625 0.65625 1.375 0.96875q0.8125 0.3125 1.8125 0.3125q1.234375 0 2.1875 -0.515625q0.953125 -0.53125 1.578125 -1.46875l0.125 1.75zm6.0585938 0l2.15625 0l0 -9.09375q0.234375 -0.40625 0.53125 -0.75q0.296875 -0.34375 0.640625 -0.59375q0.4375 -0.296875 0.953125 -0.46875q0.515625 -0.171875 1.109375 -0.171875q0.703125 0 1.234375 0.171875q0.53125 0.15625 0.90625 0.515625q0.359375 0.375 0.546875 0.96875q0.1875 0.578125 0.1875 1.421875l0 8.0l2.171875 0l0 -8.046875q0 -1.265625 -0.3125 -2.1875q-0.3125 -0.921875 -0.890625 -1.515625q-0.5625 -0.609375 -1.390625 -0.890625q-0.8125 -0.28125 -1.796875 -0.28125q-0.75 0.015625 -1.40625 0.21875q-0.65625 0.203125 -1.21875 0.578125q-0.375 0.25 -0.71875 0.59375q-0.328125 0.328125 -0.609375 0.71875l-0.15625 -1.875l-1.9375 0l0 12.6875zm13.980469 -6.453125l0 0.25q0 1.359375 0.359375 2.546875q0.375 1.171875 1.03125 2.03125q0.65625 0.875 1.578125 1.375q0.9375 0.484375 2.09375 0.484375q1.171875 0 2.046875 -0.390625q0.875 -0.40625 1.515625 -1.1875l0.09375 1.34375l1.984375 0l0 -18.0l-2.171875 0l0 6.578125q-0.609375 -0.734375 -1.46875 -1.109375q-0.84375 -0.390625 -1.984375 -0.390625q-1.15625 0 -2.09375 0.484375q-0.9375 0.484375 -1.59375 1.34375q-0.671875 0.84375 -1.03125 2.046875q-0.359375 1.1875 -0.359375 2.59375zm2.171875 0.25l0 -0.25q0 -0.921875 0.203125 -1.75q0.203125 -0.84375 0.625 -1.484375q0.40625 -0.640625 1.046875 -1.015625q0.65625 -0.375 1.578125 -0.375q1.0625 0 1.765625 0.5q0.71875 0.5 1.140625 1.265625l0 5.890625q-0.421875 0.828125 -1.140625 1.328125q-0.703125 0.484375 -1.796875 0.484375q-0.90625 0 -1.546875 -0.359375q-0.640625 -0.375 -1.046875 -1.015625q-0.421875 -0.625 -0.625 -1.453125q-0.203125 -0.84375 -0.203125 -1.765625zm20.980469 6.203125l2.265625 0l0 -0.1875q-0.21875 -0.53125 -0.34375 -1.234375q-0.109375 -0.71875 -0.109375 -1.34375l0 -5.890625q0 -1.078125 -0.390625 -1.875q-0.375 -0.796875 -1.046875 -1.328125q-0.6875 -0.53125 -1.609375 -0.796875q-0.921875 -0.265625 -2.0 -0.265625q-1.1875 0 -2.125 0.328125q-0.921875 0.328125 -1.5625 0.859375q-0.65625 0.546875 -1.015625 1.21875q-0.34375 0.65625 -0.34375 1.34375l2.171875 0q0 -0.390625 0.1875 -0.75q0.203125 -0.375 0.546875 -0.65625q0.359375 -0.265625 0.859375 -0.421875q0.515625 -0.171875 1.15625 -0.171875q0.703125 0 1.25 0.1875q0.5625 0.171875 0.953125 0.484375q0.375 0.328125 0.578125 0.78125q0.21875 0.453125 0.21875 1.03125l0 1.0l-2.359375 0q-1.328125 0 -2.40625 0.265625q-1.0625 0.25 -1.828125 0.765625q-0.765625 0.53125 -1.1875 1.3125q-0.40625 0.78125 -0.40625 1.828125q0 0.796875 0.3125 1.484375q0.3125 0.6875 0.890625 1.171875q0.5625 0.5 1.375 0.796875q0.8125 0.296875 1.8125 0.296875q0.625 0 1.171875 -0.140625q0.5625 -0.125 1.046875 -0.34375q0.484375 -0.21875 0.890625 -0.515625q0.40625 -0.296875 0.734375 -0.625q0.03125 0.40625 0.109375 0.78125q0.078125 0.359375 0.203125 0.609375zm-3.828125 -1.65625q-0.640625 0 -1.125 -0.15625q-0.46875 -0.171875 -0.796875 -0.46875q-0.3125 -0.28125 -0.46875 -0.671875q-0.15625 -0.40625 -0.15625 -0.875q0 -0.484375 0.171875 -0.875q0.1875 -0.390625 0.546875 -0.671875q0.484375 -0.390625 1.3125 -0.578125q0.84375 -0.203125 1.96875 -0.203125l2.015625 0l0 2.5625q-0.1875 0.375 -0.515625 0.734375q-0.328125 0.34375 -0.765625 0.609375q-0.453125 0.265625 -1.015625 0.4375q-0.546875 0.15625 -1.171875 0.15625zm15.027344 -14.09375l-2.171875 0l0 3.0625l-3.328125 0l0 1.6875l3.328125 0l0 6.890625q0 1.171875 0.296875 2.0q0.3125 0.8125 0.859375 1.328125q0.53125 0.53125 1.265625 0.78125q0.734375 0.234375 1.578125 0.234375q0.5 0 1.015625 -0.046875q0.515625 -0.046875 0.96875 -0.140625q0.453125 -0.078125 0.84375 -0.203125q0.390625 -0.125 0.65625 -0.296875l-0.3125 -1.53125q-0.1875 0.046875 -0.5 0.109375q-0.3125 0.0625 -0.671875 0.125q-0.359375 0.0625 -0.734375 0.109375q-0.375 0.03125 -0.71875 0.03125q-0.484375 0 -0.921875 -0.109375q-0.421875 -0.125 -0.75 -0.421875q-0.328125 -0.28125 -0.515625 -0.75q-0.1875 -0.484375 -0.1875 -1.21875l0 -6.890625l4.828125 0l0 -1.6875l-4.828125 0l0 -3.0625zm9.605469 3.0625l0 1.890625l4.3125 0l0 8.921875l-4.3125 0l0 1.875l10.625 0l0 -1.875l-4.140625 0l0 -10.8125l-6.484375 0zm4.03125 -3.328125q0 0.53125 0.328125 0.890625q0.328125 0.34375 0.984375 0.34375q0.640625 0 0.96875 -0.34375q0.328125 -0.359375 0.328125 -0.890625q0 -0.28125 -0.09375 -0.53125q-0.09375 -0.25 -0.28125 -0.40625q-0.15625 -0.15625 -0.390625 -0.234375q-0.234375 -0.09375 -0.53125 -0.09375q-0.3125 0 -0.5625 0.09375q-0.234375 0.078125 -0.375 0.234375q-0.1875 0.171875 -0.28125 0.421875q-0.09375 0.234375 -0.09375 0.515625zm9.433594 9.5625l0 0.25q0 1.375 0.390625 2.546875q0.40625 1.171875 1.15625 2.03125q0.734375 0.875 1.796875 1.375q1.078125 0.484375 2.421875 0.484375q1.34375 0 2.40625 -0.484375q1.0625 -0.5 1.8125 -1.375q0.75 -0.859375 1.140625 -2.03125q0.40625 -1.171875 0.40625 -2.546875l0 -0.25q0 -1.375 -0.40625 -2.546875q-0.390625 -1.1875 -1.140625 -2.046875q-0.75 -0.875 -1.828125 -1.375q-1.0625 -0.5 -2.40625 -0.5q-1.34375 0 -2.40625 0.5q-1.0625 0.5 -1.796875 1.375q-0.75 0.859375 -1.15625 2.046875q-0.390625 1.171875 -0.390625 2.546875zm2.15625 0.25l0 -0.25q0 -0.9375 0.21875 -1.78125q0.234375 -0.84375 0.6875 -1.5q0.453125 -0.640625 1.109375 -1.015625q0.671875 -0.390625 1.578125 -0.390625q0.90625 0 1.578125 0.390625q0.671875 0.375 1.125 1.015625q0.453125 0.65625 0.671875 1.5q0.234375 0.84375 0.234375 1.78125l0 0.25q0 0.9375 -0.234375 1.796875q-0.21875 0.84375 -0.65625 1.484375q-0.453125 0.640625 -1.140625 1.015625q-0.671875 0.375 -1.5625 0.375q-0.890625 0 -1.578125 -0.375q-0.671875 -0.375 -1.125 -1.015625q-0.453125 -0.640625 -0.6875 -1.484375q-0.21875 -0.859375 -0.21875 -1.796875zm12.855469 6.203125l2.15625 0l0 -9.09375q0.234375 -0.40625 0.53125 -0.75q0.296875 -0.34375 0.640625 -0.59375q0.4375 -0.296875 0.953125 -0.46875q0.515625 -0.171875 1.109375 -0.171875q0.703125 0 1.234375 0.171875q0.53125 0.15625 0.90625 0.515625q0.359375 0.375 0.546875 0.96875q0.1875 0.578125 0.1875 1.421875l0 8.0l2.171875 0l0 -8.046875q0 -1.265625 -0.3125 -2.1875q-0.3125 -0.921875 -0.890625 -1.515625q-0.5625 -0.609375 -1.390625 -0.890625q-0.8125 -0.28125 -1.796875 -0.28125q-0.75 0.015625 -1.40625 0.21875q-0.65625 0.203125 -1.21875 0.578125q-0.375 0.25 -0.71875 0.59375q-0.328125 0.328125 -0.609375 0.71875l-0.15625 -1.875l-1.9375 0l0 12.6875zm18.167969 -1.40625q0 0.671875 0.421875 1.15625q0.4375 0.46875 1.28125 0.46875q0.828125 0 1.265625 -0.46875q0.453125 -0.46875 0.453125 -1.15625q0 -0.703125 -0.4375 -1.1875q-0.4375 -0.484375 -1.28125 -0.484375q-0.859375 0 -1.28125 0.5q-0.421875 0.484375 -0.421875 1.171875zm13.871094 1.40625l2.171875 0l0 -11.0l4.890625 0l0 -1.6875l-4.890625 0l0 -0.890625q0 -0.796875 0.203125 -1.390625q0.203125 -0.59375 0.609375 -0.96875q0.375 -0.359375 0.9375 -0.546875q0.578125 -0.1875 1.3125 -0.1875q0.71875 0 1.359375 0.125q0.640625 0.125 1.125 0.296875l0.25 -1.796875q-0.296875 -0.078125 -0.59375 -0.140625q-0.296875 -0.078125 -0.578125 -0.125q-0.453125 -0.09375 -0.90625 -0.140625q-0.453125 -0.046875 -0.921875 -0.046875q-1.125 0 -2.046875 0.3125q-0.90625 0.3125 -1.5625 0.9375q-0.65625 0.625 -1.015625 1.546875q-0.34375 0.90625 -0.34375 2.125l0 0.890625l-3.5 0l0 1.6875l3.5 0l0 11.0zm19.464844 -12.921875q-1.375 0 -2.46875 0.609375q-1.078125 0.609375 -1.84375 1.640625l-0.015625 -0.3125l-0.09375 -1.703125l-2.0625 0l0 12.6875l2.171875 0l0 -8.140625q0.21875 -0.578125 0.53125 -1.046875q0.328125 -0.484375 0.765625 -0.8125q0.484375 -0.375 1.125 -0.5625q0.640625 -0.203125 1.4375 -0.203125q0.625 0 1.1875 0.078125q0.578125 0.0625 1.203125 0.203125l0.296875 -2.125q-0.328125 -0.140625 -0.984375 -0.21875q-0.640625 -0.09375 -1.25 -0.09375zm14.433594 12.921875l2.265625 0l0 -0.1875q-0.21875 -0.53125 -0.34375 -1.234375q-0.109375 -0.71875 -0.109375 -1.34375l0 -5.890625q0 -1.078125 -0.390625 -1.875q-0.375 -0.796875 -1.046875 -1.328125q-0.6875 -0.53125 -1.609375 -0.796875q-0.921875 -0.265625 -2.0 -0.265625q-1.1875 0 -2.125 0.328125q-0.921875 0.328125 -1.5625 0.859375q-0.65625 0.546875 -1.015625 1.21875q-0.34375 0.65625 -0.34375 1.34375l2.171875 0q0 -0.390625 0.1875 -0.75q0.203125 -0.375 0.546875 -0.65625q0.359375 -0.265625 0.859375 -0.421875q0.515625 -0.171875 1.15625 -0.171875q0.703125 0 1.25 0.1875q0.5625 0.171875 0.953125 0.484375q0.375 0.328125 0.578125 0.78125q0.21875 0.453125 0.21875 1.03125l0 1.0l-2.359375 0q-1.328125 0 -2.40625 0.265625q-1.0625 0.25 -1.828125 0.765625q-0.765625 0.53125 -1.1875 1.3125q-0.40625 0.78125 -0.40625 1.828125q0 0.796875 0.3125 1.484375q0.3125 0.6875 0.890625 1.171875q0.5625 0.5 1.375 0.796875q0.8125 0.296875 1.8125 0.296875q0.625 0 1.171875 -0.140625q0.5625 -0.125 1.046875 -0.34375q0.484375 -0.21875 0.890625 -0.515625q0.40625 -0.296875 0.734375 -0.625q0.03125 0.40625 0.109375 0.78125q0.078125 0.359375 0.203125 0.609375zm-3.828125 -1.65625q-0.640625 0 -1.125 -0.15625q-0.46875 -0.171875 -0.796875 -0.46875q-0.3125 -0.28125 -0.46875 -0.671875q-0.15625 -0.40625 -0.15625 -0.875q0 -0.484375 0.171875 -0.875q0.1875 -0.390625 0.546875 -0.671875q0.484375 -0.390625 1.3125 -0.578125q0.84375 -0.203125 1.96875 -0.203125l2.015625 0l0 2.5625q-0.1875 0.375 -0.515625 0.734375q-0.328125 0.34375 -0.765625 0.609375q-0.453125 0.265625 -1.015625 0.4375q-0.546875 0.15625 -1.171875 0.15625zm10.886719 -11.03125l-1.9375 0l0 12.6875l2.0625 0l0 -10.09375q0.0625 -0.1875 0.171875 -0.34375q0.125 -0.171875 0.265625 -0.296875q0.203125 -0.171875 0.484375 -0.25q0.296875 -0.09375 0.6875 -0.09375q0.34375 0 0.609375 0.09375q0.265625 0.078125 0.4375 0.265625q0.1875 0.203125 0.265625 0.515625q0.09375 0.296875 0.09375 0.703125l0 9.5l2.0625 0l0 -9.5q0 -0.0625 0 -0.109375q0 -0.0625 0 -0.125q0.046875 -0.28125 0.140625 -0.515625q0.109375 -0.25 0.296875 -0.4375q0.1875 -0.171875 0.46875 -0.28125q0.28125 -0.109375 0.671875 -0.109375q0.359375 0 0.625 0.09375q0.28125 0.09375 0.46875 0.28125q0.1875 0.203125 0.28125 0.515625q0.09375 0.296875 0.09375 0.6875l0 9.5l2.0625 0l0 -9.46875q0 -0.921875 -0.21875 -1.59375q-0.203125 -0.671875 -0.609375 -1.09375q-0.359375 -0.375 -0.890625 -0.5625q-0.53125 -0.203125 -1.1875 -0.203125q-0.46875 0.015625 -0.875 0.140625q-0.40625 0.109375 -0.734375 0.3125q-0.265625 0.171875 -0.484375 0.40625q-0.21875 0.234375 -0.390625 0.5q-0.125 -0.28125 -0.3125 -0.515625q-0.171875 -0.234375 -0.390625 -0.40625q-0.3125 -0.203125 -0.71875 -0.3125q-0.40625 -0.125 -0.90625 -0.125q-0.890625 0.015625 -1.515625 0.390625q-0.625 0.375 -1.015625 1.046875l-0.0625 -1.203125zm19.011719 12.921875q1.859375 0 3.109375 -0.734375q1.265625 -0.75 1.890625 -1.71875l-1.3125 -1.03125q-0.609375 0.78125 -1.515625 1.25q-0.890625 0.46875 -2.046875 0.46875q-0.890625 0 -1.625 -0.328125q-0.71875 -0.328125 -1.234375 -0.90625q-0.5 -0.546875 -0.796875 -1.25q-0.28125 -0.703125 -0.359375 -1.625l0 -0.078125l9.0625 0l0 -0.96875q0 -1.328125 -0.34375 -2.46875q-0.328125 -1.140625 -1.0 -1.984375q-0.6875 -0.828125 -1.71875 -1.296875q-1.015625 -0.484375 -2.390625 -0.484375q-1.09375 0 -2.125 0.453125q-1.03125 0.4375 -1.84375 1.28125q-0.828125 0.84375 -1.328125 2.0625q-0.484375 1.203125 -0.484375 2.734375l0 0.5q0 1.3125 0.4375 2.4375q0.453125 1.125 1.25 1.953125q0.796875 0.8125 1.921875 1.28125q1.125 0.453125 2.453125 0.453125zm-0.28125 -11.375q0.828125 0 1.4375 0.3125q0.609375 0.296875 1.0 0.796875q0.40625 0.484375 0.625 1.171875q0.21875 0.671875 0.21875 1.25l0 0.109375l-6.8125 0q0.125 -0.875 0.4375 -1.546875q0.328125 -0.6875 0.796875 -1.15625q0.46875 -0.453125 1.046875 -0.6875q0.59375 -0.25 1.25 -0.25zm10.308594 11.140625l1.703125 0l1.953125 -7.765625l0.328125 -1.96875l0.328125 1.96875l1.96875 7.765625l1.71875 0l2.6875 -12.6875l-1.921875 0l-1.40625 8.09375l-0.3125 1.984375l-0.34375 -1.984375l-2.015625 -8.09375l-1.390625 0l-2.03125 8.09375l-0.3125 1.8125l-0.25 -1.8125l-1.484375 -8.09375l-1.921875 0l2.703125 12.6875zm12.574219 -6.453125l0 0.25q0 1.375 0.390625 2.546875q0.40625 1.171875 1.15625 2.03125q0.734375 0.875 1.796875 1.375q1.078125 0.484375 2.421875 0.484375q1.34375 0 2.40625 -0.484375q1.0625 -0.5 1.8125 -1.375q0.75 -0.859375 1.140625 -2.03125q0.40625 -1.171875 0.40625 -2.546875l0 -0.25q0 -1.375 -0.40625 -2.546875q-0.390625 -1.1875 -1.140625 -2.046875q-0.75 -0.875 -1.828125 -1.375q-1.0625 -0.5 -2.40625 -0.5q-1.34375 0 -2.40625 0.5q-1.0625 0.5 -1.796875 1.375q-0.75 0.859375 -1.15625 2.046875q-0.390625 1.171875 -0.390625 2.546875zm2.15625 0.25l0 -0.25q0 -0.9375 0.21875 -1.78125q0.234375 -0.84375 0.6875 -1.5q0.453125 -0.640625 1.109375 -1.015625q0.671875 -0.390625 1.578125 -0.390625q0.90625 0 1.578125 0.390625q0.671875 0.375 1.125 1.015625q0.453125 0.65625 0.671875 1.5q0.234375 0.84375 0.234375 1.78125l0 0.25q0 0.9375 -0.234375 1.796875q-0.21875 0.84375 -0.65625 1.484375q-0.453125 0.640625 -1.140625 1.015625q-0.671875 0.375 -1.5625 0.375q-0.890625 0 -1.578125 -0.375q-0.671875 -0.375 -1.125 -1.015625q-0.453125 -0.640625 -0.6875 -1.484375q-0.21875 -0.859375 -0.21875 -1.796875zm21.152344 -6.71875q-1.375 0 -2.46875 0.609375q-1.078125 0.609375 -1.84375 1.640625l-0.015625 -0.3125l-0.09375 -1.703125l-2.0625 0l0 12.6875l2.171875 0l0 -8.140625q0.21875 -0.578125 0.53125 -1.046875q0.328125 -0.484375 0.765625 -0.8125q0.484375 -0.375 1.125 -0.5625q0.640625 -0.203125 1.4375 -0.203125q0.625 0 1.1875 0.078125q0.578125 0.0625 1.203125 0.203125l0.296875 -2.125q-0.328125 -0.140625 -0.984375 -0.21875q-0.640625 -0.09375 -1.25 -0.09375zm9.902344 7.0l4.640625 5.921875l2.765625 0l-5.921875 -7.390625l5.125 -5.296875l-2.625 0l-4.171875 4.171875l-1.40625 1.53125l0 -11.015625l-2.1875 0l0 18.0l2.1875 0l0 -4.390625l1.59375 -1.53125z" fill-rule="nonzero"/><path fill="#ffffff" d="m800.8692 476.5728l0 -2.40625l2.390625 0l0 2.40625q0 1.328125 -0.46875 2.140625q-0.46875 0.8125 -1.484375 1.265625l-0.578125 -0.90625q0.65625 -0.296875 0.96875 -0.875q0.328125 -0.5625 0.359375 -1.625l-1.1875 0zm13.9921875 0l0 -2.40625l2.40625 0l0 2.40625l-2.40625 0zm8.015625 0l0 -2.40625l2.390625 0l0 2.40625l-2.390625 0zm7.984375 0l0 -2.40625l2.421875 0l0 2.40625l-2.421875 0zm8.171875 5.046875l-1.515625 0q3.5 -5.625 3.5 -11.265625q0 -2.203125 -0.5 -4.359375q-0.390625 -1.765625 -1.109375 -3.375q-0.453125 -1.0625 -1.890625 -3.515625l1.515625 0q2.203125 2.9375 3.25 5.90625q0.90625 2.546875 0.90625 5.34375q0 3.15625 -1.21875 6.109375q-1.203125 2.953125 -2.9375 5.15625z" fill-rule="nonzero"/><path fill="#000000" fill-opacity="0.0" d="m24.929134 95.76378l158.51968 0l0 38.48819l-158.51968 0z" fill-rule="evenodd"/><path fill="#999999" d="m34.397884 117.617874l1.359375 -0.1875q0.0625 1.3125 0.5 1.796875q0.4375 0.484375 1.203125 0.484375q0.578125 0 0.984375 -0.265625q0.421875 -0.265625 0.578125 -0.703125q0.15625 -0.453125 0.15625 -1.4375l0 -7.890625l1.515625 0l0 7.796875q0 1.4375 -0.359375 2.234375q-0.34375 0.78125 -1.09375 1.203125q-0.75 0.421875 -1.765625 0.421875q-1.515625 0 -2.3125 -0.875q-0.796875 -0.875 -0.765625 -2.578125zm14.0 2.21875q-0.78125 0.671875 -1.5 0.953125q-0.71875 0.265625 -1.546875 0.265625q-1.375 0 -2.109375 -0.671875q-0.734375 -0.671875 -0.734375 -1.703125q0 -0.609375 0.28125 -1.109375q0.28125 -0.515625 0.71875 -0.8125q0.453125 -0.3125 1.015625 -0.46875q0.421875 -0.109375 1.25 -0.203125q1.703125 -0.203125 2.515625 -0.484375q0 -0.296875 0 -0.375q0 -0.859375 -0.390625 -1.203125q-0.546875 -0.484375 -1.609375 -0.484375q-0.984375 0 -1.46875 0.359375q-0.46875 0.34375 -0.6875 1.21875l-1.375 -0.1875q0.1875 -0.875 0.609375 -1.421875q0.4375 -0.546875 1.25 -0.828125q0.8125 -0.296875 1.875 -0.296875q1.0625 0 1.71875 0.25q0.671875 0.25 0.984375 0.625q0.3125 0.375 0.4375 0.953125q0.078125 0.359375 0.078125 1.296875l0 1.875q0 1.96875 0.078125 2.484375q0.09375 0.515625 0.359375 1.0l-1.46875 0q-0.21875 -0.4375 -0.28125 -1.03125zm-0.109375 -3.140625q-0.765625 0.3125 -2.296875 0.53125q-0.875 0.125 -1.234375 0.28125q-0.359375 0.15625 -0.5625 0.46875q-0.1875 0.296875 -0.1875 0.65625q0 0.5625 0.421875 0.9375q0.4375 0.375 1.25 0.375q0.8125 0 1.4375 -0.34375q0.640625 -0.359375 0.9375 -0.984375q0.234375 -0.46875 0.234375 -1.40625l0 -0.515625zm5.8984375 4.171875l-3.15625 -8.296875l1.484375 0l1.78125 4.96875q0.296875 0.796875 0.53125 1.671875q0.1875 -0.65625 0.53125 -1.578125l1.84375 -5.0625l1.4375 0l-3.140625 8.296875l-1.3125 0zm11.109371 -1.03125q-0.78125 0.671875 -1.4999962 0.953125q-0.71875 0.265625 -1.546875 0.265625q-1.375 0 -2.109375 -0.671875q-0.734375 -0.671875 -0.734375 -1.703125q0 -0.609375 0.28125 -1.109375q0.28125 -0.515625 0.71875 -0.8125q0.453125 -0.3125 1.015625 -0.46875q0.421875 -0.109375 1.25 -0.203125q1.7031212 -0.203125 2.5156212 -0.484375q0 -0.296875 0 -0.375q0 -0.859375 -0.390625 -1.203125q-0.546875 -0.484375 -1.6093712 -0.484375q-0.984375 0 -1.46875 0.359375q-0.46875 0.34375 -0.6875 1.21875l-1.375 -0.1875q0.1875 -0.875 0.609375 -1.421875q0.4375 -0.546875 1.25 -0.828125q0.8125 -0.296875 1.875 -0.296875q1.0624962 0 1.7187462 0.25q0.671875 0.25 0.984375 0.625q0.3125 0.375 0.4375 0.953125q0.078125 0.359375 0.078125 1.296875l0 1.875q0 1.96875 0.078125 2.484375q0.09375 0.515625 0.359375 1.0l-1.46875 0q-0.21875 -0.4375 -0.28125 -1.03125zm-0.109375 -3.140625q-0.765625 0.3125 -2.2968712 0.53125q-0.875 0.125 -1.234375 0.28125q-0.359375 0.15625 -0.5625 0.46875q-0.1875 0.296875 -0.1875 0.65625q0 0.5625 0.421875 0.9375q0.4375 0.375 1.25 0.375q0.8125 0 1.4374962 -0.34375q0.640625 -0.359375 0.9375 -0.984375q0.234375 -0.46875 0.234375 -1.40625l0 -0.515625z" fill-rule="nonzero"/><path fill="#000000" fill-opacity="0.0" d="m24.929134 135.58267l158.51968 0l0 38.48819l-158.51968 0z" fill-rule="evenodd"/><path fill="#999999" d="m43.335384 156.67114l1.515625 0.375q-0.46875 1.875 -1.71875 2.859375q-1.234375 0.984375 -3.015625 0.984375q-1.859375 0 -3.015625 -0.75q-1.15625 -0.765625 -1.765625 -2.1875q-0.609375 -1.4375 -0.609375 -3.078125q0 -1.796875 0.6875 -3.125q0.6875 -1.328125 1.9375 -2.015625q1.265625 -0.703125 2.78125 -0.703125q1.71875 0 2.890625 0.875q1.171875 0.875 1.640625 2.46875l-1.5 0.34375q-0.390625 -1.25 -1.15625 -1.8125q-0.75 -0.578125 -1.90625 -0.578125q-1.3125 0 -2.203125 0.640625q-0.890625 0.625 -1.25 1.703125q-0.359375 1.0625 -0.359375 2.1875q0 1.46875 0.421875 2.5625q0.4375 1.078125 1.328125 1.625q0.90625 0.53125 1.953125 0.53125q1.265625 0 2.140625 -0.734375q0.890625 -0.734375 1.203125 -2.171875zm6.1640625 2.15625l0 -3.140625l-3.125 0l0 -1.3125l3.125 0l0 -3.109375l1.328125 0l0 3.109375l3.109375 0l0 1.3125l-3.109375 0l0 3.140625l-1.328125 0zm9.34375 0l0 -3.140625l-3.125 0l0 -1.3125l3.125 0l0 -3.109375l1.328125 0l0 3.109375l3.109375 0l0 1.3125l-3.109375 0l0 3.140625l-1.328125 0zm13.523434 5.234375q-1.171875 -1.46875 -1.984375 -3.4375q-0.796875 -1.984375 -0.796875 -4.09375q0 -1.859375 0.609375 -3.5625q0.703125 -1.96875 2.171875 -3.9375l1.0 0q-0.9375 1.625 -1.25 2.328125q-0.46875 1.078125 -0.75 2.25q-0.328125 1.453125 -0.328125 2.9375q0 3.75 2.328125 7.515625l-1.0 0zm2.046875 -6.625l1.359375 -0.1875q0.0625 1.3125 0.5 1.796875q0.4375 0.484375 1.203125 0.484375q0.578125 0 0.984375 -0.265625q0.421875 -0.265625 0.578125 -0.703125q0.15625 -0.453125 0.15625 -1.4375l0 -7.890625l1.515625 0l0 7.796875q0 1.4375 -0.359375 2.234375q-0.34375 0.78125 -1.09375 1.203125q-0.75 0.421875 -1.765625 0.421875q-1.515625 0 -2.3125 -0.875q-0.796875 -0.875 -0.765625 -2.578125zm8.75 3.25l0 -11.453125l1.5625 0l6.015625 8.984375l0 -8.984375l1.453125 0l0 11.453125l-1.5625 0l-6.015625 -9.0l0 9.0l-1.453125 0zm11.8359375 0l0 -11.453125l1.515625 0l0 11.453125l-1.515625 0zm4.9296875 3.375l-1.015625 0q2.34375 -3.765625 2.34375 -7.515625q0 -1.46875 -0.34375 -2.921875q-0.265625 -1.171875 -0.734375 -2.25q-0.3125 -0.703125 -1.265625 -2.34375l1.015625 0q1.46875 1.96875 2.171875 3.9375q0.59375 1.703125 0.59375 3.5625q0 2.109375 -0.8125 4.09375q-0.796875 1.96875 -1.953125 3.4375z" fill-rule="nonzero"/><path fill="#38761d" d="m41.204723 207.29726l0 0c0 -18.357681 14.881836 -33.239517 33.239513 -33.239517l811.1273 0c8.815674 0 17.270264 3.5020142 23.503845 9.735626c6.2336426 6.2336273 9.735657 14.688217 9.735657 23.503891l0 132.95406c0 18.357666 -14.881836 33.239502 -33.239502 33.239502l-811.1273 0c-18.357677 0 -33.239513 -14.881836 -33.239513 -33.239502z" fill-rule="evenodd"/><path stroke="#000000" stroke-width="2.0" stroke-linejoin="round" stroke-linecap="butt" d="m41.204723 207.29726l0 0c0 -18.357681 14.881836 -33.239517 33.239513 -33.239517l811.1273 0c8.815674 0 17.270264 3.5020142 23.503845 9.735626c6.2336426 6.2336273 9.735657 14.688217 9.735657 23.503891l0 132.95406c0 18.357666 -14.881836 33.239502 -33.239502 33.239502l-811.1273 0c-18.357677 0 -33.239513 -14.881836 -33.239513 -33.239502z" fill-rule="evenodd"/><path fill="#ffffff" d="m418.04303 198.77077l0 11.875q-0.03125 0.71875 -0.265625 1.375q-0.21875 0.640625 -0.640625 1.140625q-0.4375 0.484375 -1.046875 0.78125q-0.609375 0.28125 -1.375 0.28125q-0.75 0 -1.359375 -0.234375q-0.59375 -0.25 -1.03125 -0.71875q-0.4375 -0.4375 -0.6875 -1.046875q-0.25 -0.609375 -0.28125 -1.328125l-2.203125 0q0.09375 1.1875 0.53125 2.140625q0.4375 0.953125 1.15625 1.625q0.71875 0.671875 1.6875 1.046875q0.984375 0.359375 2.1875 0.359375q1.1875 0 2.1875 -0.40625q1.0 -0.40625 1.734375 -1.125q0.734375 -0.71875 1.15625 -1.71875q0.4375 -1.0 0.46875 -2.171875l0 -11.875l-2.21875 0zm17.089844 17.0625l0 -17.0625l-2.203125 0l-0.03125 12.71875l-6.625 -12.71875l-2.203125 0l0 17.0625l2.203125 0l0.03125 -12.75l6.625 12.75l2.203125 0zm3.7148438 -17.0625l0 1.890625l3.984375 0l0 13.296875l-3.984375 0l0 1.875l10.3125 0l0 -1.875l-4.09375 0l0 -13.296875l4.09375 0l0 -1.890625l-10.3125 0zm39.539062 10.859375l0 -0.25q0 -0.984375 -0.171875 -1.875q-0.15625 -0.90625 -0.46875 -1.640625q-0.296875 -0.65625 -0.703125 -1.1875q-0.390625 -0.546875 -0.90625 -0.921875q-0.5625 -0.390625 -1.25 -0.609375q-0.6875 -0.234375 -1.515625 -0.234375q-0.65625 0 -1.21875 0.140625q-0.5625 0.125 -1.03125 0.375q-0.375 0.1875 -0.703125 0.46875q-0.328125 0.28125 -0.59375 0.609375l0 -6.671875l-2.171875 0l0 18.0l2.0 0l0.109375 -1.4375q0.203125 0.265625 0.4375 0.484375q0.234375 0.21875 0.5 0.40625q0.53125 0.375 1.203125 0.578125q0.671875 0.203125 1.5 0.203125q0.71875 0 1.328125 -0.1875q0.609375 -0.171875 1.125 -0.484375q0.71875 -0.453125 1.21875 -1.140625q0.515625 -0.703125 0.84375 -1.59375q0.234375 -0.65625 0.34375 -1.421875q0.125 -0.78125 0.125 -1.609375zm-2.15625 -0.25l0 0.25q0 0.5625 -0.078125 1.109375q-0.0625 0.53125 -0.21875 1.0q-0.1875 0.625 -0.515625 1.125q-0.3125 0.5 -0.78125 0.828125q-0.34375 0.265625 -0.796875 0.40625q-0.4375 0.125 -0.984375 0.125q-0.5625 0 -1.03125 -0.140625q-0.46875 -0.15625 -0.84375 -0.421875q-0.375 -0.265625 -0.65625 -0.625q-0.28125 -0.359375 -0.5 -0.78125l0 -5.546875q0.203125 -0.421875 0.484375 -0.765625q0.296875 -0.359375 0.671875 -0.640625q0.359375 -0.25 0.828125 -0.390625q0.46875 -0.15625 1.03125 -0.15625q0.515625 0 0.9375 0.125q0.421875 0.109375 0.765625 0.328125q0.484375 0.28125 0.828125 0.796875q0.34375 0.515625 0.546875 1.140625q0.15625 0.5 0.234375 1.078125q0.078125 0.5625 0.078125 1.15625zm14.167969 6.453125l1.96875 0l0 -12.6875l-2.171875 0l0 9.09375q-0.171875 0.421875 -0.4375 0.765625q-0.265625 0.34375 -0.625 0.59375q-0.421875 0.296875 -1.0 0.46875q-0.5625 0.171875 -1.296875 0.171875q-0.609375 0 -1.09375 -0.15625q-0.46875 -0.171875 -0.796875 -0.578125q-0.328125 -0.40625 -0.5 -1.078125q-0.15625 -0.6875 -0.15625 -1.71875l0 -7.5625l-2.171875 0l0 7.546875q0 1.40625 0.3125 2.421875q0.3125 1.015625 0.890625 1.671875q0.5625 0.65625 1.375 0.96875q0.8125 0.3125 1.8125 0.3125q1.234375 0 2.1875 -0.515625q0.953125 -0.53125 1.578125 -1.46875l0.125 1.75zm6.0585938 0l2.15625 0l0 -9.09375q0.234375 -0.40625 0.53125 -0.75q0.296875 -0.34375 0.640625 -0.59375q0.4375 -0.296875 0.953125 -0.46875q0.515625 -0.171875 1.109375 -0.171875q0.703125 0 1.234375 0.171875q0.53125 0.15625 0.90625 0.515625q0.359375 0.375 0.546875 0.96875q0.1875 0.578125 0.1875 1.421875l0 8.0l2.171875 0l0 -8.046875q0 -1.265625 -0.3125 -2.1875q-0.3125 -0.921875 -0.890625 -1.515625q-0.5625 -0.609375 -1.390625 -0.890625q-0.8125 -0.28125 -1.796875 -0.28125q-0.75 0.015625 -1.40625 0.21875q-0.65625 0.203125 -1.21875 0.578125q-0.375 0.25 -0.71875 0.59375q-0.328125 0.328125 -0.609375 0.71875l-0.15625 -1.875l-1.9375 0l0 12.6875zm13.980469 -6.453125l0 0.25q0 1.359375 0.359375 2.546875q0.375 1.171875 1.03125 2.03125q0.65625 0.875 1.578125 1.375q0.9375 0.484375 2.09375 0.484375q1.171875 0 2.046875 -0.390625q0.875 -0.40625 1.515625 -1.1875l0.09375 1.34375l1.984375 0l0 -18.0l-2.171875 0l0 6.578125q-0.609375 -0.734375 -1.46875 -1.109375q-0.84375 -0.390625 -1.984375 -0.390625q-1.15625 0 -2.09375 0.484375q-0.9375 0.484375 -1.59375 1.34375q-0.671875 0.84375 -1.03125 2.046875q-0.359375 1.1875 -0.359375 2.59375zm2.171875 0.25l0 -0.25q0 -0.921875 0.203125 -1.75q0.203125 -0.84375 0.625 -1.484375q0.40625 -0.640625 1.046875 -1.015625q0.65625 -0.375 1.578125 -0.375q1.0625 0 1.765625 0.5q0.71875 0.5 1.140625 1.265625l0 5.890625q-0.421875 0.828125 -1.140625 1.328125q-0.703125 0.484375 -1.796875 0.484375q-0.90625 0 -1.546875 -0.359375q-0.640625 -0.375 -1.046875 -1.015625q-0.421875 -0.625 -0.625 -1.453125q-0.203125 -0.84375 -0.203125 -1.765625zm12.980469 -11.796875l0 1.890625l4.3125 0l0 14.234375l-4.3125 0l0 1.875l10.625 0l0 -1.875l-4.140625 0l0 -16.125l-6.484375 0zm19.667969 18.234375q1.859375 0 3.109375 -0.734375q1.265625 -0.75 1.890625 -1.71875l-1.3125 -1.03125q-0.609375 0.78125 -1.515625 1.25q-0.890625 0.46875 -2.046875 0.46875q-0.890625 0 -1.625 -0.328125q-0.71875 -0.328125 -1.234375 -0.90625q-0.5 -0.546875 -0.796875 -1.25q-0.28125 -0.703125 -0.359375 -1.625l0 -0.078125l9.0625 0l0 -0.96875q0 -1.328125 -0.34375 -2.46875q-0.328125 -1.140625 -1.0 -1.984375q-0.6875 -0.828125 -1.71875 -1.296875q-1.015625 -0.484375 -2.390625 -0.484375q-1.09375 0 -2.125 0.453125q-1.03125 0.4375 -1.84375 1.28125q-0.828125 0.84375 -1.328125 2.0625q-0.484375 1.203125 -0.484375 2.734375l0 0.5q0 1.3125 0.4375 2.4375q0.453125 1.125 1.25 1.953125q0.796875 0.8125 1.921875 1.28125q1.125 0.453125 2.453125 0.453125zm-0.28125 -11.375q0.828125 0 1.4375 0.3125q0.609375 0.296875 1.0 0.796875q0.40625 0.484375 0.625 1.171875q0.21875 0.671875 0.21875 1.25l0 0.109375l-6.8125 0q0.125 -0.875 0.4375 -1.546875q0.328125 -0.6875 0.796875 -1.15625q0.46875 -0.453125 1.046875 -0.6875q0.59375 -0.25 1.25 -0.25z" fill-rule="nonzero"/><path fill="#ffffff" d="m353.55865 249.88014q-1.734375 -2.203125 -2.953125 -5.15625q-1.203125 -2.953125 -1.203125 -6.109375q0 -2.796875 0.90625 -5.34375q1.046875 -2.96875 3.25 -5.90625l1.515625 0q-1.421875 2.4375 -1.875 3.46875q-0.71875 1.625 -1.125 3.375q-0.5 2.203125 -0.5 4.40625q0 5.640625 3.5 11.265625l-1.515625 0zm12.2734375 -11.78125l0 -2.015625l7.28125 -0.015625l0 6.375q-1.671875 1.328125 -3.453125 2.015625q-1.78125 0.671875 -3.65625 0.671875q-2.53125 0 -4.609375 -1.078125q-2.0625 -1.09375 -3.125 -3.140625q-1.046875 -2.0625 -1.046875 -4.59375q0 -2.5 1.046875 -4.671875q1.046875 -2.171875 3.015625 -3.21875q1.96875 -1.0625 4.53125 -1.0625q1.875 0 3.375 0.609375q1.5 0.59375 2.359375 1.671875q0.859375 1.078125 1.296875 2.8125l-2.046875 0.5625q-0.390625 -1.3125 -0.96875 -2.0625q-0.5625 -0.75 -1.640625 -1.203125q-1.0625 -0.453125 -2.359375 -0.453125q-1.5625 0 -2.703125 0.484375q-1.125 0.46875 -1.828125 1.25q-0.6875 0.765625 -1.078125 1.6875q-0.65625 1.59375 -0.65625 3.453125q0 2.296875 0.78125 3.84375q0.796875 1.546875 2.3125 2.296875q1.515625 0.75 3.203125 0.75q1.484375 0 2.890625 -0.5625q1.40625 -0.5625 2.125 -1.21875l0 -3.1875l-5.046875 0zm9.574219 0.515625q0 -3.46875 1.921875 -5.125q1.609375 -1.390625 3.921875 -1.390625q2.5625 0 4.1875 1.6875q1.625 1.6875 1.625 4.640625q0 2.40625 -0.71875 3.78125q-0.71875 1.375 -2.09375 2.140625q-1.375 0.765625 -3.0 0.765625q-2.625 0 -4.234375 -1.671875q-1.609375 -1.6875 -1.609375 -4.828125zm2.171875 0q0 2.390625 1.03125 3.578125q1.046875 1.1875 2.640625 1.1875q1.5625 0 2.609375 -1.1875q1.046875 -1.203125 1.046875 -3.65625q0 -2.3125 -1.0625 -3.5q-1.046875 -1.1875 -2.59375 -1.1875q-1.59375 0 -2.640625 1.1875q-1.03125 1.1875 -1.03125 3.578125zm11.175781 0q0 -3.46875 1.921875 -5.125q1.609375 -1.390625 3.921875 -1.390625q2.5625 0 4.1875 1.6875q1.625 1.6875 1.625 4.640625q0 2.40625 -0.71875 3.78125q-0.71875 1.375 -2.09375 2.140625q-1.375 0.765625 -3.0 0.765625q-2.625 0 -4.234375 -1.671875q-1.609375 -1.6875 -1.609375 -4.828125zm2.171875 0q0 2.390625 1.03125 3.578125q1.046875 1.1875 2.640625 1.1875q1.5625 0 2.609375 -1.1875q1.046875 -1.203125 1.046875 -3.65625q0 -2.3125 -1.0625 -3.5q-1.046875 -1.1875 -2.59375 -1.1875q-1.59375 0 -2.640625 1.1875q-1.03125 1.1875 -1.03125 3.578125zm11.582031 7.25l2.046875 0.3125q0.125 0.9375 0.71875 1.375q0.78125 0.59375 2.140625 0.59375q1.46875 0 2.265625 -0.59375q0.796875 -0.578125 1.078125 -1.640625q0.15625 -0.640625 0.140625 -2.703125q-1.375 1.625 -3.4375 1.625q-2.5625 0 -3.96875 -1.84375q-1.40625 -1.859375 -1.40625 -4.453125q0 -1.78125 0.640625 -3.28125q0.640625 -1.515625 1.859375 -2.328125q1.234375 -0.828125 2.890625 -0.828125q2.203125 0 3.625 1.78125l0 -1.5l1.953125 0l0 10.765625q0 2.90625 -0.59375 4.109375q-0.59375 1.21875 -1.875 1.921875q-1.28125 0.703125 -3.15625 0.703125q-2.234375 0 -3.609375 -1.0q-1.359375 -1.0 -1.3125 -3.015625zm1.734375 -7.484375q0 2.453125 0.96875 3.578125q0.984375 1.125 2.453125 1.125q1.453125 0 2.4375 -1.109375q0.984375 -1.125 0.984375 -3.515625q0 -2.28125 -1.015625 -3.4375q-1.015625 -1.171875 -2.453125 -1.171875q-1.40625 0 -2.390625 1.140625q-0.984375 1.140625 -0.984375 3.390625zm11.941406 6.453125l0 -17.1875l2.109375 0l0 17.1875l-2.109375 0zm13.910156 -4.015625l2.171875 0.28125q-0.515625 1.90625 -1.90625 2.96875q-1.390625 1.046875 -3.5625 1.046875q-2.734375 0 -4.34375 -1.671875q-1.59375 -1.6875 -1.59375 -4.734375q0 -3.140625 1.609375 -4.875q1.625 -1.734375 4.203125 -1.734375q2.5 0 4.078125 1.703125q1.59375 1.703125 1.59375 4.78125q0 0.1875 -0.015625 0.5625l-9.28125 0q0.109375 2.046875 1.15625 3.140625q1.046875 1.09375 2.609375 1.09375q1.15625 0 1.96875 -0.609375q0.828125 -0.609375 1.3125 -1.953125zm-6.9375 -3.40625l6.953125 0q-0.140625 -1.5625 -0.796875 -2.359375q-1.0 -1.21875 -2.609375 -1.21875q-1.453125 0 -2.453125 0.984375q-0.984375 0.96875 -1.09375 2.59375zm10.941406 2.265625l0 -2.125l6.484375 0l0 2.125l-6.484375 0zm8.8203125 -9.59375l0 -2.4375l2.109375 0l0 2.4375l-2.109375 0zm0 14.75l0 -12.453125l2.109375 0l0 12.453125l-2.109375 0zm5.3164062 0l0 -12.453125l1.90625 0l0 1.78125q1.375 -2.0625 3.953125 -2.0625q1.125 0 2.0625 0.40625q0.953125 0.40625 1.421875 1.0625q0.46875 0.65625 0.65625 1.5625q0.125 0.578125 0.125 2.046875l0 7.65625l-2.109375 0l0 -7.578125q0 -1.28125 -0.25 -1.921875q-0.25 -0.640625 -0.875 -1.015625q-0.625 -0.390625 -1.46875 -0.390625q-1.34375 0 -2.328125 0.859375q-0.984375 0.859375 -0.984375 3.25l0 6.796875l-2.109375 0zm17.957031 -1.890625l0.3125 1.859375q-0.890625 0.203125 -1.59375 0.203125q-1.15625 0 -1.796875 -0.359375q-0.625 -0.375 -0.890625 -0.96875q-0.25 -0.59375 -0.25 -2.484375l0 -7.171875l-1.546875 0l0 -1.640625l1.546875 0l0 -3.078125l2.09375 -1.265625l0 4.34375l2.125 0l0 1.640625l-2.125 0l0 7.28125q0 0.90625 0.109375 1.171875q0.125 0.25 0.375 0.40625q0.25 0.140625 0.71875 0.140625q0.34375 0 0.921875 -0.078125zm10.589844 -2.125l2.171875 0.28125q-0.515625 1.90625 -1.90625 2.96875q-1.390625 1.046875 -3.5625 1.046875q-2.734375 0 -4.34375 -1.671875q-1.59375 -1.6875 -1.59375 -4.734375q0 -3.140625 1.609375 -4.875q1.625 -1.734375 4.203125 -1.734375q2.5 0 4.078125 1.703125q1.59375 1.703125 1.59375 4.78125q0 0.1875 -0.015625 0.5625l-9.28125 0q0.109375 2.046875 1.15625 3.140625q1.046875 1.09375 2.609375 1.09375q1.15625 0 1.96875 -0.609375q0.828125 -0.609375 1.3125 -1.953125zm-6.9375 -3.40625l6.953125 0q-0.140625 -1.5625 -0.796875 -2.359375q-1.0 -1.21875 -2.609375 -1.21875q-1.453125 0 -2.453125 0.984375q-0.984375 0.96875 -1.09375 2.59375zm11.738281 7.421875l0 -12.453125l1.890625 0l0 1.890625q0.734375 -1.328125 1.34375 -1.75q0.625 -0.421875 1.359375 -0.421875q1.0625 0 2.171875 0.6875l-0.734375 1.953125q-0.765625 -0.453125 -1.546875 -0.453125q-0.6875 0 -1.25 0.421875q-0.546875 0.40625 -0.78125 1.140625q-0.34375 1.125 -0.34375 2.46875l0 6.515625l-2.109375 0zm8.0078125 0l0 -12.453125l1.90625 0l0 1.78125q1.375 -2.0625 3.953125 -2.0625q1.125 0 2.0625 0.40625q0.953125 0.40625 1.421875 1.0625q0.46875 0.65625 0.65625 1.5625q0.125 0.578125 0.125 2.046875l0 7.65625l-2.109375 0l0 -7.578125q0 -1.28125 -0.25 -1.921875q-0.25 -0.640625 -0.875 -1.015625q-0.625 -0.390625 -1.46875 -0.390625q-1.34375 0 -2.328125 0.859375q-0.984375 0.859375 -0.984375 3.25l0 6.796875l-2.109375 0zm21.472656 -1.53125q-1.171875 0.984375 -2.265625 1.40625q-1.078125 0.40625 -2.3125 0.40625q-2.046875 0 -3.15625 -1.0q-1.09375 -1.0 -1.09375 -2.5625q0 -0.921875 0.40625 -1.671875q0.421875 -0.75 1.09375 -1.203125q0.671875 -0.46875 1.515625 -0.703125q0.625 -0.15625 1.875 -0.3125q2.5625 -0.3125 3.765625 -0.734375q0.015625 -0.421875 0.015625 -0.546875q0 -1.28125 -0.609375 -1.8125q-0.796875 -0.71875 -2.390625 -0.71875q-1.5 0 -2.203125 0.53125q-0.703125 0.515625 -1.046875 1.84375l-2.0625 -0.28125q0.28125 -1.328125 0.921875 -2.140625q0.640625 -0.8125 1.859375 -1.25q1.21875 -0.453125 2.828125 -0.453125q1.59375 0 2.59375 0.375q1.0 0.375 1.46875 0.953125q0.46875 0.5625 0.65625 1.4375q0.09375 0.53125 0.09375 1.9375l0 2.8125q0 2.9375 0.140625 3.71875q0.140625 0.78125 0.53125 1.5l-2.203125 0q-0.328125 -0.65625 -0.421875 -1.53125zm-0.171875 -4.71875q-1.15625 0.46875 -3.453125 0.796875q-1.296875 0.1875 -1.84375 0.421875q-0.53125 0.234375 -0.828125 0.6875q-0.28125 0.453125 -0.28125 1.0q0 0.84375 0.625 1.40625q0.640625 0.5625 1.875 0.5625q1.21875 0 2.171875 -0.53125q0.953125 -0.53125 1.390625 -1.453125q0.34375 -0.71875 0.34375 -2.109375l0 -0.78125zm5.3476562 6.25l0 -17.1875l2.109375 0l0 17.1875l-2.109375 0zm15.515625 0l-4.734375 -12.453125l2.21875 0l2.671875 7.453125q0.4375 1.21875 0.796875 2.515625q0.28125 -0.984375 0.78125 -2.375l2.765625 -7.59375l2.171875 0l-4.703125 12.453125l-1.96875 0zm17.0625 -4.015625l2.171875 0.28125q-0.515625 1.90625 -1.90625 2.96875q-1.390625 1.046875 -3.5625 1.046875q-2.734375 0 -4.34375 -1.671875q-1.59375 -1.6875 -1.59375 -4.734375q0 -3.140625 1.609375 -4.875q1.625 -1.734375 4.203125 -1.734375q2.5 0 4.078125 1.703125q1.59375 1.703125 1.59375 4.78125q0 0.1875 -0.015625 0.5625l-9.28125 0q0.109375 2.046875 1.15625 3.140625q1.046875 1.09375 2.609375 1.09375q1.15625 0 1.96875 -0.609375q0.828125 -0.609375 1.3125 -1.953125zm-6.9375 -3.40625l6.953125 0q-0.140625 -1.5625 -0.796875 -2.359375q-1.0 -1.21875 -2.609375 -1.21875q-1.453125 0 -2.453125 0.984375q-0.984375 0.96875 -1.09375 2.59375zm11.738281 7.421875l0 -12.453125l1.890625 0l0 1.890625q0.734375 -1.328125 1.34375 -1.75q0.625 -0.421875 1.359375 -0.421875q1.0625 0 2.171875 0.6875l-0.734375 1.953125q-0.765625 -0.453125 -1.546875 -0.453125q-0.6875 0 -1.25 0.421875q-0.546875 0.40625 -0.78125 1.140625q-0.34375 1.125 -0.34375 2.46875l0 6.515625l-2.109375 0zm7.1640625 -3.71875l2.09375 -0.328125q0.171875 1.25 0.96875 1.921875q0.8125 0.671875 2.25 0.671875q1.453125 0 2.15625 -0.59375q0.703125 -0.59375 0.703125 -1.390625q0 -0.71875 -0.625 -1.125q-0.421875 -0.28125 -2.15625 -0.71875q-2.3125 -0.578125 -3.21875 -1.0q-0.890625 -0.4375 -1.359375 -1.1875q-0.453125 -0.765625 -0.453125 -1.671875q0 -0.828125 0.375 -1.53125q0.390625 -0.71875 1.046875 -1.1875q0.484375 -0.359375 1.328125 -0.609375q0.859375 -0.265625 1.828125 -0.265625q1.46875 0 2.578125 0.421875q1.109375 0.421875 1.625 1.15625q0.53125 0.71875 0.734375 1.921875l-2.0625 0.28125q-0.140625 -0.96875 -0.8125 -1.5q-0.671875 -0.546875 -1.90625 -0.546875q-1.453125 0 -2.078125 0.484375q-0.625 0.484375 -0.625 1.125q0 0.40625 0.265625 0.734375q0.25 0.34375 0.8125 0.5625q0.3125 0.125 1.859375 0.546875q2.234375 0.59375 3.109375 0.984375q0.890625 0.375 1.390625 1.109375q0.515625 0.71875 0.515625 1.796875q0 1.046875 -0.625 1.984375q-0.609375 0.9375 -1.765625 1.453125q-1.15625 0.5 -2.625 0.5q-2.421875 0 -3.703125 -1.0q-1.265625 -1.015625 -1.625 -3.0zm12.859375 -11.03125l0 -2.4375l2.109375 0l0 2.4375l-2.109375 0zm0 14.75l0 -12.453125l2.109375 0l0 12.453125l-2.109375 0zm4.5351562 -6.21875q0 -3.46875 1.921875 -5.125q1.609375 -1.390625 3.921875 -1.390625q2.5625 0 4.1875 1.6875q1.625 1.6875 1.625 4.640625q0 2.40625 -0.71875 3.78125q-0.71875 1.375 -2.09375 2.140625q-1.375 0.765625 -3.0 0.765625q-2.625 0 -4.234375 -1.671875q-1.609375 -1.6875 -1.609375 -4.828125zm2.171875 0q0 2.390625 1.03125 3.578125q1.046875 1.1875 2.640625 1.1875q1.5625 0 2.609375 -1.1875q1.046875 -1.203125 1.046875 -3.65625q0 -2.3125 -1.0625 -3.5q-1.046875 -1.1875 -2.59375 -1.1875q-1.59375 0 -2.640625 1.1875q-1.03125 1.1875 -1.03125 3.578125zm11.957031 6.21875l0 -12.453125l1.90625 0l0 1.78125q1.375 -2.0625 3.953125 -2.0625q1.125 0 2.0625 0.40625q0.953125 0.40625 1.421875 1.0625q0.46875 0.65625 0.65625 1.5625q0.125 0.578125 0.125 2.046875l0 7.65625l-2.109375 0l0 -7.578125q0 -1.28125 -0.25 -1.921875q-0.25 -0.640625 -0.875 -1.015625q-0.625 -0.390625 -1.46875 -0.390625q-1.34375 0 -2.328125 0.859375q-0.984375 0.859375 -0.984375 3.25l0 6.796875l-2.109375 0zm14.738281 5.046875l-1.515625 0q3.5 -5.625 3.5 -11.265625q0 -2.203125 -0.5 -4.359375q-0.390625 -1.765625 -1.109375 -3.375q-0.453125 -1.0625 -1.890625 -3.515625l1.515625 0q2.203125 2.9375 3.25 5.90625q0.90625 2.546875 0.90625 5.34375q0 3.15625 -1.21875 6.109375q-1.203125 2.953125 -2.9375 5.15625z" fill-rule="nonzero"/><path fill="#6aa84f" d="m71.44095 282.42023l0 0c0 -7.40744 6.0049057 -13.4123535 13.412338 -13.4123535l149.83673 0c3.5571747 0 6.9686584 1.4130859 9.483963 3.9283752c2.5153046 2.5153198 3.9283752 5.9267883 3.9283752 9.483978l0 53.647736c0 7.40744 -6.004898 13.4123535 -13.412338 13.4123535l-149.83673 0c-7.4074326 0 -13.412338 -6.0049133 -13.412338 -13.4123535z" fill-rule="evenodd"/><path stroke="#ffffff" stroke-width="2.0" stroke-linejoin="round" stroke-linecap="butt" d="m71.44095 282.42023l0 0c0 -7.40744 6.0049057 -13.4123535 13.412338 -13.4123535l149.83673 0c3.5571747 0 6.9686584 1.4130859 9.483963 3.9283752c2.5153046 2.5153198 3.9283752 5.9267883 3.9283752 9.483978l0 53.647736c0 7.40744 -6.004898 13.4123535 -13.412338 13.4123535l-149.83673 0c-7.4074326 0 -13.412338 -6.0049133 -13.412338 -13.4123535z" fill-rule="evenodd"/><path fill="#ffffff" d="m117.27556 317.7841l0 -17.1875l2.109375 0l0 17.1875l-2.109375 0zm5.3945312 -14.75l0 -2.4375l2.109375 0l0 2.4375l-2.109375 0zm0 14.75l0 -12.453125l2.109375 0l0 12.453125l-2.109375 0zm7.2695312 0l-1.953125 0l0 -17.1875l2.109375 0l0 6.140625q1.328125 -1.6875 3.40625 -1.6875q1.140625 0 2.171875 0.46875q1.03125 0.46875 1.6875 1.3125q0.65625 0.828125 1.03125 2.015625q0.375 1.171875 0.375 2.53125q0 3.1875 -1.578125 4.9375q-1.578125 1.75 -3.796875 1.75q-2.203125 0 -3.453125 -1.84375l0 1.5625zm-0.03125 -6.3125q0 2.234375 0.609375 3.234375q1.0 1.625 2.703125 1.625q1.375 0 2.375 -1.203125q1.015625 -1.203125 1.015625 -3.578125q0 -2.4375 -0.96875 -3.59375q-0.953125 -1.171875 -2.328125 -1.171875q-1.390625 0 -2.40625 1.203125q-1.0 1.203125 -1.0 3.484375zm19.582031 6.3125l0 -1.828125q-1.453125 2.109375 -3.9375 2.109375q-1.109375 0 -2.0625 -0.421875q-0.953125 -0.421875 -1.421875 -1.0625q-0.453125 -0.640625 -0.640625 -1.5625q-0.140625 -0.625 -0.140625 -1.96875l0 -7.71875l2.109375 0l0 6.90625q0 1.65625 0.140625 2.234375q0.1875 0.828125 0.828125 1.3125q0.65625 0.46875 1.609375 0.46875q0.9375 0 1.765625 -0.484375q0.84375 -0.5 1.1875 -1.328125q0.34375 -0.84375 0.34375 -2.4375l0 -6.671875l2.109375 0l0 12.453125l-1.890625 0zm5.1914062 0l0 -12.453125l1.90625 0l0 1.78125q1.375 -2.0625 3.953125 -2.0625q1.125 0 2.0625 0.40625q0.953125 0.40625 1.421875 1.0625q0.46875 0.65625 0.65625 1.5625q0.125 0.578125 0.125 2.046875l0 7.65625l-2.109375 0l0 -7.578125q0 -1.28125 -0.25 -1.921875q-0.25 -0.640625 -0.875 -1.015625q-0.625 -0.390625 -1.46875 -0.390625q-1.34375 0 -2.328125 0.859375q-0.984375 0.859375 -0.984375 3.25l0 6.796875l-2.109375 0zm13.363281 -14.75l0 -2.4375l2.109375 0l0 2.4375l-2.109375 0zm0 14.75l0 -12.453125l2.109375 0l0 12.453125l-2.109375 0zm3.9101562 0l4.546875 -6.46875l-4.203125 -5.984375l2.640625 0l1.90625 2.921875q0.546875 0.828125 0.875 1.390625q0.515625 -0.765625 0.9375 -1.359375l2.109375 -2.953125l2.515625 0l-4.296875 5.859375l4.625 6.59375l-2.59375 0l-2.546875 -3.875l-0.6875 -1.03125l-3.265625 4.90625l-2.5625 0zm14.015625 0l0 -2.40625l2.390625 0l0 2.40625l-2.390625 0zm14.183594 -1.53125q-1.171875 0.984375 -2.265625 1.40625q-1.078125 0.40625 -2.3125 0.40625q-2.046875 0 -3.15625 -1.0q-1.09375 -1.0 -1.09375 -2.5625q0 -0.921875 0.40625 -1.671875q0.421875 -0.75 1.09375 -1.203125q0.671875 -0.46875 1.515625 -0.703125q0.625 -0.15625 1.875 -0.3125q2.5625 -0.3125 3.765625 -0.734375q0.015625 -0.421875 0.015625 -0.546875q0 -1.28125 -0.609375 -1.8125q-0.796875 -0.71875 -2.390625 -0.71875q-1.5 0 -2.203125 0.53125q-0.703125 0.515625 -1.046875 1.84375l-2.0625 -0.28125q0.28125 -1.328125 0.921875 -2.140625q0.640625 -0.8125 1.859375 -1.25q1.21875 -0.453125 2.828125 -0.453125q1.59375 0 2.59375 0.375q1.0 0.375 1.46875 0.953125q0.46875 0.5625 0.65625 1.4375q0.09375 0.53125 0.09375 1.9375l0 2.8125q0 2.9375 0.140625 3.71875q0.140625 0.78125 0.53125 1.5l-2.203125 0q-0.328125 -0.65625 -0.421875 -1.53125zm-0.171875 -4.71875q-1.15625 0.46875 -3.453125 0.796875q-1.296875 0.1875 -1.84375 0.421875q-0.53125 0.234375 -0.828125 0.6875q-0.28125 0.453125 -0.28125 1.0q0 0.84375 0.625 1.40625q0.640625 0.5625 1.875 0.5625q1.21875 0 2.171875 -0.53125q0.953125 -0.53125 1.390625 -1.453125q0.34375 -0.71875 0.34375 -2.109375l0 -0.78125z" fill-rule="nonzero"/><path fill="#000000" fill-opacity="0.0" d="m480.00787 373.4908l0 39.811035" fill-rule="evenodd"/><path stroke="#000000" stroke-width="2.0" stroke-linejoin="round" stroke-linecap="butt" d="m480.00787 373.4908l0 27.811035" fill-rule="evenodd"/><path fill="#000000" stroke="#000000" stroke-width="2.0" stroke-linecap="butt" d="m476.7044 401.30185l3.3034668 9.076172l3.3034668 -9.076172z" fill-rule="evenodd"/><path fill="#6aa84f" d="m711.89764 283.08163l0 0c0 -7.2247925 5.8568115 -13.0816345 13.081604 -13.0816345l150.49817 0c3.4694824 0 6.796814 1.3782349 9.250122 3.8315125c2.453247 2.4532776 3.831543 5.7806396 3.831543 9.250122l0 52.32492c0 7.2247925 -5.8568726 13.0816345 -13.081665 13.0816345l-150.49817 0c-7.2247925 0 -13.081604 -5.856842 -13.081604 -13.0816345z" fill-rule="evenodd"/><path stroke="#ffffff" stroke-width="2.0" stroke-linejoin="round" stroke-linecap="butt" d="m711.89764 283.08163l0 0c0 -7.2247925 5.8568115 -13.0816345 13.081604 -13.0816345l150.49817 0c3.4694824 0 6.796814 1.3782349 9.250122 3.8315125c2.453247 2.4532776 3.831543 5.7806396 3.831543 9.250122l0 52.32492c0 7.2247925 -5.8568726 13.0816345 -13.081665 13.0816345l-150.49817 0c-7.2247925 0 -13.081604 -5.856842 -13.081604 -13.0816345z" fill-rule="evenodd"/><path fill="#ffffff" d="m767.5135 303.2841l6.59375 -17.1875l2.453125 0l7.03125 17.1875l-2.59375 0l-2.0 -5.203125l-7.1875 0l-1.890625 5.203125l-2.40625 0zm4.953125 -7.0625l5.828125 0l-1.796875 -4.75q-0.8125 -2.171875 -1.21875 -3.5625q-0.328125 1.65625 -0.921875 3.28125l-1.890625 5.03125zm14.6171875 7.0625l-1.953125 0l0 -17.1875l2.109375 0l0 6.140625q1.328125 -1.6875 3.40625 -1.6875q1.140625 0 2.171875 0.46875q1.03125 0.46875 1.6875 1.3125q0.65625 0.828125 1.03125 2.015625q0.375 1.171875 0.375 2.53125q0 3.1875 -1.578125 4.9375q-1.578125 1.75 -3.796875 1.75q-2.203125 0 -3.453125 -1.84375l0 1.5625zm-0.03125 -6.3125q0 2.234375 0.609375 3.234375q1.0 1.625 2.703125 1.625q1.375 0 2.375 -1.203125q1.015625 -1.203125 1.015625 -3.578125q0 -2.4375 -0.96875 -3.59375q-0.953125 -1.171875 -2.328125 -1.171875q-1.390625 0 -2.40625 1.203125q-1.0 1.203125 -1.0 3.484375zm10.582031 2.59375l2.09375 -0.328125q0.171875 1.25 0.96875 1.921875q0.8125 0.671875 2.25 0.671875q1.453125 0 2.15625 -0.59375q0.703125 -0.59375 0.703125 -1.390625q0 -0.71875 -0.625 -1.125q-0.421875 -0.28125 -2.15625 -0.71875q-2.3125 -0.578125 -3.21875 -1.0q-0.890625 -0.4375 -1.359375 -1.1875q-0.453125 -0.765625 -0.453125 -1.671875q0 -0.828125 0.375 -1.53125q0.390625 -0.71875 1.046875 -1.1875q0.484375 -0.359375 1.328125 -0.609375q0.859375 -0.265625 1.828125 -0.265625q1.46875 0 2.578125 0.421875q1.109375 0.421875 1.625 1.15625q0.53125 0.71875 0.734375 1.921875l-2.0625 0.28125q-0.140625 -0.96875 -0.8125 -1.5q-0.671875 -0.546875 -1.90625 -0.546875q-1.453125 0 -2.078125 0.484375q-0.625 0.484375 -0.625 1.125q0 0.40625 0.265625 0.734375q0.25 0.34375 0.8125 0.5625q0.3125 0.125 1.859375 0.546875q2.234375 0.59375 3.109375 0.984375q0.890625 0.375 1.390625 1.109375q0.515625 0.71875 0.515625 1.796875q0 1.046875 -0.625 1.984375q-0.609375 0.9375 -1.765625 1.453125q-1.15625 0.5 -2.625 0.5q-2.421875 0 -3.703125 -1.0q-1.265625 -1.015625 -1.625 -3.0zm21.375 -0.296875l2.171875 0.28125q-0.515625 1.90625 -1.90625 2.96875q-1.390625 1.046875 -3.5625 1.046875q-2.734375 0 -4.34375 -1.671875q-1.59375 -1.6875 -1.59375 -4.734375q0 -3.140625 1.609375 -4.875q1.625 -1.734375 4.203125 -1.734375q2.5 0 4.078125 1.703125q1.59375 1.703125 1.59375 4.78125q0 0.1875 -0.015625 0.5625l-9.28125 0q0.109375 2.046875 1.15625 3.140625q1.046875 1.09375 2.609375 1.09375q1.15625 0 1.96875 -0.609375q0.828125 -0.609375 1.3125 -1.953125zm-6.9375 -3.40625l6.953125 0q-0.140625 -1.5625 -0.796875 -2.359375q-1.0 -1.21875 -2.609375 -1.21875q-1.453125 0 -2.453125 0.984375q-0.984375 0.96875 -1.09375 2.59375zm11.769531 -7.328125l0 -2.4375l2.109375 0l0 2.4375l-2.109375 0zm0 14.75l0 -12.453125l2.109375 0l0 12.453125l-2.109375 0zm5.2695312 0l0 -17.1875l2.109375 0l0 17.1875l-2.109375 0z" fill-rule="nonzero"/><path fill="#ffffff" d="m733.8084 337.33096q-1.734375 -2.203125 -2.953125 -5.15625q-1.203125 -2.953125 -1.203125 -6.109375q0 -2.796875 0.90625 -5.34375q1.046875 -2.96875 3.25 -5.90625l1.515625 0q-1.421875 2.4375 -1.875 3.46875q-0.71875 1.625 -1.125 3.375q-0.5 2.203125 -0.5 4.40625q0 5.640625 3.5 11.265625l-1.515625 0zm3.1796875 -11.265625q0 -3.46875 1.921875 -5.125q1.609375 -1.390625 3.921875 -1.390625q2.5625 0 4.1875 1.6875q1.625 1.6875 1.625 4.640625q0 2.40625 -0.71875 3.78125q-0.71875 1.375 -2.09375 2.140625q-1.375 0.765625 -3.0 0.765625q-2.625 0 -4.234375 -1.671875q-1.609375 -1.6875 -1.609375 -4.828125zm2.171875 0q0 2.390625 1.03125 3.578125q1.046875 1.1875 2.640625 1.1875q1.5625 0 2.609375 -1.1875q1.046875 -1.203125 1.046875 -3.65625q0 -2.3125 -1.0625 -3.5q-1.046875 -1.1875 -2.59375 -1.1875q-1.59375 0 -2.640625 1.1875q-1.03125 1.1875 -1.03125 3.578125zm11.957031 6.21875l0 -12.453125l1.90625 0l0 1.78125q1.375 -2.0625 3.953125 -2.0625q1.125 0 2.0625 0.40625q0.953125 0.40625 1.421875 1.0625q0.46875 0.65625 0.65625 1.5625q0.125 0.578125 0.125 2.046875l0 7.65625l-2.109375 0l0 -7.578125q0 -1.28125 -0.25 -1.921875q-0.25 -0.640625 -0.875 -1.015625q-0.625 -0.390625 -1.46875 -0.390625q-1.34375 0 -2.328125 0.859375q-0.984375 0.859375 -0.984375 3.25l0 6.796875l-2.109375 0zm13.300781 0l0 -17.1875l2.109375 0l0 17.1875l-2.109375 0zm5.2851562 4.796875l-0.234375 -1.984375q0.703125 0.1875 1.21875 0.1875q0.703125 0 1.125 -0.234375q0.421875 -0.234375 0.6875 -0.65625q0.203125 -0.3125 0.640625 -1.5625q0.0625 -0.1875 0.1875 -0.515625l-4.71875 -12.484375l2.265625 0l2.59375 7.21875q0.5 1.359375 0.90625 2.875q0.359375 -1.453125 0.859375 -2.828125l2.671875 -7.265625l2.109375 0l-4.734375 12.671875q-0.765625 2.046875 -1.1875 2.8125q-0.5625 1.046875 -1.296875 1.53125q-0.71875 0.484375 -1.734375 0.484375q-0.609375 0 -1.359375 -0.25zm26.121094 -4.796875l-2.109375 0l0 -13.4375q-0.75 0.71875 -2.0 1.453125q-1.234375 0.71875 -2.21875 1.078125l0 -2.03125q1.78125 -0.828125 3.09375 -2.015625q1.328125 -1.1875 1.875 -2.296875l1.359375 0l0 17.25zm20.78125 -4.5625l2.078125 0.265625q-0.34375 2.15625 -1.75 3.375q-1.390625 1.203125 -3.4375 1.203125q-2.546875 0 -4.109375 -1.671875q-1.546875 -1.671875 -1.546875 -4.78125q0 -2.015625 0.671875 -3.53125q0.671875 -1.515625 2.03125 -2.265625q1.359375 -0.765625 2.96875 -0.765625q2.03125 0 3.3125 1.03125q1.296875 1.03125 1.65625 2.90625l-2.046875 0.328125q-0.296875 -1.265625 -1.046875 -1.890625q-0.734375 -0.640625 -1.796875 -0.640625q-1.59375 0 -2.59375 1.15625q-0.984375 1.140625 -0.984375 3.609375q0 2.5 0.953125 3.640625q0.96875 1.140625 2.515625 1.140625q1.234375 0 2.0625 -0.765625q0.84375 -0.765625 1.0625 -2.34375zm3.09375 -1.65625q0 -3.46875 1.921875 -5.125q1.609375 -1.390625 3.921875 -1.390625q2.5625 0 4.1875 1.6875q1.625 1.6875 1.625 4.640625q0 2.40625 -0.71875 3.78125q-0.71875 1.375 -2.09375 2.140625q-1.375 0.765625 -3.0 0.765625q-2.625 0 -4.234375 -1.671875q-1.609375 -1.6875 -1.609375 -4.828125zm2.171875 0q0 2.390625 1.03125 3.578125q1.046875 1.1875 2.640625 1.1875q1.5625 0 2.609375 -1.1875q1.046875 -1.203125 1.046875 -3.65625q0 -2.3125 -1.0625 -3.5q-1.046875 -1.1875 -2.59375 -1.1875q-1.59375 0 -2.640625 1.1875q-1.03125 1.1875 -1.03125 3.578125zm11.957031 10.984375l0 -17.21875l1.921875 0l0 1.625q0.6875 -0.953125 1.53125 -1.421875q0.859375 -0.484375 2.078125 -0.484375q1.59375 0 2.8125 0.828125q1.21875 0.8125 1.84375 2.3125q0.625 1.5 0.625 3.28125q0 1.90625 -0.6875 3.4375q-0.6875 1.53125 -2.0 2.34375q-1.296875 0.8125 -2.734375 0.8125q-1.0625 0 -1.90625 -0.4375q-0.828125 -0.453125 -1.375 -1.140625l0 6.0625l-2.109375 0zm1.921875 -10.921875q0 2.40625 0.96875 3.5625q0.96875 1.140625 2.359375 1.140625q1.40625 0 2.40625 -1.1875q1.0 -1.1875 1.0 -3.6875q0 -2.375 -0.984375 -3.5625q-0.96875 -1.1875 -2.328125 -1.1875q-1.359375 0 -2.390625 1.265625q-1.03125 1.25 -1.03125 3.65625zm11.332031 10.953125l-0.234375 -1.984375q0.703125 0.1875 1.21875 0.1875q0.703125 0 1.125 -0.234375q0.421875 -0.234375 0.6875 -0.65625q0.203125 -0.3125 0.640625 -1.5625q0.0625 -0.1875 0.1875 -0.515625l-4.71875 -12.484375l2.265625 0l2.59375 7.21875q0.5 1.359375 0.90625 2.875q0.359375 -1.453125 0.859375 -2.828125l2.671875 -7.265625l2.109375 0l-4.734375 12.671875q-0.765625 2.046875 -1.1875 2.8125q-0.5625 1.046875 -1.296875 1.53125q-0.71875 0.484375 -1.734375 0.484375q-0.609375 0 -1.359375 -0.25zm13.21875 -9.0625l-0.640625 -9.109375l0 -3.8125l2.609375 0l0 3.8125l-0.609375 9.109375l-1.359375 0zm-0.546875 4.265625l0 -2.40625l2.421875 0l0 2.40625l-2.421875 0zm7.4804688 5.046875l-1.515625 0q3.5 -5.625 3.5 -11.265625q0 -2.203125 -0.5 -4.359375q-0.390625 -1.765625 -1.109375 -3.375q-0.453125 -1.0625 -1.890625 -3.515625l1.515625 0q2.203125 2.9375 3.25 5.90625q0.90625 2.546875 0.90625 5.34375q0 3.15625 -1.21875 6.109375q-1.203125 2.953125 -2.9375 5.15625z" fill-rule="nonzero"/><path fill="#6aa84f" d="m284.9265 283.08163l0 0c0 -7.2247925 5.856842 -13.0816345 13.0816345 -13.0816345l150.49814 0c3.4694824 0 6.7968445 1.3782349 9.250122 3.8315125c2.4532776 2.4532776 3.8315125 5.7806396 3.8315125 9.250122l0 52.32492c0 7.2247925 -5.856842 13.0816345 -13.0816345 13.0816345l-150.49814 0c-7.2247925 0 -13.0816345 -5.856842 -13.0816345 -13.0816345z" fill-rule="evenodd"/><path stroke="#ffffff" stroke-width="2.0" stroke-linejoin="round" stroke-linecap="butt" d="m284.9265 283.08163l0 0c0 -7.2247925 5.856842 -13.0816345 13.0816345 -13.0816345l150.49814 0c3.4694824 0 6.7968445 1.3782349 9.250122 3.8315125c2.4532776 2.4532776 3.8315125 5.7806396 3.8315125 9.250122l0 52.32492c0 7.2247925 -5.856842 13.0816345 -13.0816345 13.0816345l-150.49814 0c-7.2247925 0 -13.0816345 -5.856842 -13.0816345 -13.0816345z" fill-rule="evenodd"/><path fill="#ffffff" d="m310.7572 317.7841l0 -17.1875l2.109375 0l0 17.1875l-2.109375 0zm5.3945312 -14.75l0 -2.4375l2.109375 0l0 2.4375l-2.109375 0zm0 14.75l0 -12.453125l2.109375 0l0 12.453125l-2.109375 0zm7.2695312 0l-1.953125 0l0 -17.1875l2.109375 0l0 6.140625q1.328125 -1.6875 3.40625 -1.6875q1.140625 0 2.171875 0.46875q1.03125 0.46875 1.6875 1.3125q0.65625 0.828125 1.03125 2.015625q0.375 1.171875 0.375 2.53125q0 3.1875 -1.578125 4.9375q-1.578125 1.75 -3.796875 1.75q-2.203125 0 -3.453125 -1.84375l0 1.5625zm-0.03125 -6.3125q0 2.234375 0.609375 3.234375q1.0 1.625 2.703125 1.625q1.375 0 2.375 -1.203125q1.015625 -1.203125 1.015625 -3.578125q0 -2.4375 -0.96875 -3.59375q-0.953125 -1.171875 -2.328125 -1.171875q-1.390625 0 -2.40625 1.203125q-1.0 1.203125 -1.0 3.484375zm11.425781 6.3125l0 -12.453125l1.90625 0l0 1.78125q1.375 -2.0625 3.953125 -2.0625q1.125 0 2.0625 0.40625q0.953125 0.40625 1.421875 1.0625q0.46875 0.65625 0.65625 1.5625q0.125 0.578125 0.125 2.046875l0 7.65625l-2.109375 0l0 -7.578125q0 -1.28125 -0.25 -1.921875q-0.25 -0.640625 -0.875 -1.015625q-0.625 -0.390625 -1.46875 -0.390625q-1.34375 0 -2.328125 0.859375q-0.984375 0.859375 -0.984375 3.25l0 6.796875l-2.109375 0zm21.878906 -4.015625l2.171875 0.28125q-0.515625 1.90625 -1.90625 2.96875q-1.390625 1.046875 -3.5625 1.046875q-2.734375 0 -4.34375 -1.671875q-1.59375 -1.6875 -1.59375 -4.734375q0 -3.140625 1.609375 -4.875q1.625 -1.734375 4.203125 -1.734375q2.5 0 4.078125 1.703125q1.59375 1.703125 1.59375 4.78125q0 0.1875 -0.015625 0.5625l-9.28125 0q0.109375 2.046875 1.15625 3.140625q1.046875 1.09375 2.609375 1.09375q1.15625 0 1.96875 -0.609375q0.828125 -0.609375 1.3125 -1.953125zm-6.9375 -3.40625l6.953125 0q-0.140625 -1.5625 -0.796875 -2.359375q-1.0 -1.21875 -2.609375 -1.21875q-1.453125 0 -2.453125 0.984375q-0.984375 0.96875 -1.09375 2.59375zm16.363281 5.53125l0.3125 1.859375q-0.890625 0.203125 -1.59375 0.203125q-1.15625 0 -1.796875 -0.359375q-0.625 -0.375 -0.890625 -0.96875q-0.25 -0.59375 -0.25 -2.484375l0 -7.171875l-1.546875 0l0 -1.640625l1.546875 0l0 -3.078125l2.09375 -1.265625l0 4.34375l2.125 0l0 1.640625l-2.125 0l0 7.28125q0 0.90625 0.109375 1.171875q0.125 0.25 0.375 0.40625q0.25 0.140625 0.71875 0.140625q0.34375 0 0.921875 -0.078125zm4.3554688 1.890625l-3.796875 -12.453125l2.171875 0l1.984375 7.1875l0.734375 2.671875q0.046875 -0.203125 0.640625 -2.5625l1.984375 -7.296875l2.171875 0l1.859375 7.21875l0.625 2.390625l0.71875 -2.40625l2.125 -7.203125l2.046875 0l-3.890625 12.453125l-2.1875 0l-1.984375 -7.453125l-0.46875 -2.125l-2.53125 9.578125l-2.203125 0zm14.253906 -6.21875q0 -3.46875 1.921875 -5.125q1.609375 -1.390625 3.921875 -1.390625q2.5625 0 4.1875 1.6875q1.625 1.6875 1.625 4.640625q0 2.40625 -0.71875 3.78125q-0.71875 1.375 -2.09375 2.140625q-1.375 0.765625 -3.0 0.765625q-2.625 0 -4.234375 -1.671875q-1.609375 -1.6875 -1.609375 -4.828125zm2.171875 0q0 2.390625 1.03125 3.578125q1.046875 1.1875 2.640625 1.1875q1.5625 0 2.609375 -1.1875q1.046875 -1.203125 1.046875 -3.65625q0 -2.3125 -1.0625 -3.5q-1.046875 -1.1875 -2.59375 -1.1875q-1.59375 0 -2.640625 1.1875q-1.03125 1.1875 -1.03125 3.578125zm11.941406 6.21875l0 -12.453125l1.890625 0l0 1.890625q0.734375 -1.328125 1.34375 -1.75q0.625 -0.421875 1.359375 -0.421875q1.0625 0 2.171875 0.6875l-0.734375 1.953125q-0.765625 -0.453125 -1.546875 -0.453125q-0.6875 0 -1.25 0.421875q-0.546875 0.40625 -0.78125 1.140625q-0.34375 1.125 -0.34375 2.46875l0 6.515625l-2.109375 0zm8.0234375 0l0 -17.1875l2.109375 0l0 9.796875l5.0 -5.0625l2.71875 0l-4.75 4.625l5.2344055 7.828125l-2.5937805 0l-4.125 -6.359375l-1.484375 1.421875l0 4.9375l-2.109375 0zm12.5937805 0l0 -2.40625l2.390625 0l0 2.40625l-2.390625 0zm14.183594 -1.53125q-1.171875 0.984375 -2.265625 1.40625q-1.078125 0.40625 -2.3125 0.40625q-2.046875 0 -3.15625 -1.0q-1.09375 -1.0 -1.09375 -2.5625q0 -0.921875 0.40625 -1.671875q0.421875 -0.75 1.09375 -1.203125q0.671875 -0.46875 1.515625 -0.703125q0.625 -0.15625 1.875 -0.3125q2.5625 -0.3125 3.765625 -0.734375q0.015625 -0.421875 0.015625 -0.546875q0 -1.28125 -0.609375 -1.8125q-0.796875 -0.71875 -2.390625 -0.71875q-1.5 0 -2.203125 0.53125q-0.703125 0.515625 -1.046875 1.84375l-2.0625 -0.28125q0.28125 -1.328125 0.921875 -2.140625q0.640625 -0.8125 1.859375 -1.25q1.21875 -0.453125 2.828125 -0.453125q1.59375 0 2.59375 0.375q1.0 0.375 1.46875 0.953125q0.46875 0.5625 0.65625 1.4375q0.09375 0.53125 0.09375 1.9375l0 2.8125q0 2.9375 0.140625 3.71875q0.140625 0.78125 0.53125 1.5l-2.203125 0q-0.328125 -0.65625 -0.421875 -1.53125zm-0.171875 -4.71875q-1.15625 0.46875 -3.453125 0.796875q-1.296875 0.1875 -1.84375 0.421875q-0.53125 0.234375 -0.828125 0.6875q-0.28125 0.453125 -0.28125 1.0q0 0.84375 0.625 1.40625q0.640625 0.5625 1.875 0.5625q1.21875 0 2.171875 -0.53125q0.953125 -0.53125 1.390625 -1.453125q0.34375 -0.71875 0.34375 -2.109375l0 -0.78125z" fill-rule="nonzero"/><path fill="#6aa84f" d="m498.41208 283.08163l0 0c0 -7.2247925 5.856842 -13.0816345 13.0816345 -13.0816345l150.49817 0c3.4694214 0 6.796814 1.3782349 9.250061 3.8315125c2.453308 2.4532776 3.831543 5.7806396 3.831543 9.250122l0 52.32492c0 7.2247925 -5.8568115 13.0816345 -13.081604 13.0816345l-150.49817 0c-7.2247925 0 -13.0816345 -5.856842 -13.0816345 -13.0816345z" fill-rule="evenodd"/><path stroke="#ffffff" stroke-width="2.0" stroke-linejoin="round" stroke-linecap="butt" d="m498.41208 283.08163l0 0c0 -7.2247925 5.856842 -13.0816345 13.0816345 -13.0816345l150.49817 0c3.4694214 0 6.796814 1.3782349 9.250061 3.8315125c2.453308 2.4532776 3.831543 5.7806396 3.831543 9.250122l0 52.32492c0 7.2247925 -5.8568115 13.0816345 -13.081604 13.0816345l-150.49817 0c-7.2247925 0 -13.0816345 -5.856842 -13.0816345 -13.0816345z" fill-rule="evenodd"/><path fill="#ffffff" d="m550.9264 317.7841l0 -17.1875l2.109375 0l0 17.1875l-2.109375 0zm5.3945312 -14.75l0 -2.4375l2.109375 0l0 2.4375l-2.109375 0zm0 14.75l0 -12.453125l2.109375 0l0 12.453125l-2.109375 0zm7.2695312 0l-1.953125 0l0 -17.1875l2.109375 0l0 6.140625q1.328125 -1.6875 3.40625 -1.6875q1.140625 0 2.171875 0.46875q1.03125 0.46875 1.6875 1.3125q0.65625 0.828125 1.03125 2.015625q0.375 1.171875 0.375 2.53125q0 3.1875 -1.578125 4.9375q-1.578125 1.75 -3.796875 1.75q-2.203125 0 -3.453125 -1.84375l0 1.5625zm-0.03125 -6.3125q0 2.234375 0.609375 3.234375q1.0 1.625 2.703125 1.625q1.375 0 2.375 -1.203125q1.015625 -1.203125 1.015625 -3.578125q0 -2.4375 -0.96875 -3.59375q-0.953125 -1.171875 -2.328125 -1.171875q-1.390625 0 -2.40625 1.203125q-1.0 1.203125 -1.0 3.484375zm14.894531 6.3125l-4.734375 -12.453125l2.21875 0l2.671875 7.453125q0.4375 1.21875 0.796875 2.515625q0.28125 -0.984375 0.78125 -2.375l2.765625 -7.59375l2.171875 0l-4.703125 12.453125l-1.96875 0zm9.046875 0l0 -10.8125l-1.875 0l0 -1.640625l1.875 0l0 -1.3125q0 -1.265625 0.21875 -1.875q0.296875 -0.8125 1.0625 -1.3125q0.78125 -0.515625 2.15625 -0.515625q0.890625 0 1.96875 0.203125l-0.3125 1.84375q-0.65625 -0.125 -1.25 -0.125q-0.953125 0 -1.359375 0.421875q-0.390625 0.40625 -0.390625 1.53125l0 1.140625l2.421875 0l0 1.640625l-2.421875 0l0 10.8125l-2.09375 0zm5.3085938 -3.71875l2.09375 -0.328125q0.171875 1.25 0.96875 1.921875q0.8125 0.671875 2.25 0.671875q1.453125 0 2.15625 -0.59375q0.703125 -0.59375 0.703125 -1.390625q0 -0.71875 -0.625 -1.125q-0.421875 -0.28125 -2.15625 -0.71875q-2.3125 -0.578125 -3.21875 -1.0q-0.890625 -0.4375 -1.359375 -1.1875q-0.453125 -0.765625 -0.453125 -1.671875q0 -0.828125 0.375 -1.53125q0.390625 -0.71875 1.046875 -1.1875q0.484375 -0.359375 1.328125 -0.609375q0.859375 -0.265625 1.828125 -0.265625q1.46875 0 2.578125 0.421875q1.109375 0.421875 1.625 1.15625q0.53125 0.71875 0.734375 1.921875l-2.0625 0.28125q-0.140625 -0.96875 -0.8125 -1.5q-0.671875 -0.546875 -1.90625 -0.546875q-1.453125 0 -2.078125 0.484375q-0.625 0.484375 -0.625 1.125q0 0.40625 0.265625 0.734375q0.25 0.34375 0.8125 0.5625q0.3125 0.125 1.859375 0.546875q2.234375 0.59375 3.109375 0.984375q0.890625 0.375 1.390625 1.109375q0.515625 0.71875 0.515625 1.796875q0 1.046875 -0.625 1.984375q-0.609375 0.9375 -1.765625 1.453125q-1.15625 0.5 -2.625 0.5q-2.421875 0 -3.703125 -1.0q-1.265625 -1.015625 -1.625 -3.0zm13.453125 3.71875l0 -2.40625l2.390625 0l0 2.40625l-2.390625 0zm14.183594 -1.53125q-1.171875 0.984375 -2.265625 1.40625q-1.078125 0.40625 -2.3125 0.40625q-2.046875 0 -3.15625 -1.0q-1.09375 -1.0 -1.09375 -2.5625q0 -0.921875 0.40625 -1.671875q0.421875 -0.75 1.09375 -1.203125q0.671875 -0.46875 1.515625 -0.703125q0.625 -0.15625 1.875 -0.3125q2.5625 -0.3125 3.765625 -0.734375q0.015625 -0.421875 0.015625 -0.546875q0 -1.28125 -0.609375 -1.8125q-0.796875 -0.71875 -2.390625 -0.71875q-1.5 0 -2.203125 0.53125q-0.703125 0.515625 -1.046875 1.84375l-2.0625 -0.28125q0.28125 -1.328125 0.921875 -2.140625q0.640625 -0.8125 1.859375 -1.25q1.21875 -0.453125 2.828125 -0.453125q1.59375 0 2.59375 0.375q1.0 0.375 1.46875 0.953125q0.46875 0.5625 0.65625 1.4375q0.09375 0.53125 0.09375 1.9375l0 2.8125q0 2.9375 0.140625 3.71875q0.140625 0.78125 0.53125 1.5l-2.203125 0q-0.328125 -0.65625 -0.421875 -1.53125zm-0.171875 -4.71875q-1.15625 0.46875 -3.453125 0.796875q-1.296875 0.1875 -1.84375 0.421875q-0.53125 0.234375 -0.828125 0.6875q-0.28125 0.453125 -0.28125 1.0q0 0.84375 0.625 1.40625q0.640625 0.5625 1.875 0.5625q1.21875 0 2.171875 -0.53125q0.953125 -0.53125 1.390625 -1.453125q0.34375 -0.71875 0.34375 -2.109375l0 -0.78125z" fill-rule="nonzero"/></g></svg>