<?xml version="1.0" encoding="UTF-8" standalone="no"?>
<!-- Created with Inkscape (http://www.inkscape.org/) -->

<svg
   width="1920"
   height="1200"
   viewBox="0 0 507.99999 317.5"
   version="1.1"
   id="svg1"
   inkscape:version="1.3 (0e150ed6c4, 2023-07-21)"
   sodipodi:docname="links.svg"
   inkscape:export-filename="links.png"
   inkscape:export-xdpi="96"
   inkscape:export-ydpi="96"
   xmlns:inkscape="http://www.inkscape.org/namespaces/inkscape"
   xmlns:sodipodi="http://sodipodi.sourceforge.net/DTD/sodipodi-0.dtd"
   xmlns="http://www.w3.org/2000/svg"
   xmlns:svg="http://www.w3.org/2000/svg">
  <sodipodi:namedview
     id="namedview1"
     pagecolor="#cfcfcf"
     bordercolor="#000000"
     borderopacity="0.25"
     inkscape:showpageshadow="2"
     inkscape:pageopacity="0.0"
     inkscape:pagecheckerboard="0"
     inkscape:deskcolor="#d1d1d1"
     inkscape:document-units="mm"
     inkscape:zoom="1.1874146"
     inkscape:cx="1030.3899"
     inkscape:cy="576.4625"
     inkscape:window-width="3840"
     inkscape:window-height="2091"
     inkscape:window-x="0"
     inkscape:window-y="0"
     inkscape:window-maximized="1"
     inkscape:current-layer="layer1"
     inkscape:export-bgcolor="#c0c0c0ff" />
  <defs
     id="defs1" />
  <g
     inkscape:label="Layer 1"
     inkscape:groupmode="layer"
     id="layer1">
    <path
       fill-rule="evenodd"
       d="m 176,175.75013 h 17.33377 v 16.99981 H 176 c -25.99967,0 -52,-28.72966 -52,-59.49996 0,-30.76967 26.86705,-59.499981 52,-59.499981 h 69.33377 c 25.13294,0 51.99998,28.730311 51.99998,59.499981 0,23.96986 -15.77326,46.24027 -34.66686,55.25034 V 168.78007 C 272.72032,161.13022 280,147.19009 280,133.24998 280,111.48974 262.32032,90.749808 245.33377,90.749808 H 176 c -16.98655,0 -34.66623,20.739932 -34.66623,42.500172 0,21.76023 17.33312,42.50015 34.66623,42.50015 z m 155.99999,-51.00005 h -17.33312 v 16.99979 h 17.33312 c 17.33378,0 34.6669,20.73992 34.6669,42.50015 0,21.76026 -17.68034,42.50018 -34.6669,42.50018 h -69.3331 C 245.68033,226.7502 228,206.01028 228,184.25002 c 0,-14.10973 7.28032,-27.88025 17.33377,-35.53007 v -19.71961 c -18.8936,9.00943 -34.66689,31.27981 -34.66689,55.24968 0,30.77033 26.86638,59.49998 52.00001,59.49998 h 69.3331 C 357.1336,243.75 384,215.02035 384,184.25002 c 0,-30.76965 -25.99968,-59.49994 -52.00001,-59.49994 z"
       id="path1"
       style="fill:#0000ff;stroke-width:17.1659" />
    <path
       fill-rule="evenodd"
       d="M 103.33342,263.33332 H 110 v 19.99999 C 110,286.99999 107.00006,290 103.33342,290 H 36.666582 C 32.999941,290 30,286.99999 30,283.33331 V 216.66666 C 30,212.99999 32.999941,210 36.666582,210 h 19.999997 v 6.66666 H 36.666582 v 66.66665 H 103.33342 Z M 69.999995,210 l 14.999945,14.99999 -21.666527,21.66667 9.999883,10 L 95.000065,234.99999 110,250.00001 V 210 Z"
       id="path1-6"
       style="fill:#000080;stroke-width:6.66665" />
    <path
       fill-rule="evenodd"
       d="M 56.66668,103.33342 V 110 H 36.666687 C 33.000014,110 30,107.00006 30,103.33342 V 36.666582 C 30,32.999941 33.000014,30 36.666687,30 H 103.33334 C 107,30 110,32.999941 110,36.666582 V 56.66658 h -6.66666 V 36.666582 H 36.666687 V 103.33342 Z M 110,69.999996 95.000008,84.999943 73.333334,63.333414 63.333335,73.333298 85.00001,95.000064 69.999991,110 H 110 Z"
       id="path1-6-2"
       style="fill:#000080;stroke-width:6.66665" />
    <path
       fill-rule="evenodd"
       d="M 406.66658,56.666688 H 400 v -20 C 400,33.000015 402.99994,30 406.66658,30 h 66.66684 C 477.00006,30 480,33.000015 480,36.666688 V 103.33335 C 480,107.00002 477.00006,110 473.33342,110 h -20 v -6.66665 h 20 V 36.666688 H 406.66658 Z M 440,110 425.00006,95.000021 l 21.66652,-21.666677 -9.99988,-10 L 414.99994,85.000021 400,70 v 40 z"
       id="path1-6-3"
       style="fill:#000080;stroke-width:6.66666" />
    <path
       fill-rule="evenodd"
       d="M 453.33332,216.66658 V 210 h 19.99999 c 3.66668,0 6.66669,2.99994 6.66669,6.66658 v 66.66684 C 480,287.00006 476.99999,290 473.33331,290 H 406.66666 C 402.99999,290 400,287.00006 400,283.33342 v -20 h 6.66666 v 20 h 66.66665 V 216.66658 Z M 400,250.00001 l 14.99999,-14.99995 21.66667,21.66653 10,-9.99989 L 424.99999,224.99994 440.00001,210 H 400 Z"
       id="path1-6-26"
       style="fill:#000080;stroke-width:6.66665" />
  </g>
</svg>
