<svg version="1.1" viewBox="0.0 0.0 504.87139107611546 392.81627296587925" fill="none" stroke="none" stroke-linecap="square" stroke-miterlimit="10" xmlns:xlink="http://www.w3.org/1999/xlink" xmlns="http://www.w3.org/2000/svg"><clipPath id="p.0"><path d="m0 0l504.8714 0l0 392.81628l-504.8714 0l0 -392.81628z" clip-rule="nonzero"/></clipPath><g clip-path="url(#p.0)"><path fill="#000000" fill-opacity="0.0" d="m0 0l504.8714 0l0 392.81628l-504.8714 0z" fill-rule="evenodd"/><path fill="#d9d9d9" d="m12.435696 12.156168l480.0 0l0 72.0l-480.0 0z" fill-rule="evenodd"/><path stroke="#000000" stroke-width="1.0" stroke-linejoin="round" stroke-linecap="butt" d="m12.435696 12.156168l480.0 0l0 72.0l-480.0 0z" fill-rule="evenodd"/><path fill="#000000" d="m177.8973 45.794914q0 0.90625 -0.328125 1.78125q-0.3125 0.875 -0.890625 1.453125q-0.8125 0.8125 -1.8125 1.21875q-1.0 0.40625 -2.484375 0.40625l-2.171875 0l0 4.421875l-3.5 0l0 -13.5625l5.75 0q1.296875 0 2.1875 0.21875q0.890625 0.21875 1.5625 0.671875q0.828125 0.53125 1.25 1.375q0.4375 0.84375 0.4375 2.015625zm-3.609375 0.078125q0 -0.578125 -0.3125 -0.984375q-0.3125 -0.421875 -0.71875 -0.578125q-0.546875 -0.21875 -1.0625 -0.234375q-0.515625 -0.03125 -1.390625 -0.03125l-0.59375 0l0 4.0625l1.0 0q0.890625 0 1.46875 -0.109375q0.578125 -0.109375 0.96875 -0.4375q0.34375 -0.296875 0.484375 -0.703125q0.15625 -0.40625 0.15625 -0.984375zm13.329605 2.09375l-0.296875 0q-0.203125 -0.0625 -0.671875 -0.09375q-0.46875 -0.046875 -0.78125 -0.046875q-0.703125 0 -1.234375 0.09375q-0.53125 0.09375 -1.15625 0.3125l0 6.84375l-3.28125 0l0 -10.234375l3.28125 0l0 1.5q1.078125 -0.921875 1.875 -1.21875q0.8125 -0.3125 1.484375 -0.3125q0.171875 0 0.390625 0.015625q0.21875 0 0.390625 0.015625l0 3.125zm11.929718 2.59375l-7.5 0q0.0625 1.203125 0.90625 1.84375q0.84375 0.640625 2.484375 0.640625q1.03125 0 2.0 -0.375q0.984375 -0.375 1.546875 -0.796875l0.375 0l0 2.625q-1.109375 0.453125 -2.09375 0.640625q-0.984375 0.203125 -2.1875 0.203125q-3.078125 0 -4.71875 -1.375q-1.640625 -1.390625 -1.640625 -3.953125q0 -2.53125 1.546875 -4.0q1.5625 -1.484375 4.265625 -1.484375q2.5 0 3.75 1.265625q1.265625 1.25 1.265625 3.625l0 1.140625zm-3.265625 -1.921875q-0.03125 -1.015625 -0.515625 -1.53125q-0.46875 -0.53125 -1.5 -0.53125q-0.9375 0 -1.546875 0.5q-0.609375 0.484375 -0.6875 1.5625l4.25 0zm14.467041 3.1875q0 1.59375 -1.421875 2.5625q-1.421875 0.96875 -3.890625 0.96875q-1.359375 0 -2.46875 -0.265625q-1.109375 -0.25 -1.796875 -0.546875l0 -2.703125l0.3125 0q0.234375 0.171875 0.5625 0.375q0.328125 0.203125 0.921875 0.453125q0.5 0.203125 1.140625 0.359375q0.65625 0.140625 1.390625 0.140625q0.96875 0 1.4375 -0.203125q0.46875 -0.21875 0.46875 -0.640625q0 -0.375 -0.28125 -0.546875q-0.265625 -0.171875 -1.03125 -0.3125q-0.375 -0.09375 -1.0 -0.1875q-0.625 -0.09375 -1.125 -0.234375q-1.390625 -0.359375 -2.078125 -1.125q-0.671875 -0.78125 -0.671875 -1.921875q0 -1.46875 1.390625 -2.453125q1.40625 -0.984375 3.828125 -0.984375q1.15625 0 2.203125 0.234375q1.046875 0.234375 1.640625 0.5l0 2.578125l-0.28125 0q-0.71875 -0.5 -1.65625 -0.8125q-0.9375 -0.3125 -1.890625 -0.3125q-0.796875 0 -1.34375 0.21875q-0.53125 0.21875 -0.53125 0.625q0 0.359375 0.234375 0.5625q0.25 0.1875 1.171875 0.375q0.5 0.09375 1.078125 0.1875q0.578125 0.09375 1.15625 0.25q1.296875 0.328125 1.90625 1.0625q0.625 0.71875 0.625 1.796875zm12.255539 -1.265625l-7.5 0q0.0625 1.203125 0.90625 1.84375q0.84375 0.640625 2.484375 0.640625q1.03125 0 2.0 -0.375q0.984375 -0.375 1.546875 -0.796875l0.375 0l0 2.625q-1.109375 0.453125 -2.09375 0.640625q-0.984375 0.203125 -2.1875 0.203125q-3.078125 0 -4.71875 -1.375q-1.640625 -1.390625 -1.640625 -3.953125q0 -2.53125 1.546875 -4.0q1.5625 -1.484375 4.265625 -1.484375q2.5 0 3.75 1.265625q1.265625 1.25 1.265625 3.625l0 1.140625zm-3.265625 -1.921875q-0.03125 -1.015625 -0.515625 -1.53125q-0.46875 -0.53125 -1.5 -0.53125q-0.9375 0 -1.546875 0.5q-0.609375 0.484375 -0.6875 1.5625l4.25 0zm15.857666 6.4375l-3.296875 0l0 -5.078125q0 -0.609375 -0.0625 -1.21875q-0.0625 -0.625 -0.21875 -0.921875q-0.1875 -0.328125 -0.546875 -0.484375q-0.34375 -0.15625 -0.96875 -0.15625q-0.453125 0 -0.921875 0.15625q-0.453125 0.140625 -0.984375 0.453125l0 7.25l-3.28125 0l0 -10.234375l3.28125 0l0 1.140625q0.875 -0.6875 1.671875 -1.046875q0.8125 -0.375 1.796875 -0.375q1.65625 0 2.59375 0.96875q0.9375 0.96875 0.9375 2.890625l0 6.65625zm9.556381 -0.09375q-0.53125 0.140625 -1.125 0.21875q-0.59375 0.078125 -1.453125 0.078125q-1.90625 0 -2.84375 -0.765625q-0.9375 -0.78125 -0.9375 -2.65625l0 -4.78125l-1.34375 0l0 -2.234375l1.34375 0l0 -2.921875l3.28125 0l0 2.921875l3.078125 0l0 2.234375l-3.078125 0l0 3.625q0 0.53125 0 0.9375q0.015625 0.390625 0.15625 0.71875q0.125 0.3125 0.453125 0.5q0.328125 0.1875 0.9375 0.1875q0.265625 0 0.671875 -0.109375q0.421875 -0.109375 0.578125 -0.203125l0.28125 0l0 2.25zm8.155411 -2.578125l0 -2.125q-0.671875 0.046875 -1.453125 0.140625q-0.765625 0.09375 -1.171875 0.234375q-0.484375 0.15625 -0.75 0.453125q-0.25 0.28125 -0.25 0.765625q0 0.328125 0.046875 0.53125q0.0625 0.1875 0.28125 0.375q0.203125 0.1875 0.484375 0.28125q0.296875 0.078125 0.921875 0.078125q0.484375 0 0.984375 -0.203125q0.515625 -0.203125 0.90625 -0.53125zm0 1.59375q-0.265625 0.1875 -0.65625 0.484375q-0.390625 0.28125 -0.75 0.4375q-0.484375 0.21875 -1.0 0.3125q-0.515625 0.109375 -1.140625 0.109375q-1.453125 0 -2.4375 -0.890625q-0.984375 -0.90625 -0.984375 -2.3125q0 -1.109375 0.5 -1.8125q0.5 -0.71875 1.421875 -1.140625q0.90625 -0.40625 2.25 -0.578125q1.359375 -0.171875 2.8125 -0.25l0 -0.0625q0 -0.84375 -0.703125 -1.15625q-0.6875 -0.328125 -2.03125 -0.328125q-0.8125 0 -1.734375 0.28125q-0.921875 0.28125 -1.3125 0.4375l-0.3125 0l0 -2.46875q0.53125 -0.125 1.6875 -0.3125q1.171875 -0.1875 2.359375 -0.1875q2.796875 0 4.03125 0.859375q1.2499847 0.859375 1.2499847 2.703125l0 6.953125l-3.2499847 0l0 -1.078125zm12.805527 0.984375q-0.53125 0.140625 -1.125 0.21875q-0.59375 0.078125 -1.453125 0.078125q-1.90625 0 -2.84375 -0.765625q-0.9375 -0.78125 -0.9375 -2.65625l0 -4.78125l-1.34375 0l0 -2.234375l1.34375 0l0 -2.921875l3.28125 0l0 2.921875l3.078125 0l0 2.234375l-3.078125 0l0 3.625q0 0.53125 0 0.9375q0.015625 0.390625 0.15625 0.71875q0.125 0.3125 0.453125 0.5q0.328125 0.1875 0.9375 0.1875q0.265625 0 0.671875 -0.109375q0.421875 -0.109375 0.578125 -0.203125l0.28125 0l0 2.25zm5.233551 0.09375l-3.28125 0l0 -10.234375l3.28125 0l0 10.234375zm0.09375 -11.6875l-3.46875 0l0 -2.484375l3.46875 0l0 2.484375zm13.454773 6.578125q0 2.515625 -1.46875 3.96875q-1.46875 1.453125 -4.125 1.453125q-2.65625 0 -4.140625 -1.453125q-1.46875 -1.453125 -1.46875 -3.96875q0 -2.546875 1.484375 -3.984375q1.484375 -1.453125 4.125 -1.453125q2.671875 0 4.125 1.453125q1.46875 1.453125 1.46875 3.984375zm-4.03125 2.484375q0.328125 -0.390625 0.484375 -0.9375q0.15625 -0.5625 0.15625 -1.53125q0 -0.90625 -0.171875 -1.515625q-0.15625 -0.609375 -0.453125 -0.96875q-0.28125 -0.375 -0.703125 -0.53125q-0.40625 -0.15625 -0.875 -0.15625q-0.46875 0 -0.84375 0.140625q-0.375 0.125 -0.703125 0.5q-0.296875 0.359375 -0.484375 0.984375q-0.171875 0.609375 -0.171875 1.546875q0 0.84375 0.15625 1.453125q0.15625 0.609375 0.453125 0.984375q0.28125 0.359375 0.6875 0.53125q0.40625 0.15625 0.9375 0.15625q0.4375 0 0.84375 -0.140625q0.40625 -0.15625 0.6875 -0.515625zm16.667328 2.625l-3.296875 0l0 -5.078125q0 -0.609375 -0.0625 -1.21875q-0.0625 -0.625 -0.21875 -0.921875q-0.1875 -0.328125 -0.546875 -0.484375q-0.34375 -0.15625 -0.96875 -0.15625q-0.453125 0 -0.921875 0.15625q-0.453125 0.140625 -0.984375 0.453125l0 7.25l-3.28125 0l0 -10.234375l3.28125 0l0 1.140625q0.875 -0.6875 1.671875 -1.046875q0.8125 -0.375 1.796875 -0.375q1.65625 0 2.59375 0.96875q0.9375 0.96875 0.9375 2.890625l0 6.65625zm16.464294 3.75l-3.4375 0q-1.75 -2.046875 -2.59375 -4.203125q-0.828125 -2.171875 -0.828125 -4.75q0 -2.578125 0.828125 -4.75q0.84375 -2.171875 2.59375 -4.21875l3.4375 0l0 0.265625q-0.734375 0.65625 -1.40625 1.5q-0.671875 0.84375 -1.25 1.96875q-0.546875 1.09375 -0.890625 2.421875q-0.328125 1.3125 -0.328125 2.8125q0 1.546875 0.328125 2.8125q0.328125 1.265625 0.890625 2.40625q0.546875 1.0625 1.234375 1.9375q0.6875 0.890625 1.421875 1.53125l0 0.265625zm15.545105 -17.3125l-4.953125 13.5625l-3.90625 0l-4.953125 -13.5625l3.671875 0l3.28125 9.53125l3.28125 -9.53125l3.578125 0zm8.591003 8.359375q0 2.578125 -0.84375 4.75q-0.828125 2.15625 -2.578125 4.203125l-3.4375 0l0 -0.265625q0.71875 -0.640625 1.40625 -1.515625q0.703125 -0.875 1.234375 -1.953125q0.578125 -1.140625 0.90625 -2.40625q0.328125 -1.265625 0.328125 -2.8125q0 -1.5 -0.34375 -2.8125q-0.34375 -1.328125 -0.890625 -2.421875q-0.5625 -1.125 -1.234375 -1.96875q-0.671875 -0.84375 -1.40625 -1.5l0 -0.265625l3.4375 0q1.75 2.046875 2.578125 4.21875q0.84375 2.171875 0.84375 4.75z" fill-rule="nonzero"/><path fill="#d9d9d9" d="m60.435696 110.990814l384.0 0l0 72.0l-384.0 0z" fill-rule="evenodd"/><path stroke="#000000" stroke-width="1.0" stroke-linejoin="round" stroke-linecap="butt" d="m60.435696 110.990814l384.0 0l0 72.0l-384.0 0z" fill-rule="evenodd"/><path fill="#000000" d="m206.56015 149.64519q0 2.0 -1.703125 3.265625q-1.703125 1.25 -4.609375 1.25q-1.6875 0 -2.9375 -0.296875q-1.25 -0.296875 -2.34375 -0.75l0 -3.25l0.375 0q1.078125 0.859375 2.421875 1.328125q1.34375 0.453125 2.59375 0.453125q0.3125 0 0.828125 -0.046875q0.53125 -0.0625 0.859375 -0.1875q0.390625 -0.15625 0.640625 -0.40625q0.265625 -0.25 0.265625 -0.734375q0 -0.4375 -0.375 -0.765625q-0.375 -0.328125 -1.109375 -0.5q-0.765625 -0.171875 -1.625 -0.328125q-0.84375 -0.171875 -1.578125 -0.40625q-1.71875 -0.5625 -2.46875 -1.515625q-0.75 -0.953125 -0.75 -2.359375q0 -1.90625 1.6875 -3.09375q1.703125 -1.203125 4.375 -1.203125q1.34375 0 2.640625 0.265625q1.3125 0.25 2.265625 0.640625l0 3.125l-0.375 0q-0.8125 -0.65625 -2.0 -1.09375q-1.1875 -0.4375 -2.4375 -0.4375q-0.421875 0 -0.859375 0.0625q-0.4375 0.046875 -0.84375 0.21875q-0.34375 0.140625 -0.609375 0.421875q-0.25 0.265625 -0.25 0.625q0 0.53125 0.40625 0.828125q0.421875 0.28125 1.546875 0.515625q0.75 0.15625 1.4375 0.3125q0.6875 0.140625 1.484375 0.390625q1.5625 0.515625 2.296875 1.390625q0.75 0.875 0.75 2.28125zm12.285568 -0.25l-7.5 0q0.0625 1.203125 0.90625 1.84375q0.84375 0.640625 2.484375 0.640625q1.03125 0 2.0 -0.375q0.984375 -0.375 1.546875 -0.796875l0.375 0l0 2.625q-1.109375 0.453125 -2.09375 0.640625q-0.984375 0.203125 -2.1875 0.203125q-3.078125 0 -4.71875 -1.375q-1.640625 -1.390625 -1.640625 -3.953125q0 -2.53125 1.546875 -4.0q1.5625 -1.484375 4.265625 -1.484375q2.5 0 3.75 1.265625q1.265625 1.25 1.265625 3.625l0 1.140625zm-3.265625 -1.921875q-0.03125 -1.015625 -0.515625 -1.53125q-0.46875 -0.53125 -1.5 -0.53125q-0.9375 0 -1.546875 0.5q-0.609375 0.484375 -0.6875 1.5625l4.25 0zm12.998291 -0.671875l-0.296875 0q-0.203125 -0.0625 -0.671875 -0.09375q-0.46875 -0.046875 -0.78125 -0.046875q-0.703125 0 -1.234375 0.09375q-0.53125 0.09375 -1.15625 0.3125l0 6.84375l-3.28125 0l0 -10.234375l3.28125 0l0 1.5q1.078125 -0.921875 1.875 -1.21875q0.8125 -0.3125 1.484375 -0.3125q0.171875 0 0.390625 0.015625q0.21875 0 0.390625 0.015625l0 3.125zm12.148468 -3.125l-3.9375 10.234375l-3.71875 0l-3.921875 -10.234375l3.484375 0l2.359375 7.03125l2.34375 -7.03125l3.390625 0zm5.1091156 10.234375l-3.28125 0l0 -10.234375l3.28125 0l0 10.234375zm0.09375 -11.6875l-3.46875 0l0 -2.484375l3.46875 0l0 2.484375zm8.329773 11.953125q-1.34375 0 -2.453125 -0.3125q-1.09375 -0.3125 -1.921875 -0.984375q-0.8125 -0.65625 -1.265625 -1.671875q-0.4375 -1.015625 -0.4375 -2.375q0 -1.421875 0.484375 -2.453125q0.484375 -1.046875 1.328125 -1.734375q0.828125 -0.640625 1.90625 -0.9375q1.09375 -0.3125 2.265625 -0.3125q1.046875 0 1.921875 0.234375q0.890625 0.21875 1.65625 0.59375l0 2.796875l-0.46875 0q-0.1875 -0.171875 -0.453125 -0.390625q-0.265625 -0.21875 -0.671875 -0.421875q-0.359375 -0.203125 -0.8125 -0.328125q-0.453125 -0.140625 -1.03125 -0.140625q-1.3125 0 -2.03125 0.84375q-0.703125 0.828125 -0.703125 2.25q0 1.484375 0.71875 2.25q0.734375 0.765625 2.0625 0.765625q0.625 0 1.109375 -0.140625q0.5 -0.140625 0.828125 -0.34375q0.3125 -0.171875 0.546875 -0.375q0.234375 -0.203125 0.4375 -0.390625l0.46875 0l0 2.796875q-0.78125 0.359375 -1.625 0.5625q-0.84375 0.21875 -1.859375 0.21875zm15.726929 -4.78125l-7.5 0q0.0625 1.203125 0.90625 1.84375q0.84375 0.640625 2.484375 0.640625q1.03125 0 2.0 -0.375q0.984375 -0.375 1.546875 -0.796875l0.375 0l0 2.625q-1.109375 0.453125 -2.09375 0.640625q-0.984375 0.203125 -2.1875 0.203125q-3.078125 0 -4.71875 -1.375q-1.640625 -1.390625 -1.640625 -3.953125q0 -2.53125 1.546875 -4.0q1.5625 -1.484375 4.265625 -1.484375q2.5 0 3.75 1.265625q1.265625 1.25 1.265625 3.625l0 1.140625zm-3.265625 -1.921875q-0.03125 -1.015625 -0.515625 -1.53125q-0.46875 -0.53125 -1.5 -0.53125q-0.9375 0 -1.546875 0.5q-0.609375 0.484375 -0.6875 1.5625l4.25 0zm19.031189 10.1875l-3.4375 0q-1.75 -2.046875 -2.59375 -4.203125q-0.828125 -2.171875 -0.828125 -4.75q0 -2.578125 0.828125 -4.75q0.84375 -2.171875 2.59375 -4.21875l3.4375 0l0 0.265625q-0.734375 0.65625 -1.40625 1.5q-0.671875 0.84375 -1.25 1.96875q-0.546875 1.09375 -0.890625 2.421875q-0.328125 1.3125 -0.328125 2.8125q0 1.546875 0.328125 2.8125q0.328125 1.265625 0.890625 2.40625q0.546875 1.0625 1.234375 1.9375q0.6875 0.890625 1.421875 1.53125l0 0.265625zm9.3732605 -3.484375q-1.515625 0 -2.796875 -0.4375q-1.265625 -0.453125 -2.1875 -1.34375q-0.921875 -0.875 -1.4375 -2.1875q-0.5 -1.328125 -0.5 -3.0625q0 -1.609375 0.484375 -2.921875q0.484375 -1.3125 1.40625 -2.25q0.875 -0.90625 2.1875 -1.390625q1.3125 -0.5 2.859375 -0.5q0.859375 0 1.546875 0.09375q0.6875 0.09375 1.265625 0.25q0.609375 0.171875 1.09375 0.390625q0.5 0.21875 0.875 0.390625l0 3.296875l-0.390625 0q-0.265625 -0.21875 -0.65625 -0.515625q-0.375 -0.3125 -0.875 -0.59375q-0.5 -0.296875 -1.078125 -0.5q-0.578125 -0.203125 -1.25 -0.203125q-0.734375 0 -1.40625 0.234375q-0.65625 0.234375 -1.21875 0.765625q-0.546875 0.53125 -0.875 1.390625q-0.328125 0.84375 -0.328125 2.0625q0 1.28125 0.359375 2.140625q0.359375 0.859375 0.90625 1.34375q0.546875 0.5 1.234375 0.71875q0.6875 0.21875 1.34375 0.21875q0.640625 0 1.265625 -0.1875q0.625 -0.203125 1.15625 -0.53125q0.4375 -0.265625 0.8125 -0.5625q0.390625 -0.296875 0.640625 -0.515625l0.359375 0l0 3.234375q-0.5 0.234375 -0.96875 0.4375q-0.46875 0.203125 -0.96875 0.34375q-0.671875 0.1875 -1.265625 0.28125q-0.578125 0.109375 -1.59375 0.109375zm14.0159 -5.46875q0 2.578125 -0.84375 4.75q-0.828125 2.15625 -2.578125 4.203125l-3.4375 0l0 -0.265625q0.71875 -0.640625 1.40625 -1.515625q0.703125 -0.875 1.234375 -1.953125q0.578125 -1.140625 0.90625 -2.40625q0.328125 -1.265625 0.328125 -2.8125q0 -1.5 -0.34375 -2.8125q-0.34375 -1.328125 -0.890625 -2.421875q-0.5625 -1.125 -1.234375 -1.96875q-0.671875 -0.84375 -1.40625 -1.5l0 -0.265625l3.4375 0q1.75 2.046875 2.578125 4.21875q0.84375 2.171875 0.84375 4.75z" fill-rule="nonzero"/><path fill="#d9d9d9" d="m108.43569 209.82545l288.0 0l0 72.000015l-288.0 0z" fill-rule="evenodd"/><path stroke="#000000" stroke-width="1.0" stroke-linejoin="round" stroke-linecap="butt" d="m108.43569 209.82545l288.0 0l0 72.000015l-288.0 0z" fill-rule="evenodd"/><path fill="#000000" d="m182.7015 245.97983q0 1.890625 -0.875 3.390625q-0.859375 1.5 -2.171875 2.296875q-1.0 0.609375 -2.1875 0.84375q-1.171875 0.234375 -2.796875 0.234375l-4.78125 0l0 -13.5625l4.921875 0q1.65625 0 2.859375 0.28125q1.203125 0.265625 2.015625 0.78125q1.40625 0.859375 2.203125 2.3125q0.8125 1.453125 0.8125 3.421875zm-3.609375 -0.03125q0 -1.34375 -0.5 -2.28125q-0.484375 -0.953125 -1.53125 -1.5q-0.546875 -0.265625 -1.109375 -0.359375q-0.5625 -0.09375 -1.6875 -0.09375l-0.875 0l0 8.484375l0.875 0q1.25 0 1.828125 -0.109375q0.59375 -0.109375 1.140625 -0.40625q0.953125 -0.546875 1.40625 -1.46875q0.453125 -0.921875 0.453125 -2.265625zm12.298645 4.125l0 -2.125q-0.671875 0.046875 -1.453125 0.140625q-0.765625 0.09375 -1.171875 0.234375q-0.484375 0.15625 -0.75 0.453125q-0.25 0.28125 -0.25 0.765625q0 0.328125 0.046875 0.53125q0.0625 0.1875 0.28125 0.375q0.203125 0.1875 0.484375 0.28125q0.296875 0.078125 0.921875 0.078125q0.484375 0 0.984375 -0.203125q0.515625 -0.203125 0.90625 -0.53125zm0 1.59375q-0.265625 0.1875 -0.65625 0.484375q-0.390625 0.28125 -0.75 0.4375q-0.484375 0.21875 -1.0 0.3125q-0.515625 0.109375 -1.140625 0.109375q-1.453125 0 -2.4375 -0.890625q-0.984375 -0.90625 -0.984375 -2.3125q0 -1.109375 0.5 -1.8125q0.5 -0.71875 1.421875 -1.140625q0.90625 -0.40625 2.25 -0.578125q1.359375 -0.171875 2.8125 -0.25l0 -0.0625q0 -0.84375 -0.703125 -1.15625q-0.6875 -0.328125 -2.03125 -0.328125q-0.8125 0 -1.734375 0.28125q-0.921875 0.28125 -1.3125 0.4375l-0.3125 0l0 -2.46875q0.53125 -0.125 1.6875 -0.3125q1.171875 -0.1875 2.359375 -0.1875q2.796875 0 4.03125 0.859375q1.25 0.859375 1.25 2.703125l0 6.953125l-3.25 0l0 -1.078125zm12.805542 0.984375q-0.53125 0.140625 -1.125 0.21875q-0.59375 0.078125 -1.453125 0.078125q-1.90625 0 -2.84375 -0.765625q-0.9375 -0.78125 -0.9375 -2.65625l0 -4.78125l-1.34375 0l0 -2.234375l1.34375 0l0 -2.921875l3.28125 0l0 2.921875l3.078125 0l0 2.234375l-3.078125 0l0 3.625q0 0.53125 0 0.9375q0.015625 0.390625 0.15625 0.71875q0.125 0.3125 0.453125 0.5q0.328125 0.1875 0.9375 0.1875q0.265625 0 0.671875 -0.109375q0.421875 -0.109375 0.578125 -0.203125l0.28125 0l0 2.25zm8.155411 -2.578125l0 -2.125q-0.671875 0.046875 -1.453125 0.140625q-0.765625 0.09375 -1.171875 0.234375q-0.484375 0.15625 -0.75 0.453125q-0.25 0.28125 -0.25 0.765625q0 0.328125 0.046875 0.53125q0.0625 0.1875 0.28125 0.375q0.203125 0.1875 0.484375 0.28125q0.296875 0.078125 0.921875 0.078125q0.484375 0 0.984375 -0.203125q0.515625 -0.203125 0.90625 -0.53125zm0 1.59375q-0.265625 0.1875 -0.65625 0.484375q-0.390625 0.28125 -0.75 0.4375q-0.484375 0.21875 -1.0 0.3125q-0.515625 0.109375 -1.140625 0.109375q-1.453125 0 -2.4375 -0.890625q-0.984375 -0.90625 -0.984375 -2.3125q0 -1.109375 0.5 -1.8125q0.5 -0.71875 1.421875 -1.140625q0.90625 -0.40625 2.25 -0.578125q1.359375 -0.171875 2.8125 -0.25l0 -0.0625q0 -0.84375 -0.703125 -1.15625q-0.6875 -0.328125 -2.03125 -0.328125q-0.8125 0 -1.734375 0.28125q-0.921875 0.28125 -1.3125 0.4375l-0.3125 0l0 -2.46875q0.53125 -0.125 1.6875 -0.3125q1.171875 -0.1875 2.359375 -0.1875q2.796875 0 4.03125 0.859375q1.25 0.859375 1.25 2.703125l0 6.953125l-3.25 0l0 -1.078125zm18.83844 -1.59375l0 -2.125q-0.671875 0.046875 -1.453125 0.140625q-0.765625 0.09375 -1.171875 0.234375q-0.484375 0.15625 -0.75 0.453125q-0.25 0.28125 -0.25 0.765625q0 0.328125 0.046875 0.53125q0.0625 0.1875 0.28125 0.375q0.203125 0.1875 0.484375 0.28125q0.296875 0.078125 0.921875 0.078125q0.484375 0 0.984375 -0.203125q0.515625 -0.203125 0.90625 -0.53125zm0 1.59375q-0.265625 0.1875 -0.65625 0.484375q-0.390625 0.28125 -0.75 0.4375q-0.484375 0.21875 -1.0 0.3125q-0.515625 0.109375 -1.140625 0.109375q-1.453125 0 -2.4375 -0.890625q-0.984375 -0.90625 -0.984375 -2.3125q0 -1.109375 0.5 -1.8125q0.5 -0.71875 1.421875 -1.140625q0.90625 -0.40625 2.25 -0.578125q1.359375 -0.171875 2.8125 -0.25l0 -0.0625q0 -0.84375 -0.703125 -1.15625q-0.6875 -0.328125 -2.03125 -0.328125q-0.8125 0 -1.734375 0.28125q-0.921875 0.28125 -1.3125 0.4375l-0.3125 0l0 -2.46875q0.53125 -0.125 1.6875 -0.3125q1.171875 -0.1875 2.359375 -0.1875q2.796875 0 4.03125 0.859375q1.25 0.859375 1.25 2.703125l0 6.953125l-3.25 0l0 -1.078125zm11.586792 1.34375q-1.34375 0 -2.453125 -0.3125q-1.09375 -0.3125 -1.921875 -0.984375q-0.8125 -0.65625 -1.265625 -1.671875q-0.4375 -1.015625 -0.4375 -2.375q0 -1.421875 0.484375 -2.453125q0.484375 -1.046875 1.328125 -1.734375q0.828125 -0.640625 1.90625 -0.9375q1.09375 -0.3125 2.265625 -0.3125q1.046875 0 1.921875 0.234375q0.890625 0.21875 1.65625 0.59375l0 2.796875l-0.46875 0q-0.1875 -0.171875 -0.453125 -0.390625q-0.265625 -0.21875 -0.671875 -0.421875q-0.359375 -0.203125 -0.8125 -0.328125q-0.453125 -0.140625 -1.03125 -0.140625q-1.3125 0 -2.03125 0.84375q-0.703125 0.828125 -0.703125 2.25q0 1.484375 0.71875 2.25q0.734375 0.765625 2.0625 0.765625q0.625 0 1.109375 -0.140625q0.5 -0.140625 0.828125 -0.34375q0.3125 -0.171875 0.546875 -0.375q0.234375 -0.203125 0.4375 -0.390625l0.46875 0l0 2.796875q-0.78125 0.359375 -1.625 0.5625q-0.84375 0.21875 -1.859375 0.21875zm10.976944 0q-1.34375 0 -2.453125 -0.3125q-1.09375 -0.3125 -1.921875 -0.984375q-0.8125 -0.65625 -1.265625 -1.671875q-0.4375 -1.015625 -0.4375 -2.375q0 -1.421875 0.484375 -2.453125q0.484375 -1.046875 1.328125 -1.734375q0.828125 -0.640625 1.90625 -0.9375q1.09375 -0.3125 2.265625 -0.3125q1.046875 0 1.921875 0.234375q0.890625 0.21875 1.65625 0.59375l0 2.796875l-0.46875 0q-0.1875 -0.171875 -0.453125 -0.390625q-0.265625 -0.21875 -0.671875 -0.421875q-0.359375 -0.203125 -0.8125 -0.328125q-0.453125 -0.140625 -1.03125 -0.140625q-1.3125 0 -2.03125 0.84375q-0.703125 0.828125 -0.703125 2.25q0 1.484375 0.71875 2.25q0.734375 0.765625 2.0625 0.765625q0.625 0 1.109375 -0.140625q0.5 -0.140625 0.828125 -0.34375q0.3125 -0.171875 0.546875 -0.375q0.234375 -0.203125 0.4375 -0.390625l0.46875 0l0 2.796875q-0.78125 0.359375 -1.625 0.5625q-0.84375 0.21875 -1.859375 0.21875zm15.726929 -4.78125l-7.5 0q0.0625 1.203125 0.90625 1.84375q0.84375 0.640625 2.484375 0.640625q1.03125 0 2.0 -0.375q0.984375 -0.375 1.546875 -0.796875l0.375 0l0 2.625q-1.109375 0.453125 -2.09375 0.640625q-0.984375 0.203125 -2.1875 0.203125q-3.078125 0 -4.71875 -1.375q-1.640625 -1.390625 -1.640625 -3.953125q0 -2.53125 1.546875 -4.0q1.5625 -1.484375 4.265625 -1.484375q2.5 0 3.75 1.265625q1.265625 1.25 1.265625 3.625l0 1.140625zm-3.265625 -1.921875q-0.03125 -1.015625 -0.515625 -1.53125q-0.46875 -0.53125 -1.5 -0.53125q-0.9375 0 -1.546875 0.5q-0.609375 0.484375 -0.6875 1.5625l4.25 0zm14.467041 3.1875q0 1.59375 -1.421875 2.5625q-1.421875 0.96875 -3.890625 0.96875q-1.359375 0 -2.46875 -0.265625q-1.109375 -0.25 -1.796875 -0.546875l0 -2.703125l0.3125 0q0.234375 0.171875 0.5625 0.375q0.328125 0.203125 0.921875 0.453125q0.5 0.203125 1.140625 0.359375q0.65625 0.140625 1.390625 0.140625q0.96875 0 1.4375 -0.203125q0.46875 -0.21875 0.46875 -0.640625q0 -0.375 -0.28125 -0.546875q-0.265625 -0.171875 -1.03125 -0.3125q-0.375 -0.09375 -1.0 -0.1875q-0.625 -0.09375 -1.125 -0.234375q-1.390625 -0.359375 -2.078125 -1.125q-0.671875 -0.78125 -0.671875 -1.921875q0 -1.46875 1.390625 -2.453125q1.40625 -0.984375 3.828125 -0.984375q1.15625 0 2.203125 0.234375q1.046875 0.234375 1.640625 0.5l0 2.578125l-0.28125 0q-0.71875 -0.5 -1.65625 -0.8125q-0.9375 -0.3125 -1.890625 -0.3125q-0.796875 0 -1.34375 0.21875q-0.53125 0.21875 -0.53125 0.625q0 0.359375 0.234375 0.5625q0.25 0.1875 1.171875 0.375q0.5 0.09375 1.078125 0.1875q0.578125 0.09375 1.15625 0.25q1.296875 0.328125 1.90625 1.0625q0.625 0.71875 0.625 1.796875zm11.068054 0q0 1.59375 -1.421875 2.5625q-1.421875 0.96875 -3.890625 0.96875q-1.359375 0 -2.46875 -0.265625q-1.109375 -0.25 -1.796875 -0.546875l0 -2.703125l0.3125 0q0.234375 0.171875 0.5625 0.375q0.328125 0.203125 0.921875 0.453125q0.5 0.203125 1.140625 0.359375q0.65625 0.140625 1.390625 0.140625q0.96875 0 1.4375 -0.203125q0.46875 -0.21875 0.46875 -0.640625q0 -0.375 -0.28125 -0.546875q-0.265625 -0.171875 -1.03125 -0.3125q-0.375 -0.09375 -1.0 -0.1875q-0.625 -0.09375 -1.125 -0.234375q-1.390625 -0.359375 -2.078125 -1.125q-0.671875 -0.78125 -0.671875 -1.921875q0 -1.46875 1.390625 -2.453125q1.40625 -0.984375 3.828125 -0.984375q1.15625 0 2.203125 0.234375q1.046875 0.234375 1.640625 0.5l0 2.578125l-0.28125 0q-0.71875 -0.5 -1.65625 -0.8125q-0.9375 -0.3125 -1.890625 -0.3125q-0.796875 0 -1.34375 0.21875q-0.53125 0.21875 -0.53125 0.625q0 0.359375 0.234375 0.5625q0.25 0.1875 1.171875 0.375q0.5 0.09375 1.078125 0.1875q0.578125 0.09375 1.15625 0.25q1.296875 0.328125 1.90625 1.0625q0.625 0.71875 0.625 1.796875zm15.632172 7.0l-3.4375 0q-1.75 -2.046875 -2.59375 -4.203125q-0.828125 -2.171875 -0.828125 -4.75q0 -2.578125 0.828125 -4.75q0.84375 -2.171875 2.59375 -4.21875l3.4375 0l0 0.265625q-0.734375 0.65625 -1.40625 1.5q-0.671875 0.84375 -1.25 1.96875q-0.546875 1.09375 -0.890625 2.421875q-0.328125 1.3125 -0.328125 2.8125q0 1.546875 0.328125 2.8125q0.328125 1.265625 0.890625 2.40625q0.546875 1.0625 1.234375 1.9375q0.6875 0.890625 1.421875 1.53125l0 0.265625zm17.46701 -3.75l-3.484375 0l0 -9.078125l-2.515625 5.890625l-2.40625 0l-2.515625 -5.890625l0 9.078125l-3.296875 0l0 -13.5625l4.0625 0l3.046875 6.796875l3.046875 -6.796875l4.0625 0l0 13.5625zm10.103394 -5.203125q0 2.578125 -0.84375 4.75q-0.828125 2.15625 -2.578125 4.203125l-3.4375 0l0 -0.265625q0.71875 -0.640625 1.40625 -1.515625q0.703125 -0.875 1.234375 -1.953125q0.578125 -1.140625 0.90625 -2.40625q0.328125 -1.265625 0.328125 -2.8125q0 -1.5 -0.34375 -2.8125q-0.34375 -1.328125 -0.890625 -2.421875q-0.5625 -1.125 -1.234375 -1.96875q-0.671875 -0.84375 -1.40625 -1.5l0 -0.265625l3.4375 0q1.75 2.046875 2.578125 4.21875q0.84375 2.171875 0.84375 4.75z" fill-rule="nonzero"/><path fill="#c9daf8" d="m13.534409 308.6601l227.91463 0l0 72.0l-227.91463 0z" fill-rule="evenodd"/><path stroke="#000000" stroke-width="1.0" stroke-linejoin="round" stroke-linecap="butt" d="m13.534409 308.6601l227.91463 0l0 72.0l-227.91463 0z" fill-rule="evenodd"/><path fill="#000000" d="m82.21653 344.81448q0 1.890625 -0.875 3.390625q-0.859375 1.5 -2.171875 2.296875q-1.0 0.609375 -2.1875 0.84375q-1.171875 0.234375 -2.796875 0.234375l-4.78125 0l0 -13.5625l4.921875 0q1.65625 0 2.859375 0.28125q1.203125 0.265625 2.015625 0.78125q1.40625 0.859375 2.203125 2.3125q0.8125 1.453125 0.8125 3.421875zm-3.609375 -0.03125q0 -1.34375 -0.5 -2.28125q-0.484375 -0.953125 -1.53125 -1.5q-0.546875 -0.265625 -1.109375 -0.359375q-0.5625 -0.09375 -1.6875 -0.09375l-0.875 0l0 8.484375l0.875 0q1.25 0 1.828125 -0.109375q0.59375 -0.109375 1.140625 -0.40625q0.953125 -0.546875 1.40625 -1.46875q0.453125 -0.921875 0.453125 -2.265625zm12.298645 4.125l0 -2.125q-0.671875 0.046875 -1.453125 0.140625q-0.765625 0.09375 -1.171875 0.234375q-0.484375 0.15625 -0.75 0.453125q-0.25 0.28125 -0.25 0.765625q0 0.328125 0.046875 0.53125q0.0625 0.1875 0.28125 0.375q0.203125 0.1875 0.484375 0.28125q0.296875 0.078125 0.921875 0.078125q0.484375 0 0.984375 -0.203125q0.515625 -0.203125 0.90625 -0.53125zm0 1.59375q-0.265625 0.1875 -0.65625 0.484375q-0.390625 0.28125 -0.75 0.4375q-0.484375 0.21875 -1.0 0.3125q-0.515625 0.109375 -1.140625 0.109375q-1.453125 0 -2.4375 -0.890625q-0.984375 -0.90625 -0.984375 -2.3125q0 -1.109375 0.5 -1.8125q0.5 -0.71875 1.421875 -1.140625q0.90625 -0.40625 2.25 -0.578125q1.359375 -0.171875 2.8125 -0.25l0 -0.0625q0 -0.84375 -0.703125 -1.15625q-0.6875 -0.328125 -2.03125 -0.328125q-0.8125 0 -1.734375 0.28125q-0.921875 0.28125 -1.3125 0.4375l-0.3125 0l0 -2.46875q0.53125 -0.125 1.6875 -0.3125q1.171875 -0.1875 2.359375 -0.1875q2.796875 0 4.03125 0.859375q1.25 0.859375 1.25 2.703125l0 6.953125l-3.25 0l0 -1.078125zm12.805542 0.984375q-0.53125 0.140625 -1.125 0.21875q-0.59375 0.078125 -1.453125 0.078125q-1.90625 0 -2.84375 -0.765625q-0.9375 -0.78125 -0.9375 -2.65625l0 -4.78125l-1.34375 0l0 -2.234375l1.34375 0l0 -2.921875l3.28125 0l0 2.921875l3.078125 0l0 2.234375l-3.078125 0l0 3.625q0 0.53125 0 0.9375q0.015625 0.390625 0.15625 0.71875q0.125 0.3125 0.453125 0.5q0.328125 0.1875 0.9375 0.1875q0.265625 0 0.671875 -0.109375q0.421875 -0.109375 0.578125 -0.203125l0.28125 0l0 2.25zm8.155411 -2.578125l0 -2.125q-0.671875 0.046875 -1.453125 0.140625q-0.765625 0.09375 -1.171875 0.234375q-0.484375 0.15625 -0.75 0.453125q-0.25 0.28125 -0.25 0.765625q0 0.328125 0.046875 0.53125q0.0625 0.1875 0.28125 0.375q0.203125 0.1875 0.484375 0.28125q0.296875 0.078125 0.921875 0.078125q0.484375 0 0.984375 -0.203125q0.515625 -0.203125 0.90625 -0.53125zm0 1.59375q-0.265625 0.1875 -0.65625 0.484375q-0.390625 0.28125 -0.75 0.4375q-0.484375 0.21875 -1.0 0.3125q-0.515625 0.109375 -1.140625 0.109375q-1.453125 0 -2.4375 -0.890625q-0.984375 -0.90625 -0.984375 -2.3125q0 -1.109375 0.5 -1.8125q0.5 -0.71875 1.421875 -1.140625q0.90625 -0.40625 2.25 -0.578125q1.359375 -0.171875 2.8125 -0.25l0 -0.0625q0 -0.84375 -0.703125 -1.15625q-0.6875 -0.328125 -2.03125 -0.328125q-0.8125 0 -1.734375 0.28125q-0.921875 0.28125 -1.3125 0.4375l-0.3125 0l0 -2.46875q0.53125 -0.125 1.6875 -0.3125q1.171875 -0.1875 2.359375 -0.1875q2.796875 0 4.03125 0.859375q1.25 0.859375 1.25 2.703125l0 6.953125l-3.25 0l0 -1.078125zm22.635323 -6.171875l0 7.25l-3.296875 0l0 -5.109375q0 -0.75 -0.03125 -1.265625q-0.03125 -0.53125 -0.203125 -0.859375q-0.15625 -0.328125 -0.5 -0.46875q-0.328125 -0.15625 -0.921875 -0.15625q-0.484375 0 -0.953125 0.203125q-0.453125 0.1875 -0.8125076 0.40625l0 7.25l-3.28125 0l0 -10.234375l3.28125 0l0 1.140625q0.8437576 -0.671875 1.6093826 -1.046875q0.78125 -0.375 1.71875 -0.375q1.015625 0 1.78125 0.453125q0.78125 0.453125 1.21875 1.328125q0.984375 -0.828125 1.90625 -1.296875q0.9375 -0.484375 1.828125 -0.484375q1.65625 0 2.515625 1.0q0.875 0.984375 0.875 2.859375l0 6.65625l-3.3125 0l0 -5.109375q0 -0.75 -0.03125 -1.265625q-0.03125 -0.53125 -0.1875 -0.859375q-0.15625 -0.328125 -0.5 -0.46875q-0.328125 -0.15625 -0.9375 -0.15625q-0.40625 0 -0.8125 0.140625q-0.390625 0.140625 -0.953125 0.46875zm20.193405 2.140625q0 2.515625 -1.46875 3.96875q-1.46875 1.453125 -4.125 1.453125q-2.65625 0 -4.140625 -1.453125q-1.46875 -1.453125 -1.46875 -3.96875q0 -2.546875 1.484375 -3.984375q1.484375 -1.453125 4.125 -1.453125q2.671875 0 4.125 1.453125q1.46875 1.453125 1.46875 3.984375zm-4.03125 2.484375q0.328125 -0.390625 0.484375 -0.9375q0.15625 -0.5625 0.15625 -1.53125q0 -0.90625 -0.171875 -1.515625q-0.15625 -0.609375 -0.453125 -0.96875q-0.28125 -0.375 -0.703125 -0.53125q-0.40625 -0.15625 -0.875 -0.15625q-0.46875 0 -0.84375 0.140625q-0.375 0.125 -0.703125 0.5q-0.296875 0.359375 -0.484375 0.984375q-0.171875 0.609375 -0.171875 1.546875q0 0.84375 0.15625 1.453125q0.15625 0.609375 0.453125 0.984375q0.28125 0.359375 0.6875 0.53125q0.40625 0.15625 0.9375 0.15625q0.4375 0 0.84375 -0.140625q0.40625 -0.15625 0.6875 -0.515625zm16.339203 2.625l-3.28125 0l0 -1.0625q-0.84375 0.6875 -1.59375 1.015625q-0.734375 0.328125 -1.703125 0.328125q-1.859375 0 -2.984375 -1.4375q-1.125 -1.4375 -1.125 -3.875q0 -1.3125 0.375 -2.3125q0.390625 -1.015625 1.046875 -1.734375q0.609375 -0.671875 1.5 -1.046875q0.890625 -0.390625 1.765625 -0.390625q0.921875 0 1.5 0.203125q0.59375 0.1875 1.21875 0.5l0 -4.359375l3.28125 0l0 14.171875zm-3.28125 -2.828125l0 -5.015625q-0.34375 -0.140625 -0.734375 -0.203125q-0.375 -0.0625 -0.703125 -0.0625q-1.28125 0 -1.9375 0.8125q-0.640625 0.796875 -0.640625 2.21875q0 1.5 0.515625 2.1875q0.515625 0.671875 1.671875 0.671875q0.4375 0 0.9375 -0.15625q0.5 -0.171875 0.890625 -0.453125zm16.45105 -1.6875l-7.5 0q0.0625 1.203125 0.90625 1.84375q0.84375 0.640625 2.484375 0.640625q1.03125 0 2.0 -0.375q0.984375 -0.375 1.546875 -0.796875l0.375 0l0 2.625q-1.109375 0.453125 -2.09375 0.640625q-0.984375 0.203125 -2.1875 0.203125q-3.078125 0 -4.71875 -1.375q-1.640625 -1.390625 -1.640625 -3.953125q0 -2.53125 1.546875 -4.0q1.5625 -1.484375 4.265625 -1.484375q2.5 0 3.75 1.265625q1.265625 1.25 1.265625 3.625l0 1.140625zm-3.265625 -1.921875q-0.03125 -1.015625 -0.515625 -1.53125q-0.46875 -0.53125 -1.5 -0.53125q-0.9375 0 -1.546875 0.5q-0.609375 0.484375 -0.6875 1.5625l4.25 0zm8.857666 6.4375l-3.28125 0l0 -14.171875l3.28125 0l0 14.171875z" fill-rule="nonzero"/><path fill="#c9daf8" d="m264.92914 308.6601l227.50705 0l0 72.0l-227.50705 0z" fill-rule="evenodd"/><path stroke="#000000" stroke-width="1.0" stroke-linejoin="round" stroke-linecap="butt" d="m264.92914 308.6601l227.50705 0l0 72.0l-227.50705 0z" fill-rule="evenodd"/><path fill="#000000" d="m351.73654 346.67386q0 2.515625 -1.53125 3.859375q-1.53125 1.328125 -4.515625 1.328125q-2.96875 0 -4.5 -1.328125q-1.515625 -1.34375 -1.515625 -3.859375l0 -8.65625l3.515625 0l0 8.46875q0 1.40625 0.578125 2.09375q0.59375 0.6875 1.921875 0.6875q1.3125 0 1.921875 -0.65625q0.609375 -0.671875 0.609375 -2.125l0 -8.46875l3.515625 0l0 8.65625zm9.633484 4.8125q-0.53125 0.140625 -1.125 0.21875q-0.59375 0.078125 -1.453125 0.078125q-1.90625 0 -2.84375 -0.765625q-0.9375 -0.78125 -0.9375 -2.65625l0 -4.78125l-1.34375 0l0 -2.234375l1.34375 0l0 -2.921875l3.28125 0l0 2.921875l3.078125 0l0 2.234375l-3.078125 0l0 3.625q0 0.53125 0 0.9375q0.015625 0.390625 0.15625 0.71875q0.125 0.3125 0.453125 0.5q0.328125 0.1875 0.9375 0.1875q0.265625 0 0.671875 -0.109375q0.421875 -0.109375 0.578125 -0.203125l0.28125 0l0 2.25zm5.2335205 0.09375l-3.28125 0l0 -10.234375l3.28125 0l0 10.234375zm0.09375 -11.6875l-3.46875 0l0 -2.484375l3.46875 0l0 2.484375zm6.282898 11.6875l-3.28125 0l0 -14.171875l3.28125 0l0 14.171875zm6.376648 0l-3.28125 0l0 -10.234375l3.28125 0l0 10.234375zm0.09375 -11.6875l-3.46875 0l0 -2.484375l3.46875 0l0 2.484375zm9.548523 11.59375q-0.53125 0.140625 -1.125 0.21875q-0.59375 0.078125 -1.453125 0.078125q-1.90625 0 -2.84375 -0.765625q-0.9375 -0.78125 -0.9375 -2.65625l0 -4.78125l-1.34375 0l0 -2.234375l1.34375 0l0 -2.921875l3.28125 0l0 2.921875l3.078125 0l0 2.234375l-3.078125 0l0 3.625q0 0.53125 0 0.9375q0.015625 0.390625 0.15625 0.71875q0.125 0.3125 0.453125 0.5q0.328125 0.1875 0.9375 0.1875q0.265625 0 0.671875 -0.109375q0.421875 -0.109375 0.578125 -0.203125l0.28125 0l0 2.25zm5.233551 0.09375l-3.28125 0l0 -10.234375l3.28125 0l0 10.234375zm0.09375 -11.6875l-3.46875 0l0 -2.484375l3.46875 0l0 2.484375zm13.079773 7.171875l-7.5 0q0.0625 1.203125 0.90625 1.84375q0.84375 0.640625 2.484375 0.640625q1.03125 0 2.0 -0.375q0.984375 -0.375 1.546875 -0.796875l0.375 0l0 2.625q-1.109375 0.453125 -2.09375 0.640625q-0.984375 0.203125 -2.1875 0.203125q-3.078125 0 -4.71875 -1.375q-1.640625 -1.390625 -1.640625 -3.953125q0 -2.53125 1.546875 -4.0q1.5625 -1.484375 4.265625 -1.484375q2.5 0 3.75 1.265625q1.265625 1.25 1.265625 3.625l0 1.140625zm-3.265625 -1.921875q-0.03125 -1.015625 -0.515625 -1.53125q-0.46875 -0.53125 -1.5 -0.53125q-0.9375 0 -1.546875 0.5q-0.609375 0.484375 -0.6875 1.5625l4.25 0zm14.467041 3.1875q0 1.59375 -1.421875 2.5625q-1.421875 0.96875 -3.890625 0.96875q-1.359375 0 -2.46875 -0.265625q-1.109375 -0.25 -1.796875 -0.546875l0 -2.703125l0.3125 0q0.234375 0.171875 0.5625 0.375q0.328125 0.203125 0.921875 0.453125q0.5 0.203125 1.140625 0.359375q0.65625 0.140625 1.390625 0.140625q0.96875 0 1.4375 -0.203125q0.46875 -0.21875 0.46875 -0.640625q0 -0.375 -0.28125 -0.546875q-0.265625 -0.171875 -1.03125 -0.3125q-0.375 -0.09375 -1.0 -0.1875q-0.625 -0.09375 -1.125 -0.234375q-1.390625 -0.359375 -2.078125 -1.125q-0.671875 -0.78125 -0.671875 -1.921875q0 -1.46875 1.390625 -2.453125q1.40625 -0.984375 3.828125 -0.984375q1.15625 0 2.203125 0.234375q1.046875 0.234375 1.640625 0.5l0 2.578125l-0.28125 0q-0.71875 -0.5 -1.65625 -0.8125q-0.9375 -0.3125 -1.890625 -0.3125q-0.796875 0 -1.34375 0.21875q-0.53125 0.21875 -0.53125 0.625q0 0.359375 0.234375 0.5625q0.25 0.1875 1.171875 0.375q0.5 0.09375 1.078125 0.1875q0.578125 0.09375 1.15625 0.25q1.296875 0.328125 1.90625 1.0625q0.625 0.71875 0.625 1.796875z" fill-rule="nonzero"/><path fill="#000000" fill-opacity="0.0" d="m252.4357 182.99081l0 26.83464" fill-rule="evenodd"/><path stroke="#000000" stroke-width="2.0" stroke-linejoin="round" stroke-linecap="butt" d="m252.4357 182.99081l0 14.8346405" fill-rule="evenodd"/><path fill="#000000" stroke="#000000" stroke-width="2.0" stroke-linecap="butt" d="m249.13223 197.82545l3.3034668 9.076202l3.3034668 -9.076202z" fill-rule="evenodd"/><path fill="#000000" fill-opacity="0.0" d="m252.4357 84.156166l0 26.834648" fill-rule="evenodd"/><path stroke="#000000" stroke-width="2.0" stroke-linejoin="round" stroke-linecap="butt" d="m252.4357 84.156166l0 14.834648" fill-rule="evenodd"/><path fill="#000000" stroke="#000000" stroke-width="2.0" stroke-linecap="butt" d="m249.13223 98.990814l3.3034668 9.076195l3.3034668 -9.076195z" fill-rule="evenodd"/><path fill="#000000" fill-opacity="0.0" d="m36.89501 84.80971l0 224.50395" fill-rule="evenodd"/><path stroke="#000000" stroke-width="2.0" stroke-linejoin="round" stroke-linecap="butt" d="m36.89501 84.80971l0 212.50395" fill-rule="evenodd"/><path fill="#000000" stroke="#000000" stroke-width="2.0" stroke-linecap="butt" d="m33.59155 297.31366l3.303463 9.076172l3.3034668 -9.076172z" fill-rule="evenodd"/><path fill="#000000" fill-opacity="0.0" d="m84.120735 183.6181l0 125.700806" fill-rule="evenodd"/><path stroke="#000000" stroke-width="2.0" stroke-linejoin="round" stroke-linecap="butt" d="m84.120735 183.6181l0 113.700806" fill-rule="evenodd"/><path fill="#000000" stroke="#000000" stroke-width="2.0" stroke-linecap="butt" d="m80.81727 297.3189l3.3034668 9.076172l3.3034668 -9.076172z" fill-rule="evenodd"/><path fill="#000000" fill-opacity="0.0" d="m132.4357 282.4265l0 26.897644" fill-rule="evenodd"/><path stroke="#000000" stroke-width="2.0" stroke-linejoin="round" stroke-linecap="butt" d="m132.4357 282.4265l0 14.897644" fill-rule="evenodd"/><path fill="#000000" stroke="#000000" stroke-width="2.0" stroke-linecap="butt" d="m129.13223 297.32416l3.3034668 9.076172l3.3034668 -9.076172z" fill-rule="evenodd"/><path fill="#000000" fill-opacity="0.0" d="m467.61417 84.15092l0 224.50394" fill-rule="evenodd"/><path stroke="#000000" stroke-width="2.0" stroke-linejoin="round" stroke-linecap="butt" d="m467.61417 84.15092l0 212.50394" fill-rule="evenodd"/><path fill="#000000" stroke="#000000" stroke-width="2.0" stroke-linecap="butt" d="m464.3107 296.65485l3.3034668 9.076202l3.3034668 -9.076202z" fill-rule="evenodd"/><path fill="#000000" fill-opacity="0.0" d="m420.38846 182.95932l0 125.700775" fill-rule="evenodd"/><path stroke="#000000" stroke-width="2.0" stroke-linejoin="round" stroke-linecap="butt" d="m420.38846 182.95932l0 113.700775" fill-rule="evenodd"/><path fill="#000000" stroke="#000000" stroke-width="2.0" stroke-linecap="butt" d="m417.085 296.6601l3.3034668 9.076202l3.3034668 -9.076202z" fill-rule="evenodd"/><path fill="#000000" fill-opacity="0.0" d="m372.0735 281.76773l0 26.897614" fill-rule="evenodd"/><path stroke="#000000" stroke-width="2.0" stroke-linejoin="round" stroke-linecap="butt" d="m372.0735 281.76773l0 14.897614" fill-rule="evenodd"/><path fill="#000000" stroke="#000000" stroke-width="2.0" stroke-linecap="butt" d="m368.77002 296.66534l3.3034668 9.076202l3.3034668 -9.076202z" fill-rule="evenodd"/></g></svg>